%TF.GenerationSoftware,KiCad,Pcbnew,8.0.1*%
%TF.CreationDate,2024-03-27T15:45:16+09:00*%
%TF.ProjectId,STEP200-switch-id-shield,53544550-3230-4302-9d73-77697463682d,rev?*%
%TF.SameCoordinates,Original*%
%TF.FileFunction,Legend,Bot*%
%TF.FilePolarity,Positive*%
%FSLAX46Y46*%
G04 Gerber Fmt 4.6, Leading zero omitted, Abs format (unit mm)*
G04 Created by KiCad (PCBNEW 8.0.1) date 2024-03-27 15:45:16*
%MOMM*%
%LPD*%
G01*
G04 APERTURE LIST*
%ADD10C,0.200000*%
%ADD11C,0.150000*%
%ADD12C,0.120000*%
G04 APERTURE END LIST*
D10*
G36*
X140970000Y-126228000D02*
G01*
X140711200Y-126228000D01*
X140611549Y-125946632D01*
X140128241Y-125946632D01*
X140022728Y-126228000D01*
X139757480Y-126228000D01*
X139951038Y-125740295D01*
X140206789Y-125740295D01*
X140536517Y-125740295D01*
X140373265Y-125308865D01*
X140206789Y-125740295D01*
X139951038Y-125740295D01*
X140241374Y-125008739D01*
X140499295Y-125008739D01*
X140970000Y-126228000D01*
G37*
G36*
X139347370Y-125011766D02*
G01*
X139405952Y-125023389D01*
X139467421Y-125047967D01*
X139521484Y-125084409D01*
X139568143Y-125132717D01*
X139602340Y-125184474D01*
X139630740Y-125245591D01*
X139649287Y-125301224D01*
X139664125Y-125362846D01*
X139675253Y-125430459D01*
X139682672Y-125504061D01*
X139685802Y-125563194D01*
X139686845Y-125625697D01*
X139686740Y-125647306D01*
X139685160Y-125709635D01*
X139680104Y-125786915D01*
X139671678Y-125857537D01*
X139659881Y-125921499D01*
X139640395Y-125992089D01*
X139615642Y-126052274D01*
X139578988Y-126110763D01*
X139565202Y-126127231D01*
X139520644Y-126170260D01*
X139471285Y-126203728D01*
X139417123Y-126227633D01*
X139358160Y-126241976D01*
X139294396Y-126246757D01*
X139241506Y-126243731D01*
X139183007Y-126232108D01*
X139121608Y-126207530D01*
X139067586Y-126171087D01*
X139020942Y-126122780D01*
X138986745Y-126070979D01*
X138958345Y-126009733D01*
X138939798Y-125953936D01*
X138924960Y-125892094D01*
X138913832Y-125824207D01*
X138906413Y-125750274D01*
X138903283Y-125690858D01*
X138902240Y-125628041D01*
X139144333Y-125628041D01*
X139144709Y-125677821D01*
X139146680Y-125745450D01*
X139150341Y-125804629D01*
X139156749Y-125862992D01*
X139168367Y-125921133D01*
X139183919Y-125965701D01*
X139219364Y-126014336D01*
X139236474Y-126025748D01*
X139294396Y-126040421D01*
X139314784Y-126038827D01*
X139369134Y-126014922D01*
X139402210Y-125969677D01*
X139423063Y-125912047D01*
X139430334Y-125878487D01*
X139437689Y-125819603D01*
X139441930Y-125754826D01*
X139443936Y-125689457D01*
X139444459Y-125628041D01*
X139444083Y-125578317D01*
X139442112Y-125510702D01*
X139438450Y-125451454D01*
X139432043Y-125392906D01*
X139420425Y-125334364D01*
X139404873Y-125289796D01*
X139369427Y-125241161D01*
X139352318Y-125229748D01*
X139294396Y-125215076D01*
X139274026Y-125216706D01*
X139219951Y-125241161D01*
X139186638Y-125286735D01*
X139165729Y-125344622D01*
X139158458Y-125378072D01*
X139151103Y-125436810D01*
X139146861Y-125501458D01*
X139144855Y-125566717D01*
X139144333Y-125628041D01*
X138902240Y-125628041D01*
X138902700Y-125585722D01*
X138905116Y-125525110D01*
X138911560Y-125449648D01*
X138921685Y-125380305D01*
X138935492Y-125317079D01*
X138957929Y-125246652D01*
X138986119Y-125185784D01*
X139020062Y-125134475D01*
X139059891Y-125091745D01*
X139113129Y-125053066D01*
X139173661Y-125026421D01*
X139231349Y-125013160D01*
X139294396Y-125008739D01*
X139347370Y-125011766D01*
G37*
G36*
X158065045Y-128317811D02*
G01*
X158065045Y-128111475D01*
X157538946Y-128111475D01*
X157538946Y-128601524D01*
X157587565Y-128641513D01*
X157639891Y-128674724D01*
X157692709Y-128701981D01*
X157752090Y-128727554D01*
X157761109Y-128731070D01*
X157824892Y-128752768D01*
X157889040Y-128769138D01*
X157953552Y-128780177D01*
X158018430Y-128785887D01*
X158055666Y-128786757D01*
X158125067Y-128783944D01*
X158191047Y-128775505D01*
X158253606Y-128761440D01*
X158312744Y-128741750D01*
X158368461Y-128716433D01*
X158386273Y-128706743D01*
X158436677Y-128674327D01*
X158482155Y-128637088D01*
X158528988Y-128587548D01*
X158563795Y-128539862D01*
X158593677Y-128487352D01*
X158598178Y-128478132D01*
X158622283Y-128421381D01*
X158641400Y-128362796D01*
X158655530Y-128302377D01*
X158664673Y-128240124D01*
X158668829Y-128176036D01*
X158669106Y-128154266D01*
X158666324Y-128084539D01*
X158657978Y-128017800D01*
X158644068Y-127954049D01*
X158624593Y-127893286D01*
X158599554Y-127835512D01*
X158589972Y-127816918D01*
X158557720Y-127763945D01*
X158520317Y-127715815D01*
X158477761Y-127672528D01*
X158430054Y-127634084D01*
X158377194Y-127600482D01*
X158358429Y-127590358D01*
X158296715Y-127563943D01*
X158236915Y-127547021D01*
X158171702Y-127535878D01*
X158111495Y-127530925D01*
X158069148Y-127529981D01*
X158001218Y-127532414D01*
X157938110Y-127539713D01*
X157879825Y-127551877D01*
X157816249Y-127572897D01*
X157759619Y-127600924D01*
X157717732Y-127629632D01*
X157673424Y-127669681D01*
X157635464Y-127715087D01*
X157603852Y-127765851D01*
X157578586Y-127821974D01*
X157559668Y-127883454D01*
X157554773Y-127905138D01*
X157797159Y-127942654D01*
X157817504Y-127886858D01*
X157850065Y-127834540D01*
X157893293Y-127791712D01*
X157945809Y-127760174D01*
X158006637Y-127741727D01*
X158069148Y-127736318D01*
X158136019Y-127741240D01*
X158196606Y-127756009D01*
X158250911Y-127780622D01*
X158298932Y-127815081D01*
X158323551Y-127839193D01*
X158360325Y-127888855D01*
X158388066Y-127948082D01*
X158404655Y-128006461D01*
X158414609Y-128071867D01*
X158417835Y-128131741D01*
X158417927Y-128144301D01*
X158415594Y-128209783D01*
X158408596Y-128269941D01*
X158394040Y-128335103D01*
X158372766Y-128392600D01*
X158339455Y-128449990D01*
X158322379Y-128471391D01*
X158277616Y-128513874D01*
X158227186Y-128545923D01*
X158171091Y-128567538D01*
X158109329Y-128578717D01*
X158071493Y-128580421D01*
X158009242Y-128575342D01*
X157951609Y-128561638D01*
X157917913Y-128549646D01*
X157863151Y-128524711D01*
X157810708Y-128493511D01*
X157785436Y-128474908D01*
X157785436Y-128317811D01*
X158065045Y-128317811D01*
G37*
G36*
X157318541Y-128768000D02*
G01*
X157318541Y-127548739D01*
X157081137Y-127548739D01*
X156586692Y-128372619D01*
X156586692Y-127548739D01*
X156360132Y-127548739D01*
X156360132Y-128768000D01*
X156604863Y-128768000D01*
X157091981Y-127956429D01*
X157091981Y-128768000D01*
X157318541Y-128768000D01*
G37*
G36*
X156109832Y-128768000D02*
G01*
X155650558Y-128768000D01*
X155617626Y-128767596D01*
X155556846Y-128764372D01*
X155496571Y-128756892D01*
X155434549Y-128742207D01*
X155421240Y-128737740D01*
X155365627Y-128714973D01*
X155312046Y-128684565D01*
X155263091Y-128644901D01*
X155257872Y-128639704D01*
X155218858Y-128594564D01*
X155184718Y-128543085D01*
X155155450Y-128485268D01*
X155133838Y-128429479D01*
X155129330Y-128415689D01*
X155114208Y-128357299D01*
X155103740Y-128293744D01*
X155098396Y-128233896D01*
X155096615Y-128170093D01*
X155096783Y-128158662D01*
X155348967Y-128158662D01*
X155349356Y-128193055D01*
X155352470Y-128256289D01*
X155359696Y-128318582D01*
X155373879Y-128381998D01*
X155378624Y-128396926D01*
X155402163Y-128452267D01*
X155437773Y-128499528D01*
X155478762Y-128528267D01*
X155535959Y-128549939D01*
X155558555Y-128554508D01*
X155620072Y-128560278D01*
X155683677Y-128561663D01*
X155865687Y-128561663D01*
X155865687Y-127755076D01*
X155756071Y-127755076D01*
X155746843Y-127755087D01*
X155679922Y-127756003D01*
X155619306Y-127758785D01*
X155555889Y-127766799D01*
X155551627Y-127767760D01*
X155493387Y-127788635D01*
X155443049Y-127824245D01*
X155432223Y-127835318D01*
X155397172Y-127886143D01*
X155373879Y-127942068D01*
X155366702Y-127967294D01*
X155355998Y-128027321D01*
X155350524Y-128092259D01*
X155348967Y-128158662D01*
X155096783Y-128158662D01*
X155097233Y-128128085D01*
X155100479Y-128068284D01*
X155107782Y-128003387D01*
X155118872Y-127943735D01*
X155136182Y-127881984D01*
X155149434Y-127846327D01*
X155177760Y-127786615D01*
X155211835Y-127732653D01*
X155251660Y-127684441D01*
X155276119Y-127660364D01*
X155323860Y-127623084D01*
X155376377Y-127593594D01*
X155433670Y-127571893D01*
X155477725Y-127561763D01*
X155538017Y-127553827D01*
X155601146Y-127549847D01*
X155663747Y-127548739D01*
X156109832Y-127548739D01*
X156109832Y-128768000D01*
G37*
G36*
X140970000Y-107178000D02*
G01*
X140711200Y-107178000D01*
X140611549Y-106896632D01*
X140128241Y-106896632D01*
X140022728Y-107178000D01*
X139757480Y-107178000D01*
X139951038Y-106690295D01*
X140206789Y-106690295D01*
X140536517Y-106690295D01*
X140373265Y-106258865D01*
X140206789Y-106690295D01*
X139951038Y-106690295D01*
X140241374Y-105958739D01*
X140499295Y-105958739D01*
X140970000Y-107178000D01*
G37*
G36*
X139093335Y-107178000D02*
G01*
X139324877Y-107178000D01*
X139324877Y-106295794D01*
X139374065Y-106341166D01*
X139426447Y-106381881D01*
X139482024Y-106417938D01*
X139540794Y-106449338D01*
X139602759Y-106476080D01*
X139624124Y-106483959D01*
X139624124Y-106258865D01*
X139565975Y-106235635D01*
X139510998Y-106206016D01*
X139460027Y-106172759D01*
X139427166Y-106148662D01*
X139378147Y-106106237D01*
X139337480Y-106060442D01*
X139305167Y-106011276D01*
X139281207Y-105958739D01*
X139093335Y-105958739D01*
X139093335Y-107178000D01*
G37*
G36*
X158626315Y-107178000D02*
G01*
X158626315Y-105958739D01*
X158382463Y-105958739D01*
X158382463Y-106446443D01*
X157904138Y-106446443D01*
X157904138Y-105958739D01*
X157660286Y-105958739D01*
X157660286Y-107178000D01*
X157904138Y-107178000D01*
X157904138Y-106652780D01*
X158382463Y-106652780D01*
X158382463Y-107178000D01*
X158626315Y-107178000D01*
G37*
G36*
X156898370Y-105940169D02*
G01*
X156960290Y-105943784D01*
X157018928Y-105951998D01*
X157081925Y-105967019D01*
X157140635Y-105988048D01*
X157145916Y-105990320D01*
X157202307Y-106020224D01*
X157250868Y-106055224D01*
X157296852Y-106097665D01*
X157305638Y-106106936D01*
X157346064Y-106155559D01*
X157380651Y-106207961D01*
X157409399Y-106264140D01*
X157430869Y-106322125D01*
X157447066Y-106385804D01*
X157456752Y-106444918D01*
X157462563Y-106508216D01*
X157464501Y-106575697D01*
X157464345Y-106593710D01*
X157460615Y-106663331D01*
X157451912Y-106729059D01*
X157438235Y-106790894D01*
X157419585Y-106848837D01*
X157389278Y-106915791D01*
X157351200Y-106976664D01*
X157305352Y-107031454D01*
X157252920Y-107079075D01*
X157195093Y-107118626D01*
X157131871Y-107150104D01*
X157063254Y-107173512D01*
X157004475Y-107186426D01*
X156942244Y-107194174D01*
X156876559Y-107196757D01*
X156811699Y-107194161D01*
X156750182Y-107186371D01*
X156692008Y-107173388D01*
X156623991Y-107149856D01*
X156561199Y-107118210D01*
X156503629Y-107078449D01*
X156451284Y-107030575D01*
X156432012Y-107009301D01*
X156389272Y-106951741D01*
X156354302Y-106887926D01*
X156331922Y-106832371D01*
X156314515Y-106772814D01*
X156302082Y-106709255D01*
X156294622Y-106641693D01*
X156292135Y-106570128D01*
X156292235Y-106564266D01*
X156544487Y-106564266D01*
X156544578Y-106577480D01*
X156547774Y-106640430D01*
X156557634Y-106709113D01*
X156574069Y-106770315D01*
X156601552Y-106832263D01*
X156637983Y-106884029D01*
X156649875Y-106896912D01*
X156694724Y-106935459D01*
X156752129Y-106967044D01*
X156816092Y-106985330D01*
X156877438Y-106990421D01*
X156895484Y-106990002D01*
X156955507Y-106981936D01*
X157018127Y-106960146D01*
X157074374Y-106924948D01*
X157118360Y-106883150D01*
X157129823Y-106869311D01*
X157164122Y-106814692D01*
X157186310Y-106760219D01*
X157201842Y-106698676D01*
X157210717Y-106630065D01*
X157213028Y-106567490D01*
X157212938Y-106554387D01*
X157209782Y-106491986D01*
X157200045Y-106423962D01*
X157183816Y-106363419D01*
X157156678Y-106302241D01*
X157120704Y-106251244D01*
X157108935Y-106238538D01*
X157057278Y-106195912D01*
X156998293Y-106166401D01*
X156940671Y-106151339D01*
X156877438Y-106146318D01*
X156858840Y-106146723D01*
X156797405Y-106154525D01*
X156734166Y-106175600D01*
X156678364Y-106209644D01*
X156635638Y-106250072D01*
X156630030Y-106256643D01*
X156595759Y-106308507D01*
X156570212Y-106370637D01*
X156555257Y-106432063D01*
X156546712Y-106501031D01*
X156544487Y-106564266D01*
X156292235Y-106564266D01*
X156292761Y-106533525D01*
X156297771Y-106463375D01*
X156307791Y-106397301D01*
X156322821Y-106335303D01*
X156342861Y-106277381D01*
X156367912Y-106223535D01*
X156406270Y-106161958D01*
X156452456Y-106106750D01*
X156505168Y-106058707D01*
X156563104Y-106018806D01*
X156626263Y-105987048D01*
X156694646Y-105963433D01*
X156753113Y-105950404D01*
X156814923Y-105942587D01*
X156880076Y-105939981D01*
X156898370Y-105940169D01*
G37*
G36*
X156112177Y-107178000D02*
G01*
X156112177Y-105958739D01*
X155746985Y-105958739D01*
X155527752Y-106790533D01*
X155310865Y-105958739D01*
X154945087Y-105958739D01*
X154945087Y-107178000D01*
X155171646Y-107178000D01*
X155171646Y-106218125D01*
X155411688Y-107178000D01*
X155646454Y-107178000D01*
X155885617Y-106218125D01*
X155885617Y-107178000D01*
X156112177Y-107178000D01*
G37*
G36*
X154710321Y-107178000D02*
G01*
X154710321Y-105958739D01*
X153814340Y-105958739D01*
X153814340Y-106165076D01*
X154466175Y-106165076D01*
X154466175Y-106427685D01*
X153859476Y-106427685D01*
X153859476Y-106634022D01*
X154466175Y-106634022D01*
X154466175Y-106971663D01*
X153791186Y-106971663D01*
X153791186Y-107178000D01*
X154710321Y-107178000D01*
G37*
G36*
X153729050Y-107515641D02*
G01*
X153729050Y-107365578D01*
X152766245Y-107365578D01*
X152766245Y-107515641D01*
X153729050Y-107515641D01*
G37*
G36*
X152368738Y-105961766D02*
G01*
X152427319Y-105973389D01*
X152488788Y-105997967D01*
X152542852Y-106034409D01*
X152589511Y-106082717D01*
X152623707Y-106134474D01*
X152652108Y-106195591D01*
X152670655Y-106251224D01*
X152685493Y-106312846D01*
X152696621Y-106380459D01*
X152704040Y-106454061D01*
X152707170Y-106513194D01*
X152708213Y-106575697D01*
X152708108Y-106597306D01*
X152706528Y-106659635D01*
X152701472Y-106736915D01*
X152693046Y-106807537D01*
X152681249Y-106871499D01*
X152661763Y-106942089D01*
X152637010Y-107002274D01*
X152600355Y-107060763D01*
X152586570Y-107077231D01*
X152542012Y-107120260D01*
X152492652Y-107153728D01*
X152438491Y-107177633D01*
X152379528Y-107191976D01*
X152315764Y-107196757D01*
X152262874Y-107193731D01*
X152204375Y-107182108D01*
X152142976Y-107157530D01*
X152088954Y-107121087D01*
X152042309Y-107072780D01*
X152008113Y-107020979D01*
X151979713Y-106959733D01*
X151961165Y-106903936D01*
X151946328Y-106842094D01*
X151935199Y-106774207D01*
X151927780Y-106700274D01*
X151924651Y-106640858D01*
X151923607Y-106578041D01*
X152165701Y-106578041D01*
X152166076Y-106627821D01*
X152168048Y-106695450D01*
X152171709Y-106754629D01*
X152178117Y-106812992D01*
X152189734Y-106871133D01*
X152205286Y-106915701D01*
X152240732Y-106964336D01*
X152257841Y-106975748D01*
X152315764Y-106990421D01*
X152336152Y-106988827D01*
X152390502Y-106964922D01*
X152423578Y-106919677D01*
X152444431Y-106862047D01*
X152451702Y-106828487D01*
X152459057Y-106769603D01*
X152463298Y-106704826D01*
X152465304Y-106639457D01*
X152465826Y-106578041D01*
X152465451Y-106528317D01*
X152463479Y-106460702D01*
X152459818Y-106401454D01*
X152453411Y-106342906D01*
X152441793Y-106284364D01*
X152426241Y-106239796D01*
X152390795Y-106191161D01*
X152373686Y-106179748D01*
X152315764Y-106165076D01*
X152295394Y-106166706D01*
X152241318Y-106191161D01*
X152208006Y-106236735D01*
X152187096Y-106294622D01*
X152179825Y-106328072D01*
X152172471Y-106386810D01*
X152168229Y-106451458D01*
X152166223Y-106516717D01*
X152165701Y-106578041D01*
X151923607Y-106578041D01*
X151924068Y-106535722D01*
X151926484Y-106475110D01*
X151932927Y-106399648D01*
X151943053Y-106330305D01*
X151956860Y-106267079D01*
X151979297Y-106196652D01*
X152007487Y-106135784D01*
X152041430Y-106084475D01*
X152081258Y-106041745D01*
X152134497Y-106003066D01*
X152195028Y-105976421D01*
X152252717Y-105963160D01*
X152315764Y-105958739D01*
X152368738Y-105961766D01*
G37*
G36*
X140285045Y-109267811D02*
G01*
X140285045Y-109061475D01*
X139758946Y-109061475D01*
X139758946Y-109551524D01*
X139807565Y-109591513D01*
X139859891Y-109624724D01*
X139912709Y-109651981D01*
X139972090Y-109677554D01*
X139981109Y-109681070D01*
X140044892Y-109702768D01*
X140109040Y-109719138D01*
X140173552Y-109730177D01*
X140238430Y-109735887D01*
X140275666Y-109736757D01*
X140345067Y-109733944D01*
X140411047Y-109725505D01*
X140473606Y-109711440D01*
X140532744Y-109691750D01*
X140588461Y-109666433D01*
X140606273Y-109656743D01*
X140656677Y-109624327D01*
X140702155Y-109587088D01*
X140748988Y-109537548D01*
X140783795Y-109489862D01*
X140813677Y-109437352D01*
X140818178Y-109428132D01*
X140842283Y-109371381D01*
X140861400Y-109312796D01*
X140875530Y-109252377D01*
X140884673Y-109190124D01*
X140888829Y-109126036D01*
X140889106Y-109104266D01*
X140886324Y-109034539D01*
X140877978Y-108967800D01*
X140864068Y-108904049D01*
X140844593Y-108843286D01*
X140819554Y-108785512D01*
X140809972Y-108766918D01*
X140777720Y-108713945D01*
X140740317Y-108665815D01*
X140697761Y-108622528D01*
X140650054Y-108584084D01*
X140597194Y-108550482D01*
X140578429Y-108540358D01*
X140516715Y-108513943D01*
X140456915Y-108497021D01*
X140391702Y-108485878D01*
X140331495Y-108480925D01*
X140289148Y-108479981D01*
X140221218Y-108482414D01*
X140158110Y-108489713D01*
X140099825Y-108501877D01*
X140036249Y-108522897D01*
X139979619Y-108550924D01*
X139937732Y-108579632D01*
X139893424Y-108619681D01*
X139855464Y-108665087D01*
X139823852Y-108715851D01*
X139798586Y-108771974D01*
X139779668Y-108833454D01*
X139774773Y-108855138D01*
X140017159Y-108892654D01*
X140037504Y-108836858D01*
X140070065Y-108784540D01*
X140113293Y-108741712D01*
X140165809Y-108710174D01*
X140226637Y-108691727D01*
X140289148Y-108686318D01*
X140356019Y-108691240D01*
X140416606Y-108706009D01*
X140470911Y-108730622D01*
X140518932Y-108765081D01*
X140543551Y-108789193D01*
X140580325Y-108838855D01*
X140608066Y-108898082D01*
X140624655Y-108956461D01*
X140634609Y-109021867D01*
X140637835Y-109081741D01*
X140637927Y-109094301D01*
X140635594Y-109159783D01*
X140628596Y-109219941D01*
X140614040Y-109285103D01*
X140592766Y-109342600D01*
X140559455Y-109399990D01*
X140542379Y-109421391D01*
X140497616Y-109463874D01*
X140447186Y-109495923D01*
X140391091Y-109517538D01*
X140329329Y-109528717D01*
X140291493Y-109530421D01*
X140229242Y-109525342D01*
X140171609Y-109511638D01*
X140137913Y-109499646D01*
X140083151Y-109474711D01*
X140030708Y-109443511D01*
X140005436Y-109424908D01*
X140005436Y-109267811D01*
X140285045Y-109267811D01*
G37*
G36*
X139538541Y-109718000D02*
G01*
X139538541Y-108498739D01*
X139301137Y-108498739D01*
X138806692Y-109322619D01*
X138806692Y-108498739D01*
X138580132Y-108498739D01*
X138580132Y-109718000D01*
X138824863Y-109718000D01*
X139311981Y-108906429D01*
X139311981Y-109718000D01*
X139538541Y-109718000D01*
G37*
G36*
X138329832Y-109718000D02*
G01*
X137870558Y-109718000D01*
X137837626Y-109717596D01*
X137776846Y-109714372D01*
X137716571Y-109706892D01*
X137654549Y-109692207D01*
X137641240Y-109687740D01*
X137585627Y-109664973D01*
X137532046Y-109634565D01*
X137483091Y-109594901D01*
X137477872Y-109589704D01*
X137438858Y-109544564D01*
X137404718Y-109493085D01*
X137375450Y-109435268D01*
X137353838Y-109379479D01*
X137349330Y-109365689D01*
X137334208Y-109307299D01*
X137323740Y-109243744D01*
X137318396Y-109183896D01*
X137316615Y-109120093D01*
X137316783Y-109108662D01*
X137568967Y-109108662D01*
X137569356Y-109143055D01*
X137572470Y-109206289D01*
X137579696Y-109268582D01*
X137593879Y-109331998D01*
X137598624Y-109346926D01*
X137622163Y-109402267D01*
X137657773Y-109449528D01*
X137698762Y-109478267D01*
X137755959Y-109499939D01*
X137778555Y-109504508D01*
X137840072Y-109510278D01*
X137903677Y-109511663D01*
X138085687Y-109511663D01*
X138085687Y-108705076D01*
X137976071Y-108705076D01*
X137966843Y-108705087D01*
X137899922Y-108706003D01*
X137839306Y-108708785D01*
X137775889Y-108716799D01*
X137771627Y-108717760D01*
X137713387Y-108738635D01*
X137663049Y-108774245D01*
X137652223Y-108785318D01*
X137617172Y-108836143D01*
X137593879Y-108892068D01*
X137586702Y-108917294D01*
X137575998Y-108977321D01*
X137570524Y-109042259D01*
X137568967Y-109108662D01*
X137316783Y-109108662D01*
X137317233Y-109078085D01*
X137320479Y-109018284D01*
X137327782Y-108953387D01*
X137338872Y-108893735D01*
X137356182Y-108831984D01*
X137369434Y-108796327D01*
X137397760Y-108736615D01*
X137431835Y-108682653D01*
X137471660Y-108634441D01*
X137496119Y-108610364D01*
X137543860Y-108573084D01*
X137596377Y-108543594D01*
X137653670Y-108521893D01*
X137697725Y-108511763D01*
X137758017Y-108503827D01*
X137821146Y-108499847D01*
X137883747Y-108498739D01*
X138329832Y-108498739D01*
X138329832Y-109718000D01*
G37*
G36*
X140285045Y-128317811D02*
G01*
X140285045Y-128111475D01*
X139758946Y-128111475D01*
X139758946Y-128601524D01*
X139807565Y-128641513D01*
X139859891Y-128674724D01*
X139912709Y-128701981D01*
X139972090Y-128727554D01*
X139981109Y-128731070D01*
X140044892Y-128752768D01*
X140109040Y-128769138D01*
X140173552Y-128780177D01*
X140238430Y-128785887D01*
X140275666Y-128786757D01*
X140345067Y-128783944D01*
X140411047Y-128775505D01*
X140473606Y-128761440D01*
X140532744Y-128741750D01*
X140588461Y-128716433D01*
X140606273Y-128706743D01*
X140656677Y-128674327D01*
X140702155Y-128637088D01*
X140748988Y-128587548D01*
X140783795Y-128539862D01*
X140813677Y-128487352D01*
X140818178Y-128478132D01*
X140842283Y-128421381D01*
X140861400Y-128362796D01*
X140875530Y-128302377D01*
X140884673Y-128240124D01*
X140888829Y-128176036D01*
X140889106Y-128154266D01*
X140886324Y-128084539D01*
X140877978Y-128017800D01*
X140864068Y-127954049D01*
X140844593Y-127893286D01*
X140819554Y-127835512D01*
X140809972Y-127816918D01*
X140777720Y-127763945D01*
X140740317Y-127715815D01*
X140697761Y-127672528D01*
X140650054Y-127634084D01*
X140597194Y-127600482D01*
X140578429Y-127590358D01*
X140516715Y-127563943D01*
X140456915Y-127547021D01*
X140391702Y-127535878D01*
X140331495Y-127530925D01*
X140289148Y-127529981D01*
X140221218Y-127532414D01*
X140158110Y-127539713D01*
X140099825Y-127551877D01*
X140036249Y-127572897D01*
X139979619Y-127600924D01*
X139937732Y-127629632D01*
X139893424Y-127669681D01*
X139855464Y-127715087D01*
X139823852Y-127765851D01*
X139798586Y-127821974D01*
X139779668Y-127883454D01*
X139774773Y-127905138D01*
X140017159Y-127942654D01*
X140037504Y-127886858D01*
X140070065Y-127834540D01*
X140113293Y-127791712D01*
X140165809Y-127760174D01*
X140226637Y-127741727D01*
X140289148Y-127736318D01*
X140356019Y-127741240D01*
X140416606Y-127756009D01*
X140470911Y-127780622D01*
X140518932Y-127815081D01*
X140543551Y-127839193D01*
X140580325Y-127888855D01*
X140608066Y-127948082D01*
X140624655Y-128006461D01*
X140634609Y-128071867D01*
X140637835Y-128131741D01*
X140637927Y-128144301D01*
X140635594Y-128209783D01*
X140628596Y-128269941D01*
X140614040Y-128335103D01*
X140592766Y-128392600D01*
X140559455Y-128449990D01*
X140542379Y-128471391D01*
X140497616Y-128513874D01*
X140447186Y-128545923D01*
X140391091Y-128567538D01*
X140329329Y-128578717D01*
X140291493Y-128580421D01*
X140229242Y-128575342D01*
X140171609Y-128561638D01*
X140137913Y-128549646D01*
X140083151Y-128524711D01*
X140030708Y-128493511D01*
X140005436Y-128474908D01*
X140005436Y-128317811D01*
X140285045Y-128317811D01*
G37*
G36*
X139538541Y-128768000D02*
G01*
X139538541Y-127548739D01*
X139301137Y-127548739D01*
X138806692Y-128372619D01*
X138806692Y-127548739D01*
X138580132Y-127548739D01*
X138580132Y-128768000D01*
X138824863Y-128768000D01*
X139311981Y-127956429D01*
X139311981Y-128768000D01*
X139538541Y-128768000D01*
G37*
G36*
X138329832Y-128768000D02*
G01*
X137870558Y-128768000D01*
X137837626Y-128767596D01*
X137776846Y-128764372D01*
X137716571Y-128756892D01*
X137654549Y-128742207D01*
X137641240Y-128737740D01*
X137585627Y-128714973D01*
X137532046Y-128684565D01*
X137483091Y-128644901D01*
X137477872Y-128639704D01*
X137438858Y-128594564D01*
X137404718Y-128543085D01*
X137375450Y-128485268D01*
X137353838Y-128429479D01*
X137349330Y-128415689D01*
X137334208Y-128357299D01*
X137323740Y-128293744D01*
X137318396Y-128233896D01*
X137316615Y-128170093D01*
X137316783Y-128158662D01*
X137568967Y-128158662D01*
X137569356Y-128193055D01*
X137572470Y-128256289D01*
X137579696Y-128318582D01*
X137593879Y-128381998D01*
X137598624Y-128396926D01*
X137622163Y-128452267D01*
X137657773Y-128499528D01*
X137698762Y-128528267D01*
X137755959Y-128549939D01*
X137778555Y-128554508D01*
X137840072Y-128560278D01*
X137903677Y-128561663D01*
X138085687Y-128561663D01*
X138085687Y-127755076D01*
X137976071Y-127755076D01*
X137966843Y-127755087D01*
X137899922Y-127756003D01*
X137839306Y-127758785D01*
X137775889Y-127766799D01*
X137771627Y-127767760D01*
X137713387Y-127788635D01*
X137663049Y-127824245D01*
X137652223Y-127835318D01*
X137617172Y-127886143D01*
X137593879Y-127942068D01*
X137586702Y-127967294D01*
X137575998Y-128027321D01*
X137570524Y-128092259D01*
X137568967Y-128158662D01*
X137316783Y-128158662D01*
X137317233Y-128128085D01*
X137320479Y-128068284D01*
X137327782Y-128003387D01*
X137338872Y-127943735D01*
X137356182Y-127881984D01*
X137369434Y-127846327D01*
X137397760Y-127786615D01*
X137431835Y-127732653D01*
X137471660Y-127684441D01*
X137496119Y-127660364D01*
X137543860Y-127623084D01*
X137596377Y-127593594D01*
X137653670Y-127571893D01*
X137697725Y-127561763D01*
X137758017Y-127553827D01*
X137821146Y-127549847D01*
X137883747Y-127548739D01*
X138329832Y-127548739D01*
X138329832Y-128768000D01*
G37*
G36*
X158686399Y-123341859D02*
G01*
X158462184Y-123312842D01*
X158450468Y-123370453D01*
X158425639Y-123425500D01*
X158404445Y-123452354D01*
X158356102Y-123486855D01*
X158299001Y-123500233D01*
X158290725Y-123500421D01*
X158232470Y-123489930D01*
X158182854Y-123458459D01*
X158170265Y-123445613D01*
X158138384Y-123394745D01*
X158123382Y-123336541D01*
X158121025Y-123297602D01*
X158127661Y-123236767D01*
X158149826Y-123182397D01*
X158168213Y-123158090D01*
X158216685Y-123121065D01*
X158274172Y-123106708D01*
X158282519Y-123106506D01*
X158341518Y-123112602D01*
X158388911Y-123123799D01*
X158363412Y-122937685D01*
X158304029Y-122934380D01*
X158247513Y-122917792D01*
X158220090Y-122900756D01*
X158182941Y-122855034D01*
X158170558Y-122796415D01*
X158183370Y-122738591D01*
X158206901Y-122708195D01*
X158261466Y-122679733D01*
X158303328Y-122675076D01*
X158361435Y-122685912D01*
X158404738Y-122713471D01*
X158440005Y-122763963D01*
X158455736Y-122825138D01*
X158669106Y-122791433D01*
X158654791Y-122732025D01*
X158634699Y-122674391D01*
X158607506Y-122621177D01*
X158601988Y-122612647D01*
X158563369Y-122566348D01*
X158514775Y-122528127D01*
X158476838Y-122507134D01*
X158419175Y-122485275D01*
X158357009Y-122472489D01*
X158296587Y-122468739D01*
X158235000Y-122472480D01*
X158169165Y-122486298D01*
X158109810Y-122510299D01*
X158056934Y-122544481D01*
X158023133Y-122575131D01*
X157982046Y-122625904D01*
X157954405Y-122680294D01*
X157940211Y-122738300D01*
X157938136Y-122772089D01*
X157946453Y-122837162D01*
X157971403Y-122896205D01*
X158012987Y-122949217D01*
X158061869Y-122989856D01*
X158111939Y-123020337D01*
X158051157Y-123040150D01*
X157998504Y-123071010D01*
X157953979Y-123112919D01*
X157946050Y-123122626D01*
X157913128Y-123175320D01*
X157892400Y-123234482D01*
X157884170Y-123293258D01*
X157883621Y-123314015D01*
X157887712Y-123373435D01*
X157902825Y-123438486D01*
X157929073Y-123498937D01*
X157966458Y-123554788D01*
X157999979Y-123591866D01*
X158045512Y-123630911D01*
X158103713Y-123666253D01*
X158167384Y-123690601D01*
X158226313Y-123702718D01*
X158289260Y-123706757D01*
X158348741Y-123703213D01*
X158413188Y-123690118D01*
X158472305Y-123667373D01*
X158526092Y-123634980D01*
X158561249Y-123605934D01*
X158604103Y-123558736D01*
X158638289Y-123505620D01*
X158663809Y-123446585D01*
X158680660Y-123381632D01*
X158686399Y-123341859D01*
G37*
G36*
X157694577Y-123688000D02*
G01*
X157694577Y-123462905D01*
X157462742Y-123462905D01*
X157462742Y-123688000D01*
X157694577Y-123688000D01*
G37*
G36*
X157285422Y-123341859D02*
G01*
X157061207Y-123312842D01*
X157049491Y-123370453D01*
X157024662Y-123425500D01*
X157003468Y-123452354D01*
X156955125Y-123486855D01*
X156898024Y-123500233D01*
X156889748Y-123500421D01*
X156831493Y-123489930D01*
X156781877Y-123458459D01*
X156769288Y-123445613D01*
X156737407Y-123394745D01*
X156722405Y-123336541D01*
X156720048Y-123297602D01*
X156726684Y-123236767D01*
X156748849Y-123182397D01*
X156767236Y-123158090D01*
X156815708Y-123121065D01*
X156873195Y-123106708D01*
X156881542Y-123106506D01*
X156940541Y-123112602D01*
X156987934Y-123123799D01*
X156962435Y-122937685D01*
X156903052Y-122934380D01*
X156846536Y-122917792D01*
X156819113Y-122900756D01*
X156781964Y-122855034D01*
X156769581Y-122796415D01*
X156782393Y-122738591D01*
X156805924Y-122708195D01*
X156860490Y-122679733D01*
X156902351Y-122675076D01*
X156960458Y-122685912D01*
X157003761Y-122713471D01*
X157039028Y-122763963D01*
X157054759Y-122825138D01*
X157268129Y-122791433D01*
X157253814Y-122732025D01*
X157233722Y-122674391D01*
X157206529Y-122621177D01*
X157201011Y-122612647D01*
X157162392Y-122566348D01*
X157113798Y-122528127D01*
X157075861Y-122507134D01*
X157018198Y-122485275D01*
X156956032Y-122472489D01*
X156895610Y-122468739D01*
X156834023Y-122472480D01*
X156768188Y-122486298D01*
X156708833Y-122510299D01*
X156655957Y-122544481D01*
X156622156Y-122575131D01*
X156581069Y-122625904D01*
X156553428Y-122680294D01*
X156539234Y-122738300D01*
X156537159Y-122772089D01*
X156545476Y-122837162D01*
X156570426Y-122896205D01*
X156612010Y-122949217D01*
X156660892Y-122989856D01*
X156710963Y-123020337D01*
X156650180Y-123040150D01*
X156597527Y-123071010D01*
X156553002Y-123112919D01*
X156545073Y-123122626D01*
X156512152Y-123175320D01*
X156491423Y-123234482D01*
X156483193Y-123293258D01*
X156482644Y-123314015D01*
X156486735Y-123373435D01*
X156501848Y-123438486D01*
X156528096Y-123498937D01*
X156565481Y-123554788D01*
X156599002Y-123591866D01*
X156644535Y-123630911D01*
X156702736Y-123666253D01*
X156766407Y-123690601D01*
X156825336Y-123702718D01*
X156888283Y-123706757D01*
X156947764Y-123703213D01*
X157012211Y-123690118D01*
X157071328Y-123667373D01*
X157125115Y-123634980D01*
X157160272Y-123605934D01*
X157203126Y-123558736D01*
X157237312Y-123505620D01*
X157262832Y-123446585D01*
X157279684Y-123381632D01*
X157285422Y-123341859D01*
G37*
G36*
X155983510Y-123688000D02*
G01*
X156415526Y-122468739D01*
X156150865Y-122468739D01*
X155845170Y-123369116D01*
X155549148Y-122468739D01*
X155290348Y-122468739D01*
X155722951Y-123688000D01*
X155983510Y-123688000D01*
G37*
D11*
X199212200Y-112049160D02*
X199259819Y-112192017D01*
X199259819Y-112192017D02*
X199259819Y-112430112D01*
X199259819Y-112430112D02*
X199212200Y-112525350D01*
X199212200Y-112525350D02*
X199164580Y-112572969D01*
X199164580Y-112572969D02*
X199069342Y-112620588D01*
X199069342Y-112620588D02*
X198974104Y-112620588D01*
X198974104Y-112620588D02*
X198878866Y-112572969D01*
X198878866Y-112572969D02*
X198831247Y-112525350D01*
X198831247Y-112525350D02*
X198783628Y-112430112D01*
X198783628Y-112430112D02*
X198736009Y-112239636D01*
X198736009Y-112239636D02*
X198688390Y-112144398D01*
X198688390Y-112144398D02*
X198640771Y-112096779D01*
X198640771Y-112096779D02*
X198545533Y-112049160D01*
X198545533Y-112049160D02*
X198450295Y-112049160D01*
X198450295Y-112049160D02*
X198355057Y-112096779D01*
X198355057Y-112096779D02*
X198307438Y-112144398D01*
X198307438Y-112144398D02*
X198259819Y-112239636D01*
X198259819Y-112239636D02*
X198259819Y-112477731D01*
X198259819Y-112477731D02*
X198307438Y-112620588D01*
X199212200Y-113430112D02*
X199259819Y-113334874D01*
X199259819Y-113334874D02*
X199259819Y-113144398D01*
X199259819Y-113144398D02*
X199212200Y-113049160D01*
X199212200Y-113049160D02*
X199116961Y-113001541D01*
X199116961Y-113001541D02*
X198736009Y-113001541D01*
X198736009Y-113001541D02*
X198640771Y-113049160D01*
X198640771Y-113049160D02*
X198593152Y-113144398D01*
X198593152Y-113144398D02*
X198593152Y-113334874D01*
X198593152Y-113334874D02*
X198640771Y-113430112D01*
X198640771Y-113430112D02*
X198736009Y-113477731D01*
X198736009Y-113477731D02*
X198831247Y-113477731D01*
X198831247Y-113477731D02*
X198926485Y-113001541D01*
X198593152Y-113906303D02*
X199259819Y-113906303D01*
X198688390Y-113906303D02*
X198640771Y-113953922D01*
X198640771Y-113953922D02*
X198593152Y-114049160D01*
X198593152Y-114049160D02*
X198593152Y-114192017D01*
X198593152Y-114192017D02*
X198640771Y-114287255D01*
X198640771Y-114287255D02*
X198736009Y-114334874D01*
X198736009Y-114334874D02*
X199259819Y-114334874D01*
X199212200Y-114763446D02*
X199259819Y-114858684D01*
X199259819Y-114858684D02*
X199259819Y-115049160D01*
X199259819Y-115049160D02*
X199212200Y-115144398D01*
X199212200Y-115144398D02*
X199116961Y-115192017D01*
X199116961Y-115192017D02*
X199069342Y-115192017D01*
X199069342Y-115192017D02*
X198974104Y-115144398D01*
X198974104Y-115144398D02*
X198926485Y-115049160D01*
X198926485Y-115049160D02*
X198926485Y-114906303D01*
X198926485Y-114906303D02*
X198878866Y-114811065D01*
X198878866Y-114811065D02*
X198783628Y-114763446D01*
X198783628Y-114763446D02*
X198736009Y-114763446D01*
X198736009Y-114763446D02*
X198640771Y-114811065D01*
X198640771Y-114811065D02*
X198593152Y-114906303D01*
X198593152Y-114906303D02*
X198593152Y-115049160D01*
X198593152Y-115049160D02*
X198640771Y-115144398D01*
X199259819Y-115763446D02*
X199212200Y-115668208D01*
X199212200Y-115668208D02*
X199164580Y-115620589D01*
X199164580Y-115620589D02*
X199069342Y-115572970D01*
X199069342Y-115572970D02*
X198783628Y-115572970D01*
X198783628Y-115572970D02*
X198688390Y-115620589D01*
X198688390Y-115620589D02*
X198640771Y-115668208D01*
X198640771Y-115668208D02*
X198593152Y-115763446D01*
X198593152Y-115763446D02*
X198593152Y-115906303D01*
X198593152Y-115906303D02*
X198640771Y-116001541D01*
X198640771Y-116001541D02*
X198688390Y-116049160D01*
X198688390Y-116049160D02*
X198783628Y-116096779D01*
X198783628Y-116096779D02*
X199069342Y-116096779D01*
X199069342Y-116096779D02*
X199164580Y-116049160D01*
X199164580Y-116049160D02*
X199212200Y-116001541D01*
X199212200Y-116001541D02*
X199259819Y-115906303D01*
X199259819Y-115906303D02*
X199259819Y-115763446D01*
X199259819Y-116525351D02*
X198593152Y-116525351D01*
X198783628Y-116525351D02*
X198688390Y-116572970D01*
X198688390Y-116572970D02*
X198640771Y-116620589D01*
X198640771Y-116620589D02*
X198593152Y-116715827D01*
X198593152Y-116715827D02*
X198593152Y-116811065D01*
X199212200Y-117096780D02*
X199259819Y-117192018D01*
X199259819Y-117192018D02*
X199259819Y-117382494D01*
X199259819Y-117382494D02*
X199212200Y-117477732D01*
X199212200Y-117477732D02*
X199116961Y-117525351D01*
X199116961Y-117525351D02*
X199069342Y-117525351D01*
X199069342Y-117525351D02*
X198974104Y-117477732D01*
X198974104Y-117477732D02*
X198926485Y-117382494D01*
X198926485Y-117382494D02*
X198926485Y-117239637D01*
X198926485Y-117239637D02*
X198878866Y-117144399D01*
X198878866Y-117144399D02*
X198783628Y-117096780D01*
X198783628Y-117096780D02*
X198736009Y-117096780D01*
X198736009Y-117096780D02*
X198640771Y-117144399D01*
X198640771Y-117144399D02*
X198593152Y-117239637D01*
X198593152Y-117239637D02*
X198593152Y-117382494D01*
X198593152Y-117382494D02*
X198640771Y-117477732D01*
X198878866Y-118715828D02*
X198878866Y-119477733D01*
X199259819Y-119096780D02*
X198497914Y-119096780D01*
X199259819Y-120715828D02*
X198259819Y-120715828D01*
X199259819Y-121192018D02*
X198259819Y-121192018D01*
X198259819Y-121192018D02*
X198259819Y-121430113D01*
X198259819Y-121430113D02*
X198307438Y-121572970D01*
X198307438Y-121572970D02*
X198402676Y-121668208D01*
X198402676Y-121668208D02*
X198497914Y-121715827D01*
X198497914Y-121715827D02*
X198688390Y-121763446D01*
X198688390Y-121763446D02*
X198831247Y-121763446D01*
X198831247Y-121763446D02*
X199021723Y-121715827D01*
X199021723Y-121715827D02*
X199116961Y-121668208D01*
X199116961Y-121668208D02*
X199212200Y-121572970D01*
X199212200Y-121572970D02*
X199259819Y-121430113D01*
X199259819Y-121430113D02*
X199259819Y-121192018D01*
X199212200Y-122906304D02*
X199259819Y-123001542D01*
X199259819Y-123001542D02*
X199259819Y-123192018D01*
X199259819Y-123192018D02*
X199212200Y-123287256D01*
X199212200Y-123287256D02*
X199116961Y-123334875D01*
X199116961Y-123334875D02*
X199069342Y-123334875D01*
X199069342Y-123334875D02*
X198974104Y-123287256D01*
X198974104Y-123287256D02*
X198926485Y-123192018D01*
X198926485Y-123192018D02*
X198926485Y-123049161D01*
X198926485Y-123049161D02*
X198878866Y-122953923D01*
X198878866Y-122953923D02*
X198783628Y-122906304D01*
X198783628Y-122906304D02*
X198736009Y-122906304D01*
X198736009Y-122906304D02*
X198640771Y-122953923D01*
X198640771Y-122953923D02*
X198593152Y-123049161D01*
X198593152Y-123049161D02*
X198593152Y-123192018D01*
X198593152Y-123192018D02*
X198640771Y-123287256D01*
X198593152Y-123668209D02*
X199259819Y-123858685D01*
X199259819Y-123858685D02*
X198783628Y-124049161D01*
X198783628Y-124049161D02*
X199259819Y-124239637D01*
X199259819Y-124239637D02*
X198593152Y-124430113D01*
X199259819Y-124811066D02*
X198593152Y-124811066D01*
X198259819Y-124811066D02*
X198307438Y-124763447D01*
X198307438Y-124763447D02*
X198355057Y-124811066D01*
X198355057Y-124811066D02*
X198307438Y-124858685D01*
X198307438Y-124858685D02*
X198259819Y-124811066D01*
X198259819Y-124811066D02*
X198355057Y-124811066D01*
X198593152Y-125144399D02*
X198593152Y-125525351D01*
X198259819Y-125287256D02*
X199116961Y-125287256D01*
X199116961Y-125287256D02*
X199212200Y-125334875D01*
X199212200Y-125334875D02*
X199259819Y-125430113D01*
X199259819Y-125430113D02*
X199259819Y-125525351D01*
X199212200Y-126287256D02*
X199259819Y-126192018D01*
X199259819Y-126192018D02*
X199259819Y-126001542D01*
X199259819Y-126001542D02*
X199212200Y-125906304D01*
X199212200Y-125906304D02*
X199164580Y-125858685D01*
X199164580Y-125858685D02*
X199069342Y-125811066D01*
X199069342Y-125811066D02*
X198783628Y-125811066D01*
X198783628Y-125811066D02*
X198688390Y-125858685D01*
X198688390Y-125858685D02*
X198640771Y-125906304D01*
X198640771Y-125906304D02*
X198593152Y-126001542D01*
X198593152Y-126001542D02*
X198593152Y-126192018D01*
X198593152Y-126192018D02*
X198640771Y-126287256D01*
X199259819Y-126715828D02*
X198259819Y-126715828D01*
X199259819Y-127144399D02*
X198736009Y-127144399D01*
X198736009Y-127144399D02*
X198640771Y-127096780D01*
X198640771Y-127096780D02*
X198593152Y-127001542D01*
X198593152Y-127001542D02*
X198593152Y-126858685D01*
X198593152Y-126858685D02*
X198640771Y-126763447D01*
X198640771Y-126763447D02*
X198688390Y-126715828D01*
X199212200Y-128334876D02*
X199259819Y-128430114D01*
X199259819Y-128430114D02*
X199259819Y-128620590D01*
X199259819Y-128620590D02*
X199212200Y-128715828D01*
X199212200Y-128715828D02*
X199116961Y-128763447D01*
X199116961Y-128763447D02*
X199069342Y-128763447D01*
X199069342Y-128763447D02*
X198974104Y-128715828D01*
X198974104Y-128715828D02*
X198926485Y-128620590D01*
X198926485Y-128620590D02*
X198926485Y-128477733D01*
X198926485Y-128477733D02*
X198878866Y-128382495D01*
X198878866Y-128382495D02*
X198783628Y-128334876D01*
X198783628Y-128334876D02*
X198736009Y-128334876D01*
X198736009Y-128334876D02*
X198640771Y-128382495D01*
X198640771Y-128382495D02*
X198593152Y-128477733D01*
X198593152Y-128477733D02*
X198593152Y-128620590D01*
X198593152Y-128620590D02*
X198640771Y-128715828D01*
X199259819Y-129192019D02*
X198259819Y-129192019D01*
X199259819Y-129620590D02*
X198736009Y-129620590D01*
X198736009Y-129620590D02*
X198640771Y-129572971D01*
X198640771Y-129572971D02*
X198593152Y-129477733D01*
X198593152Y-129477733D02*
X198593152Y-129334876D01*
X198593152Y-129334876D02*
X198640771Y-129239638D01*
X198640771Y-129239638D02*
X198688390Y-129192019D01*
X199259819Y-130096781D02*
X198593152Y-130096781D01*
X198259819Y-130096781D02*
X198307438Y-130049162D01*
X198307438Y-130049162D02*
X198355057Y-130096781D01*
X198355057Y-130096781D02*
X198307438Y-130144400D01*
X198307438Y-130144400D02*
X198259819Y-130096781D01*
X198259819Y-130096781D02*
X198355057Y-130096781D01*
X199212200Y-130953923D02*
X199259819Y-130858685D01*
X199259819Y-130858685D02*
X199259819Y-130668209D01*
X199259819Y-130668209D02*
X199212200Y-130572971D01*
X199212200Y-130572971D02*
X199116961Y-130525352D01*
X199116961Y-130525352D02*
X198736009Y-130525352D01*
X198736009Y-130525352D02*
X198640771Y-130572971D01*
X198640771Y-130572971D02*
X198593152Y-130668209D01*
X198593152Y-130668209D02*
X198593152Y-130858685D01*
X198593152Y-130858685D02*
X198640771Y-130953923D01*
X198640771Y-130953923D02*
X198736009Y-131001542D01*
X198736009Y-131001542D02*
X198831247Y-131001542D01*
X198831247Y-131001542D02*
X198926485Y-130525352D01*
X199259819Y-131572971D02*
X199212200Y-131477733D01*
X199212200Y-131477733D02*
X199116961Y-131430114D01*
X199116961Y-131430114D02*
X198259819Y-131430114D01*
X199259819Y-132382495D02*
X198259819Y-132382495D01*
X199212200Y-132382495D02*
X199259819Y-132287257D01*
X199259819Y-132287257D02*
X199259819Y-132096781D01*
X199259819Y-132096781D02*
X199212200Y-132001543D01*
X199212200Y-132001543D02*
X199164580Y-131953924D01*
X199164580Y-131953924D02*
X199069342Y-131906305D01*
X199069342Y-131906305D02*
X198783628Y-131906305D01*
X198783628Y-131906305D02*
X198688390Y-131953924D01*
X198688390Y-131953924D02*
X198640771Y-132001543D01*
X198640771Y-132001543D02*
X198593152Y-132096781D01*
X198593152Y-132096781D02*
X198593152Y-132287257D01*
X198593152Y-132287257D02*
X198640771Y-132382495D01*
D10*
G36*
X158065045Y-109267811D02*
G01*
X158065045Y-109061475D01*
X157538946Y-109061475D01*
X157538946Y-109551524D01*
X157587565Y-109591513D01*
X157639891Y-109624724D01*
X157692709Y-109651981D01*
X157752090Y-109677554D01*
X157761109Y-109681070D01*
X157824892Y-109702768D01*
X157889040Y-109719138D01*
X157953552Y-109730177D01*
X158018430Y-109735887D01*
X158055666Y-109736757D01*
X158125067Y-109733944D01*
X158191047Y-109725505D01*
X158253606Y-109711440D01*
X158312744Y-109691750D01*
X158368461Y-109666433D01*
X158386273Y-109656743D01*
X158436677Y-109624327D01*
X158482155Y-109587088D01*
X158528988Y-109537548D01*
X158563795Y-109489862D01*
X158593677Y-109437352D01*
X158598178Y-109428132D01*
X158622283Y-109371381D01*
X158641400Y-109312796D01*
X158655530Y-109252377D01*
X158664673Y-109190124D01*
X158668829Y-109126036D01*
X158669106Y-109104266D01*
X158666324Y-109034539D01*
X158657978Y-108967800D01*
X158644068Y-108904049D01*
X158624593Y-108843286D01*
X158599554Y-108785512D01*
X158589972Y-108766918D01*
X158557720Y-108713945D01*
X158520317Y-108665815D01*
X158477761Y-108622528D01*
X158430054Y-108584084D01*
X158377194Y-108550482D01*
X158358429Y-108540358D01*
X158296715Y-108513943D01*
X158236915Y-108497021D01*
X158171702Y-108485878D01*
X158111495Y-108480925D01*
X158069148Y-108479981D01*
X158001218Y-108482414D01*
X157938110Y-108489713D01*
X157879825Y-108501877D01*
X157816249Y-108522897D01*
X157759619Y-108550924D01*
X157717732Y-108579632D01*
X157673424Y-108619681D01*
X157635464Y-108665087D01*
X157603852Y-108715851D01*
X157578586Y-108771974D01*
X157559668Y-108833454D01*
X157554773Y-108855138D01*
X157797159Y-108892654D01*
X157817504Y-108836858D01*
X157850065Y-108784540D01*
X157893293Y-108741712D01*
X157945809Y-108710174D01*
X158006637Y-108691727D01*
X158069148Y-108686318D01*
X158136019Y-108691240D01*
X158196606Y-108706009D01*
X158250911Y-108730622D01*
X158298932Y-108765081D01*
X158323551Y-108789193D01*
X158360325Y-108838855D01*
X158388066Y-108898082D01*
X158404655Y-108956461D01*
X158414609Y-109021867D01*
X158417835Y-109081741D01*
X158417927Y-109094301D01*
X158415594Y-109159783D01*
X158408596Y-109219941D01*
X158394040Y-109285103D01*
X158372766Y-109342600D01*
X158339455Y-109399990D01*
X158322379Y-109421391D01*
X158277616Y-109463874D01*
X158227186Y-109495923D01*
X158171091Y-109517538D01*
X158109329Y-109528717D01*
X158071493Y-109530421D01*
X158009242Y-109525342D01*
X157951609Y-109511638D01*
X157917913Y-109499646D01*
X157863151Y-109474711D01*
X157810708Y-109443511D01*
X157785436Y-109424908D01*
X157785436Y-109267811D01*
X158065045Y-109267811D01*
G37*
G36*
X157318541Y-109718000D02*
G01*
X157318541Y-108498739D01*
X157081137Y-108498739D01*
X156586692Y-109322619D01*
X156586692Y-108498739D01*
X156360132Y-108498739D01*
X156360132Y-109718000D01*
X156604863Y-109718000D01*
X157091981Y-108906429D01*
X157091981Y-109718000D01*
X157318541Y-109718000D01*
G37*
G36*
X156109832Y-109718000D02*
G01*
X155650558Y-109718000D01*
X155617626Y-109717596D01*
X155556846Y-109714372D01*
X155496571Y-109706892D01*
X155434549Y-109692207D01*
X155421240Y-109687740D01*
X155365627Y-109664973D01*
X155312046Y-109634565D01*
X155263091Y-109594901D01*
X155257872Y-109589704D01*
X155218858Y-109544564D01*
X155184718Y-109493085D01*
X155155450Y-109435268D01*
X155133838Y-109379479D01*
X155129330Y-109365689D01*
X155114208Y-109307299D01*
X155103740Y-109243744D01*
X155098396Y-109183896D01*
X155096615Y-109120093D01*
X155096783Y-109108662D01*
X155348967Y-109108662D01*
X155349356Y-109143055D01*
X155352470Y-109206289D01*
X155359696Y-109268582D01*
X155373879Y-109331998D01*
X155378624Y-109346926D01*
X155402163Y-109402267D01*
X155437773Y-109449528D01*
X155478762Y-109478267D01*
X155535959Y-109499939D01*
X155558555Y-109504508D01*
X155620072Y-109510278D01*
X155683677Y-109511663D01*
X155865687Y-109511663D01*
X155865687Y-108705076D01*
X155756071Y-108705076D01*
X155746843Y-108705087D01*
X155679922Y-108706003D01*
X155619306Y-108708785D01*
X155555889Y-108716799D01*
X155551627Y-108717760D01*
X155493387Y-108738635D01*
X155443049Y-108774245D01*
X155432223Y-108785318D01*
X155397172Y-108836143D01*
X155373879Y-108892068D01*
X155366702Y-108917294D01*
X155355998Y-108977321D01*
X155350524Y-109042259D01*
X155348967Y-109108662D01*
X155096783Y-109108662D01*
X155097233Y-109078085D01*
X155100479Y-109018284D01*
X155107782Y-108953387D01*
X155118872Y-108893735D01*
X155136182Y-108831984D01*
X155149434Y-108796327D01*
X155177760Y-108736615D01*
X155211835Y-108682653D01*
X155251660Y-108634441D01*
X155276119Y-108610364D01*
X155323860Y-108573084D01*
X155376377Y-108543594D01*
X155433670Y-108521893D01*
X155477725Y-108511763D01*
X155538017Y-108503827D01*
X155601146Y-108499847D01*
X155663747Y-108498739D01*
X156109832Y-108498739D01*
X156109832Y-109718000D01*
G37*
G36*
X140906399Y-104291859D02*
G01*
X140682184Y-104262842D01*
X140670468Y-104320453D01*
X140645639Y-104375500D01*
X140624445Y-104402354D01*
X140576102Y-104436855D01*
X140519001Y-104450233D01*
X140510725Y-104450421D01*
X140452470Y-104439930D01*
X140402854Y-104408459D01*
X140390265Y-104395613D01*
X140358384Y-104344745D01*
X140343382Y-104286541D01*
X140341025Y-104247602D01*
X140347661Y-104186767D01*
X140369826Y-104132397D01*
X140388213Y-104108090D01*
X140436685Y-104071065D01*
X140494172Y-104056708D01*
X140502519Y-104056506D01*
X140561518Y-104062602D01*
X140608911Y-104073799D01*
X140583412Y-103887685D01*
X140524029Y-103884380D01*
X140467513Y-103867792D01*
X140440090Y-103850756D01*
X140402941Y-103805034D01*
X140390558Y-103746415D01*
X140403370Y-103688591D01*
X140426901Y-103658195D01*
X140481466Y-103629733D01*
X140523328Y-103625076D01*
X140581435Y-103635912D01*
X140624738Y-103663471D01*
X140660005Y-103713963D01*
X140675736Y-103775138D01*
X140889106Y-103741433D01*
X140874791Y-103682025D01*
X140854699Y-103624391D01*
X140827506Y-103571177D01*
X140821988Y-103562647D01*
X140783369Y-103516348D01*
X140734775Y-103478127D01*
X140696838Y-103457134D01*
X140639175Y-103435275D01*
X140577009Y-103422489D01*
X140516587Y-103418739D01*
X140455000Y-103422480D01*
X140389165Y-103436298D01*
X140329810Y-103460299D01*
X140276934Y-103494481D01*
X140243133Y-103525131D01*
X140202046Y-103575904D01*
X140174405Y-103630294D01*
X140160211Y-103688300D01*
X140158136Y-103722089D01*
X140166453Y-103787162D01*
X140191403Y-103846205D01*
X140232987Y-103899217D01*
X140281869Y-103939856D01*
X140331939Y-103970337D01*
X140271157Y-103990150D01*
X140218504Y-104021010D01*
X140173979Y-104062919D01*
X140166050Y-104072626D01*
X140133128Y-104125320D01*
X140112400Y-104184482D01*
X140104170Y-104243258D01*
X140103621Y-104264015D01*
X140107712Y-104323435D01*
X140122825Y-104388486D01*
X140149073Y-104448937D01*
X140186458Y-104504788D01*
X140219979Y-104541866D01*
X140265512Y-104580911D01*
X140323713Y-104616253D01*
X140387384Y-104640601D01*
X140446313Y-104652718D01*
X140509260Y-104656757D01*
X140568741Y-104653213D01*
X140633188Y-104640118D01*
X140692305Y-104617373D01*
X140746092Y-104584980D01*
X140781249Y-104555934D01*
X140824103Y-104508736D01*
X140858289Y-104455620D01*
X140883809Y-104396585D01*
X140900660Y-104331632D01*
X140906399Y-104291859D01*
G37*
G36*
X139914577Y-104638000D02*
G01*
X139914577Y-104412905D01*
X139682742Y-104412905D01*
X139682742Y-104638000D01*
X139914577Y-104638000D01*
G37*
G36*
X139505422Y-104291859D02*
G01*
X139281207Y-104262842D01*
X139269491Y-104320453D01*
X139244662Y-104375500D01*
X139223468Y-104402354D01*
X139175125Y-104436855D01*
X139118024Y-104450233D01*
X139109748Y-104450421D01*
X139051493Y-104439930D01*
X139001877Y-104408459D01*
X138989288Y-104395613D01*
X138957407Y-104344745D01*
X138942405Y-104286541D01*
X138940048Y-104247602D01*
X138946684Y-104186767D01*
X138968849Y-104132397D01*
X138987236Y-104108090D01*
X139035708Y-104071065D01*
X139093195Y-104056708D01*
X139101542Y-104056506D01*
X139160541Y-104062602D01*
X139207934Y-104073799D01*
X139182435Y-103887685D01*
X139123052Y-103884380D01*
X139066536Y-103867792D01*
X139039113Y-103850756D01*
X139001964Y-103805034D01*
X138989581Y-103746415D01*
X139002393Y-103688591D01*
X139025924Y-103658195D01*
X139080490Y-103629733D01*
X139122351Y-103625076D01*
X139180458Y-103635912D01*
X139223761Y-103663471D01*
X139259028Y-103713963D01*
X139274759Y-103775138D01*
X139488129Y-103741433D01*
X139473814Y-103682025D01*
X139453722Y-103624391D01*
X139426529Y-103571177D01*
X139421011Y-103562647D01*
X139382392Y-103516348D01*
X139333798Y-103478127D01*
X139295861Y-103457134D01*
X139238198Y-103435275D01*
X139176032Y-103422489D01*
X139115610Y-103418739D01*
X139054023Y-103422480D01*
X138988188Y-103436298D01*
X138928833Y-103460299D01*
X138875957Y-103494481D01*
X138842156Y-103525131D01*
X138801069Y-103575904D01*
X138773428Y-103630294D01*
X138759234Y-103688300D01*
X138757159Y-103722089D01*
X138765476Y-103787162D01*
X138790426Y-103846205D01*
X138832010Y-103899217D01*
X138880892Y-103939856D01*
X138930963Y-103970337D01*
X138870180Y-103990150D01*
X138817527Y-104021010D01*
X138773002Y-104062919D01*
X138765073Y-104072626D01*
X138732152Y-104125320D01*
X138711423Y-104184482D01*
X138703193Y-104243258D01*
X138702644Y-104264015D01*
X138706735Y-104323435D01*
X138721848Y-104388486D01*
X138748096Y-104448937D01*
X138785481Y-104504788D01*
X138819002Y-104541866D01*
X138864535Y-104580911D01*
X138922736Y-104616253D01*
X138986407Y-104640601D01*
X139045336Y-104652718D01*
X139108283Y-104656757D01*
X139167764Y-104653213D01*
X139232211Y-104640118D01*
X139291328Y-104617373D01*
X139345115Y-104584980D01*
X139380272Y-104555934D01*
X139423126Y-104508736D01*
X139457312Y-104455620D01*
X139482832Y-104396585D01*
X139499684Y-104331632D01*
X139505422Y-104291859D01*
G37*
G36*
X138203510Y-104638000D02*
G01*
X138635526Y-103418739D01*
X138370865Y-103418739D01*
X138065170Y-104319116D01*
X137769148Y-103418739D01*
X137510348Y-103418739D01*
X137942951Y-104638000D01*
X138203510Y-104638000D01*
G37*
G36*
X158686399Y-104291859D02*
G01*
X158462184Y-104262842D01*
X158450468Y-104320453D01*
X158425639Y-104375500D01*
X158404445Y-104402354D01*
X158356102Y-104436855D01*
X158299001Y-104450233D01*
X158290725Y-104450421D01*
X158232470Y-104439930D01*
X158182854Y-104408459D01*
X158170265Y-104395613D01*
X158138384Y-104344745D01*
X158123382Y-104286541D01*
X158121025Y-104247602D01*
X158127661Y-104186767D01*
X158149826Y-104132397D01*
X158168213Y-104108090D01*
X158216685Y-104071065D01*
X158274172Y-104056708D01*
X158282519Y-104056506D01*
X158341518Y-104062602D01*
X158388911Y-104073799D01*
X158363412Y-103887685D01*
X158304029Y-103884380D01*
X158247513Y-103867792D01*
X158220090Y-103850756D01*
X158182941Y-103805034D01*
X158170558Y-103746415D01*
X158183370Y-103688591D01*
X158206901Y-103658195D01*
X158261466Y-103629733D01*
X158303328Y-103625076D01*
X158361435Y-103635912D01*
X158404738Y-103663471D01*
X158440005Y-103713963D01*
X158455736Y-103775138D01*
X158669106Y-103741433D01*
X158654791Y-103682025D01*
X158634699Y-103624391D01*
X158607506Y-103571177D01*
X158601988Y-103562647D01*
X158563369Y-103516348D01*
X158514775Y-103478127D01*
X158476838Y-103457134D01*
X158419175Y-103435275D01*
X158357009Y-103422489D01*
X158296587Y-103418739D01*
X158235000Y-103422480D01*
X158169165Y-103436298D01*
X158109810Y-103460299D01*
X158056934Y-103494481D01*
X158023133Y-103525131D01*
X157982046Y-103575904D01*
X157954405Y-103630294D01*
X157940211Y-103688300D01*
X157938136Y-103722089D01*
X157946453Y-103787162D01*
X157971403Y-103846205D01*
X158012987Y-103899217D01*
X158061869Y-103939856D01*
X158111939Y-103970337D01*
X158051157Y-103990150D01*
X157998504Y-104021010D01*
X157953979Y-104062919D01*
X157946050Y-104072626D01*
X157913128Y-104125320D01*
X157892400Y-104184482D01*
X157884170Y-104243258D01*
X157883621Y-104264015D01*
X157887712Y-104323435D01*
X157902825Y-104388486D01*
X157929073Y-104448937D01*
X157966458Y-104504788D01*
X157999979Y-104541866D01*
X158045512Y-104580911D01*
X158103713Y-104616253D01*
X158167384Y-104640601D01*
X158226313Y-104652718D01*
X158289260Y-104656757D01*
X158348741Y-104653213D01*
X158413188Y-104640118D01*
X158472305Y-104617373D01*
X158526092Y-104584980D01*
X158561249Y-104555934D01*
X158604103Y-104508736D01*
X158638289Y-104455620D01*
X158663809Y-104396585D01*
X158680660Y-104331632D01*
X158686399Y-104291859D01*
G37*
G36*
X157694577Y-104638000D02*
G01*
X157694577Y-104412905D01*
X157462742Y-104412905D01*
X157462742Y-104638000D01*
X157694577Y-104638000D01*
G37*
G36*
X157285422Y-104291859D02*
G01*
X157061207Y-104262842D01*
X157049491Y-104320453D01*
X157024662Y-104375500D01*
X157003468Y-104402354D01*
X156955125Y-104436855D01*
X156898024Y-104450233D01*
X156889748Y-104450421D01*
X156831493Y-104439930D01*
X156781877Y-104408459D01*
X156769288Y-104395613D01*
X156737407Y-104344745D01*
X156722405Y-104286541D01*
X156720048Y-104247602D01*
X156726684Y-104186767D01*
X156748849Y-104132397D01*
X156767236Y-104108090D01*
X156815708Y-104071065D01*
X156873195Y-104056708D01*
X156881542Y-104056506D01*
X156940541Y-104062602D01*
X156987934Y-104073799D01*
X156962435Y-103887685D01*
X156903052Y-103884380D01*
X156846536Y-103867792D01*
X156819113Y-103850756D01*
X156781964Y-103805034D01*
X156769581Y-103746415D01*
X156782393Y-103688591D01*
X156805924Y-103658195D01*
X156860490Y-103629733D01*
X156902351Y-103625076D01*
X156960458Y-103635912D01*
X157003761Y-103663471D01*
X157039028Y-103713963D01*
X157054759Y-103775138D01*
X157268129Y-103741433D01*
X157253814Y-103682025D01*
X157233722Y-103624391D01*
X157206529Y-103571177D01*
X157201011Y-103562647D01*
X157162392Y-103516348D01*
X157113798Y-103478127D01*
X157075861Y-103457134D01*
X157018198Y-103435275D01*
X156956032Y-103422489D01*
X156895610Y-103418739D01*
X156834023Y-103422480D01*
X156768188Y-103436298D01*
X156708833Y-103460299D01*
X156655957Y-103494481D01*
X156622156Y-103525131D01*
X156581069Y-103575904D01*
X156553428Y-103630294D01*
X156539234Y-103688300D01*
X156537159Y-103722089D01*
X156545476Y-103787162D01*
X156570426Y-103846205D01*
X156612010Y-103899217D01*
X156660892Y-103939856D01*
X156710963Y-103970337D01*
X156650180Y-103990150D01*
X156597527Y-104021010D01*
X156553002Y-104062919D01*
X156545073Y-104072626D01*
X156512152Y-104125320D01*
X156491423Y-104184482D01*
X156483193Y-104243258D01*
X156482644Y-104264015D01*
X156486735Y-104323435D01*
X156501848Y-104388486D01*
X156528096Y-104448937D01*
X156565481Y-104504788D01*
X156599002Y-104541866D01*
X156644535Y-104580911D01*
X156702736Y-104616253D01*
X156766407Y-104640601D01*
X156825336Y-104652718D01*
X156888283Y-104656757D01*
X156947764Y-104653213D01*
X157012211Y-104640118D01*
X157071328Y-104617373D01*
X157125115Y-104584980D01*
X157160272Y-104555934D01*
X157203126Y-104508736D01*
X157237312Y-104455620D01*
X157262832Y-104396585D01*
X157279684Y-104331632D01*
X157285422Y-104291859D01*
G37*
G36*
X155983510Y-104638000D02*
G01*
X156415526Y-103418739D01*
X156150865Y-103418739D01*
X155845170Y-104319116D01*
X155549148Y-103418739D01*
X155290348Y-103418739D01*
X155722951Y-104638000D01*
X155983510Y-104638000D01*
G37*
G36*
X140906399Y-123341859D02*
G01*
X140682184Y-123312842D01*
X140670468Y-123370453D01*
X140645639Y-123425500D01*
X140624445Y-123452354D01*
X140576102Y-123486855D01*
X140519001Y-123500233D01*
X140510725Y-123500421D01*
X140452470Y-123489930D01*
X140402854Y-123458459D01*
X140390265Y-123445613D01*
X140358384Y-123394745D01*
X140343382Y-123336541D01*
X140341025Y-123297602D01*
X140347661Y-123236767D01*
X140369826Y-123182397D01*
X140388213Y-123158090D01*
X140436685Y-123121065D01*
X140494172Y-123106708D01*
X140502519Y-123106506D01*
X140561518Y-123112602D01*
X140608911Y-123123799D01*
X140583412Y-122937685D01*
X140524029Y-122934380D01*
X140467513Y-122917792D01*
X140440090Y-122900756D01*
X140402941Y-122855034D01*
X140390558Y-122796415D01*
X140403370Y-122738591D01*
X140426901Y-122708195D01*
X140481466Y-122679733D01*
X140523328Y-122675076D01*
X140581435Y-122685912D01*
X140624738Y-122713471D01*
X140660005Y-122763963D01*
X140675736Y-122825138D01*
X140889106Y-122791433D01*
X140874791Y-122732025D01*
X140854699Y-122674391D01*
X140827506Y-122621177D01*
X140821988Y-122612647D01*
X140783369Y-122566348D01*
X140734775Y-122528127D01*
X140696838Y-122507134D01*
X140639175Y-122485275D01*
X140577009Y-122472489D01*
X140516587Y-122468739D01*
X140455000Y-122472480D01*
X140389165Y-122486298D01*
X140329810Y-122510299D01*
X140276934Y-122544481D01*
X140243133Y-122575131D01*
X140202046Y-122625904D01*
X140174405Y-122680294D01*
X140160211Y-122738300D01*
X140158136Y-122772089D01*
X140166453Y-122837162D01*
X140191403Y-122896205D01*
X140232987Y-122949217D01*
X140281869Y-122989856D01*
X140331939Y-123020337D01*
X140271157Y-123040150D01*
X140218504Y-123071010D01*
X140173979Y-123112919D01*
X140166050Y-123122626D01*
X140133128Y-123175320D01*
X140112400Y-123234482D01*
X140104170Y-123293258D01*
X140103621Y-123314015D01*
X140107712Y-123373435D01*
X140122825Y-123438486D01*
X140149073Y-123498937D01*
X140186458Y-123554788D01*
X140219979Y-123591866D01*
X140265512Y-123630911D01*
X140323713Y-123666253D01*
X140387384Y-123690601D01*
X140446313Y-123702718D01*
X140509260Y-123706757D01*
X140568741Y-123703213D01*
X140633188Y-123690118D01*
X140692305Y-123667373D01*
X140746092Y-123634980D01*
X140781249Y-123605934D01*
X140824103Y-123558736D01*
X140858289Y-123505620D01*
X140883809Y-123446585D01*
X140900660Y-123381632D01*
X140906399Y-123341859D01*
G37*
G36*
X139914577Y-123688000D02*
G01*
X139914577Y-123462905D01*
X139682742Y-123462905D01*
X139682742Y-123688000D01*
X139914577Y-123688000D01*
G37*
G36*
X139505422Y-123341859D02*
G01*
X139281207Y-123312842D01*
X139269491Y-123370453D01*
X139244662Y-123425500D01*
X139223468Y-123452354D01*
X139175125Y-123486855D01*
X139118024Y-123500233D01*
X139109748Y-123500421D01*
X139051493Y-123489930D01*
X139001877Y-123458459D01*
X138989288Y-123445613D01*
X138957407Y-123394745D01*
X138942405Y-123336541D01*
X138940048Y-123297602D01*
X138946684Y-123236767D01*
X138968849Y-123182397D01*
X138987236Y-123158090D01*
X139035708Y-123121065D01*
X139093195Y-123106708D01*
X139101542Y-123106506D01*
X139160541Y-123112602D01*
X139207934Y-123123799D01*
X139182435Y-122937685D01*
X139123052Y-122934380D01*
X139066536Y-122917792D01*
X139039113Y-122900756D01*
X139001964Y-122855034D01*
X138989581Y-122796415D01*
X139002393Y-122738591D01*
X139025924Y-122708195D01*
X139080490Y-122679733D01*
X139122351Y-122675076D01*
X139180458Y-122685912D01*
X139223761Y-122713471D01*
X139259028Y-122763963D01*
X139274759Y-122825138D01*
X139488129Y-122791433D01*
X139473814Y-122732025D01*
X139453722Y-122674391D01*
X139426529Y-122621177D01*
X139421011Y-122612647D01*
X139382392Y-122566348D01*
X139333798Y-122528127D01*
X139295861Y-122507134D01*
X139238198Y-122485275D01*
X139176032Y-122472489D01*
X139115610Y-122468739D01*
X139054023Y-122472480D01*
X138988188Y-122486298D01*
X138928833Y-122510299D01*
X138875957Y-122544481D01*
X138842156Y-122575131D01*
X138801069Y-122625904D01*
X138773428Y-122680294D01*
X138759234Y-122738300D01*
X138757159Y-122772089D01*
X138765476Y-122837162D01*
X138790426Y-122896205D01*
X138832010Y-122949217D01*
X138880892Y-122989856D01*
X138930963Y-123020337D01*
X138870180Y-123040150D01*
X138817527Y-123071010D01*
X138773002Y-123112919D01*
X138765073Y-123122626D01*
X138732152Y-123175320D01*
X138711423Y-123234482D01*
X138703193Y-123293258D01*
X138702644Y-123314015D01*
X138706735Y-123373435D01*
X138721848Y-123438486D01*
X138748096Y-123498937D01*
X138785481Y-123554788D01*
X138819002Y-123591866D01*
X138864535Y-123630911D01*
X138922736Y-123666253D01*
X138986407Y-123690601D01*
X139045336Y-123702718D01*
X139108283Y-123706757D01*
X139167764Y-123703213D01*
X139232211Y-123690118D01*
X139291328Y-123667373D01*
X139345115Y-123634980D01*
X139380272Y-123605934D01*
X139423126Y-123558736D01*
X139457312Y-123505620D01*
X139482832Y-123446585D01*
X139499684Y-123381632D01*
X139505422Y-123341859D01*
G37*
G36*
X138203510Y-123688000D02*
G01*
X138635526Y-122468739D01*
X138370865Y-122468739D01*
X138065170Y-123369116D01*
X137769148Y-122468739D01*
X137510348Y-122468739D01*
X137942951Y-123688000D01*
X138203510Y-123688000D01*
G37*
G36*
X158626315Y-126228000D02*
G01*
X158626315Y-125008739D01*
X158382463Y-125008739D01*
X158382463Y-125496443D01*
X157904138Y-125496443D01*
X157904138Y-125008739D01*
X157660286Y-125008739D01*
X157660286Y-126228000D01*
X157904138Y-126228000D01*
X157904138Y-125702780D01*
X158382463Y-125702780D01*
X158382463Y-126228000D01*
X158626315Y-126228000D01*
G37*
G36*
X156898370Y-124990169D02*
G01*
X156960290Y-124993784D01*
X157018928Y-125001998D01*
X157081925Y-125017019D01*
X157140635Y-125038048D01*
X157145916Y-125040320D01*
X157202307Y-125070224D01*
X157250868Y-125105224D01*
X157296852Y-125147665D01*
X157305638Y-125156936D01*
X157346064Y-125205559D01*
X157380651Y-125257961D01*
X157409399Y-125314140D01*
X157430869Y-125372125D01*
X157447066Y-125435804D01*
X157456752Y-125494918D01*
X157462563Y-125558216D01*
X157464501Y-125625697D01*
X157464345Y-125643710D01*
X157460615Y-125713331D01*
X157451912Y-125779059D01*
X157438235Y-125840894D01*
X157419585Y-125898837D01*
X157389278Y-125965791D01*
X157351200Y-126026664D01*
X157305352Y-126081454D01*
X157252920Y-126129075D01*
X157195093Y-126168626D01*
X157131871Y-126200104D01*
X157063254Y-126223512D01*
X157004475Y-126236426D01*
X156942244Y-126244174D01*
X156876559Y-126246757D01*
X156811699Y-126244161D01*
X156750182Y-126236371D01*
X156692008Y-126223388D01*
X156623991Y-126199856D01*
X156561199Y-126168210D01*
X156503629Y-126128449D01*
X156451284Y-126080575D01*
X156432012Y-126059301D01*
X156389272Y-126001741D01*
X156354302Y-125937926D01*
X156331922Y-125882371D01*
X156314515Y-125822814D01*
X156302082Y-125759255D01*
X156294622Y-125691693D01*
X156292135Y-125620128D01*
X156292235Y-125614266D01*
X156544487Y-125614266D01*
X156544578Y-125627480D01*
X156547774Y-125690430D01*
X156557634Y-125759113D01*
X156574069Y-125820315D01*
X156601552Y-125882263D01*
X156637983Y-125934029D01*
X156649875Y-125946912D01*
X156694724Y-125985459D01*
X156752129Y-126017044D01*
X156816092Y-126035330D01*
X156877438Y-126040421D01*
X156895484Y-126040002D01*
X156955507Y-126031936D01*
X157018127Y-126010146D01*
X157074374Y-125974948D01*
X157118360Y-125933150D01*
X157129823Y-125919311D01*
X157164122Y-125864692D01*
X157186310Y-125810219D01*
X157201842Y-125748676D01*
X157210717Y-125680065D01*
X157213028Y-125617490D01*
X157212938Y-125604387D01*
X157209782Y-125541986D01*
X157200045Y-125473962D01*
X157183816Y-125413419D01*
X157156678Y-125352241D01*
X157120704Y-125301244D01*
X157108935Y-125288538D01*
X157057278Y-125245912D01*
X156998293Y-125216401D01*
X156940671Y-125201339D01*
X156877438Y-125196318D01*
X156858840Y-125196723D01*
X156797405Y-125204525D01*
X156734166Y-125225600D01*
X156678364Y-125259644D01*
X156635638Y-125300072D01*
X156630030Y-125306643D01*
X156595759Y-125358507D01*
X156570212Y-125420637D01*
X156555257Y-125482063D01*
X156546712Y-125551031D01*
X156544487Y-125614266D01*
X156292235Y-125614266D01*
X156292761Y-125583525D01*
X156297771Y-125513375D01*
X156307791Y-125447301D01*
X156322821Y-125385303D01*
X156342861Y-125327381D01*
X156367912Y-125273535D01*
X156406270Y-125211958D01*
X156452456Y-125156750D01*
X156505168Y-125108707D01*
X156563104Y-125068806D01*
X156626263Y-125037048D01*
X156694646Y-125013433D01*
X156753113Y-125000404D01*
X156814923Y-124992587D01*
X156880076Y-124989981D01*
X156898370Y-124990169D01*
G37*
G36*
X156112177Y-126228000D02*
G01*
X156112177Y-125008739D01*
X155746985Y-125008739D01*
X155527752Y-125840533D01*
X155310865Y-125008739D01*
X154945087Y-125008739D01*
X154945087Y-126228000D01*
X155171646Y-126228000D01*
X155171646Y-125268125D01*
X155411688Y-126228000D01*
X155646454Y-126228000D01*
X155885617Y-125268125D01*
X155885617Y-126228000D01*
X156112177Y-126228000D01*
G37*
G36*
X154710321Y-126228000D02*
G01*
X154710321Y-125008739D01*
X153814340Y-125008739D01*
X153814340Y-125215076D01*
X154466175Y-125215076D01*
X154466175Y-125477685D01*
X153859476Y-125477685D01*
X153859476Y-125684022D01*
X154466175Y-125684022D01*
X154466175Y-126021663D01*
X153791186Y-126021663D01*
X153791186Y-126228000D01*
X154710321Y-126228000D01*
G37*
G36*
X153729050Y-126565641D02*
G01*
X153729050Y-126415578D01*
X152766245Y-126415578D01*
X152766245Y-126565641D01*
X153729050Y-126565641D01*
G37*
G36*
X152114703Y-126228000D02*
G01*
X152346245Y-126228000D01*
X152346245Y-125345794D01*
X152395433Y-125391166D01*
X152447815Y-125431881D01*
X152503391Y-125467938D01*
X152562162Y-125499338D01*
X152624127Y-125526080D01*
X152645491Y-125533959D01*
X152645491Y-125308865D01*
X152587343Y-125285635D01*
X152532366Y-125256016D01*
X152481395Y-125222759D01*
X152448534Y-125198662D01*
X152399515Y-125156237D01*
X152358848Y-125110442D01*
X152326535Y-125061276D01*
X152302575Y-125008739D01*
X152114703Y-125008739D01*
X152114703Y-126228000D01*
G37*
D11*
X173213333Y-126784819D02*
X173213333Y-127499104D01*
X173213333Y-127499104D02*
X173260952Y-127641961D01*
X173260952Y-127641961D02*
X173356190Y-127737200D01*
X173356190Y-127737200D02*
X173499047Y-127784819D01*
X173499047Y-127784819D02*
X173594285Y-127784819D01*
X172308571Y-126784819D02*
X172499047Y-126784819D01*
X172499047Y-126784819D02*
X172594285Y-126832438D01*
X172594285Y-126832438D02*
X172641904Y-126880057D01*
X172641904Y-126880057D02*
X172737142Y-127022914D01*
X172737142Y-127022914D02*
X172784761Y-127213390D01*
X172784761Y-127213390D02*
X172784761Y-127594342D01*
X172784761Y-127594342D02*
X172737142Y-127689580D01*
X172737142Y-127689580D02*
X172689523Y-127737200D01*
X172689523Y-127737200D02*
X172594285Y-127784819D01*
X172594285Y-127784819D02*
X172403809Y-127784819D01*
X172403809Y-127784819D02*
X172308571Y-127737200D01*
X172308571Y-127737200D02*
X172260952Y-127689580D01*
X172260952Y-127689580D02*
X172213333Y-127594342D01*
X172213333Y-127594342D02*
X172213333Y-127356247D01*
X172213333Y-127356247D02*
X172260952Y-127261009D01*
X172260952Y-127261009D02*
X172308571Y-127213390D01*
X172308571Y-127213390D02*
X172403809Y-127165771D01*
X172403809Y-127165771D02*
X172594285Y-127165771D01*
X172594285Y-127165771D02*
X172689523Y-127213390D01*
X172689523Y-127213390D02*
X172737142Y-127261009D01*
X172737142Y-127261009D02*
X172784761Y-127356247D01*
D12*
%TO.C,J6*%
X170280000Y-115610000D02*
X170280000Y-125890000D01*
X172880000Y-123290000D02*
X172880000Y-125890000D01*
X172880000Y-125890000D02*
X170280000Y-125890000D01*
X175480000Y-115610000D02*
X170280000Y-115610000D01*
X175480000Y-115610000D02*
X175480000Y-123290000D01*
X175480000Y-123290000D02*
X172880000Y-123290000D01*
X175480000Y-124560000D02*
X175480000Y-125890000D01*
X175480000Y-125890000D02*
X174150000Y-125890000D01*
%TD*%
M02*
