M48
; DRILL file {KiCad 8.0.1} date 2024-03-27T15:45:20+0900
; FORMAT={3:3/ absolute / metric / suppress leading zeros}
; #@! TF.CreationDate,2024-03-27T15:45:20+09:00
; #@! TF.GenerationSoftware,Kicad,Pcbnew,8.0.1
; #@! TF.FileFunction,MixedPlating,1,2
FMAT,2
METRIC,TZ
; #@! TA.AperFunction,Plated,PTH,ComponentDrill
T1C0.800
; #@! TA.AperFunction,Plated,PTH,ComponentDrill
T2C0.950
; #@! TA.AperFunction,Plated,PTH,ComponentDrill
T3C1.000
%
G90
G05
T1
X171492Y-99070
X171492Y-101610
X171492Y-104150
X171492Y-106690
X179112Y-99070
X179112Y-101610
X179112Y-104150
X179112Y-106690
T2
X142240Y-104220
X142240Y-106720
X142240Y-109220
X142240Y-123230
X142240Y-125730
X142240Y-128230
X160020Y-104180
X160020Y-106680
X160020Y-109180
X160020Y-123270
X160020Y-125770
X160020Y-128270
T3
X133096Y-93980
X133100Y-91440
X135636Y-93980
X135640Y-91440
X138176Y-93980
X138180Y-91440
X140716Y-93980
X140720Y-91440
X142240Y-137160
X142240Y-139700
X143256Y-93980
X143260Y-91440
X144780Y-137160
X144780Y-139700
X145796Y-93980
X145800Y-91440
X147320Y-137160
X147320Y-139700
X148336Y-93980
X148340Y-91440
X149860Y-137160
X149860Y-139700
X150876Y-93980
X150880Y-91440
X152400Y-137160
X152400Y-139700
X153416Y-93980
X153420Y-91440
X154940Y-137160
X154940Y-139700
X155956Y-93980
X155960Y-91440
X157480Y-137160
X157480Y-139700
X160020Y-91440
X160020Y-93980
X160020Y-137160
X160020Y-139700
X162560Y-91440
X162560Y-93980
X165100Y-91440
X165100Y-93980
X165100Y-137160
X165100Y-139700
X167640Y-91440
X167640Y-93980
X167640Y-137160
X167640Y-139700
X170180Y-91440
X170180Y-93980
X170180Y-137160
X170180Y-139700
X171610Y-116940
X171610Y-119480
X171610Y-122020
X171610Y-124560
X172720Y-91440
X172720Y-93980
X172720Y-137160
X172720Y-139700
X174150Y-116940
X174150Y-119480
X174150Y-122020
X174150Y-124560
X175260Y-91440
X175260Y-93980
X175260Y-137160
X175260Y-139700
X177800Y-91440
X177800Y-93980
X177800Y-137160
X177800Y-139700
M30
