%TF.GenerationSoftware,KiCad,Pcbnew,8.0.1*%
%TF.CreationDate,2024-03-27T15:45:16+09:00*%
%TF.ProjectId,STEP200-switch-id-shield,53544550-3230-4302-9d73-77697463682d,rev?*%
%TF.SameCoordinates,Original*%
%TF.FileFunction,Legend,Top*%
%TF.FilePolarity,Positive*%
%FSLAX46Y46*%
G04 Gerber Fmt 4.6, Leading zero omitted, Abs format (unit mm)*
G04 Created by KiCad (PCBNEW 8.0.1) date 2024-03-27 15:45:16*
%MOMM*%
%LPD*%
G01*
G04 APERTURE LIST*
%ADD10C,0.150000*%
%ADD11C,0.280000*%
%ADD12C,0.260000*%
%ADD13C,0.120000*%
%ADD14C,0.000000*%
G04 APERTURE END LIST*
D10*
X167005000Y-100330000D02*
X170180000Y-100330000D01*
X167005000Y-107950000D02*
X170180000Y-107950000D01*
X167005000Y-105410000D02*
X170180000Y-105410000D01*
X167005000Y-97790000D02*
X167005000Y-107950000D01*
X167005000Y-97790000D02*
X170112500Y-97793000D01*
X167005000Y-102870000D02*
X170180000Y-102870000D01*
D11*
X166184106Y-110446666D02*
X164784106Y-110446666D01*
X165450773Y-110446666D02*
X165450773Y-109646666D01*
X166184106Y-109646666D02*
X164784106Y-109646666D01*
X164784106Y-108713333D02*
X164784106Y-108446666D01*
X164784106Y-108446666D02*
X164850773Y-108313333D01*
X164850773Y-108313333D02*
X164984106Y-108179999D01*
X164984106Y-108179999D02*
X165250773Y-108113333D01*
X165250773Y-108113333D02*
X165717440Y-108113333D01*
X165717440Y-108113333D02*
X165984106Y-108179999D01*
X165984106Y-108179999D02*
X166117440Y-108313333D01*
X166117440Y-108313333D02*
X166184106Y-108446666D01*
X166184106Y-108446666D02*
X166184106Y-108713333D01*
X166184106Y-108713333D02*
X166117440Y-108846666D01*
X166117440Y-108846666D02*
X165984106Y-108979999D01*
X165984106Y-108979999D02*
X165717440Y-109046666D01*
X165717440Y-109046666D02*
X165250773Y-109046666D01*
X165250773Y-109046666D02*
X164984106Y-108979999D01*
X164984106Y-108979999D02*
X164850773Y-108846666D01*
X164850773Y-108846666D02*
X164784106Y-108713333D01*
X166184106Y-107513332D02*
X164784106Y-107513332D01*
X164784106Y-107513332D02*
X165784106Y-107046666D01*
X165784106Y-107046666D02*
X164784106Y-106579999D01*
X164784106Y-106579999D02*
X166184106Y-106579999D01*
X165450773Y-105913332D02*
X165450773Y-105446666D01*
X166184106Y-105246666D02*
X166184106Y-105913332D01*
X166184106Y-105913332D02*
X164784106Y-105913332D01*
X164784106Y-105913332D02*
X164784106Y-105246666D01*
X166317440Y-104979999D02*
X166317440Y-103913332D01*
X164784106Y-103313332D02*
X164784106Y-103179998D01*
X164784106Y-103179998D02*
X164850773Y-103046665D01*
X164850773Y-103046665D02*
X164917440Y-102979998D01*
X164917440Y-102979998D02*
X165050773Y-102913332D01*
X165050773Y-102913332D02*
X165317440Y-102846665D01*
X165317440Y-102846665D02*
X165650773Y-102846665D01*
X165650773Y-102846665D02*
X165917440Y-102913332D01*
X165917440Y-102913332D02*
X166050773Y-102979998D01*
X166050773Y-102979998D02*
X166117440Y-103046665D01*
X166117440Y-103046665D02*
X166184106Y-103179998D01*
X166184106Y-103179998D02*
X166184106Y-103313332D01*
X166184106Y-103313332D02*
X166117440Y-103446665D01*
X166117440Y-103446665D02*
X166050773Y-103513332D01*
X166050773Y-103513332D02*
X165917440Y-103579998D01*
X165917440Y-103579998D02*
X165650773Y-103646665D01*
X165650773Y-103646665D02*
X165317440Y-103646665D01*
X165317440Y-103646665D02*
X165050773Y-103579998D01*
X165050773Y-103579998D02*
X164917440Y-103513332D01*
X164917440Y-103513332D02*
X164850773Y-103446665D01*
X164850773Y-103446665D02*
X164784106Y-103313332D01*
X148404106Y-128496667D02*
X148404106Y-129163333D01*
X148404106Y-129163333D02*
X147004106Y-129163333D01*
X148404106Y-128030000D02*
X147004106Y-128030000D01*
X148404106Y-127363333D02*
X147004106Y-127363333D01*
X147004106Y-127363333D02*
X148004106Y-126896667D01*
X148004106Y-126896667D02*
X147004106Y-126430000D01*
X147004106Y-126430000D02*
X148404106Y-126430000D01*
X148404106Y-125763333D02*
X147004106Y-125763333D01*
X147004106Y-125296666D02*
X147004106Y-124496666D01*
X148404106Y-124896666D02*
X147004106Y-124896666D01*
X148537440Y-124363333D02*
X148537440Y-123296666D01*
X148404106Y-122229999D02*
X148404106Y-123029999D01*
X148404106Y-122629999D02*
X147004106Y-122629999D01*
X147004106Y-122629999D02*
X147204106Y-122763332D01*
X147204106Y-122763332D02*
X147337440Y-122896666D01*
X147337440Y-122896666D02*
X147404106Y-123029999D01*
D10*
X178939819Y-131743220D02*
X178273152Y-131743220D01*
X178463628Y-131743220D02*
X178368390Y-131695601D01*
X178368390Y-131695601D02*
X178320771Y-131647982D01*
X178320771Y-131647982D02*
X178273152Y-131552744D01*
X178273152Y-131552744D02*
X178273152Y-131457506D01*
X178892200Y-130743220D02*
X178939819Y-130838458D01*
X178939819Y-130838458D02*
X178939819Y-131028934D01*
X178939819Y-131028934D02*
X178892200Y-131124172D01*
X178892200Y-131124172D02*
X178796961Y-131171791D01*
X178796961Y-131171791D02*
X178416009Y-131171791D01*
X178416009Y-131171791D02*
X178320771Y-131124172D01*
X178320771Y-131124172D02*
X178273152Y-131028934D01*
X178273152Y-131028934D02*
X178273152Y-130838458D01*
X178273152Y-130838458D02*
X178320771Y-130743220D01*
X178320771Y-130743220D02*
X178416009Y-130695601D01*
X178416009Y-130695601D02*
X178511247Y-130695601D01*
X178511247Y-130695601D02*
X178606485Y-131171791D01*
X178273152Y-130362267D02*
X178939819Y-130124172D01*
X178939819Y-130124172D02*
X178273152Y-129886077D01*
X178939819Y-128219410D02*
X178939819Y-128790838D01*
X178939819Y-128505124D02*
X177939819Y-128505124D01*
X177939819Y-128505124D02*
X178082676Y-128600362D01*
X178082676Y-128600362D02*
X178177914Y-128695600D01*
X178177914Y-128695600D02*
X178225533Y-128790838D01*
X178844580Y-127790838D02*
X178892200Y-127743219D01*
X178892200Y-127743219D02*
X178939819Y-127790838D01*
X178939819Y-127790838D02*
X178892200Y-127838457D01*
X178892200Y-127838457D02*
X178844580Y-127790838D01*
X178844580Y-127790838D02*
X178939819Y-127790838D01*
X177939819Y-127124172D02*
X177939819Y-127028934D01*
X177939819Y-127028934D02*
X177987438Y-126933696D01*
X177987438Y-126933696D02*
X178035057Y-126886077D01*
X178035057Y-126886077D02*
X178130295Y-126838458D01*
X178130295Y-126838458D02*
X178320771Y-126790839D01*
X178320771Y-126790839D02*
X178558866Y-126790839D01*
X178558866Y-126790839D02*
X178749342Y-126838458D01*
X178749342Y-126838458D02*
X178844580Y-126886077D01*
X178844580Y-126886077D02*
X178892200Y-126933696D01*
X178892200Y-126933696D02*
X178939819Y-127028934D01*
X178939819Y-127028934D02*
X178939819Y-127124172D01*
X178939819Y-127124172D02*
X178892200Y-127219410D01*
X178892200Y-127219410D02*
X178844580Y-127267029D01*
X178844580Y-127267029D02*
X178749342Y-127314648D01*
X178749342Y-127314648D02*
X178558866Y-127362267D01*
X178558866Y-127362267D02*
X178320771Y-127362267D01*
X178320771Y-127362267D02*
X178130295Y-127314648D01*
X178130295Y-127314648D02*
X178035057Y-127267029D01*
X178035057Y-127267029D02*
X177987438Y-127219410D01*
X177987438Y-127219410D02*
X177939819Y-127124172D01*
X177892200Y-124886077D02*
X179177914Y-125743219D01*
X178035057Y-123838457D02*
X177987438Y-123790838D01*
X177987438Y-123790838D02*
X177939819Y-123695600D01*
X177939819Y-123695600D02*
X177939819Y-123457505D01*
X177939819Y-123457505D02*
X177987438Y-123362267D01*
X177987438Y-123362267D02*
X178035057Y-123314648D01*
X178035057Y-123314648D02*
X178130295Y-123267029D01*
X178130295Y-123267029D02*
X178225533Y-123267029D01*
X178225533Y-123267029D02*
X178368390Y-123314648D01*
X178368390Y-123314648D02*
X178939819Y-123886076D01*
X178939819Y-123886076D02*
X178939819Y-123267029D01*
X177939819Y-122647981D02*
X177939819Y-122552743D01*
X177939819Y-122552743D02*
X177987438Y-122457505D01*
X177987438Y-122457505D02*
X178035057Y-122409886D01*
X178035057Y-122409886D02*
X178130295Y-122362267D01*
X178130295Y-122362267D02*
X178320771Y-122314648D01*
X178320771Y-122314648D02*
X178558866Y-122314648D01*
X178558866Y-122314648D02*
X178749342Y-122362267D01*
X178749342Y-122362267D02*
X178844580Y-122409886D01*
X178844580Y-122409886D02*
X178892200Y-122457505D01*
X178892200Y-122457505D02*
X178939819Y-122552743D01*
X178939819Y-122552743D02*
X178939819Y-122647981D01*
X178939819Y-122647981D02*
X178892200Y-122743219D01*
X178892200Y-122743219D02*
X178844580Y-122790838D01*
X178844580Y-122790838D02*
X178749342Y-122838457D01*
X178749342Y-122838457D02*
X178558866Y-122886076D01*
X178558866Y-122886076D02*
X178320771Y-122886076D01*
X178320771Y-122886076D02*
X178130295Y-122838457D01*
X178130295Y-122838457D02*
X178035057Y-122790838D01*
X178035057Y-122790838D02*
X177987438Y-122743219D01*
X177987438Y-122743219D02*
X177939819Y-122647981D01*
X178035057Y-121933695D02*
X177987438Y-121886076D01*
X177987438Y-121886076D02*
X177939819Y-121790838D01*
X177939819Y-121790838D02*
X177939819Y-121552743D01*
X177939819Y-121552743D02*
X177987438Y-121457505D01*
X177987438Y-121457505D02*
X178035057Y-121409886D01*
X178035057Y-121409886D02*
X178130295Y-121362267D01*
X178130295Y-121362267D02*
X178225533Y-121362267D01*
X178225533Y-121362267D02*
X178368390Y-121409886D01*
X178368390Y-121409886D02*
X178939819Y-121981314D01*
X178939819Y-121981314D02*
X178939819Y-121362267D01*
X178273152Y-120505124D02*
X178939819Y-120505124D01*
X177892200Y-120743219D02*
X178606485Y-120981314D01*
X178606485Y-120981314D02*
X178606485Y-120362267D01*
X178558866Y-119981314D02*
X178558866Y-119219410D01*
X177939819Y-118552743D02*
X177939819Y-118457505D01*
X177939819Y-118457505D02*
X177987438Y-118362267D01*
X177987438Y-118362267D02*
X178035057Y-118314648D01*
X178035057Y-118314648D02*
X178130295Y-118267029D01*
X178130295Y-118267029D02*
X178320771Y-118219410D01*
X178320771Y-118219410D02*
X178558866Y-118219410D01*
X178558866Y-118219410D02*
X178749342Y-118267029D01*
X178749342Y-118267029D02*
X178844580Y-118314648D01*
X178844580Y-118314648D02*
X178892200Y-118362267D01*
X178892200Y-118362267D02*
X178939819Y-118457505D01*
X178939819Y-118457505D02*
X178939819Y-118552743D01*
X178939819Y-118552743D02*
X178892200Y-118647981D01*
X178892200Y-118647981D02*
X178844580Y-118695600D01*
X178844580Y-118695600D02*
X178749342Y-118743219D01*
X178749342Y-118743219D02*
X178558866Y-118790838D01*
X178558866Y-118790838D02*
X178320771Y-118790838D01*
X178320771Y-118790838D02*
X178130295Y-118743219D01*
X178130295Y-118743219D02*
X178035057Y-118695600D01*
X178035057Y-118695600D02*
X177987438Y-118647981D01*
X177987438Y-118647981D02*
X177939819Y-118552743D01*
X177939819Y-117886076D02*
X177939819Y-117267029D01*
X177939819Y-117267029D02*
X178320771Y-117600362D01*
X178320771Y-117600362D02*
X178320771Y-117457505D01*
X178320771Y-117457505D02*
X178368390Y-117362267D01*
X178368390Y-117362267D02*
X178416009Y-117314648D01*
X178416009Y-117314648D02*
X178511247Y-117267029D01*
X178511247Y-117267029D02*
X178749342Y-117267029D01*
X178749342Y-117267029D02*
X178844580Y-117314648D01*
X178844580Y-117314648D02*
X178892200Y-117362267D01*
X178892200Y-117362267D02*
X178939819Y-117457505D01*
X178939819Y-117457505D02*
X178939819Y-117743219D01*
X178939819Y-117743219D02*
X178892200Y-117838457D01*
X178892200Y-117838457D02*
X178844580Y-117886076D01*
X178558866Y-116838457D02*
X178558866Y-116076553D01*
X178035057Y-115647981D02*
X177987438Y-115600362D01*
X177987438Y-115600362D02*
X177939819Y-115505124D01*
X177939819Y-115505124D02*
X177939819Y-115267029D01*
X177939819Y-115267029D02*
X177987438Y-115171791D01*
X177987438Y-115171791D02*
X178035057Y-115124172D01*
X178035057Y-115124172D02*
X178130295Y-115076553D01*
X178130295Y-115076553D02*
X178225533Y-115076553D01*
X178225533Y-115076553D02*
X178368390Y-115124172D01*
X178368390Y-115124172D02*
X178939819Y-115695600D01*
X178939819Y-115695600D02*
X178939819Y-115076553D01*
X177939819Y-114219410D02*
X177939819Y-114409886D01*
X177939819Y-114409886D02*
X177987438Y-114505124D01*
X177987438Y-114505124D02*
X178035057Y-114552743D01*
X178035057Y-114552743D02*
X178177914Y-114647981D01*
X178177914Y-114647981D02*
X178368390Y-114695600D01*
X178368390Y-114695600D02*
X178749342Y-114695600D01*
X178749342Y-114695600D02*
X178844580Y-114647981D01*
X178844580Y-114647981D02*
X178892200Y-114600362D01*
X178892200Y-114600362D02*
X178939819Y-114505124D01*
X178939819Y-114505124D02*
X178939819Y-114314648D01*
X178939819Y-114314648D02*
X178892200Y-114219410D01*
X178892200Y-114219410D02*
X178844580Y-114171791D01*
X178844580Y-114171791D02*
X178749342Y-114124172D01*
X178749342Y-114124172D02*
X178511247Y-114124172D01*
X178511247Y-114124172D02*
X178416009Y-114171791D01*
X178416009Y-114171791D02*
X178368390Y-114219410D01*
X178368390Y-114219410D02*
X178320771Y-114314648D01*
X178320771Y-114314648D02*
X178320771Y-114505124D01*
X178320771Y-114505124D02*
X178368390Y-114600362D01*
X178368390Y-114600362D02*
X178416009Y-114647981D01*
X178416009Y-114647981D02*
X178511247Y-114695600D01*
D11*
X168759226Y-104406667D02*
X167825893Y-104406667D01*
X169292560Y-104073334D02*
X168292560Y-103740000D01*
X168292560Y-103740000D02*
X168292560Y-104606667D01*
X169092560Y-101200000D02*
X169159226Y-101266667D01*
X169159226Y-101266667D02*
X169225893Y-101400000D01*
X169225893Y-101400000D02*
X169225893Y-101733334D01*
X169225893Y-101733334D02*
X169159226Y-101866667D01*
X169159226Y-101866667D02*
X169092560Y-101933334D01*
X169092560Y-101933334D02*
X168959226Y-102000000D01*
X168959226Y-102000000D02*
X168825893Y-102000000D01*
X168825893Y-102000000D02*
X168625893Y-101933334D01*
X168625893Y-101933334D02*
X167825893Y-101133334D01*
X167825893Y-101133334D02*
X167825893Y-102000000D01*
D10*
X155887808Y-98255253D02*
X155887808Y-97255253D01*
X155887808Y-97255253D02*
X156125903Y-97255253D01*
X156125903Y-97255253D02*
X156268760Y-97302872D01*
X156268760Y-97302872D02*
X156363998Y-97398110D01*
X156363998Y-97398110D02*
X156411617Y-97493348D01*
X156411617Y-97493348D02*
X156459236Y-97683824D01*
X156459236Y-97683824D02*
X156459236Y-97826681D01*
X156459236Y-97826681D02*
X156411617Y-98017157D01*
X156411617Y-98017157D02*
X156363998Y-98112395D01*
X156363998Y-98112395D02*
X156268760Y-98207634D01*
X156268760Y-98207634D02*
X156125903Y-98255253D01*
X156125903Y-98255253D02*
X155887808Y-98255253D01*
X157030665Y-97683824D02*
X156935427Y-97636205D01*
X156935427Y-97636205D02*
X156887808Y-97588586D01*
X156887808Y-97588586D02*
X156840189Y-97493348D01*
X156840189Y-97493348D02*
X156840189Y-97445729D01*
X156840189Y-97445729D02*
X156887808Y-97350491D01*
X156887808Y-97350491D02*
X156935427Y-97302872D01*
X156935427Y-97302872D02*
X157030665Y-97255253D01*
X157030665Y-97255253D02*
X157221141Y-97255253D01*
X157221141Y-97255253D02*
X157316379Y-97302872D01*
X157316379Y-97302872D02*
X157363998Y-97350491D01*
X157363998Y-97350491D02*
X157411617Y-97445729D01*
X157411617Y-97445729D02*
X157411617Y-97493348D01*
X157411617Y-97493348D02*
X157363998Y-97588586D01*
X157363998Y-97588586D02*
X157316379Y-97636205D01*
X157316379Y-97636205D02*
X157221141Y-97683824D01*
X157221141Y-97683824D02*
X157030665Y-97683824D01*
X157030665Y-97683824D02*
X156935427Y-97731443D01*
X156935427Y-97731443D02*
X156887808Y-97779062D01*
X156887808Y-97779062D02*
X156840189Y-97874300D01*
X156840189Y-97874300D02*
X156840189Y-98064776D01*
X156840189Y-98064776D02*
X156887808Y-98160014D01*
X156887808Y-98160014D02*
X156935427Y-98207634D01*
X156935427Y-98207634D02*
X157030665Y-98255253D01*
X157030665Y-98255253D02*
X157221141Y-98255253D01*
X157221141Y-98255253D02*
X157316379Y-98207634D01*
X157316379Y-98207634D02*
X157363998Y-98160014D01*
X157363998Y-98160014D02*
X157411617Y-98064776D01*
X157411617Y-98064776D02*
X157411617Y-97874300D01*
X157411617Y-97874300D02*
X157363998Y-97779062D01*
X157363998Y-97779062D02*
X157316379Y-97731443D01*
X157316379Y-97731443D02*
X157221141Y-97683824D01*
D12*
G36*
X134963258Y-118678956D02*
G01*
X134942937Y-118421769D01*
X135008390Y-118404963D01*
X135068742Y-118377453D01*
X135120089Y-118336449D01*
X135127732Y-118327784D01*
X135161355Y-118273033D01*
X135181022Y-118206577D01*
X135186789Y-118136004D01*
X135182595Y-118069179D01*
X135168096Y-118006594D01*
X135137027Y-117947700D01*
X135133764Y-117943590D01*
X135083686Y-117899311D01*
X135022478Y-117879386D01*
X135009298Y-117878817D01*
X134946190Y-117895483D01*
X134931507Y-117906123D01*
X134892971Y-117959329D01*
X134875624Y-118001060D01*
X134856194Y-118064570D01*
X134838439Y-118129338D01*
X134821783Y-118192667D01*
X134816566Y-118212843D01*
X134799025Y-118276131D01*
X134776462Y-118343911D01*
X134752246Y-118402782D01*
X134721907Y-118460208D01*
X134684480Y-118510990D01*
X134634399Y-118558004D01*
X134579730Y-118593470D01*
X134520473Y-118617389D01*
X134456627Y-118629761D01*
X134418084Y-118631646D01*
X134350205Y-118624968D01*
X134285403Y-118604933D01*
X134229162Y-118575129D01*
X134178118Y-118534738D01*
X134135321Y-118484612D01*
X134100773Y-118424749D01*
X134094853Y-118411608D01*
X134072597Y-118347953D01*
X134058929Y-118285551D01*
X134051016Y-118217672D01*
X134048813Y-118153785D01*
X134051519Y-118079764D01*
X134059635Y-118011697D01*
X134073162Y-117949583D01*
X134096536Y-117882905D01*
X134127702Y-117824799D01*
X134159626Y-117782927D01*
X134211647Y-117734001D01*
X134270748Y-117696410D01*
X134336929Y-117670153D01*
X134399291Y-117656669D01*
X134455233Y-117651793D01*
X134455233Y-117916284D01*
X134389850Y-117934397D01*
X134333095Y-117969412D01*
X134315209Y-117988995D01*
X134285907Y-118048588D01*
X134273851Y-118116695D01*
X134272344Y-118156643D01*
X134276871Y-118223644D01*
X134292309Y-118286171D01*
X134318702Y-118336992D01*
X134372104Y-118375589D01*
X134398715Y-118378904D01*
X134459500Y-118356757D01*
X134476507Y-118339532D01*
X134508313Y-118282007D01*
X134530460Y-118221282D01*
X134550457Y-118153464D01*
X134565094Y-118096632D01*
X134582783Y-118027777D01*
X134600606Y-117966000D01*
X134621569Y-117902870D01*
X134645750Y-117842517D01*
X134660983Y-117811186D01*
X134695048Y-117757376D01*
X134740613Y-117707281D01*
X134794658Y-117666716D01*
X134857631Y-117636889D01*
X134923020Y-117620517D01*
X134988497Y-117614531D01*
X135003900Y-117614326D01*
X135073152Y-117620435D01*
X135139614Y-117638760D01*
X135203284Y-117669302D01*
X135215683Y-117676877D01*
X135267210Y-117716155D01*
X135310700Y-117763622D01*
X135346153Y-117819276D01*
X135362376Y-117853733D01*
X135383352Y-117914398D01*
X135398334Y-117982089D01*
X135406528Y-118047080D01*
X135410133Y-118117451D01*
X135410321Y-118138545D01*
X135407538Y-118213323D01*
X135399189Y-118282475D01*
X135385274Y-118345998D01*
X135361230Y-118414797D01*
X135329171Y-118475492D01*
X135296332Y-118519881D01*
X135249795Y-118566009D01*
X135195913Y-118604613D01*
X135134686Y-118635693D01*
X135066114Y-118659250D01*
X135003359Y-118673134D01*
X134963258Y-118678956D01*
G37*
G36*
X135390000Y-117224099D02*
G01*
X134434912Y-117524152D01*
X134434912Y-117280300D01*
X135060736Y-117102491D01*
X134434912Y-116938970D01*
X134434912Y-116697023D01*
X135060736Y-116538900D01*
X134434912Y-116357916D01*
X134434912Y-116110254D01*
X135390000Y-116415069D01*
X135390000Y-116656064D01*
X134775607Y-116819584D01*
X135390000Y-116980247D01*
X135390000Y-117224099D01*
G37*
G36*
X134292665Y-115986106D02*
G01*
X134069134Y-115986106D01*
X134069134Y-115734951D01*
X134292665Y-115734951D01*
X134292665Y-115986106D01*
G37*
G36*
X135390000Y-115986106D02*
G01*
X134434912Y-115986106D01*
X134434912Y-115734951D01*
X135390000Y-115734951D01*
X135390000Y-115986106D01*
G37*
G36*
X134434912Y-115045624D02*
G01*
X134617801Y-115045624D01*
X134617801Y-115217083D01*
X135032477Y-115217083D01*
X135100997Y-115216617D01*
X135165289Y-115214176D01*
X135179487Y-115212320D01*
X135214096Y-115189776D01*
X135227431Y-115147547D01*
X135216026Y-115084815D01*
X135203300Y-115046577D01*
X135377299Y-115024986D01*
X135396099Y-115087936D01*
X135407096Y-115156288D01*
X135410321Y-115223115D01*
X135404446Y-115287730D01*
X135386824Y-115345676D01*
X135352121Y-115402383D01*
X135326179Y-115425690D01*
X135266071Y-115452329D01*
X135225526Y-115460935D01*
X135157499Y-115466888D01*
X135091682Y-115468593D01*
X135043590Y-115468872D01*
X134617801Y-115468872D01*
X134617801Y-115584131D01*
X134434912Y-115584131D01*
X134434912Y-115468872D01*
X134252023Y-115468872D01*
X134109776Y-115217083D01*
X134434912Y-115217083D01*
X134434912Y-115045624D01*
G37*
G36*
X134699085Y-114047672D02*
G01*
X134739727Y-114295017D01*
X134677732Y-114315417D01*
X134633360Y-114351852D01*
X134604348Y-114409842D01*
X134597480Y-114466475D01*
X134607214Y-114531412D01*
X134639728Y-114589769D01*
X134666699Y-114616025D01*
X134725279Y-114647841D01*
X134789562Y-114664050D01*
X134859059Y-114671035D01*
X134898168Y-114671908D01*
X134962081Y-114669921D01*
X135027251Y-114662580D01*
X135089340Y-114647568D01*
X135148366Y-114618867D01*
X135153133Y-114615390D01*
X135198409Y-114567316D01*
X135222788Y-114508348D01*
X135227431Y-114462983D01*
X135217192Y-114398051D01*
X135186472Y-114346137D01*
X135134728Y-114309203D01*
X135074547Y-114288194D01*
X135044542Y-114281681D01*
X135085184Y-114035289D01*
X135151845Y-114055471D01*
X135210970Y-114082398D01*
X135269314Y-114121433D01*
X135317814Y-114169278D01*
X135328401Y-114182616D01*
X135364241Y-114241714D01*
X135387201Y-114301043D01*
X135402321Y-114367482D01*
X135409601Y-114441033D01*
X135410321Y-114474731D01*
X135405688Y-114549763D01*
X135391790Y-114618878D01*
X135368628Y-114682077D01*
X135336200Y-114739360D01*
X135294508Y-114790727D01*
X135278551Y-114806535D01*
X135225469Y-114848510D01*
X135165288Y-114881801D01*
X135098007Y-114906407D01*
X135023626Y-114922329D01*
X134956219Y-114928963D01*
X134913408Y-114930048D01*
X134842236Y-114927017D01*
X134776164Y-114917924D01*
X134703610Y-114899011D01*
X134638401Y-114871369D01*
X134580538Y-114834997D01*
X134546043Y-114805900D01*
X134501370Y-114756263D01*
X134465940Y-114700465D01*
X134439752Y-114638504D01*
X134422807Y-114570382D01*
X134415105Y-114496099D01*
X134414591Y-114469968D01*
X134417964Y-114397649D01*
X134428083Y-114332106D01*
X134447908Y-114265497D01*
X134476544Y-114207739D01*
X134485080Y-114194682D01*
X134530378Y-114141718D01*
X134580426Y-114102272D01*
X134639683Y-114070009D01*
X134699085Y-114047672D01*
G37*
G36*
X134069134Y-113612358D02*
G01*
X134549853Y-113612358D01*
X134503885Y-113565200D01*
X134462276Y-113505949D01*
X134433612Y-113442140D01*
X134417894Y-113373773D01*
X134414591Y-113322149D01*
X134419936Y-113254550D01*
X134435971Y-113192610D01*
X134446978Y-113165931D01*
X134481247Y-113108276D01*
X134526414Y-113063387D01*
X134529532Y-113061151D01*
X134585971Y-113029977D01*
X134640980Y-113012889D01*
X134707268Y-113003989D01*
X134777513Y-113000493D01*
X134830537Y-112999870D01*
X135390000Y-112999870D01*
X135390000Y-113250708D01*
X134879434Y-113250708D01*
X134810474Y-113251601D01*
X134743752Y-113255229D01*
X134686702Y-113264996D01*
X134632974Y-113300693D01*
X134621612Y-113315481D01*
X134599389Y-113376864D01*
X134597480Y-113405973D01*
X134607326Y-113472123D01*
X134628597Y-113517739D01*
X134673192Y-113564767D01*
X134721629Y-113589815D01*
X134787508Y-113605225D01*
X134855302Y-113611279D01*
X134905788Y-113612358D01*
X135390000Y-113612358D01*
X135390000Y-113863196D01*
X134069134Y-113863196D01*
X134069134Y-113612358D01*
G37*
G36*
X134983579Y-111938415D02*
G01*
X134983579Y-112567096D01*
X135050791Y-112560083D01*
X135113120Y-112539833D01*
X135163293Y-112506451D01*
X135204820Y-112454524D01*
X135225177Y-112393165D01*
X135227431Y-112361664D01*
X135217245Y-112298514D01*
X135198538Y-112262916D01*
X135148653Y-112220201D01*
X135105505Y-112201953D01*
X135146147Y-111951751D01*
X135206912Y-111979375D01*
X135266069Y-112018801D01*
X135315480Y-112067069D01*
X135343007Y-112104159D01*
X135375546Y-112166706D01*
X135395530Y-112229261D01*
X135407099Y-112298366D01*
X135410321Y-112364204D01*
X135406359Y-112438451D01*
X135394476Y-112506404D01*
X135374670Y-112568062D01*
X135340445Y-112633743D01*
X135294812Y-112690360D01*
X135248070Y-112730617D01*
X135187864Y-112767114D01*
X135121155Y-112794647D01*
X135058801Y-112811112D01*
X134991669Y-112820991D01*
X134919759Y-112824284D01*
X134848249Y-112821277D01*
X134781763Y-112812253D01*
X134708611Y-112793485D01*
X134642692Y-112766055D01*
X134584006Y-112729962D01*
X134548900Y-112701088D01*
X134503256Y-112652590D01*
X134467056Y-112599493D01*
X134440299Y-112541797D01*
X134422986Y-112479502D01*
X134415116Y-112412608D01*
X134414591Y-112389288D01*
X134415389Y-112374364D01*
X134597480Y-112374364D01*
X134608967Y-112440635D01*
X134643426Y-112496087D01*
X134657491Y-112509944D01*
X134713582Y-112544529D01*
X134777916Y-112560455D01*
X134821011Y-112562651D01*
X134821011Y-112187665D01*
X134757694Y-112194245D01*
X134695302Y-112215320D01*
X134654633Y-112243866D01*
X134615564Y-112295255D01*
X134597983Y-112360161D01*
X134597480Y-112374364D01*
X134415389Y-112374364D01*
X134418010Y-112325383D01*
X134431137Y-112254448D01*
X134454110Y-112189786D01*
X134486928Y-112131398D01*
X134529592Y-112079284D01*
X134554616Y-112055579D01*
X134612360Y-112014117D01*
X134680575Y-111981652D01*
X134745419Y-111961471D01*
X134817535Y-111947538D01*
X134896921Y-111939853D01*
X134965666Y-111938203D01*
X134983579Y-111938415D01*
G37*
G36*
X135125826Y-111827285D02*
G01*
X135085184Y-111575495D01*
X135146624Y-111551126D01*
X135191235Y-111510404D01*
X135218382Y-111451346D01*
X135227290Y-111383522D01*
X135227431Y-111372602D01*
X135222386Y-111306475D01*
X135201889Y-111242778D01*
X135191552Y-111226228D01*
X135134841Y-111193722D01*
X135124556Y-111193206D01*
X135077247Y-111210987D01*
X135050029Y-111272241D01*
X135044225Y-111295129D01*
X135027655Y-111367542D01*
X135011441Y-111433010D01*
X134991677Y-111505077D01*
X134972471Y-111566292D01*
X134946521Y-111633760D01*
X134921664Y-111679958D01*
X134879315Y-111729133D01*
X134822659Y-111767661D01*
X134756459Y-111788407D01*
X134707023Y-111792358D01*
X134640508Y-111784673D01*
X134580271Y-111761616D01*
X134526314Y-111723189D01*
X134499050Y-111695198D01*
X134462100Y-111639772D01*
X134438428Y-111580302D01*
X134422839Y-111510592D01*
X134415911Y-111442689D01*
X134414591Y-111393241D01*
X134416935Y-111323768D01*
X134425596Y-111251605D01*
X134440637Y-111189014D01*
X134465642Y-111129202D01*
X134481270Y-111103984D01*
X134523850Y-111055279D01*
X134576576Y-111015967D01*
X134639450Y-110986048D01*
X134678764Y-110973485D01*
X134719406Y-111210352D01*
X134659014Y-111238077D01*
X134628914Y-111268140D01*
X134603497Y-111327101D01*
X134597480Y-111388796D01*
X134601365Y-111455191D01*
X134618630Y-111519131D01*
X134625104Y-111530725D01*
X134676224Y-111559302D01*
X134721629Y-111534218D01*
X134747528Y-111472645D01*
X134765874Y-111408864D01*
X134784043Y-111335995D01*
X134792435Y-111299891D01*
X134810198Y-111229001D01*
X134829435Y-111166594D01*
X134853741Y-111104509D01*
X134883974Y-111047693D01*
X134904200Y-111019842D01*
X134956563Y-110975192D01*
X135021532Y-110949075D01*
X135091535Y-110941416D01*
X135162077Y-110950031D01*
X135226893Y-110975875D01*
X135279700Y-111013312D01*
X135316336Y-111050324D01*
X135352957Y-111102970D01*
X135380583Y-111165613D01*
X135397104Y-111227265D01*
X135407016Y-111296261D01*
X135410321Y-111372602D01*
X135407630Y-111442507D01*
X135399560Y-111506718D01*
X135383344Y-111574436D01*
X135359805Y-111634405D01*
X135333799Y-111679640D01*
X135292105Y-111731137D01*
X135243545Y-111772910D01*
X135188119Y-111804960D01*
X135125826Y-111827285D01*
G37*
G36*
X135207110Y-109933621D02*
G01*
X134861653Y-109933621D01*
X134861653Y-110276538D01*
X134638122Y-110276538D01*
X134638122Y-109933621D01*
X134292665Y-109933621D01*
X134292665Y-109705010D01*
X134638122Y-109705010D01*
X134638122Y-109361140D01*
X134861653Y-109361140D01*
X134861653Y-109705010D01*
X135207110Y-109705010D01*
X135207110Y-109933621D01*
G37*
G36*
X135390000Y-108660066D02*
G01*
X134069134Y-108660066D01*
X134069134Y-108395893D01*
X135390000Y-108395893D01*
X135390000Y-108660066D01*
G37*
G36*
X134811388Y-107051873D02*
G01*
X134876223Y-107057662D01*
X134945074Y-107069003D01*
X135008330Y-107085385D01*
X135023269Y-107090268D01*
X135083707Y-107113682D01*
X135146342Y-107145388D01*
X135202111Y-107182374D01*
X135251013Y-107224638D01*
X135256643Y-107230293D01*
X135299612Y-107283327D01*
X135332555Y-107341373D01*
X135357218Y-107401621D01*
X135362058Y-107416039D01*
X135377966Y-107483229D01*
X135386070Y-107548528D01*
X135389563Y-107614372D01*
X135390000Y-107650048D01*
X135390000Y-108147595D01*
X134069134Y-108147595D01*
X134069134Y-107883105D01*
X134292665Y-107883105D01*
X135166468Y-107883105D01*
X135166468Y-107685928D01*
X135164968Y-107617022D01*
X135158717Y-107550379D01*
X135153768Y-107525900D01*
X135130290Y-107463936D01*
X135099155Y-107419532D01*
X135047956Y-107380954D01*
X134988003Y-107355454D01*
X134971831Y-107350314D01*
X134903131Y-107334948D01*
X134835647Y-107327120D01*
X134767143Y-107323746D01*
X134729884Y-107323325D01*
X134657947Y-107325011D01*
X134587597Y-107330942D01*
X134522569Y-107342538D01*
X134495240Y-107350314D01*
X134434655Y-107375547D01*
X134379595Y-107413519D01*
X134367599Y-107425247D01*
X134329021Y-107479781D01*
X134306407Y-107542873D01*
X134305366Y-107547491D01*
X134296684Y-107616192D01*
X134293670Y-107681859D01*
X134292678Y-107754357D01*
X134292665Y-107764354D01*
X134292665Y-107883105D01*
X134069134Y-107883105D01*
X134069134Y-107664337D01*
X134070334Y-107596519D01*
X134074646Y-107528129D01*
X134083244Y-107462813D01*
X134094218Y-107415087D01*
X134117726Y-107353020D01*
X134149674Y-107296126D01*
X134190061Y-107244407D01*
X134216144Y-107217909D01*
X134268374Y-107174766D01*
X134326833Y-107137851D01*
X134391521Y-107107165D01*
X134430150Y-107092808D01*
X134497046Y-107074055D01*
X134561669Y-107062041D01*
X134631974Y-107054130D01*
X134696759Y-107050613D01*
X134742267Y-107049944D01*
X134811388Y-107051873D01*
G37*
G36*
X135125826Y-106418087D02*
G01*
X135085184Y-106166297D01*
X135146624Y-106141928D01*
X135191235Y-106101207D01*
X135218382Y-106042149D01*
X135227290Y-105974325D01*
X135227431Y-105963405D01*
X135222386Y-105897277D01*
X135201889Y-105833580D01*
X135191552Y-105817030D01*
X135134841Y-105784525D01*
X135124556Y-105784009D01*
X135077247Y-105801789D01*
X135050029Y-105863044D01*
X135044225Y-105885931D01*
X135027655Y-105958345D01*
X135011441Y-106023812D01*
X134991677Y-106095880D01*
X134972471Y-106157094D01*
X134946521Y-106224563D01*
X134921664Y-106270760D01*
X134879315Y-106319935D01*
X134822659Y-106358463D01*
X134756459Y-106379209D01*
X134707023Y-106383161D01*
X134640508Y-106375475D01*
X134580271Y-106352419D01*
X134526314Y-106313991D01*
X134499050Y-106286001D01*
X134462100Y-106230575D01*
X134438428Y-106171105D01*
X134422839Y-106101394D01*
X134415911Y-106033492D01*
X134414591Y-105984043D01*
X134416935Y-105914571D01*
X134425596Y-105842408D01*
X134440637Y-105779816D01*
X134465642Y-105720004D01*
X134481270Y-105694787D01*
X134523850Y-105646081D01*
X134576576Y-105606769D01*
X134639450Y-105576850D01*
X134678764Y-105564288D01*
X134719406Y-105801154D01*
X134659014Y-105828879D01*
X134628914Y-105858942D01*
X134603497Y-105917903D01*
X134597480Y-105979598D01*
X134601365Y-106045994D01*
X134618630Y-106109933D01*
X134625104Y-106121528D01*
X134676224Y-106150104D01*
X134721629Y-106125020D01*
X134747528Y-106063447D01*
X134765874Y-105999666D01*
X134784043Y-105926798D01*
X134792435Y-105890694D01*
X134810198Y-105819804D01*
X134829435Y-105757397D01*
X134853741Y-105695311D01*
X134883974Y-105638496D01*
X134904200Y-105610645D01*
X134956563Y-105565994D01*
X135021532Y-105539877D01*
X135091535Y-105532219D01*
X135162077Y-105540833D01*
X135226893Y-105566678D01*
X135279700Y-105604115D01*
X135316336Y-105641127D01*
X135352957Y-105693772D01*
X135380583Y-105756416D01*
X135397104Y-105818067D01*
X135407016Y-105887064D01*
X135410321Y-105963405D01*
X135407630Y-106033309D01*
X135399560Y-106097521D01*
X135383344Y-106165239D01*
X135359805Y-106225208D01*
X135333799Y-106270443D01*
X135292105Y-106321940D01*
X135243545Y-106363713D01*
X135188119Y-106395762D01*
X135125826Y-106418087D01*
G37*
G36*
X134069134Y-105067376D02*
G01*
X134549853Y-105067376D01*
X134503885Y-105020217D01*
X134462276Y-104960966D01*
X134433612Y-104897157D01*
X134417894Y-104828790D01*
X134414591Y-104777166D01*
X134419936Y-104709567D01*
X134435971Y-104647627D01*
X134446978Y-104620949D01*
X134481247Y-104563293D01*
X134526414Y-104518405D01*
X134529532Y-104516168D01*
X134585971Y-104484994D01*
X134640980Y-104467906D01*
X134707268Y-104459007D01*
X134777513Y-104455511D01*
X134830537Y-104454888D01*
X135390000Y-104454888D01*
X135390000Y-104705725D01*
X134879434Y-104705725D01*
X134810474Y-104706618D01*
X134743752Y-104710246D01*
X134686702Y-104720013D01*
X134632974Y-104755711D01*
X134621612Y-104770498D01*
X134599389Y-104831881D01*
X134597480Y-104860990D01*
X134607326Y-104927140D01*
X134628597Y-104972756D01*
X134673192Y-105019784D01*
X134721629Y-105044832D01*
X134787508Y-105060243D01*
X134855302Y-105066297D01*
X134905788Y-105067376D01*
X135390000Y-105067376D01*
X135390000Y-105318213D01*
X134069134Y-105318213D01*
X134069134Y-105067376D01*
G37*
G36*
X134983579Y-103393433D02*
G01*
X134983579Y-104022114D01*
X135050791Y-104015100D01*
X135113120Y-103994850D01*
X135163293Y-103961468D01*
X135204820Y-103909542D01*
X135225177Y-103848182D01*
X135227431Y-103816681D01*
X135217245Y-103753531D01*
X135198538Y-103717934D01*
X135148653Y-103675218D01*
X135105505Y-103656971D01*
X135146147Y-103406769D01*
X135206912Y-103434392D01*
X135266069Y-103473819D01*
X135315480Y-103522086D01*
X135343007Y-103559176D01*
X135375546Y-103621723D01*
X135395530Y-103684279D01*
X135407099Y-103753383D01*
X135410321Y-103819221D01*
X135406359Y-103893469D01*
X135394476Y-103961421D01*
X135374670Y-104023080D01*
X135340445Y-104088761D01*
X135294812Y-104145378D01*
X135248070Y-104185635D01*
X135187864Y-104222132D01*
X135121155Y-104249665D01*
X135058801Y-104266130D01*
X134991669Y-104276009D01*
X134919759Y-104279302D01*
X134848249Y-104276294D01*
X134781763Y-104267271D01*
X134708611Y-104248503D01*
X134642692Y-104221072D01*
X134584006Y-104184980D01*
X134548900Y-104156106D01*
X134503256Y-104107608D01*
X134467056Y-104054510D01*
X134440299Y-103996814D01*
X134422986Y-103934519D01*
X134415116Y-103867625D01*
X134414591Y-103844305D01*
X134415389Y-103829382D01*
X134597480Y-103829382D01*
X134608967Y-103895652D01*
X134643426Y-103951105D01*
X134657491Y-103964961D01*
X134713582Y-103999547D01*
X134777916Y-104015472D01*
X134821011Y-104017669D01*
X134821011Y-103642683D01*
X134757694Y-103649262D01*
X134695302Y-103670338D01*
X134654633Y-103698883D01*
X134615564Y-103750272D01*
X134597983Y-103815178D01*
X134597480Y-103829382D01*
X134415389Y-103829382D01*
X134418010Y-103780400D01*
X134431137Y-103709465D01*
X134454110Y-103644804D01*
X134486928Y-103586416D01*
X134529592Y-103534301D01*
X134554616Y-103510596D01*
X134612360Y-103469134D01*
X134680575Y-103436670D01*
X134745419Y-103416488D01*
X134817535Y-103402555D01*
X134896921Y-103394870D01*
X134965666Y-103393220D01*
X134983579Y-103393433D01*
G37*
G36*
X134292665Y-103194033D02*
G01*
X134069134Y-103194033D01*
X134069134Y-102942878D01*
X134292665Y-102942878D01*
X134292665Y-103194033D01*
G37*
G36*
X135390000Y-103194033D02*
G01*
X134434912Y-103194033D01*
X134434912Y-102942878D01*
X135390000Y-102942878D01*
X135390000Y-103194033D01*
G37*
G36*
X135390000Y-102688548D02*
G01*
X134069134Y-102688548D01*
X134069134Y-102437393D01*
X135390000Y-102437393D01*
X135390000Y-102688548D01*
G37*
G36*
X135390000Y-101546127D02*
G01*
X135250610Y-101546127D01*
X135301540Y-101588550D01*
X135345804Y-101640479D01*
X135371266Y-101683293D01*
X135395065Y-101742768D01*
X135408452Y-101807602D01*
X135410321Y-101842686D01*
X135404000Y-101911978D01*
X135385038Y-101976772D01*
X135353436Y-102037069D01*
X135309192Y-102092869D01*
X135278234Y-102122735D01*
X135224910Y-102162336D01*
X135164241Y-102193744D01*
X135096227Y-102216959D01*
X135033938Y-102230046D01*
X134966548Y-102237443D01*
X134908963Y-102239263D01*
X134836093Y-102236496D01*
X134768897Y-102228194D01*
X134695751Y-102210925D01*
X134630777Y-102185686D01*
X134573974Y-102152477D01*
X134540645Y-102125910D01*
X134491528Y-102073338D01*
X134454475Y-102015084D01*
X134429486Y-101951147D01*
X134416561Y-101881527D01*
X134414591Y-101839193D01*
X134420772Y-101773150D01*
X134597480Y-101773150D01*
X134607973Y-101836003D01*
X134643022Y-101894924D01*
X134672096Y-101922700D01*
X134731881Y-101957047D01*
X134793745Y-101974544D01*
X134858518Y-101982085D01*
X134894357Y-101983028D01*
X134959744Y-101981023D01*
X135024165Y-101973819D01*
X135089231Y-101957447D01*
X135124556Y-101941116D01*
X135178807Y-101898468D01*
X135215275Y-101840597D01*
X135227331Y-101778024D01*
X135227431Y-101771245D01*
X135214698Y-101705319D01*
X135176496Y-101647882D01*
X135150275Y-101624235D01*
X135094580Y-101592087D01*
X135031675Y-101573334D01*
X134965597Y-101564761D01*
X134919441Y-101563272D01*
X134849156Y-101566098D01*
X134780066Y-101576249D01*
X134716668Y-101596492D01*
X134673049Y-101622330D01*
X134626999Y-101671074D01*
X134601096Y-101734461D01*
X134597480Y-101773150D01*
X134420772Y-101773150D01*
X134420912Y-101771649D01*
X134439873Y-101708207D01*
X134471476Y-101648867D01*
X134515720Y-101593630D01*
X134546678Y-101563907D01*
X134069134Y-101563907D01*
X134069134Y-101313070D01*
X135390000Y-101313070D01*
X135390000Y-101546127D01*
G37*
G36*
X136618912Y-118723408D02*
G01*
X136618912Y-118584337D01*
X136546836Y-118584337D01*
X136477411Y-118581856D01*
X136409899Y-118572330D01*
X136366805Y-118558935D01*
X136312986Y-118522818D01*
X136272624Y-118469493D01*
X136270280Y-118465268D01*
X136246022Y-118403623D01*
X136234606Y-118336208D01*
X136232813Y-118292222D01*
X136235790Y-118225748D01*
X136244720Y-118160081D01*
X136259604Y-118095220D01*
X136263295Y-118082344D01*
X136429990Y-118116318D01*
X136418437Y-118182167D01*
X136415702Y-118231577D01*
X136429809Y-118293879D01*
X136443009Y-118309685D01*
X136503980Y-118330887D01*
X136547471Y-118333182D01*
X136618912Y-118333182D01*
X136618912Y-118145847D01*
X136801801Y-118145847D01*
X136801801Y-118333182D01*
X137574000Y-118333182D01*
X137574000Y-118584337D01*
X136801801Y-118584337D01*
X136801801Y-118723408D01*
X136618912Y-118723408D01*
G37*
G36*
X137159589Y-117090645D02*
G01*
X137233650Y-117103683D01*
X137302531Y-117126500D01*
X137366233Y-117159095D01*
X137424755Y-117201468D01*
X137452073Y-117226322D01*
X137500415Y-117280878D01*
X137538755Y-117340479D01*
X137567094Y-117405125D01*
X137585430Y-117474818D01*
X137593765Y-117549555D01*
X137594321Y-117575589D01*
X137590629Y-117640085D01*
X137579556Y-117703072D01*
X137561100Y-117764551D01*
X137535263Y-117824521D01*
X137502142Y-117880047D01*
X137456673Y-117934069D01*
X137402515Y-117979149D01*
X137361581Y-118004235D01*
X137301313Y-118031185D01*
X137234813Y-118050434D01*
X137171515Y-118060961D01*
X137103445Y-118065593D01*
X137083120Y-118065833D01*
X137013047Y-118060961D01*
X136944279Y-118046343D01*
X136884249Y-118025169D01*
X136839903Y-118004235D01*
X136784636Y-117970221D01*
X136730762Y-117924270D01*
X136685679Y-117870182D01*
X136660507Y-117829602D01*
X136633419Y-117771457D01*
X136614070Y-117710057D01*
X136602461Y-117645403D01*
X136598591Y-117577494D01*
X136598641Y-117576542D01*
X136781480Y-117576542D01*
X136791085Y-117640317D01*
X136823472Y-117701503D01*
X136862764Y-117741650D01*
X136920376Y-117776980D01*
X136984210Y-117797589D01*
X137050481Y-117807010D01*
X137096456Y-117808646D01*
X137168353Y-117804458D01*
X137231321Y-117791897D01*
X137291485Y-117767755D01*
X137330465Y-117741650D01*
X137376562Y-117691913D01*
X137405027Y-117629269D01*
X137411431Y-117576542D01*
X137401864Y-117512841D01*
X137369604Y-117451908D01*
X137330465Y-117412069D01*
X137272500Y-117376906D01*
X137208083Y-117356395D01*
X137141082Y-117347018D01*
X137094551Y-117345390D01*
X137023507Y-117349558D01*
X136961194Y-117362060D01*
X136901530Y-117386087D01*
X136862764Y-117412069D01*
X136816486Y-117461444D01*
X136787910Y-117523865D01*
X136781480Y-117576542D01*
X136598641Y-117576542D01*
X136602018Y-117512120D01*
X136615175Y-117438684D01*
X136638199Y-117370719D01*
X136671092Y-117308223D01*
X136713853Y-117251196D01*
X136738933Y-117224734D01*
X136794173Y-117178011D01*
X136854638Y-117140955D01*
X136920326Y-117113565D01*
X136991239Y-117095843D01*
X137054324Y-117088458D01*
X137093916Y-117087250D01*
X137159589Y-117090645D01*
G37*
G36*
X137574000Y-116656381D02*
G01*
X137574000Y-116907219D01*
X136618912Y-116907219D01*
X136618912Y-116674162D01*
X136753856Y-116674162D01*
X136700542Y-116638032D01*
X136650425Y-116594587D01*
X136628438Y-116566842D01*
X136603517Y-116505318D01*
X136598591Y-116457934D01*
X136605825Y-116394530D01*
X136627525Y-116332912D01*
X136650029Y-116292826D01*
X136883720Y-116370617D01*
X136854093Y-116428128D01*
X136842443Y-116488415D01*
X136854750Y-116550757D01*
X136871020Y-116577955D01*
X136924725Y-116617520D01*
X136974212Y-116635425D01*
X137044615Y-116647356D01*
X137109537Y-116652370D01*
X137177641Y-116655071D01*
X137243176Y-116656197D01*
X137286330Y-116656381D01*
X137574000Y-116656381D01*
G37*
G36*
X137574000Y-115814965D02*
G01*
X136886896Y-115362187D01*
X136253134Y-115773053D01*
X136253134Y-115464110D01*
X136648441Y-115205017D01*
X136253134Y-114944337D01*
X136253134Y-114637934D01*
X136885308Y-115049434D01*
X137574000Y-114597927D01*
X137574000Y-114916713D01*
X137126620Y-115206605D01*
X137574000Y-115498084D01*
X137574000Y-115814965D01*
G37*
G36*
X137228542Y-114499497D02*
G01*
X137005011Y-114499497D01*
X137005011Y-114006395D01*
X137228542Y-114006395D01*
X137228542Y-114499497D01*
G37*
G36*
X137574000Y-113860338D02*
G01*
X136253134Y-113860338D01*
X136253134Y-113603150D01*
X137145671Y-113067501D01*
X136253134Y-113067501D01*
X136253134Y-112822062D01*
X137574000Y-112822062D01*
X137574000Y-113087187D01*
X136694799Y-113614898D01*
X137574000Y-113614898D01*
X137574000Y-113860338D01*
G37*
G36*
X136253134Y-112551856D02*
G01*
X136253134Y-112287365D01*
X136970085Y-112287365D01*
X137038938Y-112286894D01*
X137103562Y-112285202D01*
X137167924Y-112280867D01*
X137191076Y-112277522D01*
X137251826Y-112256094D01*
X137305412Y-112215670D01*
X137321575Y-112196873D01*
X137353439Y-112137110D01*
X137367714Y-112074590D01*
X137370789Y-112022240D01*
X137366262Y-111957217D01*
X137348878Y-111893515D01*
X137324432Y-111852369D01*
X137276070Y-111808834D01*
X137214333Y-111784544D01*
X137210127Y-111783785D01*
X137146812Y-111776626D01*
X137082800Y-111773425D01*
X137014008Y-111772140D01*
X136985325Y-111772037D01*
X136253134Y-111772037D01*
X136253134Y-111507864D01*
X136945636Y-111507864D01*
X137016452Y-111508391D01*
X137080462Y-111509973D01*
X137148290Y-111513262D01*
X137215036Y-111519018D01*
X137281250Y-111529455D01*
X137345100Y-111548395D01*
X137406540Y-111578899D01*
X137446993Y-111608517D01*
X137493638Y-111657111D01*
X137529650Y-111711306D01*
X137554314Y-111762512D01*
X137575411Y-111828440D01*
X137587718Y-111897690D01*
X137593344Y-111967132D01*
X137594321Y-112014302D01*
X137592791Y-112081382D01*
X137587141Y-112151628D01*
X137575587Y-112221343D01*
X137556088Y-112286299D01*
X137550821Y-112298796D01*
X137520924Y-112355353D01*
X137482235Y-112408398D01*
X137437468Y-112451838D01*
X137384140Y-112488586D01*
X137324252Y-112516202D01*
X137291093Y-112525819D01*
X137227669Y-112537210D01*
X137161104Y-112544508D01*
X137095825Y-112548779D01*
X137022955Y-112551220D01*
X136956431Y-112551856D01*
X136253134Y-112551856D01*
G37*
G36*
X137065974Y-110399099D02*
G01*
X137147258Y-110142864D01*
X137212208Y-110163227D01*
X137271716Y-110187403D01*
X137335942Y-110221449D01*
X137392332Y-110260987D01*
X137440886Y-110306018D01*
X137468902Y-110339089D01*
X137504619Y-110393008D01*
X137532946Y-110452129D01*
X137553883Y-110516452D01*
X137567431Y-110585977D01*
X137573589Y-110660704D01*
X137574000Y-110686769D01*
X137571241Y-110750490D01*
X137560035Y-110826067D01*
X137540209Y-110897118D01*
X137511763Y-110963641D01*
X137474696Y-111025637D01*
X137429010Y-111083106D01*
X137397461Y-111115415D01*
X137339130Y-111163712D01*
X137274473Y-111203823D01*
X137203491Y-111235748D01*
X137142151Y-111255394D01*
X137076762Y-111269802D01*
X137007326Y-111278970D01*
X136933841Y-111282899D01*
X136914837Y-111283063D01*
X136836133Y-111280429D01*
X136761953Y-111272525D01*
X136692298Y-111259354D01*
X136627168Y-111240913D01*
X136566562Y-111217203D01*
X136497167Y-111180157D01*
X136434842Y-111134879D01*
X136411892Y-111114462D01*
X136360302Y-111059086D01*
X136317456Y-110998532D01*
X136283354Y-110932799D01*
X136257996Y-110861888D01*
X136241382Y-110785799D01*
X136234387Y-110721200D01*
X136232813Y-110670575D01*
X136236488Y-110597672D01*
X136247511Y-110529188D01*
X136265883Y-110465122D01*
X136291603Y-110405474D01*
X136324673Y-110350246D01*
X136365091Y-110299435D01*
X136383316Y-110280348D01*
X136432769Y-110238516D01*
X136491906Y-110202240D01*
X136551595Y-110175056D01*
X136618699Y-110152127D01*
X136639233Y-110146357D01*
X136679875Y-110407990D01*
X136613852Y-110429891D01*
X136558109Y-110463722D01*
X136516355Y-110504832D01*
X136482189Y-110559228D01*
X136462205Y-110621127D01*
X136456344Y-110683911D01*
X136462814Y-110753209D01*
X136482222Y-110815680D01*
X136514569Y-110871325D01*
X136559854Y-110920143D01*
X136619647Y-110959733D01*
X136685151Y-110985095D01*
X136751092Y-110999942D01*
X136826075Y-111008425D01*
X136895468Y-111010635D01*
X136968909Y-111008456D01*
X137035436Y-111001921D01*
X137106140Y-110988329D01*
X137166887Y-110968463D01*
X137225174Y-110937358D01*
X137246006Y-110921413D01*
X137291708Y-110873448D01*
X137324353Y-110818776D01*
X137343940Y-110757396D01*
X137350468Y-110689309D01*
X137342364Y-110620325D01*
X137318052Y-110558320D01*
X137281885Y-110508007D01*
X137231331Y-110464764D01*
X137172682Y-110433004D01*
X137110092Y-110410465D01*
X137065974Y-110399099D01*
G37*
G36*
X137574000Y-109916158D02*
G01*
X136253134Y-109916158D01*
X136253134Y-109651985D01*
X137350468Y-109651985D01*
X137350468Y-108994727D01*
X137574000Y-108994727D01*
X137574000Y-109916158D01*
G37*
G36*
X137574000Y-108812156D02*
G01*
X136253134Y-108812156D01*
X136253134Y-107841510D01*
X136476665Y-107841510D01*
X136476665Y-108547665D01*
X136761159Y-108547665D01*
X136761159Y-107890408D01*
X136984690Y-107890408D01*
X136984690Y-108547665D01*
X137350468Y-108547665D01*
X137350468Y-107816427D01*
X137574000Y-107816427D01*
X137574000Y-108812156D01*
G37*
G36*
X136993000Y-106385537D02*
G01*
X137066193Y-106393619D01*
X137135049Y-106407088D01*
X137199569Y-106425946D01*
X137259753Y-106450191D01*
X137328886Y-106488075D01*
X137391243Y-106534376D01*
X137414289Y-106555254D01*
X137466154Y-106611962D01*
X137509228Y-106674329D01*
X137543511Y-106742354D01*
X137569004Y-106816039D01*
X137583069Y-106879061D01*
X137591508Y-106945704D01*
X137594321Y-107015969D01*
X137591522Y-107087128D01*
X137583128Y-107154545D01*
X137569138Y-107218222D01*
X137543780Y-107292558D01*
X137509678Y-107361048D01*
X137466832Y-107423694D01*
X137415242Y-107480495D01*
X137355886Y-107530164D01*
X137289941Y-107571415D01*
X137217407Y-107604247D01*
X137154635Y-107624451D01*
X137087647Y-107639268D01*
X137016442Y-107648697D01*
X136941019Y-107652738D01*
X136921505Y-107652906D01*
X136848400Y-107650807D01*
X136779828Y-107644512D01*
X136715788Y-107634019D01*
X136646802Y-107616472D01*
X136583986Y-107593213D01*
X136523124Y-107562069D01*
X136466356Y-107524600D01*
X136413681Y-107480805D01*
X136403637Y-107471287D01*
X136357659Y-107421471D01*
X136319743Y-107368863D01*
X136287347Y-107307772D01*
X136284886Y-107302051D01*
X136262104Y-107238449D01*
X136245831Y-107170203D01*
X136236932Y-107106678D01*
X136233017Y-107039598D01*
X136232813Y-107019780D01*
X136232927Y-107016922D01*
X136456344Y-107016922D01*
X136461784Y-107085424D01*
X136478101Y-107147848D01*
X136510071Y-107211748D01*
X136556250Y-107267710D01*
X136570015Y-107280460D01*
X136625261Y-107319432D01*
X136691538Y-107348831D01*
X136757126Y-107366413D01*
X136830818Y-107376961D01*
X136898419Y-107380380D01*
X136912614Y-107380478D01*
X136980404Y-107377974D01*
X137054733Y-107368359D01*
X137121404Y-107351533D01*
X137180417Y-107327496D01*
X137239587Y-107290339D01*
X137254579Y-107277920D01*
X137299860Y-107230268D01*
X137337992Y-107169335D01*
X137361597Y-107101496D01*
X137370336Y-107036472D01*
X137370789Y-107016922D01*
X137365274Y-106950463D01*
X137345464Y-106881170D01*
X137311247Y-106818982D01*
X137269488Y-106770395D01*
X137255531Y-106757512D01*
X137199452Y-106718045D01*
X137132341Y-106688272D01*
X137066039Y-106670468D01*
X136991632Y-106659785D01*
X136923436Y-106656323D01*
X136909122Y-106656224D01*
X136840617Y-106658635D01*
X136765902Y-106667893D01*
X136699357Y-106684093D01*
X136632049Y-106711770D01*
X136575863Y-106748896D01*
X136568745Y-106754972D01*
X136524948Y-106801258D01*
X136488067Y-106861710D01*
X136465235Y-106930219D01*
X136456783Y-106996773D01*
X136456344Y-107016922D01*
X136232927Y-107016922D01*
X136235636Y-106949197D01*
X136244105Y-106882236D01*
X136258219Y-106818896D01*
X136283802Y-106744815D01*
X136318206Y-106676393D01*
X136361432Y-106613629D01*
X136413480Y-106556524D01*
X136473288Y-106506489D01*
X136539996Y-106464935D01*
X136598330Y-106437797D01*
X136661079Y-106416087D01*
X136728243Y-106399804D01*
X136799823Y-106388949D01*
X136875818Y-106383522D01*
X136915472Y-106382843D01*
X136993000Y-106385537D01*
G37*
G36*
X137228542Y-106214877D02*
G01*
X137005011Y-106214877D01*
X137005011Y-105721775D01*
X137228542Y-105721775D01*
X137228542Y-106214877D01*
G37*
G36*
X137574000Y-105586514D02*
G01*
X136253134Y-105586514D01*
X136253134Y-105322341D01*
X137574000Y-105322341D01*
X137574000Y-105586514D01*
G37*
G36*
X137574000Y-105072138D02*
G01*
X136253134Y-105072138D01*
X136253134Y-104807965D01*
X136781480Y-104807965D01*
X136781480Y-104289780D01*
X136253134Y-104289780D01*
X136253134Y-104025607D01*
X137574000Y-104025607D01*
X137574000Y-104289780D01*
X137005011Y-104289780D01*
X137005011Y-104807965D01*
X137574000Y-104807965D01*
X137574000Y-105072138D01*
G37*
G36*
X137574000Y-103763339D02*
G01*
X136253134Y-103763339D01*
X136253134Y-103367714D01*
X137154244Y-103130212D01*
X136253134Y-102895251D01*
X136253134Y-102498991D01*
X137574000Y-102498991D01*
X137574000Y-102744431D01*
X136534136Y-102744431D01*
X137574000Y-103004476D01*
X137574000Y-103258806D01*
X136534136Y-103517899D01*
X137574000Y-103517899D01*
X137574000Y-103763339D01*
G37*
G36*
X136992096Y-101452002D02*
G01*
X137056464Y-101455393D01*
X137136557Y-101463430D01*
X137210102Y-101475485D01*
X137277098Y-101491560D01*
X137337545Y-101511652D01*
X137403894Y-101542420D01*
X137460011Y-101579466D01*
X137512345Y-101629997D01*
X137551824Y-101688521D01*
X137578450Y-101755037D01*
X137591041Y-101818411D01*
X137594321Y-101875708D01*
X137589141Y-101944786D01*
X137573603Y-102008663D01*
X137547705Y-102067337D01*
X137511449Y-102120810D01*
X137464834Y-102169081D01*
X137446993Y-102184016D01*
X137383630Y-102223725D01*
X137318429Y-102250540D01*
X137241957Y-102271650D01*
X137172665Y-102284430D01*
X137096158Y-102293558D01*
X137012438Y-102299036D01*
X136944914Y-102300747D01*
X136921505Y-102300861D01*
X136853794Y-102299731D01*
X136789733Y-102296340D01*
X136709997Y-102288303D01*
X136636750Y-102276248D01*
X136569993Y-102260173D01*
X136509724Y-102240081D01*
X136443514Y-102209314D01*
X136387443Y-102172267D01*
X136335110Y-102121720D01*
X136295630Y-102063151D01*
X136269005Y-101996560D01*
X136256413Y-101933096D01*
X136253134Y-101875708D01*
X136476665Y-101875708D01*
X136492561Y-101938457D01*
X136504924Y-101956992D01*
X136557612Y-101995391D01*
X136605894Y-102012240D01*
X136669315Y-102024825D01*
X136732742Y-102031767D01*
X136796927Y-102035733D01*
X136870176Y-102037869D01*
X136924045Y-102038276D01*
X136990579Y-102037710D01*
X137061395Y-102035537D01*
X137131570Y-102030942D01*
X137195361Y-102022974D01*
X137231718Y-102015097D01*
X137294150Y-101992506D01*
X137343166Y-101956674D01*
X137369063Y-101897795D01*
X137370789Y-101875708D01*
X137354894Y-101812959D01*
X137342531Y-101794424D01*
X137289843Y-101756024D01*
X137241561Y-101739176D01*
X137178575Y-101726590D01*
X137115348Y-101719649D01*
X137051237Y-101715682D01*
X136977973Y-101713547D01*
X136924045Y-101713140D01*
X136857610Y-101713706D01*
X136786913Y-101715879D01*
X136716877Y-101720474D01*
X136653245Y-101728441D01*
X136617007Y-101736318D01*
X136554297Y-101758970D01*
X136504924Y-101795059D01*
X136478431Y-101853640D01*
X136476665Y-101875708D01*
X136253134Y-101875708D01*
X136257923Y-101807407D01*
X136272289Y-101744911D01*
X136301155Y-101679336D01*
X136343057Y-101621661D01*
X136389348Y-101578513D01*
X136444932Y-101541741D01*
X136510873Y-101511202D01*
X136587169Y-101486896D01*
X136655663Y-101471938D01*
X136730786Y-101460968D01*
X136812536Y-101453988D01*
X136878199Y-101451370D01*
X136924045Y-101450872D01*
X136992096Y-101452002D01*
G37*
G36*
X137330147Y-100440219D02*
G01*
X137574000Y-100440219D01*
X137574000Y-101320055D01*
X137509306Y-101309339D01*
X137446358Y-101291479D01*
X137385157Y-101266475D01*
X137325702Y-101234326D01*
X137270643Y-101196401D01*
X137217620Y-101153276D01*
X137169324Y-101109851D01*
X137117293Y-101059621D01*
X137061524Y-101002584D01*
X137014219Y-100952055D01*
X136967676Y-100902179D01*
X136918352Y-100850801D01*
X136869808Y-100802542D01*
X136821638Y-100758980D01*
X136801801Y-100743764D01*
X136744202Y-100712226D01*
X136682407Y-100694486D01*
X136649394Y-100692009D01*
X136583957Y-100700639D01*
X136527181Y-100731637D01*
X136521435Y-100737096D01*
X136486502Y-100794680D01*
X136476665Y-100861563D01*
X136486991Y-100928269D01*
X136520766Y-100983735D01*
X136523658Y-100986664D01*
X136581387Y-101021543D01*
X136647262Y-101037088D01*
X136679875Y-101040324D01*
X136655109Y-101290526D01*
X136590904Y-101281247D01*
X136521695Y-101263953D01*
X136461037Y-101239938D01*
X136401077Y-101203428D01*
X136352754Y-101157771D01*
X136346801Y-101150502D01*
X136310304Y-101096015D01*
X136282771Y-101035907D01*
X136264202Y-100970178D01*
X136254598Y-100898826D01*
X136253134Y-100855530D01*
X136256796Y-100785812D01*
X136267780Y-100721920D01*
X136289849Y-100654745D01*
X136321886Y-100595501D01*
X136357279Y-100551032D01*
X136405150Y-100507854D01*
X136465850Y-100471494D01*
X136532940Y-100448985D01*
X136596886Y-100440652D01*
X136616055Y-100440219D01*
X136680858Y-100444684D01*
X136743339Y-100458080D01*
X136783703Y-100471971D01*
X136844353Y-100500964D01*
X136901911Y-100536641D01*
X136950399Y-100572306D01*
X137000884Y-100616867D01*
X137048124Y-100663767D01*
X137096863Y-100715155D01*
X137116777Y-100736779D01*
X137160682Y-100784569D01*
X137206951Y-100833780D01*
X137253565Y-100880563D01*
X137260929Y-100887281D01*
X137311065Y-100926691D01*
X137330147Y-100938719D01*
X137330147Y-100440219D01*
G37*
G36*
X137574000Y-99327009D02*
G01*
X137269184Y-99441315D01*
X137269184Y-99964898D01*
X137574000Y-100072854D01*
X137574000Y-100353220D01*
X136253134Y-99843290D01*
X136253134Y-99706758D01*
X136578270Y-99706758D01*
X137045653Y-99883614D01*
X137045653Y-99526409D01*
X136578270Y-99706758D01*
X136253134Y-99706758D01*
X136253134Y-99563876D01*
X137574000Y-99039658D01*
X137574000Y-99327009D01*
G37*
G36*
X137574000Y-98320167D02*
G01*
X137574000Y-98571004D01*
X136618277Y-98571004D01*
X136667430Y-98624291D01*
X136711538Y-98681038D01*
X136750599Y-98741246D01*
X136784616Y-98804914D01*
X136813587Y-98872043D01*
X136822122Y-98895188D01*
X136578270Y-98895188D01*
X136553105Y-98832193D01*
X136521018Y-98772635D01*
X136484989Y-98717417D01*
X136458884Y-98681817D01*
X136412924Y-98628713D01*
X136363312Y-98584658D01*
X136310049Y-98549651D01*
X136253134Y-98523695D01*
X136253134Y-98320167D01*
X137574000Y-98320167D01*
G37*
D11*
X148404106Y-109446667D02*
X148404106Y-110113333D01*
X148404106Y-110113333D02*
X147004106Y-110113333D01*
X148404106Y-108980000D02*
X147004106Y-108980000D01*
X148404106Y-108313333D02*
X147004106Y-108313333D01*
X147004106Y-108313333D02*
X148004106Y-107846667D01*
X148004106Y-107846667D02*
X147004106Y-107380000D01*
X147004106Y-107380000D02*
X148404106Y-107380000D01*
X148404106Y-106713333D02*
X147004106Y-106713333D01*
X147004106Y-106246666D02*
X147004106Y-105446666D01*
X148404106Y-105846666D02*
X147004106Y-105846666D01*
X148537440Y-105313333D02*
X148537440Y-104246666D01*
X147004106Y-103646666D02*
X147004106Y-103513332D01*
X147004106Y-103513332D02*
X147070773Y-103379999D01*
X147070773Y-103379999D02*
X147137440Y-103313332D01*
X147137440Y-103313332D02*
X147270773Y-103246666D01*
X147270773Y-103246666D02*
X147537440Y-103179999D01*
X147537440Y-103179999D02*
X147870773Y-103179999D01*
X147870773Y-103179999D02*
X148137440Y-103246666D01*
X148137440Y-103246666D02*
X148270773Y-103313332D01*
X148270773Y-103313332D02*
X148337440Y-103379999D01*
X148337440Y-103379999D02*
X148404106Y-103513332D01*
X148404106Y-103513332D02*
X148404106Y-103646666D01*
X148404106Y-103646666D02*
X148337440Y-103779999D01*
X148337440Y-103779999D02*
X148270773Y-103846666D01*
X148270773Y-103846666D02*
X148137440Y-103913332D01*
X148137440Y-103913332D02*
X147870773Y-103979999D01*
X147870773Y-103979999D02*
X147537440Y-103979999D01*
X147537440Y-103979999D02*
X147270773Y-103913332D01*
X147270773Y-103913332D02*
X147137440Y-103846666D01*
X147137440Y-103846666D02*
X147070773Y-103779999D01*
X147070773Y-103779999D02*
X147004106Y-103646666D01*
X168625893Y-106546667D02*
X168692560Y-106413334D01*
X168692560Y-106413334D02*
X168759226Y-106346667D01*
X168759226Y-106346667D02*
X168892560Y-106280000D01*
X168892560Y-106280000D02*
X168959226Y-106280000D01*
X168959226Y-106280000D02*
X169092560Y-106346667D01*
X169092560Y-106346667D02*
X169159226Y-106413334D01*
X169159226Y-106413334D02*
X169225893Y-106546667D01*
X169225893Y-106546667D02*
X169225893Y-106813334D01*
X169225893Y-106813334D02*
X169159226Y-106946667D01*
X169159226Y-106946667D02*
X169092560Y-107013334D01*
X169092560Y-107013334D02*
X168959226Y-107080000D01*
X168959226Y-107080000D02*
X168892560Y-107080000D01*
X168892560Y-107080000D02*
X168759226Y-107013334D01*
X168759226Y-107013334D02*
X168692560Y-106946667D01*
X168692560Y-106946667D02*
X168625893Y-106813334D01*
X168625893Y-106813334D02*
X168625893Y-106546667D01*
X168625893Y-106546667D02*
X168559226Y-106413334D01*
X168559226Y-106413334D02*
X168492560Y-106346667D01*
X168492560Y-106346667D02*
X168359226Y-106280000D01*
X168359226Y-106280000D02*
X168092560Y-106280000D01*
X168092560Y-106280000D02*
X167959226Y-106346667D01*
X167959226Y-106346667D02*
X167892560Y-106413334D01*
X167892560Y-106413334D02*
X167825893Y-106546667D01*
X167825893Y-106546667D02*
X167825893Y-106813334D01*
X167825893Y-106813334D02*
X167892560Y-106946667D01*
X167892560Y-106946667D02*
X167959226Y-107013334D01*
X167959226Y-107013334D02*
X168092560Y-107080000D01*
X168092560Y-107080000D02*
X168359226Y-107080000D01*
X168359226Y-107080000D02*
X168492560Y-107013334D01*
X168492560Y-107013334D02*
X168559226Y-106946667D01*
X168559226Y-106946667D02*
X168625893Y-106813334D01*
X174560000Y-111574106D02*
X174560000Y-110174106D01*
X175226667Y-111574106D02*
X175226667Y-110174106D01*
X175226667Y-110174106D02*
X175560000Y-110174106D01*
X175560000Y-110174106D02*
X175760000Y-110240773D01*
X175760000Y-110240773D02*
X175893334Y-110374106D01*
X175893334Y-110374106D02*
X175960000Y-110507440D01*
X175960000Y-110507440D02*
X176026667Y-110774106D01*
X176026667Y-110774106D02*
X176026667Y-110974106D01*
X176026667Y-110974106D02*
X175960000Y-111240773D01*
X175960000Y-111240773D02*
X175893334Y-111374106D01*
X175893334Y-111374106D02*
X175760000Y-111507440D01*
X175760000Y-111507440D02*
X175560000Y-111574106D01*
X175560000Y-111574106D02*
X175226667Y-111574106D01*
X166184106Y-129496666D02*
X164784106Y-129496666D01*
X165450773Y-129496666D02*
X165450773Y-128696666D01*
X166184106Y-128696666D02*
X164784106Y-128696666D01*
X164784106Y-127763333D02*
X164784106Y-127496666D01*
X164784106Y-127496666D02*
X164850773Y-127363333D01*
X164850773Y-127363333D02*
X164984106Y-127229999D01*
X164984106Y-127229999D02*
X165250773Y-127163333D01*
X165250773Y-127163333D02*
X165717440Y-127163333D01*
X165717440Y-127163333D02*
X165984106Y-127229999D01*
X165984106Y-127229999D02*
X166117440Y-127363333D01*
X166117440Y-127363333D02*
X166184106Y-127496666D01*
X166184106Y-127496666D02*
X166184106Y-127763333D01*
X166184106Y-127763333D02*
X166117440Y-127896666D01*
X166117440Y-127896666D02*
X165984106Y-128029999D01*
X165984106Y-128029999D02*
X165717440Y-128096666D01*
X165717440Y-128096666D02*
X165250773Y-128096666D01*
X165250773Y-128096666D02*
X164984106Y-128029999D01*
X164984106Y-128029999D02*
X164850773Y-127896666D01*
X164850773Y-127896666D02*
X164784106Y-127763333D01*
X166184106Y-126563332D02*
X164784106Y-126563332D01*
X164784106Y-126563332D02*
X165784106Y-126096666D01*
X165784106Y-126096666D02*
X164784106Y-125629999D01*
X164784106Y-125629999D02*
X166184106Y-125629999D01*
X165450773Y-124963332D02*
X165450773Y-124496666D01*
X166184106Y-124296666D02*
X166184106Y-124963332D01*
X166184106Y-124963332D02*
X164784106Y-124963332D01*
X164784106Y-124963332D02*
X164784106Y-124296666D01*
X166317440Y-124029999D02*
X166317440Y-122963332D01*
X166184106Y-121896665D02*
X166184106Y-122696665D01*
X166184106Y-122296665D02*
X164784106Y-122296665D01*
X164784106Y-122296665D02*
X164984106Y-122429998D01*
X164984106Y-122429998D02*
X165117440Y-122563332D01*
X165117440Y-122563332D02*
X165184106Y-122696665D01*
D10*
X161626779Y-98244819D02*
X161626779Y-97244819D01*
X161626779Y-97244819D02*
X161864874Y-97244819D01*
X161864874Y-97244819D02*
X162007731Y-97292438D01*
X162007731Y-97292438D02*
X162102969Y-97387676D01*
X162102969Y-97387676D02*
X162150588Y-97482914D01*
X162150588Y-97482914D02*
X162198207Y-97673390D01*
X162198207Y-97673390D02*
X162198207Y-97816247D01*
X162198207Y-97816247D02*
X162150588Y-98006723D01*
X162150588Y-98006723D02*
X162102969Y-98101961D01*
X162102969Y-98101961D02*
X162007731Y-98197200D01*
X162007731Y-98197200D02*
X161864874Y-98244819D01*
X161864874Y-98244819D02*
X161626779Y-98244819D01*
X163055350Y-97578152D02*
X163055350Y-98244819D01*
X162817255Y-97197200D02*
X162579160Y-97911485D01*
X162579160Y-97911485D02*
X163198207Y-97911485D01*
D11*
X167825893Y-99460000D02*
X167825893Y-98660000D01*
X167825893Y-99060000D02*
X169225893Y-99060000D01*
X169225893Y-99060000D02*
X169025893Y-98926667D01*
X169025893Y-98926667D02*
X168892560Y-98793334D01*
X168892560Y-98793334D02*
X168825893Y-98660000D01*
D10*
X158577066Y-99327619D02*
X158577066Y-100041904D01*
X158577066Y-100041904D02*
X158529447Y-100184761D01*
X158529447Y-100184761D02*
X158434209Y-100280000D01*
X158434209Y-100280000D02*
X158291352Y-100327619D01*
X158291352Y-100327619D02*
X158196114Y-100327619D01*
X159053257Y-100327619D02*
X159053257Y-99327619D01*
X159053257Y-99327619D02*
X159434209Y-99327619D01*
X159434209Y-99327619D02*
X159529447Y-99375238D01*
X159529447Y-99375238D02*
X159577066Y-99422857D01*
X159577066Y-99422857D02*
X159624685Y-99518095D01*
X159624685Y-99518095D02*
X159624685Y-99660952D01*
X159624685Y-99660952D02*
X159577066Y-99756190D01*
X159577066Y-99756190D02*
X159529447Y-99803809D01*
X159529447Y-99803809D02*
X159434209Y-99851428D01*
X159434209Y-99851428D02*
X159053257Y-99851428D01*
X160577066Y-100327619D02*
X160005638Y-100327619D01*
X160291352Y-100327619D02*
X160291352Y-99327619D01*
X160291352Y-99327619D02*
X160196114Y-99470476D01*
X160196114Y-99470476D02*
X160100876Y-99565714D01*
X160100876Y-99565714D02*
X160005638Y-99613333D01*
X143320419Y-105794133D02*
X144034704Y-105794133D01*
X144034704Y-105794133D02*
X144177561Y-105841752D01*
X144177561Y-105841752D02*
X144272800Y-105936990D01*
X144272800Y-105936990D02*
X144320419Y-106079847D01*
X144320419Y-106079847D02*
X144320419Y-106175085D01*
X143748990Y-105175085D02*
X143701371Y-105270323D01*
X143701371Y-105270323D02*
X143653752Y-105317942D01*
X143653752Y-105317942D02*
X143558514Y-105365561D01*
X143558514Y-105365561D02*
X143510895Y-105365561D01*
X143510895Y-105365561D02*
X143415657Y-105317942D01*
X143415657Y-105317942D02*
X143368038Y-105270323D01*
X143368038Y-105270323D02*
X143320419Y-105175085D01*
X143320419Y-105175085D02*
X143320419Y-104984609D01*
X143320419Y-104984609D02*
X143368038Y-104889371D01*
X143368038Y-104889371D02*
X143415657Y-104841752D01*
X143415657Y-104841752D02*
X143510895Y-104794133D01*
X143510895Y-104794133D02*
X143558514Y-104794133D01*
X143558514Y-104794133D02*
X143653752Y-104841752D01*
X143653752Y-104841752D02*
X143701371Y-104889371D01*
X143701371Y-104889371D02*
X143748990Y-104984609D01*
X143748990Y-104984609D02*
X143748990Y-105175085D01*
X143748990Y-105175085D02*
X143796609Y-105270323D01*
X143796609Y-105270323D02*
X143844228Y-105317942D01*
X143844228Y-105317942D02*
X143939466Y-105365561D01*
X143939466Y-105365561D02*
X144129942Y-105365561D01*
X144129942Y-105365561D02*
X144225180Y-105317942D01*
X144225180Y-105317942D02*
X144272800Y-105270323D01*
X144272800Y-105270323D02*
X144320419Y-105175085D01*
X144320419Y-105175085D02*
X144320419Y-104984609D01*
X144320419Y-104984609D02*
X144272800Y-104889371D01*
X144272800Y-104889371D02*
X144225180Y-104841752D01*
X144225180Y-104841752D02*
X144129942Y-104794133D01*
X144129942Y-104794133D02*
X143939466Y-104794133D01*
X143939466Y-104794133D02*
X143844228Y-104841752D01*
X143844228Y-104841752D02*
X143796609Y-104889371D01*
X143796609Y-104889371D02*
X143748990Y-104984609D01*
X161151219Y-124894933D02*
X161865504Y-124894933D01*
X161865504Y-124894933D02*
X162008361Y-124942552D01*
X162008361Y-124942552D02*
X162103600Y-125037790D01*
X162103600Y-125037790D02*
X162151219Y-125180647D01*
X162151219Y-125180647D02*
X162151219Y-125275885D01*
X161151219Y-123942552D02*
X161151219Y-124418742D01*
X161151219Y-124418742D02*
X161627409Y-124466361D01*
X161627409Y-124466361D02*
X161579790Y-124418742D01*
X161579790Y-124418742D02*
X161532171Y-124323504D01*
X161532171Y-124323504D02*
X161532171Y-124085409D01*
X161532171Y-124085409D02*
X161579790Y-123990171D01*
X161579790Y-123990171D02*
X161627409Y-123942552D01*
X161627409Y-123942552D02*
X161722647Y-123894933D01*
X161722647Y-123894933D02*
X161960742Y-123894933D01*
X161960742Y-123894933D02*
X162055980Y-123942552D01*
X162055980Y-123942552D02*
X162103600Y-123990171D01*
X162103600Y-123990171D02*
X162151219Y-124085409D01*
X162151219Y-124085409D02*
X162151219Y-124323504D01*
X162151219Y-124323504D02*
X162103600Y-124418742D01*
X162103600Y-124418742D02*
X162055980Y-124466361D01*
X143447419Y-124539333D02*
X144161704Y-124539333D01*
X144161704Y-124539333D02*
X144304561Y-124586952D01*
X144304561Y-124586952D02*
X144399800Y-124682190D01*
X144399800Y-124682190D02*
X144447419Y-124825047D01*
X144447419Y-124825047D02*
X144447419Y-124920285D01*
X144447419Y-124015523D02*
X144447419Y-123825047D01*
X144447419Y-123825047D02*
X144399800Y-123729809D01*
X144399800Y-123729809D02*
X144352180Y-123682190D01*
X144352180Y-123682190D02*
X144209323Y-123586952D01*
X144209323Y-123586952D02*
X144018847Y-123539333D01*
X144018847Y-123539333D02*
X143637895Y-123539333D01*
X143637895Y-123539333D02*
X143542657Y-123586952D01*
X143542657Y-123586952D02*
X143495038Y-123634571D01*
X143495038Y-123634571D02*
X143447419Y-123729809D01*
X143447419Y-123729809D02*
X143447419Y-123920285D01*
X143447419Y-123920285D02*
X143495038Y-124015523D01*
X143495038Y-124015523D02*
X143542657Y-124063142D01*
X143542657Y-124063142D02*
X143637895Y-124110761D01*
X143637895Y-124110761D02*
X143875990Y-124110761D01*
X143875990Y-124110761D02*
X143971228Y-124063142D01*
X143971228Y-124063142D02*
X144018847Y-124015523D01*
X144018847Y-124015523D02*
X144066466Y-123920285D01*
X144066466Y-123920285D02*
X144066466Y-123729809D01*
X144066466Y-123729809D02*
X144018847Y-123634571D01*
X144018847Y-123634571D02*
X143971228Y-123586952D01*
X143971228Y-123586952D02*
X143875990Y-123539333D01*
X161202019Y-105743333D02*
X161916304Y-105743333D01*
X161916304Y-105743333D02*
X162059161Y-105790952D01*
X162059161Y-105790952D02*
X162154400Y-105886190D01*
X162154400Y-105886190D02*
X162202019Y-106029047D01*
X162202019Y-106029047D02*
X162202019Y-106124285D01*
X161202019Y-105362380D02*
X161202019Y-104695714D01*
X161202019Y-104695714D02*
X162202019Y-105124285D01*
X175704667Y-98044800D02*
X175847524Y-98092419D01*
X175847524Y-98092419D02*
X176085619Y-98092419D01*
X176085619Y-98092419D02*
X176180857Y-98044800D01*
X176180857Y-98044800D02*
X176228476Y-97997180D01*
X176228476Y-97997180D02*
X176276095Y-97901942D01*
X176276095Y-97901942D02*
X176276095Y-97806704D01*
X176276095Y-97806704D02*
X176228476Y-97711466D01*
X176228476Y-97711466D02*
X176180857Y-97663847D01*
X176180857Y-97663847D02*
X176085619Y-97616228D01*
X176085619Y-97616228D02*
X175895143Y-97568609D01*
X175895143Y-97568609D02*
X175799905Y-97520990D01*
X175799905Y-97520990D02*
X175752286Y-97473371D01*
X175752286Y-97473371D02*
X175704667Y-97378133D01*
X175704667Y-97378133D02*
X175704667Y-97282895D01*
X175704667Y-97282895D02*
X175752286Y-97187657D01*
X175752286Y-97187657D02*
X175799905Y-97140038D01*
X175799905Y-97140038D02*
X175895143Y-97092419D01*
X175895143Y-97092419D02*
X176133238Y-97092419D01*
X176133238Y-97092419D02*
X176276095Y-97140038D01*
X176609429Y-97092419D02*
X176847524Y-98092419D01*
X176847524Y-98092419D02*
X177038000Y-97378133D01*
X177038000Y-97378133D02*
X177228476Y-98092419D01*
X177228476Y-98092419D02*
X177466572Y-97092419D01*
X178371333Y-98092419D02*
X177799905Y-98092419D01*
X178085619Y-98092419D02*
X178085619Y-97092419D01*
X178085619Y-97092419D02*
X177990381Y-97235276D01*
X177990381Y-97235276D02*
X177895143Y-97330514D01*
X177895143Y-97330514D02*
X177799905Y-97378133D01*
D13*
%TO.C,JP1*%
X157970000Y-96790000D02*
X160770000Y-96790000D01*
X157970000Y-98790000D02*
X157970000Y-96790000D01*
X160770000Y-96790000D02*
X160770000Y-98790000D01*
X160770000Y-98790000D02*
X157970000Y-98790000D01*
%TO.C,J8*%
X138630000Y-110880000D02*
X138630000Y-112130000D01*
X138630000Y-112130000D02*
X139880000Y-112130000D01*
X138930000Y-101610000D02*
X138930000Y-104320000D01*
X138930000Y-104320000D02*
X139930000Y-104320000D01*
X138930000Y-109120000D02*
X138930000Y-111830000D01*
X138930000Y-111830000D02*
X145550000Y-111830000D01*
X139330000Y-105920000D02*
X139330000Y-107520000D01*
X139330000Y-107520000D02*
X139930000Y-107520000D01*
X139930000Y-104320000D02*
X139930000Y-105920000D01*
X139930000Y-105920000D02*
X139330000Y-105920000D01*
X139930000Y-107520000D02*
X139930000Y-109120000D01*
X139930000Y-109120000D02*
X138930000Y-109120000D01*
X140540000Y-102620000D02*
X140540000Y-110820000D01*
X140540000Y-110820000D02*
X144840000Y-110820000D01*
X142240000Y-101610000D02*
X142240000Y-102620000D01*
X142240000Y-111830000D02*
X142240000Y-110820000D01*
X144840000Y-102620000D02*
X140540000Y-102620000D01*
X144840000Y-110820000D02*
X144840000Y-102620000D01*
X145550000Y-101610000D02*
X138930000Y-101610000D01*
X145550000Y-111830000D02*
X145550000Y-101610000D01*
%TO.C,J2*%
X140910000Y-135830000D02*
X142240000Y-135830000D01*
X140910000Y-137160000D02*
X140910000Y-135830000D01*
X143510000Y-135830000D02*
X161350000Y-135830000D01*
X143510000Y-138490000D02*
X143510000Y-135830000D01*
X143510000Y-138490000D02*
X161350000Y-138490000D01*
X161350000Y-138490000D02*
X161350000Y-135830000D01*
%TO.C,J5*%
X156410000Y-129930000D02*
X156410000Y-131180000D01*
X156410000Y-131180000D02*
X157660000Y-131180000D01*
X156710000Y-120660000D02*
X156710000Y-123370000D01*
X156710000Y-123370000D02*
X157710000Y-123370000D01*
X156710000Y-128170000D02*
X156710000Y-130880000D01*
X156710000Y-130880000D02*
X163330000Y-130880000D01*
X157110000Y-124970000D02*
X157110000Y-126570000D01*
X157110000Y-126570000D02*
X157710000Y-126570000D01*
X157710000Y-123370000D02*
X157710000Y-124970000D01*
X157710000Y-124970000D02*
X157110000Y-124970000D01*
X157710000Y-126570000D02*
X157710000Y-128170000D01*
X157710000Y-128170000D02*
X156710000Y-128170000D01*
X158320000Y-121670000D02*
X158320000Y-129870000D01*
X158320000Y-129870000D02*
X162620000Y-129870000D01*
X160020000Y-120660000D02*
X160020000Y-121670000D01*
X160020000Y-130880000D02*
X160020000Y-129870000D01*
X162620000Y-121670000D02*
X158320000Y-121670000D01*
X162620000Y-129870000D02*
X162620000Y-121670000D01*
X163330000Y-120660000D02*
X156710000Y-120660000D01*
X163330000Y-130880000D02*
X163330000Y-120660000D01*
D14*
%TO.C,G\u002A\u002A\u002A*%
G36*
X136184001Y-126929465D02*
G01*
X136209038Y-126993103D01*
X136212262Y-127018968D01*
X136211201Y-127093557D01*
X136179166Y-127129842D01*
X136139595Y-127142971D01*
X136048266Y-127141608D01*
X135982961Y-127095993D01*
X135961447Y-127028098D01*
X135989265Y-126953547D01*
X136059638Y-126909532D01*
X136128264Y-126905215D01*
X136184001Y-126929465D01*
G37*
G36*
X137268790Y-126905331D02*
G01*
X137375189Y-126911947D01*
X137443151Y-126925895D01*
X137481261Y-126948982D01*
X137498106Y-126983012D01*
X137502269Y-127029792D01*
X137502296Y-127032194D01*
X137479786Y-127096938D01*
X137458378Y-127121313D01*
X137409462Y-127136825D01*
X137305198Y-127146656D01*
X137142811Y-127150943D01*
X136919527Y-127149821D01*
X136888403Y-127149328D01*
X136362838Y-127140487D01*
X136362838Y-126915708D01*
X136906339Y-126906878D01*
X137115369Y-126904244D01*
X137268790Y-126905331D01*
G37*
G36*
X136464043Y-127418656D02*
G01*
X136534400Y-127471129D01*
X136557389Y-127549715D01*
X136557698Y-127558394D01*
X136578021Y-127702248D01*
X136638574Y-127812785D01*
X136704186Y-127877635D01*
X136752921Y-127914722D01*
X136803073Y-127938511D01*
X136869971Y-127951924D01*
X136968940Y-127957885D01*
X137115310Y-127959317D01*
X137132536Y-127959324D01*
X137286706Y-127960973D01*
X137388000Y-127967010D01*
X137447708Y-127979069D01*
X137477119Y-127998786D01*
X137483296Y-128010117D01*
X137500895Y-128106152D01*
X137465528Y-128174685D01*
X137458378Y-128180984D01*
X137409462Y-128196496D01*
X137305198Y-128206327D01*
X137142811Y-128210614D01*
X136919527Y-128209493D01*
X136888403Y-128209000D01*
X136362838Y-128200158D01*
X136352300Y-128107940D01*
X136355141Y-128029935D01*
X136374738Y-127982747D01*
X136386925Y-127930564D01*
X136357487Y-127852643D01*
X136328154Y-127764631D01*
X136311586Y-127652765D01*
X136308681Y-127539835D01*
X136320340Y-127448637D01*
X136339920Y-127407450D01*
X136394602Y-127394542D01*
X136464043Y-127418656D01*
G37*
G36*
X136419012Y-121286175D02*
G01*
X136497226Y-121305522D01*
X136530353Y-121351347D01*
X136533545Y-121367643D01*
X136539933Y-121395361D01*
X136556506Y-121415028D01*
X136593144Y-121428290D01*
X136659728Y-121436795D01*
X136766140Y-121442189D01*
X136922261Y-121446119D01*
X137015213Y-121447921D01*
X137486732Y-121456795D01*
X137496140Y-121537299D01*
X137488649Y-121614518D01*
X137465634Y-121657716D01*
X137420675Y-121676072D01*
X137325462Y-121688576D01*
X137175259Y-121695625D01*
X136986330Y-121697630D01*
X136810259Y-121698203D01*
X136688033Y-121700896D01*
X136609276Y-121707170D01*
X136563616Y-121718485D01*
X136540678Y-121736302D01*
X136530146Y-121761852D01*
X136496749Y-121810249D01*
X136421162Y-121825965D01*
X136411005Y-121826075D01*
X136330476Y-121813060D01*
X136293701Y-121768208D01*
X136291864Y-121761852D01*
X136264084Y-121717188D01*
X136200374Y-121699256D01*
X136154302Y-121697630D01*
X136040893Y-121678213D01*
X135977830Y-121621266D01*
X135967010Y-121530813D01*
X135984185Y-121482551D01*
X136029922Y-121457851D01*
X136115501Y-121446847D01*
X136208896Y-121433007D01*
X136259832Y-121401381D01*
X136284064Y-121356505D01*
X136317735Y-121300477D01*
X136374701Y-121283889D01*
X136419012Y-121286175D01*
G37*
G36*
X134227129Y-124099252D02*
G01*
X134450877Y-124152105D01*
X134660673Y-124252326D01*
X134848335Y-124400140D01*
X135005679Y-124595772D01*
X135069012Y-124708710D01*
X135155313Y-124948297D01*
X135188690Y-125199472D01*
X135167909Y-125445444D01*
X135132580Y-125573463D01*
X135016883Y-125816886D01*
X134857862Y-126013817D01*
X134652433Y-126167377D01*
X134453755Y-126260662D01*
X134243000Y-126311078D01*
X134071543Y-126316727D01*
X134009455Y-126318773D01*
X133777129Y-126285009D01*
X133577195Y-126214599D01*
X133378278Y-126084483D01*
X133202751Y-125905437D01*
X133064413Y-125692032D01*
X133045379Y-125652938D01*
X132974420Y-125428321D01*
X132955273Y-125185097D01*
X132956280Y-125177593D01*
X133486113Y-125177593D01*
X133506166Y-125344395D01*
X133556672Y-125495755D01*
X133599993Y-125568214D01*
X133731693Y-125692781D01*
X133894398Y-125773191D01*
X134071543Y-125804830D01*
X134246565Y-125783079D01*
X134300722Y-125763532D01*
X134462792Y-125662041D01*
X134581024Y-125522156D01*
X134650908Y-125355851D01*
X134667933Y-125175099D01*
X134627591Y-124991874D01*
X134608147Y-124947363D01*
X134503209Y-124799677D01*
X134358661Y-124692535D01*
X134188460Y-124631053D01*
X134006561Y-124620344D01*
X133832544Y-124663137D01*
X133732540Y-124725314D01*
X133631087Y-124820218D01*
X133547575Y-124926759D01*
X133501547Y-125023216D01*
X133486113Y-125177593D01*
X132956280Y-125177593D01*
X132987839Y-124942476D01*
X133049885Y-124764254D01*
X133185507Y-124537627D01*
X133356273Y-124357017D01*
X133554001Y-124222649D01*
X133770508Y-124134749D01*
X133997612Y-124093541D01*
X134227129Y-124099252D01*
G37*
G36*
X137369978Y-120301505D02*
G01*
X137478696Y-120387299D01*
X137505153Y-120424518D01*
X137545340Y-120532357D01*
X137564342Y-120671335D01*
X137560235Y-120811326D01*
X137536200Y-120910904D01*
X137489301Y-120986135D01*
X137419490Y-121059910D01*
X137344479Y-121117197D01*
X137281977Y-121142964D01*
X137264827Y-121141229D01*
X137208495Y-121090042D01*
X137191725Y-121009258D01*
X137215984Y-120920985D01*
X137247322Y-120877277D01*
X137301024Y-120790334D01*
X137318664Y-120695414D01*
X137304295Y-120607997D01*
X137261968Y-120543563D01*
X137195733Y-120517593D01*
X137154844Y-120523893D01*
X137097318Y-120572708D01*
X137039285Y-120679712D01*
X137022818Y-120721066D01*
X136987244Y-120820176D01*
X136963308Y-120894573D01*
X136956896Y-120922567D01*
X136935608Y-120959457D01*
X136883423Y-121016738D01*
X136874031Y-121025724D01*
X136764712Y-121088352D01*
X136631723Y-121108317D01*
X136499374Y-121085643D01*
X136396996Y-121025217D01*
X136305453Y-120898608D01*
X136265707Y-120750027D01*
X136277484Y-120595092D01*
X136340507Y-120449422D01*
X136408576Y-120367340D01*
X136496134Y-120304909D01*
X136564239Y-120302659D01*
X136611002Y-120360348D01*
X136621974Y-120394640D01*
X136617926Y-120486763D01*
X136574764Y-120560902D01*
X136519568Y-120663129D01*
X136512585Y-120758360D01*
X136553963Y-120829346D01*
X136625237Y-120861794D01*
X136689777Y-120833368D01*
X136749403Y-120742764D01*
X136780284Y-120667290D01*
X136845902Y-120505609D01*
X136911165Y-120395600D01*
X136985315Y-120325432D01*
X137077593Y-120283276D01*
X137081094Y-120282213D01*
X137232568Y-120264840D01*
X137369978Y-120301505D01*
G37*
G36*
X133101739Y-119978962D02*
G01*
X133190614Y-120001239D01*
X133299132Y-120037731D01*
X133504937Y-120114789D01*
X133495359Y-120352290D01*
X133498955Y-120525393D01*
X133531648Y-120656941D01*
X133602064Y-120766250D01*
X133718831Y-120872637D01*
X133732396Y-120883101D01*
X133852933Y-120975127D01*
X134417494Y-120983559D01*
X134606347Y-120987220D01*
X134776894Y-120992098D01*
X134917060Y-120997724D01*
X135014768Y-121003630D01*
X135054305Y-121008254D01*
X135091505Y-121021690D01*
X135113155Y-121050835D01*
X135123414Y-121110247D01*
X135126437Y-121214485D01*
X135126555Y-121261304D01*
X135123500Y-121390524D01*
X135112646Y-121468517D01*
X135091461Y-121508062D01*
X135075762Y-121517582D01*
X135031782Y-121522502D01*
X134932010Y-121526966D01*
X134784873Y-121530811D01*
X134598801Y-121533875D01*
X134382222Y-121535995D01*
X134143566Y-121537009D01*
X134065387Y-121537074D01*
X133791679Y-121536896D01*
X133575183Y-121536071D01*
X133408887Y-121534160D01*
X133285783Y-121530725D01*
X133198860Y-121525326D01*
X133141106Y-121517526D01*
X133105512Y-121506885D01*
X133085067Y-121492966D01*
X133072762Y-121475329D01*
X133072565Y-121474962D01*
X133048802Y-121389935D01*
X133040434Y-121272509D01*
X133047351Y-121152608D01*
X133069442Y-121060155D01*
X133074130Y-121050368D01*
X133089766Y-120993126D01*
X133076098Y-120917505D01*
X133044016Y-120834418D01*
X132998782Y-120704644D01*
X132964304Y-120562928D01*
X132957631Y-120521698D01*
X132952071Y-120406636D01*
X132960509Y-120278005D01*
X132979865Y-120153424D01*
X133007061Y-120050509D01*
X133039017Y-119986876D01*
X133052971Y-119976159D01*
X133101739Y-119978962D01*
G37*
G36*
X137360080Y-121995639D02*
G01*
X137444481Y-122014709D01*
X137488445Y-122049086D01*
X137499794Y-122101739D01*
X137489706Y-122162826D01*
X137478701Y-122198152D01*
X137458996Y-122221290D01*
X137418726Y-122234818D01*
X137346021Y-122241314D01*
X137229014Y-122243358D01*
X137118352Y-122243521D01*
X136963243Y-122246864D01*
X136826978Y-122255937D01*
X136726384Y-122269305D01*
X136686390Y-122280363D01*
X136604033Y-122350183D01*
X136561658Y-122455891D01*
X136564453Y-122579394D01*
X136583353Y-122639660D01*
X136632561Y-122731374D01*
X136698688Y-122796734D01*
X136793024Y-122840659D01*
X136926858Y-122868072D01*
X137111480Y-122883895D01*
X137147892Y-122885746D01*
X137298425Y-122893467D01*
X137396514Y-122901675D01*
X137453876Y-122913619D01*
X137482230Y-122932549D01*
X137493294Y-122961713D01*
X137496140Y-122982305D01*
X137488649Y-123059525D01*
X137465634Y-123102723D01*
X137421964Y-123115645D01*
X137327753Y-123126541D01*
X137196662Y-123135151D01*
X137042347Y-123141214D01*
X136878467Y-123144467D01*
X136718681Y-123144650D01*
X136576647Y-123141503D01*
X136466024Y-123134762D01*
X136400469Y-123124169D01*
X136397576Y-123123145D01*
X136362404Y-123080547D01*
X136346951Y-123007756D01*
X136354194Y-122936586D01*
X136376962Y-122902996D01*
X136385619Y-122863159D01*
X136365272Y-122785205D01*
X136357201Y-122764819D01*
X136315940Y-122608441D01*
X136311281Y-122442504D01*
X136342683Y-122292839D01*
X136368297Y-122237912D01*
X136432589Y-122147527D01*
X136511154Y-122082176D01*
X136615239Y-122037728D01*
X136756090Y-122010049D01*
X136944953Y-121995006D01*
X137038679Y-121991537D01*
X137227420Y-121988905D01*
X137360080Y-121995639D01*
G37*
G36*
X135489214Y-136484768D02*
G01*
X135719173Y-136561194D01*
X135932205Y-136688880D01*
X136108678Y-136861532D01*
X136244399Y-137068642D01*
X136335171Y-137299705D01*
X136376799Y-137544212D01*
X136365089Y-137791658D01*
X136301180Y-138018809D01*
X136167866Y-138269261D01*
X135996175Y-138468755D01*
X135788774Y-138615590D01*
X135548327Y-138708066D01*
X135325479Y-138738031D01*
X135277500Y-138744482D01*
X135165551Y-138743188D01*
X134894452Y-138700448D01*
X134653554Y-138602163D01*
X134447031Y-138451113D01*
X134279057Y-138250079D01*
X134193268Y-138095517D01*
X134104686Y-137848398D01*
X134082071Y-137659814D01*
X134260118Y-137659814D01*
X134297962Y-137883914D01*
X134374264Y-138073108D01*
X134512936Y-138266941D01*
X134687312Y-138415371D01*
X134887474Y-138517139D01*
X135103503Y-138570986D01*
X135325479Y-138575655D01*
X135543484Y-138529887D01*
X135747598Y-138432424D01*
X135927902Y-138282006D01*
X135937585Y-138271448D01*
X136090338Y-138060385D01*
X136180817Y-137835938D01*
X136208493Y-137601173D01*
X136172836Y-137359154D01*
X136120542Y-137211084D01*
X136017855Y-137039144D01*
X135871327Y-136881378D01*
X135699252Y-136754146D01*
X135519921Y-136673814D01*
X135519881Y-136673803D01*
X135269751Y-136631767D01*
X135030052Y-136650559D01*
X134807804Y-136726874D01*
X134610026Y-136857406D01*
X134443738Y-137038853D01*
X134331121Y-137233418D01*
X134270839Y-137436515D01*
X134260118Y-137659814D01*
X134082071Y-137659814D01*
X134075929Y-137608600D01*
X134105687Y-137363782D01*
X134112554Y-137335712D01*
X134208056Y-137081716D01*
X134350180Y-136865645D01*
X134531186Y-136691230D01*
X134743333Y-136562204D01*
X134978880Y-136482297D01*
X135230087Y-136455241D01*
X135489214Y-136484768D01*
G37*
G36*
X137059015Y-129838062D02*
G01*
X137231897Y-129899287D01*
X137374432Y-130003482D01*
X137480287Y-130141571D01*
X137543131Y-130304478D01*
X137556630Y-130483128D01*
X137514453Y-130668443D01*
X137488590Y-130726814D01*
X137455229Y-130796179D01*
X137438895Y-130835031D01*
X137438565Y-130836808D01*
X137468001Y-130842715D01*
X137545674Y-130849315D01*
X137655629Y-130855297D01*
X137671372Y-130855958D01*
X137791651Y-130862134D01*
X137862064Y-130872150D01*
X137896943Y-130891472D01*
X137910625Y-130925568D01*
X137913829Y-130948419D01*
X137904889Y-131025362D01*
X137877689Y-131069449D01*
X137839561Y-131082723D01*
X137758621Y-131092229D01*
X137630019Y-131098149D01*
X137448908Y-131100665D01*
X137210439Y-131099961D01*
X137097368Y-131098812D01*
X136887803Y-131096347D01*
X136362838Y-131090171D01*
X136352490Y-130999923D01*
X136357353Y-130917460D01*
X136379631Y-130864503D01*
X136397900Y-130819478D01*
X136387549Y-130749487D01*
X136361755Y-130674357D01*
X136318833Y-130483243D01*
X136323828Y-130414218D01*
X136571561Y-130414218D01*
X136597221Y-130564419D01*
X136666341Y-130684157D01*
X136767131Y-130767559D01*
X136887803Y-130808753D01*
X137016567Y-130801869D01*
X137141634Y-130741033D01*
X137173736Y-130714135D01*
X137271891Y-130588025D01*
X137307111Y-130451793D01*
X137278892Y-130307997D01*
X137261410Y-130270283D01*
X137173051Y-130165626D01*
X137043534Y-130098999D01*
X136907113Y-130078666D01*
X136784385Y-130108014D01*
X136676537Y-130185041D01*
X136600091Y-130293227D01*
X136571561Y-130414218D01*
X136323828Y-130414218D01*
X136332161Y-130299065D01*
X136395783Y-130131886D01*
X136503745Y-129991768D01*
X136650092Y-129888772D01*
X136828869Y-129832961D01*
X136862117Y-129828884D01*
X137059015Y-129838062D01*
G37*
G36*
X137045565Y-123784861D02*
G01*
X137049850Y-123948277D01*
X137055676Y-124090560D01*
X137062344Y-124198328D01*
X137069153Y-124258197D01*
X137070597Y-124263601D01*
X137099510Y-124278498D01*
X137148279Y-124250828D01*
X137204689Y-124193666D01*
X137256526Y-124120086D01*
X137291576Y-124043163D01*
X137297020Y-124021236D01*
X137298070Y-123911800D01*
X137271283Y-123773091D01*
X137261040Y-123738265D01*
X137230818Y-123629910D01*
X137224252Y-123562906D01*
X137240118Y-123519398D01*
X137245561Y-123512321D01*
X137313393Y-123463916D01*
X137381451Y-123478199D01*
X137446329Y-123553737D01*
X137473999Y-123608281D01*
X137542243Y-123809406D01*
X137556112Y-123989309D01*
X137515849Y-124160552D01*
X137485956Y-124226857D01*
X137371071Y-124390366D01*
X137223695Y-124503569D01*
X137053914Y-124564242D01*
X136871811Y-124570161D01*
X136763170Y-124540071D01*
X136687470Y-124519104D01*
X136543662Y-124434623D01*
X136420000Y-124307685D01*
X136345602Y-124157347D01*
X136317192Y-123994384D01*
X136318716Y-123976828D01*
X136572817Y-123976828D01*
X136599830Y-124107780D01*
X136668467Y-124216969D01*
X136736665Y-124268964D01*
X136763170Y-124279306D01*
X136780398Y-124269492D01*
X136790337Y-124229321D01*
X136794974Y-124148597D01*
X136796294Y-124017119D01*
X136796340Y-123962603D01*
X136793754Y-123823946D01*
X136786761Y-123712801D01*
X136776504Y-123642406D01*
X136767083Y-123624305D01*
X136729611Y-123646809D01*
X136672362Y-123702845D01*
X136654694Y-123723102D01*
X136590185Y-123842479D01*
X136572817Y-123976828D01*
X136318716Y-123976828D01*
X136331496Y-123829572D01*
X136385239Y-123673684D01*
X136475144Y-123537497D01*
X136597938Y-123431785D01*
X136750344Y-123367323D01*
X136872578Y-123352515D01*
X137037174Y-123351359D01*
X137045565Y-123784861D01*
G37*
G36*
X137471941Y-131326640D02*
G01*
X137491168Y-131392673D01*
X137495974Y-131471183D01*
X137487942Y-131519861D01*
X137451899Y-131572995D01*
X137379590Y-131644177D01*
X137307013Y-131702565D01*
X137224737Y-131767666D01*
X137170382Y-131819818D01*
X137156174Y-131845063D01*
X137184560Y-131876255D01*
X137249679Y-131933776D01*
X137334203Y-132002590D01*
X137448224Y-132109861D01*
X137502294Y-132207822D01*
X137498809Y-132302584D01*
X137472729Y-132356343D01*
X137448904Y-132371406D01*
X137405339Y-132359410D01*
X137332571Y-132315690D01*
X137221139Y-132235581D01*
X137208303Y-132225987D01*
X137100258Y-132145615D01*
X137009694Y-132079285D01*
X136950343Y-132037008D01*
X136937290Y-132028386D01*
X136897528Y-132037035D01*
X136820845Y-132078035D01*
X136720590Y-132143767D01*
X136666729Y-132182826D01*
X136558343Y-132260608D01*
X136466115Y-132320758D01*
X136404029Y-132354416D01*
X136389306Y-132358565D01*
X136358084Y-132328170D01*
X136346816Y-132237729D01*
X136346782Y-132230743D01*
X136351905Y-132155634D01*
X136375570Y-132099519D01*
X136430227Y-132043193D01*
X136507339Y-131983054D01*
X136591142Y-131917156D01*
X136649237Y-131865101D01*
X136667895Y-131840666D01*
X136643995Y-131811336D01*
X136581781Y-131757514D01*
X136507339Y-131700285D01*
X136417543Y-131630239D01*
X136369239Y-131575840D01*
X136349874Y-131518043D01*
X136346782Y-131456715D01*
X136357736Y-131365944D01*
X136393842Y-131332389D01*
X136459966Y-131354042D01*
X136511036Y-131388863D01*
X136579332Y-131439524D01*
X136675323Y-131509627D01*
X136748857Y-131562819D01*
X136910097Y-131678917D01*
X137163810Y-131488905D01*
X137274144Y-131408130D01*
X137365884Y-131344419D01*
X137426690Y-131306158D01*
X137443488Y-131298894D01*
X137471941Y-131326640D01*
G37*
G36*
X134222859Y-128813014D02*
G01*
X134336265Y-128823077D01*
X134428631Y-128844524D01*
X134521488Y-128881062D01*
X134548552Y-128893579D01*
X134754395Y-129022348D01*
X134934048Y-129196006D01*
X135070295Y-129397279D01*
X135089497Y-129436441D01*
X135149231Y-129617492D01*
X135180275Y-129824761D01*
X135181332Y-130033837D01*
X135151104Y-130220314D01*
X135133986Y-130272877D01*
X135007890Y-130525767D01*
X134842344Y-130728550D01*
X134639647Y-130879615D01*
X134402094Y-130977348D01*
X134131983Y-131020138D01*
X134066884Y-131022029D01*
X134066568Y-131022020D01*
X133916888Y-131017632D01*
X133798845Y-130997789D01*
X133681133Y-130956140D01*
X133633382Y-130934877D01*
X133412248Y-130801534D01*
X133228471Y-130627462D01*
X133087163Y-130422361D01*
X132993433Y-130195933D01*
X132958711Y-129994542D01*
X133490751Y-129994542D01*
X133511110Y-130111832D01*
X133563042Y-130213403D01*
X133622557Y-130288441D01*
X133749860Y-130407550D01*
X133884002Y-130473503D01*
X134045495Y-130495897D01*
X134066568Y-130496113D01*
X134257518Y-130468764D01*
X134419372Y-130392992D01*
X134546058Y-130278208D01*
X134631507Y-130133823D01*
X134669646Y-129969247D01*
X134654404Y-129793893D01*
X134604747Y-129661858D01*
X134489285Y-129495762D01*
X134343407Y-129380809D01*
X134175826Y-129320363D01*
X133995249Y-129317787D01*
X133835391Y-129364778D01*
X133673096Y-129468249D01*
X133560750Y-129610872D01*
X133501685Y-129788001D01*
X133495505Y-129838665D01*
X133490751Y-129994542D01*
X132958711Y-129994542D01*
X132952390Y-129957880D01*
X132969146Y-129717904D01*
X132975931Y-129686666D01*
X133067939Y-129422498D01*
X133209281Y-129197835D01*
X133397732Y-129015579D01*
X133575887Y-128904779D01*
X133672574Y-128859470D01*
X133757440Y-128831521D01*
X133851906Y-128816823D01*
X133977393Y-128811270D01*
X134066884Y-128810626D01*
X134222859Y-128813014D01*
G37*
G36*
X137006078Y-128428598D02*
G01*
X137033138Y-128477012D01*
X137047158Y-128564905D01*
X137052426Y-128700326D01*
X137053230Y-128891322D01*
X137053230Y-128907953D01*
X137053841Y-129090767D01*
X137056418Y-129218640D01*
X137062075Y-129300849D01*
X137071926Y-129346670D01*
X137087086Y-129365378D01*
X137108295Y-129366323D01*
X137168584Y-129328754D01*
X137231863Y-129251734D01*
X137283659Y-129157617D01*
X137309498Y-129068753D01*
X137310279Y-129054386D01*
X137299519Y-128974362D01*
X137272099Y-128867791D01*
X137255559Y-128817717D01*
X137224608Y-128725918D01*
X137217441Y-128671643D01*
X137235562Y-128632178D01*
X137270322Y-128594964D01*
X137321919Y-128548890D01*
X137358254Y-128547060D01*
X137405640Y-128584757D01*
X137456260Y-128656734D01*
X137505152Y-128768371D01*
X137543970Y-128895446D01*
X137564365Y-129013738D01*
X137565601Y-129048907D01*
X137553736Y-129133752D01*
X137526315Y-129236824D01*
X137519973Y-129255422D01*
X137426681Y-129428860D01*
X137290139Y-129557784D01*
X137117937Y-129636920D01*
X136935955Y-129661220D01*
X136767083Y-129636386D01*
X136739439Y-129632321D01*
X136571489Y-129550500D01*
X136440141Y-129423070D01*
X136353430Y-129257343D01*
X136322195Y-129104975D01*
X136577776Y-129104975D01*
X136626319Y-129234295D01*
X136654694Y-129273421D01*
X136714027Y-129336015D01*
X136759316Y-129370117D01*
X136767083Y-129372219D01*
X136779081Y-129342322D01*
X136788696Y-129261463D01*
X136794781Y-129142892D01*
X136796340Y-129034311D01*
X136796340Y-128696402D01*
X136721011Y-128745760D01*
X136627447Y-128842209D01*
X136578927Y-128968113D01*
X136577776Y-129104975D01*
X136322195Y-129104975D01*
X136321595Y-129102050D01*
X136333831Y-128900457D01*
X136402394Y-128724762D01*
X136522263Y-128581859D01*
X136688419Y-128478645D01*
X136803775Y-128439744D01*
X136895685Y-128418012D01*
X136961690Y-128411614D01*
X137006078Y-128428598D01*
G37*
G36*
X134222552Y-121748731D02*
G01*
X134335615Y-121758526D01*
X134427566Y-121779677D01*
X134519900Y-121815867D01*
X134548552Y-121829104D01*
X134754395Y-121957873D01*
X134934048Y-122131531D01*
X135070295Y-122332804D01*
X135089497Y-122371966D01*
X135149231Y-122553017D01*
X135180275Y-122760285D01*
X135181332Y-122969362D01*
X135151104Y-123155838D01*
X135133986Y-123208402D01*
X135007870Y-123461314D01*
X134842268Y-123664111D01*
X134639435Y-123815208D01*
X134401626Y-123913021D01*
X134131099Y-123955965D01*
X134066884Y-123957897D01*
X134066568Y-123957889D01*
X133922803Y-123954429D01*
X133810609Y-123936616D01*
X133698400Y-123897570D01*
X133617326Y-123860863D01*
X133385721Y-123718690D01*
X133200886Y-123538583D01*
X133065466Y-123328500D01*
X132982107Y-123096396D01*
X132962748Y-122930067D01*
X133490751Y-122930067D01*
X133511110Y-123047357D01*
X133563042Y-123148928D01*
X133622557Y-123223966D01*
X133749860Y-123343074D01*
X133884002Y-123409028D01*
X134045495Y-123431421D01*
X134066568Y-123431637D01*
X134256415Y-123404112D01*
X134418474Y-123327808D01*
X134546109Y-123212136D01*
X134632686Y-123066508D01*
X134671572Y-122900332D01*
X134656132Y-122723019D01*
X134627298Y-122636291D01*
X134525572Y-122465990D01*
X134387673Y-122341993D01*
X134223777Y-122268491D01*
X134044062Y-122249671D01*
X133858706Y-122289723D01*
X133822321Y-122304954D01*
X133665960Y-122408908D01*
X133556922Y-122553942D01*
X133500287Y-122732764D01*
X133495505Y-122774190D01*
X133490751Y-122930067D01*
X132962748Y-122930067D01*
X132953455Y-122850226D01*
X132982153Y-122597944D01*
X133070848Y-122347508D01*
X133097107Y-122296331D01*
X133222549Y-122120312D01*
X133393374Y-121959667D01*
X133590770Y-121831782D01*
X133610379Y-121821891D01*
X133698046Y-121784536D01*
X133788379Y-121761757D01*
X133901507Y-121750232D01*
X134057563Y-121746643D01*
X134066884Y-121746612D01*
X134222552Y-121748731D01*
G37*
G36*
X137006078Y-132442504D02*
G01*
X137033138Y-132490918D01*
X137047158Y-132578812D01*
X137052426Y-132714232D01*
X137053230Y-132905229D01*
X137053230Y-132921859D01*
X137053841Y-133104673D01*
X137056418Y-133232546D01*
X137062075Y-133314755D01*
X137071926Y-133360576D01*
X137087086Y-133379285D01*
X137108295Y-133380230D01*
X137168584Y-133342660D01*
X137231863Y-133265641D01*
X137283659Y-133171523D01*
X137309498Y-133082660D01*
X137310279Y-133068292D01*
X137299519Y-132988268D01*
X137272099Y-132881697D01*
X137255559Y-132831623D01*
X137224608Y-132739825D01*
X137217441Y-132685549D01*
X137235562Y-132646085D01*
X137270322Y-132608870D01*
X137321919Y-132562796D01*
X137358254Y-132560967D01*
X137405640Y-132598664D01*
X137456260Y-132670641D01*
X137505152Y-132782277D01*
X137543970Y-132909352D01*
X137564365Y-133027644D01*
X137565601Y-133062813D01*
X137553736Y-133147658D01*
X137526315Y-133250731D01*
X137519973Y-133269328D01*
X137427247Y-133439651D01*
X137290243Y-133568690D01*
X137118978Y-133649458D01*
X136938098Y-133675127D01*
X136767083Y-133650234D01*
X136740661Y-133646388D01*
X136572211Y-133564927D01*
X136440610Y-133437874D01*
X136353722Y-133272360D01*
X136321595Y-133115956D01*
X136323959Y-133077010D01*
X136571561Y-133077010D01*
X136588911Y-133161259D01*
X136632369Y-133253573D01*
X136689048Y-133333578D01*
X136746060Y-133380898D01*
X136767083Y-133386125D01*
X136779075Y-133356227D01*
X136788687Y-133275359D01*
X136794775Y-133156764D01*
X136796340Y-133047827D01*
X136795782Y-132897923D01*
X136792679Y-132802039D01*
X136784889Y-132749976D01*
X136770268Y-132731531D01*
X136746673Y-132736505D01*
X136732450Y-132743722D01*
X136655325Y-132816175D01*
X136598061Y-132928672D01*
X136572060Y-133057595D01*
X136571561Y-133077010D01*
X136323959Y-133077010D01*
X136333831Y-132914364D01*
X136402394Y-132738668D01*
X136522263Y-132595766D01*
X136688419Y-132492551D01*
X136803775Y-132453651D01*
X136895685Y-132431919D01*
X136961690Y-132425520D01*
X137006078Y-132442504D01*
G37*
G36*
X134438652Y-126521677D02*
G01*
X135110499Y-126530373D01*
X135110499Y-127012042D01*
X134436163Y-127028098D01*
X134160824Y-127036582D01*
X133943259Y-127049571D01*
X133777034Y-127070249D01*
X133655714Y-127101802D01*
X133572865Y-127147417D01*
X133522052Y-127210280D01*
X133496841Y-127293575D01*
X133490797Y-127400489D01*
X133494722Y-127494216D01*
X133532563Y-127689023D01*
X133620138Y-127844161D01*
X133759758Y-127963274D01*
X133810575Y-127991732D01*
X133864083Y-128015627D01*
X133923854Y-128032787D01*
X134001197Y-128044289D01*
X134107422Y-128051214D01*
X134253838Y-128054641D01*
X134451754Y-128055648D01*
X134480424Y-128055658D01*
X134663993Y-128056767D01*
X134827328Y-128059838D01*
X134958652Y-128064486D01*
X135046189Y-128070323D01*
X135075762Y-128075149D01*
X135105308Y-128116911D01*
X135123757Y-128201926D01*
X135131108Y-128310192D01*
X135127361Y-128421705D01*
X135112516Y-128516464D01*
X135086573Y-128574464D01*
X135075762Y-128582058D01*
X135031675Y-128587021D01*
X134931882Y-128591518D01*
X134784899Y-128595382D01*
X134599243Y-128598446D01*
X134383430Y-128600543D01*
X134145974Y-128601505D01*
X134082607Y-128601549D01*
X133806893Y-128601164D01*
X133588424Y-128599774D01*
X133420225Y-128597023D01*
X133295322Y-128592558D01*
X133206738Y-128586024D01*
X133147501Y-128577066D01*
X133110636Y-128565330D01*
X133089784Y-128551088D01*
X133058185Y-128485097D01*
X133041602Y-128381311D01*
X133040927Y-128264586D01*
X133057051Y-128159779D01*
X133074130Y-128114843D01*
X133089139Y-128060770D01*
X133076896Y-127989087D01*
X133035676Y-127884148D01*
X132991921Y-127762481D01*
X132968499Y-127630762D01*
X132960753Y-127462595D01*
X132960730Y-127459329D01*
X132963054Y-127316898D01*
X132975947Y-127212235D01*
X133004973Y-127119082D01*
X133055698Y-127011180D01*
X133055713Y-127011151D01*
X133190492Y-126814011D01*
X133367352Y-126664895D01*
X133582975Y-126566550D01*
X133597865Y-126562093D01*
X133673647Y-126544479D01*
X133767841Y-126531918D01*
X133890170Y-126523942D01*
X134050354Y-126520085D01*
X134258116Y-126519879D01*
X134438652Y-126521677D01*
G37*
G36*
X135266735Y-135638784D02*
G01*
X135334667Y-135641235D01*
X135511007Y-135651340D01*
X135646533Y-135667471D01*
X135764635Y-135694080D01*
X135888704Y-135735619D01*
X135945392Y-135757471D01*
X136270056Y-135918068D01*
X136551399Y-136124394D01*
X136786377Y-136372151D01*
X136971942Y-136657040D01*
X137105047Y-136974765D01*
X137182646Y-137321027D01*
X137200831Y-137528477D01*
X137204654Y-137714614D01*
X137197310Y-137861761D01*
X137176657Y-137994513D01*
X137151109Y-138099559D01*
X137030744Y-138431355D01*
X136860464Y-138731645D01*
X136645563Y-138993805D01*
X136391332Y-139211212D01*
X136146962Y-139356510D01*
X135890236Y-139468744D01*
X135654463Y-139540063D01*
X135416427Y-139576179D01*
X135223525Y-139583597D01*
X135138514Y-139576647D01*
X134870996Y-139554775D01*
X134544080Y-139467613D01*
X134240279Y-139321069D01*
X133957099Y-139114100D01*
X133840381Y-139005602D01*
X133606615Y-138731408D01*
X133429467Y-138431620D01*
X133310637Y-138111455D01*
X133251826Y-137776131D01*
X133254017Y-137516044D01*
X133458201Y-137516044D01*
X133471175Y-137832129D01*
X133543295Y-138145120D01*
X133675125Y-138448253D01*
X133796538Y-138641636D01*
X134004841Y-138881555D01*
X134253232Y-139079965D01*
X134531670Y-139232229D01*
X134830111Y-139333713D01*
X135138514Y-139379780D01*
X135382906Y-139373909D01*
X135708405Y-139314566D01*
X135998440Y-139205770D01*
X136264057Y-139042359D01*
X136469170Y-138866144D01*
X136686122Y-138612559D01*
X136848286Y-138330037D01*
X136953916Y-138025849D01*
X137001264Y-137707268D01*
X136988584Y-137381567D01*
X136914128Y-137056018D01*
X136908232Y-137038339D01*
X136806016Y-136794585D01*
X136670032Y-136578625D01*
X136487774Y-136371646D01*
X136424834Y-136310947D01*
X136161247Y-136105536D01*
X135875425Y-135957082D01*
X135574547Y-135865454D01*
X135265794Y-135830519D01*
X134956343Y-135852143D01*
X134653374Y-135930195D01*
X134364067Y-136064540D01*
X134095600Y-136255048D01*
X133986528Y-136356026D01*
X133768537Y-136616855D01*
X133607444Y-136901643D01*
X133503812Y-137203627D01*
X133458201Y-137516044D01*
X133254017Y-137516044D01*
X133254735Y-137430863D01*
X133276383Y-137275027D01*
X133369165Y-136933068D01*
X133517153Y-136618599D01*
X133715229Y-136337083D01*
X133958273Y-136093980D01*
X134241165Y-135894754D01*
X134558787Y-135744865D01*
X134772720Y-135678651D01*
X134914088Y-135651260D01*
X135071988Y-135638422D01*
X135266735Y-135638784D01*
G37*
G36*
X137269479Y-124751663D02*
G01*
X137389879Y-124764440D01*
X137462413Y-124790106D01*
X137495132Y-124832240D01*
X137496086Y-124894416D01*
X137489706Y-124924394D01*
X137479357Y-124958360D01*
X137461038Y-124981141D01*
X137423496Y-124994970D01*
X137355478Y-125002081D01*
X137245728Y-125004709D01*
X137083270Y-125005089D01*
X136918992Y-125005818D01*
X136805899Y-125009479D01*
X136730955Y-125018281D01*
X136681126Y-125034433D01*
X136643378Y-125060146D01*
X136618268Y-125083907D01*
X136560831Y-125150354D01*
X136543672Y-125209156D01*
X136563992Y-125285040D01*
X136589164Y-125340982D01*
X136636455Y-125416296D01*
X136702879Y-125470570D01*
X136799387Y-125507871D01*
X136936931Y-125532264D01*
X137126462Y-125547819D01*
X137149564Y-125549091D01*
X137299947Y-125557869D01*
X137397930Y-125567065D01*
X137455281Y-125579791D01*
X137483764Y-125599159D01*
X137495146Y-125628282D01*
X137497225Y-125641053D01*
X137499226Y-125707067D01*
X137477566Y-125753300D01*
X137423507Y-125783111D01*
X137328309Y-125799859D01*
X137183233Y-125806903D01*
X137063243Y-125807870D01*
X136876291Y-125810424D01*
X136743400Y-125819962D01*
X136654541Y-125839298D01*
X136599687Y-125871243D01*
X136568811Y-125918612D01*
X136559147Y-125949295D01*
X136559573Y-126070469D01*
X136617812Y-126181397D01*
X136707234Y-126257293D01*
X136772061Y-126289158D01*
X136850186Y-126308743D01*
X136958361Y-126318661D01*
X137113340Y-126321526D01*
X137119058Y-126321530D01*
X137286200Y-126325397D01*
X137398727Y-126338892D01*
X137465910Y-126365085D01*
X137497022Y-126407049D01*
X137502296Y-126448489D01*
X137485514Y-126520401D01*
X137475822Y-126539203D01*
X137449450Y-126554908D01*
X137388767Y-126565595D01*
X137286479Y-126571674D01*
X137135294Y-126573557D01*
X136927920Y-126571656D01*
X136906339Y-126571314D01*
X136362838Y-126562484D01*
X136358222Y-126401928D01*
X136348413Y-126276766D01*
X136329323Y-126154709D01*
X136321108Y-126119373D01*
X136308443Y-125954094D01*
X136353204Y-125794389D01*
X136408599Y-125706533D01*
X136447957Y-125650489D01*
X136446994Y-125607550D01*
X136411443Y-125551435D01*
X136331287Y-125392845D01*
X136305495Y-125230179D01*
X136330672Y-125075180D01*
X136403423Y-124939592D01*
X136520353Y-124835158D01*
X136633078Y-124784915D01*
X136717735Y-124769261D01*
X136846098Y-124756932D01*
X136997673Y-124749561D01*
X137093163Y-124748199D01*
X137269479Y-124751663D01*
G37*
G36*
X134217933Y-131222744D02*
G01*
X134330172Y-131235895D01*
X134428755Y-131264092D01*
X134522065Y-131304045D01*
X134757099Y-131446204D01*
X134944895Y-131627756D01*
X135081579Y-131843252D01*
X135163277Y-132087242D01*
X135183587Y-132234578D01*
X135175921Y-132508171D01*
X135111146Y-132753554D01*
X135012563Y-132938949D01*
X134906119Y-133097124D01*
X135382181Y-133097124D01*
X135570187Y-133098030D01*
X135703520Y-133101399D01*
X135791710Y-133108207D01*
X135844291Y-133119433D01*
X135870793Y-133136053D01*
X135877734Y-133147917D01*
X135888907Y-133212501D01*
X135893922Y-133314125D01*
X135892892Y-133426301D01*
X135885926Y-133522545D01*
X135875958Y-133570765D01*
X135858266Y-133580902D01*
X135811018Y-133589308D01*
X135729582Y-133596116D01*
X135609329Y-133601459D01*
X135445629Y-133605468D01*
X135233852Y-133608276D01*
X134969367Y-133610014D01*
X134647544Y-133610814D01*
X134469034Y-133610904D01*
X134152346Y-133611170D01*
X134127778Y-133611191D01*
X133845236Y-133611393D01*
X133615906Y-133610521D01*
X133434287Y-133607586D01*
X133294875Y-133601601D01*
X133192169Y-133591576D01*
X133120668Y-133576523D01*
X133074868Y-133555453D01*
X133049268Y-133527377D01*
X133038366Y-133491308D01*
X133036659Y-133446256D01*
X133038646Y-133391232D01*
X133039324Y-133354014D01*
X133044937Y-133222638D01*
X133065266Y-133143553D01*
X133105543Y-133105536D01*
X133159065Y-133097124D01*
X133214093Y-133093336D01*
X133217688Y-133070415D01*
X133186678Y-133024874D01*
X133090144Y-132859796D01*
X133011231Y-132659530D01*
X132967614Y-132487705D01*
X132962850Y-132392880D01*
X133491360Y-132392880D01*
X133531066Y-132553752D01*
X133612005Y-132699051D01*
X133732282Y-132817782D01*
X133890002Y-132898947D01*
X133973465Y-132920431D01*
X134152346Y-132924141D01*
X134316609Y-132873748D01*
X134458382Y-132779018D01*
X134569798Y-132649715D01*
X134642986Y-132495603D01*
X134670079Y-132326446D01*
X134643207Y-132152010D01*
X134627298Y-132109110D01*
X134526470Y-131942135D01*
X134389003Y-131821387D01*
X134225738Y-131750659D01*
X134047513Y-131733744D01*
X133865169Y-131774435D01*
X133782761Y-131813613D01*
X133638588Y-131926803D01*
X133543226Y-132068409D01*
X133494782Y-132227433D01*
X133491360Y-132392880D01*
X132962850Y-132392880D01*
X132956414Y-132264754D01*
X132997784Y-132032824D01*
X133085377Y-131808501D01*
X133212848Y-131608374D01*
X133361169Y-131458870D01*
X133542498Y-131336348D01*
X133725893Y-131260950D01*
X133933090Y-131225317D01*
X134066884Y-131219994D01*
X134217933Y-131222744D01*
G37*
G36*
X135636424Y-134861827D02*
G01*
X136036429Y-134951354D01*
X136413724Y-135095879D01*
X136763304Y-135291565D01*
X137080167Y-135534576D01*
X137359310Y-135821076D01*
X137595729Y-136147229D01*
X137784421Y-136509201D01*
X137920161Y-136902307D01*
X137965380Y-137127308D01*
X137993790Y-137383611D01*
X138004382Y-137647720D01*
X137996148Y-137896140D01*
X137971122Y-138090424D01*
X137861087Y-138497071D01*
X137699537Y-138872362D01*
X137491460Y-139213288D01*
X137241844Y-139516840D01*
X136955679Y-139780009D01*
X136637953Y-139999786D01*
X136293654Y-140173161D01*
X135927772Y-140297125D01*
X135545294Y-140368669D01*
X135361127Y-140376200D01*
X135151210Y-140384783D01*
X134750509Y-140342459D01*
X134387996Y-140251805D01*
X134002088Y-140095120D01*
X133648449Y-139885968D01*
X133331629Y-139629547D01*
X133056179Y-139331058D01*
X132826650Y-138995702D01*
X132647592Y-138628678D01*
X132523556Y-138235188D01*
X132492905Y-138086113D01*
X132472522Y-137908794D01*
X132467242Y-137762931D01*
X132701331Y-137762931D01*
X132749750Y-138123595D01*
X132852005Y-138477369D01*
X133009169Y-138818414D01*
X133222317Y-139140887D01*
X133386970Y-139333089D01*
X133679782Y-139600456D01*
X134004917Y-139818888D01*
X134353411Y-139983172D01*
X134667281Y-140077694D01*
X134870096Y-140109318D01*
X135109840Y-140125276D01*
X135361127Y-140125449D01*
X135598573Y-140109717D01*
X135774668Y-140082889D01*
X136138431Y-139973800D01*
X136480752Y-139808533D01*
X136795409Y-139593302D01*
X137076181Y-139334323D01*
X137316846Y-139037810D01*
X137511184Y-138709977D01*
X137652973Y-138357039D01*
X137706627Y-138152969D01*
X137745624Y-137880519D01*
X137756170Y-137580053D01*
X137738579Y-137280419D01*
X137694183Y-137014697D01*
X137572948Y-136641668D01*
X137395447Y-136293878D01*
X137166785Y-135977634D01*
X136892065Y-135699247D01*
X136576391Y-135465026D01*
X136330727Y-135329253D01*
X136072474Y-135216544D01*
X135834834Y-135141305D01*
X135593212Y-135098015D01*
X135323013Y-135081150D01*
X135222889Y-135080443D01*
X134890786Y-135097956D01*
X134594020Y-135151089D01*
X134311596Y-135244619D01*
X134123111Y-135330669D01*
X133779529Y-135536132D01*
X133481186Y-135781442D01*
X133229158Y-136060756D01*
X133024517Y-136368233D01*
X132868340Y-136698031D01*
X132761701Y-137044308D01*
X132705673Y-137401222D01*
X132701331Y-137762931D01*
X132467242Y-137762931D01*
X132464456Y-137685958D01*
X132468345Y-137459943D01*
X132478562Y-137268874D01*
X132494167Y-137118809D01*
X132519075Y-136986550D01*
X132557199Y-136848895D01*
X132586786Y-136757807D01*
X132728837Y-136403090D01*
X132906054Y-136089542D01*
X133129334Y-135798873D01*
X133212532Y-135707449D01*
X133527881Y-135417404D01*
X133871867Y-135183977D01*
X134241549Y-135008454D01*
X134633985Y-134892119D01*
X135046234Y-134836257D01*
X135218710Y-134831132D01*
X135636424Y-134861827D01*
G37*
D13*
%TO.C,J9*%
X138630000Y-129890000D02*
X138630000Y-131140000D01*
X138630000Y-131140000D02*
X139880000Y-131140000D01*
X138930000Y-120620000D02*
X138930000Y-123330000D01*
X138930000Y-123330000D02*
X139930000Y-123330000D01*
X138930000Y-128130000D02*
X138930000Y-130840000D01*
X138930000Y-130840000D02*
X145550000Y-130840000D01*
X139330000Y-124930000D02*
X139330000Y-126530000D01*
X139330000Y-126530000D02*
X139930000Y-126530000D01*
X139930000Y-123330000D02*
X139930000Y-124930000D01*
X139930000Y-124930000D02*
X139330000Y-124930000D01*
X139930000Y-126530000D02*
X139930000Y-128130000D01*
X139930000Y-128130000D02*
X138930000Y-128130000D01*
X140540000Y-121630000D02*
X140540000Y-129830000D01*
X140540000Y-129830000D02*
X144840000Y-129830000D01*
X142240000Y-120620000D02*
X142240000Y-121630000D01*
X142240000Y-130840000D02*
X142240000Y-129830000D01*
X144840000Y-121630000D02*
X140540000Y-121630000D01*
X144840000Y-129830000D02*
X144840000Y-121630000D01*
X145550000Y-120620000D02*
X138930000Y-120620000D01*
X145550000Y-130840000D02*
X145550000Y-120620000D01*
%TO.C,J1*%
X158690000Y-92650000D02*
X160020000Y-92650000D01*
X158690000Y-93980000D02*
X158690000Y-92650000D01*
X161290000Y-92650000D02*
X179130000Y-92650000D01*
X161290000Y-95310000D02*
X161290000Y-92650000D01*
X161290000Y-95310000D02*
X179130000Y-95310000D01*
X179130000Y-95310000D02*
X179130000Y-92650000D01*
%TO.C,J7*%
X156410000Y-110840000D02*
X156410000Y-112090000D01*
X156410000Y-112090000D02*
X157660000Y-112090000D01*
X156710000Y-101570000D02*
X156710000Y-104280000D01*
X156710000Y-104280000D02*
X157710000Y-104280000D01*
X156710000Y-109080000D02*
X156710000Y-111790000D01*
X156710000Y-111790000D02*
X163330000Y-111790000D01*
X157110000Y-105880000D02*
X157110000Y-107480000D01*
X157110000Y-107480000D02*
X157710000Y-107480000D01*
X157710000Y-104280000D02*
X157710000Y-105880000D01*
X157710000Y-105880000D02*
X157110000Y-105880000D01*
X157710000Y-107480000D02*
X157710000Y-109080000D01*
X157710000Y-109080000D02*
X156710000Y-109080000D01*
X158320000Y-102580000D02*
X158320000Y-110780000D01*
X158320000Y-110780000D02*
X162620000Y-110780000D01*
X160020000Y-101570000D02*
X160020000Y-102580000D01*
X160020000Y-111790000D02*
X160020000Y-110780000D01*
X162620000Y-102580000D02*
X158320000Y-102580000D01*
X162620000Y-110780000D02*
X162620000Y-102580000D01*
X163330000Y-101570000D02*
X156710000Y-101570000D01*
X163330000Y-111790000D02*
X163330000Y-101570000D01*
%TO.C,J4*%
X131766000Y-92650000D02*
X133096000Y-92650000D01*
X131766000Y-93980000D02*
X131766000Y-92650000D01*
X134366000Y-92650000D02*
X157286000Y-92650000D01*
X134366000Y-95310000D02*
X134366000Y-92650000D01*
X134366000Y-95310000D02*
X157286000Y-95310000D01*
X157286000Y-95310000D02*
X157286000Y-92650000D01*
%TO.C,SW1*%
X170112500Y-96410000D02*
X170112500Y-97793000D01*
X170112500Y-96410000D02*
X171496500Y-96410000D01*
X170352500Y-96650000D02*
X170352500Y-109110000D01*
X170352500Y-96650000D02*
X180252500Y-96650000D01*
X170352500Y-109110000D02*
X180252500Y-109110000D01*
X173272500Y-98435000D02*
X173272500Y-99705000D01*
X173272500Y-98555000D02*
X174625833Y-98555000D01*
X173272500Y-98675000D02*
X174625833Y-98675000D01*
X173272500Y-98795000D02*
X174625833Y-98795000D01*
X173272500Y-98915000D02*
X174625833Y-98915000D01*
X173272500Y-99035000D02*
X174625833Y-99035000D01*
X173272500Y-99155000D02*
X174625833Y-99155000D01*
X173272500Y-99275000D02*
X174625833Y-99275000D01*
X173272500Y-99395000D02*
X174625833Y-99395000D01*
X173272500Y-99515000D02*
X174625833Y-99515000D01*
X173272500Y-99635000D02*
X174625833Y-99635000D01*
X173272500Y-99705000D02*
X177332500Y-99705000D01*
X173272500Y-100975000D02*
X173272500Y-102245000D01*
X173272500Y-101095000D02*
X174625833Y-101095000D01*
X173272500Y-101215000D02*
X174625833Y-101215000D01*
X173272500Y-101335000D02*
X174625833Y-101335000D01*
X173272500Y-101455000D02*
X174625833Y-101455000D01*
X173272500Y-101575000D02*
X174625833Y-101575000D01*
X173272500Y-101695000D02*
X174625833Y-101695000D01*
X173272500Y-101815000D02*
X174625833Y-101815000D01*
X173272500Y-101935000D02*
X174625833Y-101935000D01*
X173272500Y-102055000D02*
X174625833Y-102055000D01*
X173272500Y-102175000D02*
X174625833Y-102175000D01*
X173272500Y-102245000D02*
X177332500Y-102245000D01*
X173272500Y-103515000D02*
X173272500Y-104785000D01*
X173272500Y-103635000D02*
X174625833Y-103635000D01*
X173272500Y-103755000D02*
X174625833Y-103755000D01*
X173272500Y-103875000D02*
X174625833Y-103875000D01*
X173272500Y-103995000D02*
X174625833Y-103995000D01*
X173272500Y-104115000D02*
X174625833Y-104115000D01*
X173272500Y-104235000D02*
X174625833Y-104235000D01*
X173272500Y-104355000D02*
X174625833Y-104355000D01*
X173272500Y-104475000D02*
X174625833Y-104475000D01*
X173272500Y-104595000D02*
X174625833Y-104595000D01*
X173272500Y-104715000D02*
X174625833Y-104715000D01*
X173272500Y-104785000D02*
X177332500Y-104785000D01*
X173272500Y-106055000D02*
X173272500Y-107325000D01*
X173272500Y-106175000D02*
X174625833Y-106175000D01*
X173272500Y-106295000D02*
X174625833Y-106295000D01*
X173272500Y-106415000D02*
X174625833Y-106415000D01*
X173272500Y-106535000D02*
X174625833Y-106535000D01*
X173272500Y-106655000D02*
X174625833Y-106655000D01*
X173272500Y-106775000D02*
X174625833Y-106775000D01*
X173272500Y-106895000D02*
X174625833Y-106895000D01*
X173272500Y-107015000D02*
X174625833Y-107015000D01*
X173272500Y-107135000D02*
X174625833Y-107135000D01*
X173272500Y-107255000D02*
X174625833Y-107255000D01*
X173272500Y-107325000D02*
X177332500Y-107325000D01*
X174625833Y-98435000D02*
X174625833Y-99705000D01*
X174625833Y-100975000D02*
X174625833Y-102245000D01*
X174625833Y-103515000D02*
X174625833Y-104785000D01*
X174625833Y-106055000D02*
X174625833Y-107325000D01*
X177332500Y-98435000D02*
X173272500Y-98435000D01*
X177332500Y-99705000D02*
X177332500Y-98435000D01*
X177332500Y-100975000D02*
X173272500Y-100975000D01*
X177332500Y-102245000D02*
X177332500Y-100975000D01*
X177332500Y-103515000D02*
X173272500Y-103515000D01*
X177332500Y-104785000D02*
X177332500Y-103515000D01*
X177332500Y-106055000D02*
X173272500Y-106055000D01*
X177332500Y-107325000D02*
X177332500Y-106055000D01*
X180252500Y-96650000D02*
X180252500Y-109110000D01*
%TO.C,J3*%
X163770000Y-135830000D02*
X165100000Y-135830000D01*
X163770000Y-137160000D02*
X163770000Y-135830000D01*
X166370000Y-135830000D02*
X179130000Y-135830000D01*
X166370000Y-138490000D02*
X166370000Y-135830000D01*
X166370000Y-138490000D02*
X179130000Y-138490000D01*
X179130000Y-138490000D02*
X179130000Y-135830000D01*
%TD*%
M02*
