%TF.GenerationSoftware,KiCad,Pcbnew,8.0.1*%
%TF.CreationDate,2024-03-27T15:45:16+09:00*%
%TF.ProjectId,STEP200-switch-id-shield,53544550-3230-4302-9d73-77697463682d,rev?*%
%TF.SameCoordinates,Original*%
%TF.FileFunction,Copper,L1,Top*%
%TF.FilePolarity,Positive*%
%FSLAX46Y46*%
G04 Gerber Fmt 4.6, Leading zero omitted, Abs format (unit mm)*
G04 Created by KiCad (PCBNEW 8.0.1) date 2024-03-27 15:45:16*
%MOMM*%
%LPD*%
G01*
G04 APERTURE LIST*
G04 Aperture macros list*
%AMRoundRect*
0 Rectangle with rounded corners*
0 $1 Rounding radius*
0 $2 $3 $4 $5 $6 $7 $8 $9 X,Y pos of 4 corners*
0 Add a 4 corners polygon primitive as box body*
4,1,4,$2,$3,$4,$5,$6,$7,$8,$9,$2,$3,0*
0 Add four circle primitives for the rounded corners*
1,1,$1+$1,$2,$3*
1,1,$1+$1,$4,$5*
1,1,$1+$1,$6,$7*
1,1,$1+$1,$8,$9*
0 Add four rect primitives between the rounded corners*
20,1,$1+$1,$2,$3,$4,$5,0*
20,1,$1+$1,$4,$5,$6,$7,0*
20,1,$1+$1,$6,$7,$8,$9,0*
20,1,$1+$1,$8,$9,$2,$3,0*%
G04 Aperture macros list end*
%TA.AperFunction,EtchedComponent*%
%ADD10C,0.000000*%
%TD*%
%TA.AperFunction,SMDPad,CuDef*%
%ADD11R,1.000000X1.500000*%
%TD*%
%TA.AperFunction,ComponentPad*%
%ADD12RoundRect,0.250000X0.725000X-0.600000X0.725000X0.600000X-0.725000X0.600000X-0.725000X-0.600000X0*%
%TD*%
%TA.AperFunction,ComponentPad*%
%ADD13O,1.950000X1.700000*%
%TD*%
%TA.AperFunction,ComponentPad*%
%ADD14R,1.700000X1.700000*%
%TD*%
%TA.AperFunction,ComponentPad*%
%ADD15O,1.700000X1.700000*%
%TD*%
%TA.AperFunction,ComponentPad*%
%ADD16R,1.600000X1.600000*%
%TD*%
%TA.AperFunction,ComponentPad*%
%ADD17O,1.600000X1.600000*%
%TD*%
%TA.AperFunction,Conductor*%
%ADD18C,0.500000*%
%TD*%
%TA.AperFunction,Conductor*%
%ADD19C,0.300000*%
%TD*%
%TA.AperFunction,Conductor*%
%ADD20C,0.800000*%
%TD*%
G04 APERTURE END LIST*
D10*
%TA.AperFunction,EtchedComponent*%
%TO.C,JP1*%
G36*
X159620000Y-98090000D02*
G01*
X159120000Y-98090000D01*
X159120000Y-97490000D01*
X159620000Y-97490000D01*
X159620000Y-98090000D01*
G37*
%TD.AperFunction*%
%TD*%
D11*
%TO.P,JP1,1,A*%
%TO.N,Net-(A1-D8)*%
X158720000Y-97790000D03*
%TO.P,JP1,2,B*%
%TO.N,Net-(A1-D4)*%
X160020000Y-97790000D03*
%TD*%
D12*
%TO.P,J8,1,Pin_1*%
%TO.N,GND*%
X142240000Y-109220000D03*
D13*
%TO.P,J8,2,Pin_2*%
%TO.N,/LIMIT_1*%
X142240000Y-106720000D03*
%TO.P,J8,3,Pin_3*%
%TO.N,VBUS*%
X142240000Y-104220000D03*
%TD*%
D14*
%TO.P,J2,1,Pin_1*%
%TO.N,unconnected-(J2-Pin_1-Pad1)*%
X142240000Y-137160000D03*
D15*
%TO.P,J2,2,Pin_2*%
%TO.N,VBUS*%
X144780000Y-137160000D03*
%TO.P,J2,3,Pin_3*%
%TO.N,/RESET*%
X147320000Y-137160000D03*
%TO.P,J2,4,Pin_4*%
%TO.N,+3.3V*%
X149860000Y-137160000D03*
%TO.P,J2,5,Pin_5*%
%TO.N,+5V*%
X152400000Y-137160000D03*
%TO.P,J2,6,Pin_6*%
%TO.N,GND*%
X154940000Y-137160000D03*
%TO.P,J2,7,Pin_7*%
X157480000Y-137160000D03*
%TO.P,J2,8,Pin_8*%
%TO.N,VCC*%
X160020000Y-137160000D03*
%TD*%
D12*
%TO.P,J5,1,Pin_1*%
%TO.N,GND*%
X160020000Y-128270000D03*
D13*
%TO.P,J5,2,Pin_2*%
%TO.N,Net-(J5-Pin_2)*%
X160020000Y-125770000D03*
%TO.P,J5,3,Pin_3*%
%TO.N,VBUS*%
X160020000Y-123270000D03*
%TD*%
D12*
%TO.P,J9,1,Pin_1*%
%TO.N,GND*%
X142240000Y-128230000D03*
D13*
%TO.P,J9,2,Pin_2*%
%TO.N,/LIMIT_2*%
X142240000Y-125730000D03*
%TO.P,J9,3,Pin_3*%
%TO.N,VBUS*%
X142240000Y-123230000D03*
%TD*%
D14*
%TO.P,J1,1,Pin_1*%
%TO.N,Net-(A1-D7)*%
X160020000Y-93980000D03*
D15*
%TO.P,J1,2,Pin_2*%
%TO.N,Net-(A1-D6)*%
X162560000Y-93980000D03*
%TO.P,J1,3,Pin_3*%
%TO.N,Net-(A1-D5)*%
X165100000Y-93980000D03*
%TO.P,J1,4,Pin_4*%
%TO.N,Net-(A1-D4)*%
X167640000Y-93980000D03*
%TO.P,J1,5,Pin_5*%
%TO.N,Net-(A1-D3{slash}SCL)*%
X170180000Y-93980000D03*
%TO.P,J1,6,Pin_6*%
%TO.N,Net-(A1-D2{slash}SDA)*%
X172720000Y-93980000D03*
%TO.P,J1,7,Pin_7*%
%TO.N,Net-(A1-D1{slash}TX)*%
X175260000Y-93980000D03*
%TO.P,J1,8,Pin_8*%
%TO.N,Net-(A1-D0{slash}RX)*%
X177800000Y-93980000D03*
%TD*%
D12*
%TO.P,J7,1,Pin_1*%
%TO.N,GND*%
X160020000Y-109180000D03*
D13*
%TO.P,J7,2,Pin_2*%
%TO.N,Net-(J6-Pin_5)*%
X160020000Y-106680000D03*
%TO.P,J7,3,Pin_3*%
%TO.N,VBUS*%
X160020000Y-104180000D03*
%TD*%
D14*
%TO.P,J4,1,Pin_1*%
%TO.N,/SCL*%
X133096000Y-93980000D03*
D15*
%TO.P,J4,2,Pin_2*%
%TO.N,/SDA*%
X135636000Y-93980000D03*
%TO.P,J4,3,Pin_3*%
%TO.N,/AREF*%
X138176000Y-93980000D03*
%TO.P,J4,4,Pin_4*%
%TO.N,GND*%
X140716000Y-93980000D03*
%TO.P,J4,5,Pin_5*%
%TO.N,Net-(A1-D13)*%
X143256000Y-93980000D03*
%TO.P,J4,6,Pin_6*%
%TO.N,Net-(A1-D12)*%
X145796000Y-93980000D03*
%TO.P,J4,7,Pin_7*%
%TO.N,Net-(A1-D11)*%
X148336000Y-93980000D03*
%TO.P,J4,8,Pin_8*%
%TO.N,Net-(A1-D10)*%
X150876000Y-93980000D03*
%TO.P,J4,9,Pin_9*%
%TO.N,Net-(A1-D9)*%
X153416000Y-93980000D03*
%TO.P,J4,10,Pin_10*%
%TO.N,Net-(A1-D8)*%
X155956000Y-93980000D03*
%TD*%
D16*
%TO.P,SW1,1*%
%TO.N,Net-(A1-D5)*%
X171492500Y-99070000D03*
D17*
%TO.P,SW1,2*%
%TO.N,Net-(A1-D6)*%
X171492500Y-101610000D03*
%TO.P,SW1,3*%
%TO.N,Net-(A1-D7)*%
X171492500Y-104150000D03*
%TO.P,SW1,4*%
%TO.N,Net-(A1-D9)*%
X171492500Y-106690000D03*
%TO.P,SW1,5*%
%TO.N,GND*%
X179112500Y-106690000D03*
%TO.P,SW1,6*%
X179112500Y-104150000D03*
%TO.P,SW1,7*%
X179112500Y-101610000D03*
%TO.P,SW1,8*%
X179112500Y-99070000D03*
%TD*%
D14*
%TO.P,J3,1,Pin_1*%
%TO.N,/LIMIT_1*%
X165100000Y-137160000D03*
D15*
%TO.P,J3,2,Pin_2*%
%TO.N,/LIMIT_2*%
X167640000Y-137160000D03*
%TO.P,J3,3,Pin_3*%
%TO.N,Net-(A1-A2)*%
X170180000Y-137160000D03*
%TO.P,J3,4,Pin_4*%
%TO.N,Net-(A1-A3)*%
X172720000Y-137160000D03*
%TO.P,J3,5,Pin_5*%
%TO.N,Net-(A1-A4)*%
X175260000Y-137160000D03*
%TO.P,J3,6,Pin_6*%
%TO.N,Net-(A1-A5)*%
X177800000Y-137160000D03*
%TD*%
D16*
%TO.P,A1,1,NC*%
%TO.N,unconnected-(A1-NC-Pad1)*%
X142240000Y-139700000D03*
D17*
%TO.P,A1,2,IOREF*%
%TO.N,VBUS*%
X144780000Y-139700000D03*
%TO.P,A1,3,~{RESET}*%
%TO.N,/RESET*%
X147320000Y-139700000D03*
%TO.P,A1,4,3V3*%
%TO.N,+3.3V*%
X149860000Y-139700000D03*
%TO.P,A1,5,+5V*%
%TO.N,+5V*%
X152400000Y-139700000D03*
%TO.P,A1,6,GND*%
%TO.N,GND*%
X154940000Y-139700000D03*
%TO.P,A1,7,GND*%
X157480000Y-139700000D03*
%TO.P,A1,8,VIN*%
%TO.N,VCC*%
X160020000Y-139700000D03*
%TO.P,A1,9,A0*%
%TO.N,/LIMIT_1*%
X165100000Y-139700000D03*
%TO.P,A1,10,A1*%
%TO.N,/LIMIT_2*%
X167640000Y-139700000D03*
%TO.P,A1,11,A2*%
%TO.N,Net-(A1-A2)*%
X170180000Y-139700000D03*
%TO.P,A1,12,A3*%
%TO.N,Net-(A1-A3)*%
X172720000Y-139700000D03*
%TO.P,A1,13,A4*%
%TO.N,Net-(A1-A4)*%
X175260000Y-139700000D03*
%TO.P,A1,14,A5*%
%TO.N,Net-(A1-A5)*%
X177800000Y-139700000D03*
%TO.P,A1,15,D0/RX*%
%TO.N,Net-(A1-D0{slash}RX)*%
X177800000Y-91440000D03*
%TO.P,A1,16,D1/TX*%
%TO.N,Net-(A1-D1{slash}TX)*%
X175260000Y-91440000D03*
%TO.P,A1,17,D2/SDA*%
%TO.N,Net-(A1-D2{slash}SDA)*%
X172720000Y-91440000D03*
%TO.P,A1,18,D3/SCL*%
%TO.N,Net-(A1-D3{slash}SCL)*%
X170180000Y-91440000D03*
%TO.P,A1,19,D4*%
%TO.N,Net-(A1-D4)*%
X167640000Y-91440000D03*
%TO.P,A1,20,D5*%
%TO.N,Net-(A1-D5)*%
X165100000Y-91440000D03*
%TO.P,A1,21,D6*%
%TO.N,Net-(A1-D6)*%
X162560000Y-91440000D03*
%TO.P,A1,22,D7*%
%TO.N,Net-(A1-D7)*%
X160020000Y-91440000D03*
%TO.P,A1,23,D8*%
%TO.N,Net-(A1-D8)*%
X155960000Y-91440000D03*
%TO.P,A1,24,D9*%
%TO.N,Net-(A1-D9)*%
X153420000Y-91440000D03*
%TO.P,A1,25,D10*%
%TO.N,Net-(A1-D10)*%
X150880000Y-91440000D03*
%TO.P,A1,26,D11*%
%TO.N,Net-(A1-D11)*%
X148340000Y-91440000D03*
%TO.P,A1,27,D12*%
%TO.N,Net-(A1-D12)*%
X145800000Y-91440000D03*
%TO.P,A1,28,D13*%
%TO.N,Net-(A1-D13)*%
X143260000Y-91440000D03*
%TO.P,A1,29,GND*%
%TO.N,GND*%
X140720000Y-91440000D03*
%TO.P,A1,30,AREF*%
%TO.N,/AREF*%
X138180000Y-91440000D03*
%TO.P,A1,31,SDA/D2*%
%TO.N,/SDA*%
X135640000Y-91440000D03*
%TO.P,A1,32,SCL/D3*%
%TO.N,/SCL*%
X133100000Y-91440000D03*
%TD*%
D14*
%TO.P,J6,1,Pin_1*%
%TO.N,Net-(J5-Pin_2)*%
X174150000Y-124560000D03*
D15*
%TO.P,J6,2,Pin_2*%
%TO.N,GND*%
X171610000Y-124560000D03*
%TO.P,J6,3,Pin_3*%
%TO.N,Net-(J5-Pin_2)*%
X174150000Y-122020000D03*
%TO.P,J6,4,Pin_4*%
%TO.N,GND*%
X171610000Y-122020000D03*
%TO.P,J6,5,Pin_5*%
%TO.N,Net-(J6-Pin_5)*%
X174150000Y-119480000D03*
%TO.P,J6,6,Pin_6*%
%TO.N,GND*%
X171610000Y-119480000D03*
%TO.P,J6,7,Pin_7*%
%TO.N,Net-(J6-Pin_5)*%
X174150000Y-116940000D03*
%TO.P,J6,8,Pin_8*%
%TO.N,GND*%
X171610000Y-116940000D03*
%TD*%
D18*
%TO.N,Net-(A1-D6)*%
X162560000Y-91440000D02*
X162560000Y-93980000D01*
%TO.N,/SDA*%
X135640000Y-93976000D02*
X135636000Y-93980000D01*
X135640000Y-91440000D02*
X135640000Y-93976000D01*
%TO.N,Net-(A1-D9)*%
X153420000Y-93976000D02*
X153416000Y-93980000D01*
X153420000Y-91440000D02*
X153420000Y-93976000D01*
%TO.N,+3.3V*%
X149860000Y-137160000D02*
X149860000Y-139700000D01*
%TO.N,VCC*%
X160020000Y-137160000D02*
X160020000Y-139700000D01*
%TO.N,VBUS*%
X142280000Y-123270000D02*
X142240000Y-123230000D01*
X160020000Y-104180000D02*
X158790000Y-104180000D01*
X160020000Y-123270000D02*
X142280000Y-123270000D01*
X158790000Y-104180000D02*
X158750000Y-104220000D01*
X158750000Y-104220000D02*
X142240000Y-104220000D01*
X144780000Y-137160000D02*
X144780000Y-139700000D01*
%TO.N,Net-(A1-D4)*%
X167640000Y-91440000D02*
X167640000Y-93980000D01*
D19*
X166370000Y-95250000D02*
X167640000Y-93980000D01*
X162560000Y-95250000D02*
X166370000Y-95250000D01*
X160020000Y-97790000D02*
X162560000Y-95250000D01*
D18*
%TO.N,+5V*%
X152400000Y-137160000D02*
X152400000Y-139700000D01*
%TO.N,GND*%
X154940000Y-137160000D02*
X154940000Y-139700000D01*
D20*
X140720000Y-91440000D02*
X140720000Y-93976000D01*
D18*
X157480000Y-137160000D02*
X157480000Y-139700000D01*
X140720000Y-93976000D02*
X140716000Y-93980000D01*
%TO.N,Net-(A1-A4)*%
X175260000Y-137160000D02*
X175260000Y-139700000D01*
%TO.N,/AREF*%
X138180000Y-93976000D02*
X138176000Y-93980000D01*
X138180000Y-91440000D02*
X138180000Y-93976000D01*
%TO.N,Net-(A1-D3{slash}SCL)*%
X170180000Y-91440000D02*
X170180000Y-93980000D01*
%TO.N,Net-(A1-A3)*%
X172720000Y-137160000D02*
X172720000Y-139700000D01*
%TO.N,Net-(A1-D5)*%
X165100000Y-91440000D02*
X165100000Y-93980000D01*
%TO.N,Net-(A1-D0{slash}RX)*%
X177800000Y-91440000D02*
X177800000Y-93980000D01*
D19*
%TO.N,Net-(A1-D8)*%
X158720000Y-96744000D02*
X155956000Y-93980000D01*
D18*
X155960000Y-93976000D02*
X155956000Y-93980000D01*
D19*
X158720000Y-97790000D02*
X158720000Y-96744000D01*
D18*
X155960000Y-91440000D02*
X155960000Y-93976000D01*
%TO.N,/RESET*%
X147320000Y-137160000D02*
X147320000Y-139700000D01*
%TO.N,Net-(A1-D13)*%
X143260000Y-93976000D02*
X143256000Y-93980000D01*
X143260000Y-91440000D02*
X143260000Y-93976000D01*
%TO.N,Net-(A1-D11)*%
X148340000Y-93976000D02*
X148336000Y-93980000D01*
X148340000Y-91440000D02*
X148340000Y-93976000D01*
%TO.N,Net-(A1-D10)*%
X150880000Y-91440000D02*
X150880000Y-93976000D01*
X150880000Y-93976000D02*
X150876000Y-93980000D01*
%TO.N,Net-(A1-D12)*%
X145800000Y-93976000D02*
X145796000Y-93980000D01*
X145800000Y-91440000D02*
X145800000Y-93976000D01*
%TO.N,Net-(A1-A2)*%
X170180000Y-137160000D02*
X170180000Y-139700000D01*
%TO.N,Net-(A1-A5)*%
X177800000Y-137160000D02*
X177800000Y-139700000D01*
%TO.N,Net-(A1-D1{slash}TX)*%
X175260000Y-91440000D02*
X175260000Y-93980000D01*
%TO.N,/SCL*%
X133100000Y-93976000D02*
X133096000Y-93980000D01*
X133100000Y-91440000D02*
X133100000Y-93976000D01*
%TO.N,Net-(A1-D7)*%
X160020000Y-91440000D02*
X160020000Y-93980000D01*
%TO.N,Net-(A1-D2{slash}SDA)*%
X172720000Y-91440000D02*
X172720000Y-93980000D01*
D19*
%TO.N,Net-(J5-Pin_2)*%
X174150000Y-122020000D02*
X174150000Y-124560000D01*
X172940000Y-125770000D02*
X174150000Y-124560000D01*
X160020000Y-125770000D02*
X172940000Y-125770000D01*
%TO.N,Net-(J6-Pin_5)*%
X174150000Y-115730000D02*
X165100000Y-106680000D01*
X174150000Y-119480000D02*
X174150000Y-116940000D01*
X165100000Y-106680000D02*
X160020000Y-106680000D01*
X174150000Y-116940000D02*
X174150000Y-115730000D01*
%TO.N,/LIMIT_1*%
X139700000Y-128270000D02*
X139700000Y-107950000D01*
X140930000Y-106720000D02*
X142240000Y-106720000D01*
X162560000Y-133350000D02*
X144780000Y-133350000D01*
X144780000Y-133350000D02*
X139700000Y-128270000D01*
D18*
X165100000Y-137160000D02*
X165100000Y-139700000D01*
D19*
X139700000Y-107950000D02*
X140930000Y-106720000D01*
X165100000Y-137160000D02*
X165100000Y-135890000D01*
X165100000Y-135890000D02*
X162560000Y-133350000D01*
%TO.N,/LIMIT_2*%
X150014174Y-132741804D02*
X143002370Y-125730000D01*
X167640000Y-137160000D02*
X163221804Y-132741804D01*
D18*
X167640000Y-137160000D02*
X167640000Y-139700000D01*
D19*
X143002370Y-125730000D02*
X142240000Y-125730000D01*
X163221804Y-132741804D02*
X150014174Y-132741804D01*
%TD*%
%TA.AperFunction,Conductor*%
%TO.N,GND*%
G36*
X137433707Y-90420185D02*
G01*
X137479462Y-90472989D01*
X137489406Y-90542147D01*
X137460381Y-90605703D01*
X137450206Y-90616137D01*
X137363237Y-90695418D01*
X137240327Y-90858178D01*
X137149422Y-91040739D01*
X137149417Y-91040752D01*
X137093602Y-91236917D01*
X137074785Y-91439999D01*
X137074785Y-91440000D01*
X137093602Y-91643082D01*
X137149417Y-91839247D01*
X137149422Y-91839260D01*
X137227261Y-91995581D01*
X137240327Y-92021821D01*
X137363236Y-92184579D01*
X137513959Y-92321981D01*
X137570778Y-92357161D01*
X137617412Y-92409187D01*
X137629500Y-92462587D01*
X137629500Y-92896126D01*
X137609815Y-92963165D01*
X137570778Y-93001553D01*
X137479699Y-93057947D01*
X137322127Y-93201593D01*
X137193632Y-93371746D01*
X137098596Y-93562605D01*
X137098596Y-93562607D01*
X137040244Y-93767689D01*
X137029471Y-93883951D01*
X137003685Y-93948888D01*
X136959130Y-93980804D01*
X136995503Y-94001668D01*
X137027693Y-94063681D01*
X137029470Y-94076047D01*
X137040244Y-94192310D01*
X137093675Y-94380099D01*
X137098596Y-94397392D01*
X137098596Y-94397394D01*
X137193632Y-94588253D01*
X137322127Y-94758406D01*
X137322128Y-94758407D01*
X137479698Y-94902052D01*
X137660981Y-95014298D01*
X137859802Y-95091321D01*
X138069390Y-95130500D01*
X138069392Y-95130500D01*
X138282608Y-95130500D01*
X138282610Y-95130500D01*
X138492198Y-95091321D01*
X138691019Y-95014298D01*
X138872302Y-94902052D01*
X139029872Y-94758407D01*
X139158366Y-94588255D01*
X139225325Y-94453781D01*
X139272825Y-94402548D01*
X139340488Y-94385126D01*
X139406828Y-94407051D01*
X139448705Y-94456651D01*
X139542399Y-94657578D01*
X139677894Y-94851082D01*
X139844917Y-95018105D01*
X140038421Y-95153600D01*
X140252507Y-95253429D01*
X140252516Y-95253433D01*
X140466000Y-95310634D01*
X140466000Y-94413012D01*
X140523007Y-94445925D01*
X140650174Y-94480000D01*
X140781826Y-94480000D01*
X140908993Y-94445925D01*
X140966000Y-94413012D01*
X140966000Y-95310633D01*
X141179483Y-95253433D01*
X141179492Y-95253429D01*
X141393578Y-95153600D01*
X141587082Y-95018105D01*
X141754105Y-94851082D01*
X141889600Y-94657578D01*
X141983294Y-94456651D01*
X142029466Y-94404212D01*
X142096660Y-94385060D01*
X142163541Y-94405276D01*
X142206676Y-94453785D01*
X142273632Y-94588253D01*
X142402127Y-94758406D01*
X142402128Y-94758407D01*
X142559698Y-94902052D01*
X142740981Y-95014298D01*
X142939802Y-95091321D01*
X143149390Y-95130500D01*
X143149392Y-95130500D01*
X143362608Y-95130500D01*
X143362610Y-95130500D01*
X143572198Y-95091321D01*
X143771019Y-95014298D01*
X143952302Y-94902052D01*
X144109872Y-94758407D01*
X144238366Y-94588255D01*
X144298866Y-94466753D01*
X144333403Y-94397394D01*
X144333403Y-94397393D01*
X144333405Y-94397389D01*
X144391756Y-94192310D01*
X144402529Y-94076047D01*
X144428315Y-94011111D01*
X144472869Y-93979194D01*
X144436497Y-93958331D01*
X144404307Y-93896318D01*
X144402529Y-93883951D01*
X144399175Y-93847759D01*
X144391756Y-93767690D01*
X144333405Y-93562611D01*
X144333403Y-93562606D01*
X144333403Y-93562605D01*
X144238367Y-93371746D01*
X144109872Y-93201593D01*
X143952299Y-93057945D01*
X143869221Y-93006505D01*
X143822586Y-92954477D01*
X143810500Y-92901079D01*
X143810500Y-92462587D01*
X143830185Y-92395548D01*
X143869220Y-92357162D01*
X143926041Y-92321981D01*
X144076764Y-92184579D01*
X144199673Y-92021821D01*
X144290582Y-91839250D01*
X144346397Y-91643083D01*
X144365215Y-91440000D01*
X144359115Y-91374174D01*
X144346397Y-91236917D01*
X144327404Y-91170165D01*
X144290582Y-91040750D01*
X144290159Y-91039901D01*
X144240415Y-90940000D01*
X144199673Y-90858179D01*
X144076764Y-90695421D01*
X144076762Y-90695418D01*
X143989794Y-90616137D01*
X143953512Y-90556426D01*
X143955273Y-90486578D01*
X143994516Y-90428771D01*
X144058783Y-90401356D01*
X144073332Y-90400500D01*
X144986668Y-90400500D01*
X145053707Y-90420185D01*
X145099462Y-90472989D01*
X145109406Y-90542147D01*
X145080381Y-90605703D01*
X145070206Y-90616137D01*
X144983237Y-90695418D01*
X144860327Y-90858178D01*
X144769422Y-91040739D01*
X144769417Y-91040752D01*
X144713602Y-91236917D01*
X144694785Y-91439999D01*
X144694785Y-91440000D01*
X144713602Y-91643082D01*
X144769417Y-91839247D01*
X144769422Y-91839260D01*
X144847261Y-91995581D01*
X144860327Y-92021821D01*
X144983236Y-92184579D01*
X145133959Y-92321981D01*
X145190778Y-92357161D01*
X145237412Y-92409187D01*
X145249500Y-92462587D01*
X145249500Y-92896126D01*
X145229815Y-92963165D01*
X145190778Y-93001553D01*
X145099699Y-93057947D01*
X144942127Y-93201593D01*
X144813632Y-93371746D01*
X144718596Y-93562605D01*
X144718596Y-93562607D01*
X144660244Y-93767689D01*
X144649471Y-93883951D01*
X144623685Y-93948888D01*
X144579130Y-93980804D01*
X144615503Y-94001668D01*
X144647693Y-94063681D01*
X144649470Y-94076047D01*
X144660244Y-94192310D01*
X144713675Y-94380099D01*
X144718596Y-94397392D01*
X144718596Y-94397394D01*
X144813632Y-94588253D01*
X144942127Y-94758406D01*
X144942128Y-94758407D01*
X145099698Y-94902052D01*
X145280981Y-95014298D01*
X145479802Y-95091321D01*
X145689390Y-95130500D01*
X145689392Y-95130500D01*
X145902608Y-95130500D01*
X145902610Y-95130500D01*
X146112198Y-95091321D01*
X146311019Y-95014298D01*
X146492302Y-94902052D01*
X146649872Y-94758407D01*
X146778366Y-94588255D01*
X146838866Y-94466753D01*
X146873403Y-94397394D01*
X146873403Y-94397393D01*
X146873405Y-94397389D01*
X146931756Y-94192310D01*
X146942529Y-94076047D01*
X146968315Y-94011111D01*
X147012869Y-93979194D01*
X146976497Y-93958331D01*
X146944307Y-93896318D01*
X146942529Y-93883951D01*
X146939175Y-93847759D01*
X146931756Y-93767690D01*
X146873405Y-93562611D01*
X146873403Y-93562606D01*
X146873403Y-93562605D01*
X146778367Y-93371746D01*
X146649872Y-93201593D01*
X146492299Y-93057945D01*
X146409221Y-93006505D01*
X146362586Y-92954477D01*
X146350500Y-92901079D01*
X146350500Y-92462587D01*
X146370185Y-92395548D01*
X146409220Y-92357162D01*
X146466041Y-92321981D01*
X146616764Y-92184579D01*
X146739673Y-92021821D01*
X146830582Y-91839250D01*
X146886397Y-91643083D01*
X146905215Y-91440000D01*
X146899115Y-91374174D01*
X146886397Y-91236917D01*
X146867404Y-91170165D01*
X146830582Y-91040750D01*
X146830159Y-91039901D01*
X146780415Y-90940000D01*
X146739673Y-90858179D01*
X146616764Y-90695421D01*
X146616762Y-90695418D01*
X146529794Y-90616137D01*
X146493512Y-90556426D01*
X146495273Y-90486578D01*
X146534516Y-90428771D01*
X146598783Y-90401356D01*
X146613332Y-90400500D01*
X147526668Y-90400500D01*
X147593707Y-90420185D01*
X147639462Y-90472989D01*
X147649406Y-90542147D01*
X147620381Y-90605703D01*
X147610206Y-90616137D01*
X147523237Y-90695418D01*
X147400327Y-90858178D01*
X147309422Y-91040739D01*
X147309417Y-91040752D01*
X147253602Y-91236917D01*
X147234785Y-91439999D01*
X147234785Y-91440000D01*
X147253602Y-91643082D01*
X147309417Y-91839247D01*
X147309422Y-91839260D01*
X147387261Y-91995581D01*
X147400327Y-92021821D01*
X147523236Y-92184579D01*
X147673959Y-92321981D01*
X147730778Y-92357161D01*
X147777412Y-92409187D01*
X147789500Y-92462587D01*
X147789500Y-92896126D01*
X147769815Y-92963165D01*
X147730778Y-93001553D01*
X147639699Y-93057947D01*
X147482127Y-93201593D01*
X147353632Y-93371746D01*
X147258596Y-93562605D01*
X147258596Y-93562607D01*
X147200244Y-93767689D01*
X147189471Y-93883951D01*
X147163685Y-93948888D01*
X147119130Y-93980804D01*
X147155503Y-94001668D01*
X147187693Y-94063681D01*
X147189470Y-94076047D01*
X147200244Y-94192310D01*
X147253675Y-94380099D01*
X147258596Y-94397392D01*
X147258596Y-94397394D01*
X147353632Y-94588253D01*
X147482127Y-94758406D01*
X147482128Y-94758407D01*
X147639698Y-94902052D01*
X147820981Y-95014298D01*
X148019802Y-95091321D01*
X148229390Y-95130500D01*
X148229392Y-95130500D01*
X148442608Y-95130500D01*
X148442610Y-95130500D01*
X148652198Y-95091321D01*
X148851019Y-95014298D01*
X149032302Y-94902052D01*
X149189872Y-94758407D01*
X149318366Y-94588255D01*
X149378866Y-94466753D01*
X149413403Y-94397394D01*
X149413403Y-94397393D01*
X149413405Y-94397389D01*
X149471756Y-94192310D01*
X149482529Y-94076047D01*
X149508315Y-94011111D01*
X149552869Y-93979194D01*
X149516497Y-93958331D01*
X149484307Y-93896318D01*
X149482529Y-93883951D01*
X149479175Y-93847759D01*
X149471756Y-93767690D01*
X149413405Y-93562611D01*
X149413403Y-93562606D01*
X149413403Y-93562605D01*
X149318367Y-93371746D01*
X149189872Y-93201593D01*
X149032299Y-93057945D01*
X148949221Y-93006505D01*
X148902586Y-92954477D01*
X148890500Y-92901079D01*
X148890500Y-92462587D01*
X148910185Y-92395548D01*
X148949220Y-92357162D01*
X149006041Y-92321981D01*
X149156764Y-92184579D01*
X149279673Y-92021821D01*
X149370582Y-91839250D01*
X149426397Y-91643083D01*
X149445215Y-91440000D01*
X149439115Y-91374174D01*
X149426397Y-91236917D01*
X149407404Y-91170165D01*
X149370582Y-91040750D01*
X149370159Y-91039901D01*
X149320415Y-90940000D01*
X149279673Y-90858179D01*
X149156764Y-90695421D01*
X149156762Y-90695418D01*
X149069794Y-90616137D01*
X149033512Y-90556426D01*
X149035273Y-90486578D01*
X149074516Y-90428771D01*
X149138783Y-90401356D01*
X149153332Y-90400500D01*
X150066668Y-90400500D01*
X150133707Y-90420185D01*
X150179462Y-90472989D01*
X150189406Y-90542147D01*
X150160381Y-90605703D01*
X150150206Y-90616137D01*
X150063237Y-90695418D01*
X149940327Y-90858178D01*
X149849422Y-91040739D01*
X149849417Y-91040752D01*
X149793602Y-91236917D01*
X149774785Y-91439999D01*
X149774785Y-91440000D01*
X149793602Y-91643082D01*
X149849417Y-91839247D01*
X149849422Y-91839260D01*
X149927261Y-91995581D01*
X149940327Y-92021821D01*
X150063236Y-92184579D01*
X150213959Y-92321981D01*
X150270778Y-92357161D01*
X150317412Y-92409187D01*
X150329500Y-92462587D01*
X150329500Y-92896126D01*
X150309815Y-92963165D01*
X150270778Y-93001553D01*
X150179699Y-93057947D01*
X150022127Y-93201593D01*
X149893632Y-93371746D01*
X149798596Y-93562605D01*
X149798596Y-93562607D01*
X149740244Y-93767689D01*
X149729471Y-93883951D01*
X149703685Y-93948888D01*
X149659130Y-93980804D01*
X149695503Y-94001668D01*
X149727693Y-94063681D01*
X149729470Y-94076047D01*
X149740244Y-94192310D01*
X149793675Y-94380099D01*
X149798596Y-94397392D01*
X149798596Y-94397394D01*
X149893632Y-94588253D01*
X150022127Y-94758406D01*
X150022128Y-94758407D01*
X150179698Y-94902052D01*
X150360981Y-95014298D01*
X150559802Y-95091321D01*
X150769390Y-95130500D01*
X150769392Y-95130500D01*
X150982608Y-95130500D01*
X150982610Y-95130500D01*
X151192198Y-95091321D01*
X151391019Y-95014298D01*
X151572302Y-94902052D01*
X151729872Y-94758407D01*
X151858366Y-94588255D01*
X151918866Y-94466753D01*
X151953403Y-94397394D01*
X151953403Y-94397393D01*
X151953405Y-94397389D01*
X152011756Y-94192310D01*
X152022529Y-94076047D01*
X152048315Y-94011111D01*
X152092869Y-93979194D01*
X152056497Y-93958331D01*
X152024307Y-93896318D01*
X152022529Y-93883951D01*
X152019175Y-93847759D01*
X152011756Y-93767690D01*
X151953405Y-93562611D01*
X151953403Y-93562606D01*
X151953403Y-93562605D01*
X151858367Y-93371746D01*
X151729872Y-93201593D01*
X151572299Y-93057945D01*
X151489221Y-93006505D01*
X151442586Y-92954477D01*
X151430500Y-92901079D01*
X151430500Y-92462587D01*
X151450185Y-92395548D01*
X151489220Y-92357162D01*
X151546041Y-92321981D01*
X151696764Y-92184579D01*
X151819673Y-92021821D01*
X151910582Y-91839250D01*
X151966397Y-91643083D01*
X151985215Y-91440000D01*
X151979115Y-91374174D01*
X151966397Y-91236917D01*
X151947404Y-91170165D01*
X151910582Y-91040750D01*
X151910159Y-91039901D01*
X151860415Y-90940000D01*
X151819673Y-90858179D01*
X151696764Y-90695421D01*
X151696762Y-90695418D01*
X151609794Y-90616137D01*
X151573512Y-90556426D01*
X151575273Y-90486578D01*
X151614516Y-90428771D01*
X151678783Y-90401356D01*
X151693332Y-90400500D01*
X152606668Y-90400500D01*
X152673707Y-90420185D01*
X152719462Y-90472989D01*
X152729406Y-90542147D01*
X152700381Y-90605703D01*
X152690206Y-90616137D01*
X152603237Y-90695418D01*
X152480327Y-90858178D01*
X152389422Y-91040739D01*
X152389417Y-91040752D01*
X152333602Y-91236917D01*
X152314785Y-91439999D01*
X152314785Y-91440000D01*
X152333602Y-91643082D01*
X152389417Y-91839247D01*
X152389422Y-91839260D01*
X152467261Y-91995581D01*
X152480327Y-92021821D01*
X152603236Y-92184579D01*
X152753959Y-92321981D01*
X152810778Y-92357161D01*
X152857412Y-92409187D01*
X152869500Y-92462587D01*
X152869500Y-92896126D01*
X152849815Y-92963165D01*
X152810778Y-93001553D01*
X152719699Y-93057947D01*
X152562127Y-93201593D01*
X152433632Y-93371746D01*
X152338596Y-93562605D01*
X152338596Y-93562607D01*
X152280244Y-93767689D01*
X152269471Y-93883951D01*
X152243685Y-93948888D01*
X152199130Y-93980804D01*
X152235503Y-94001668D01*
X152267693Y-94063681D01*
X152269470Y-94076047D01*
X152280244Y-94192310D01*
X152333675Y-94380099D01*
X152338596Y-94397392D01*
X152338596Y-94397394D01*
X152433632Y-94588253D01*
X152562127Y-94758406D01*
X152562128Y-94758407D01*
X152719698Y-94902052D01*
X152900981Y-95014298D01*
X153099802Y-95091321D01*
X153309390Y-95130500D01*
X153309392Y-95130500D01*
X153522608Y-95130500D01*
X153522610Y-95130500D01*
X153732198Y-95091321D01*
X153931019Y-95014298D01*
X154112302Y-94902052D01*
X154269872Y-94758407D01*
X154398366Y-94588255D01*
X154458866Y-94466753D01*
X154493403Y-94397394D01*
X154493403Y-94397393D01*
X154493405Y-94397389D01*
X154551756Y-94192310D01*
X154562529Y-94076047D01*
X154588315Y-94011111D01*
X154632869Y-93979194D01*
X154596497Y-93958331D01*
X154564307Y-93896318D01*
X154562529Y-93883951D01*
X154559175Y-93847759D01*
X154551756Y-93767690D01*
X154493405Y-93562611D01*
X154493403Y-93562606D01*
X154493403Y-93562605D01*
X154398367Y-93371746D01*
X154269872Y-93201593D01*
X154112299Y-93057945D01*
X154029221Y-93006505D01*
X153982586Y-92954477D01*
X153970500Y-92901079D01*
X153970500Y-92462587D01*
X153990185Y-92395548D01*
X154029220Y-92357162D01*
X154086041Y-92321981D01*
X154236764Y-92184579D01*
X154359673Y-92021821D01*
X154450582Y-91839250D01*
X154506397Y-91643083D01*
X154525215Y-91440000D01*
X154519115Y-91374174D01*
X154506397Y-91236917D01*
X154487404Y-91170165D01*
X154450582Y-91040750D01*
X154450159Y-91039901D01*
X154400415Y-90940000D01*
X154359673Y-90858179D01*
X154236764Y-90695421D01*
X154236762Y-90695418D01*
X154149794Y-90616137D01*
X154113512Y-90556426D01*
X154115273Y-90486578D01*
X154154516Y-90428771D01*
X154218783Y-90401356D01*
X154233332Y-90400500D01*
X155146668Y-90400500D01*
X155213707Y-90420185D01*
X155259462Y-90472989D01*
X155269406Y-90542147D01*
X155240381Y-90605703D01*
X155230206Y-90616137D01*
X155143237Y-90695418D01*
X155020327Y-90858178D01*
X154929422Y-91040739D01*
X154929417Y-91040752D01*
X154873602Y-91236917D01*
X154854785Y-91439999D01*
X154854785Y-91440000D01*
X154873602Y-91643082D01*
X154929417Y-91839247D01*
X154929422Y-91839260D01*
X155007261Y-91995581D01*
X155020327Y-92021821D01*
X155143236Y-92184579D01*
X155293959Y-92321981D01*
X155350778Y-92357161D01*
X155397412Y-92409187D01*
X155409500Y-92462587D01*
X155409500Y-92896126D01*
X155389815Y-92963165D01*
X155350778Y-93001553D01*
X155259699Y-93057947D01*
X155102127Y-93201593D01*
X154973632Y-93371746D01*
X154878596Y-93562605D01*
X154878596Y-93562607D01*
X154820244Y-93767689D01*
X154809471Y-93883951D01*
X154783685Y-93948888D01*
X154739130Y-93980804D01*
X154775503Y-94001668D01*
X154807693Y-94063681D01*
X154809470Y-94076047D01*
X154820244Y-94192310D01*
X154873675Y-94380099D01*
X154878596Y-94397392D01*
X154878596Y-94397394D01*
X154973632Y-94588253D01*
X155102127Y-94758406D01*
X155102128Y-94758407D01*
X155259698Y-94902052D01*
X155440981Y-95014298D01*
X155639802Y-95091321D01*
X155849390Y-95130500D01*
X155849392Y-95130500D01*
X156062608Y-95130500D01*
X156062610Y-95130500D01*
X156272198Y-95091321D01*
X156310752Y-95076384D01*
X156380374Y-95070522D01*
X156442115Y-95103231D01*
X156443227Y-95104330D01*
X157999281Y-96660384D01*
X158032766Y-96721707D01*
X158027782Y-96791399D01*
X157999283Y-96835744D01*
X157967795Y-96867233D01*
X157967794Y-96867234D01*
X157922415Y-96970006D01*
X157922415Y-96970008D01*
X157919500Y-96995131D01*
X157919500Y-98584856D01*
X157919502Y-98584882D01*
X157922413Y-98609987D01*
X157922415Y-98609991D01*
X157967793Y-98712764D01*
X157967794Y-98712765D01*
X158047235Y-98792206D01*
X158150009Y-98837585D01*
X158175135Y-98840500D01*
X159264864Y-98840499D01*
X159264879Y-98840497D01*
X159264882Y-98840497D01*
X159289987Y-98837586D01*
X159289987Y-98837585D01*
X159289991Y-98837585D01*
X159319913Y-98824372D01*
X159389190Y-98815301D01*
X159420086Y-98824373D01*
X159450007Y-98837584D01*
X159450009Y-98837585D01*
X159475135Y-98840500D01*
X160564864Y-98840499D01*
X160564879Y-98840497D01*
X160564882Y-98840497D01*
X160589987Y-98837586D01*
X160589988Y-98837585D01*
X160589991Y-98837585D01*
X160692765Y-98792206D01*
X160772206Y-98712765D01*
X160817585Y-98609991D01*
X160820500Y-98584865D01*
X160820499Y-97677963D01*
X160840183Y-97610925D01*
X160856813Y-97590288D01*
X162710284Y-95736819D01*
X162771607Y-95703334D01*
X162797965Y-95700500D01*
X166429308Y-95700500D01*
X166429309Y-95700500D01*
X166519673Y-95676286D01*
X166543887Y-95669799D01*
X166646614Y-95610489D01*
X167152772Y-95104329D01*
X167214095Y-95070845D01*
X167283786Y-95075829D01*
X167285204Y-95076368D01*
X167323802Y-95091321D01*
X167533390Y-95130500D01*
X167533392Y-95130500D01*
X167746608Y-95130500D01*
X167746610Y-95130500D01*
X167956198Y-95091321D01*
X168155019Y-95014298D01*
X168336302Y-94902052D01*
X168493872Y-94758407D01*
X168622366Y-94588255D01*
X168682866Y-94466753D01*
X168717403Y-94397394D01*
X168717403Y-94397393D01*
X168717405Y-94397389D01*
X168775756Y-94192310D01*
X168786529Y-94076047D01*
X168812315Y-94011111D01*
X168856869Y-93979194D01*
X168820497Y-93958331D01*
X168788307Y-93896318D01*
X168786529Y-93883951D01*
X168783175Y-93847759D01*
X168775756Y-93767690D01*
X168717405Y-93562611D01*
X168717403Y-93562606D01*
X168717403Y-93562605D01*
X168622367Y-93371746D01*
X168493872Y-93201593D01*
X168336299Y-93057945D01*
X168249221Y-93004028D01*
X168202586Y-92952000D01*
X168190500Y-92898602D01*
X168190500Y-92462587D01*
X168210185Y-92395548D01*
X168249220Y-92357162D01*
X168306041Y-92321981D01*
X168456764Y-92184579D01*
X168579673Y-92021821D01*
X168670582Y-91839250D01*
X168726397Y-91643083D01*
X168745215Y-91440000D01*
X168739115Y-91374174D01*
X168726397Y-91236917D01*
X168707404Y-91170165D01*
X168670582Y-91040750D01*
X168670159Y-91039901D01*
X168620415Y-90940000D01*
X168579673Y-90858179D01*
X168456764Y-90695421D01*
X168456762Y-90695418D01*
X168369794Y-90616137D01*
X168333512Y-90556426D01*
X168335273Y-90486578D01*
X168374516Y-90428771D01*
X168438783Y-90401356D01*
X168453332Y-90400500D01*
X169366668Y-90400500D01*
X169433707Y-90420185D01*
X169479462Y-90472989D01*
X169489406Y-90542147D01*
X169460381Y-90605703D01*
X169450206Y-90616137D01*
X169363237Y-90695418D01*
X169240327Y-90858178D01*
X169149422Y-91040739D01*
X169149417Y-91040752D01*
X169093602Y-91236917D01*
X169074785Y-91439999D01*
X169074785Y-91440000D01*
X169093602Y-91643082D01*
X169149417Y-91839247D01*
X169149422Y-91839260D01*
X169227261Y-91995581D01*
X169240327Y-92021821D01*
X169363236Y-92184579D01*
X169513959Y-92321981D01*
X169570778Y-92357161D01*
X169617412Y-92409187D01*
X169629500Y-92462587D01*
X169629500Y-92898602D01*
X169609815Y-92965641D01*
X169570779Y-93004028D01*
X169483700Y-93057945D01*
X169326127Y-93201593D01*
X169197632Y-93371746D01*
X169102596Y-93562605D01*
X169102596Y-93562607D01*
X169044244Y-93767689D01*
X169033471Y-93883951D01*
X169007685Y-93948888D01*
X168963130Y-93980804D01*
X168999503Y-94001668D01*
X169031693Y-94063681D01*
X169033470Y-94076047D01*
X169044244Y-94192310D01*
X169097675Y-94380099D01*
X169102596Y-94397392D01*
X169102596Y-94397394D01*
X169197632Y-94588253D01*
X169326127Y-94758406D01*
X169326128Y-94758407D01*
X169483698Y-94902052D01*
X169664981Y-95014298D01*
X169863802Y-95091321D01*
X170073390Y-95130500D01*
X170073392Y-95130500D01*
X170286608Y-95130500D01*
X170286610Y-95130500D01*
X170496198Y-95091321D01*
X170695019Y-95014298D01*
X170876302Y-94902052D01*
X171033872Y-94758407D01*
X171162366Y-94588255D01*
X171222866Y-94466753D01*
X171257403Y-94397394D01*
X171257403Y-94397393D01*
X171257405Y-94397389D01*
X171315756Y-94192310D01*
X171326529Y-94076047D01*
X171352315Y-94011111D01*
X171396869Y-93979194D01*
X171360497Y-93958331D01*
X171328307Y-93896318D01*
X171326529Y-93883951D01*
X171323175Y-93847759D01*
X171315756Y-93767690D01*
X171257405Y-93562611D01*
X171257403Y-93562606D01*
X171257403Y-93562605D01*
X171162367Y-93371746D01*
X171033872Y-93201593D01*
X170876299Y-93057945D01*
X170789221Y-93004028D01*
X170742586Y-92952000D01*
X170730500Y-92898602D01*
X170730500Y-92462587D01*
X170750185Y-92395548D01*
X170789220Y-92357162D01*
X170846041Y-92321981D01*
X170996764Y-92184579D01*
X171119673Y-92021821D01*
X171210582Y-91839250D01*
X171266397Y-91643083D01*
X171285215Y-91440000D01*
X171279115Y-91374174D01*
X171266397Y-91236917D01*
X171247404Y-91170165D01*
X171210582Y-91040750D01*
X171210159Y-91039901D01*
X171160415Y-90940000D01*
X171119673Y-90858179D01*
X170996764Y-90695421D01*
X170996762Y-90695418D01*
X170909794Y-90616137D01*
X170873512Y-90556426D01*
X170875273Y-90486578D01*
X170914516Y-90428771D01*
X170978783Y-90401356D01*
X170993332Y-90400500D01*
X171906668Y-90400500D01*
X171973707Y-90420185D01*
X172019462Y-90472989D01*
X172029406Y-90542147D01*
X172000381Y-90605703D01*
X171990206Y-90616137D01*
X171903237Y-90695418D01*
X171780327Y-90858178D01*
X171689422Y-91040739D01*
X171689417Y-91040752D01*
X171633602Y-91236917D01*
X171614785Y-91439999D01*
X171614785Y-91440000D01*
X171633602Y-91643082D01*
X171689417Y-91839247D01*
X171689422Y-91839260D01*
X171767261Y-91995581D01*
X171780327Y-92021821D01*
X171903236Y-92184579D01*
X172053959Y-92321981D01*
X172110778Y-92357161D01*
X172157412Y-92409187D01*
X172169500Y-92462587D01*
X172169500Y-92898602D01*
X172149815Y-92965641D01*
X172110779Y-93004028D01*
X172023700Y-93057945D01*
X171866127Y-93201593D01*
X171737632Y-93371746D01*
X171642596Y-93562605D01*
X171642596Y-93562607D01*
X171584244Y-93767689D01*
X171573471Y-93883951D01*
X171547685Y-93948888D01*
X171503130Y-93980804D01*
X171539503Y-94001668D01*
X171571693Y-94063681D01*
X171573470Y-94076047D01*
X171584244Y-94192310D01*
X171637675Y-94380099D01*
X171642596Y-94397392D01*
X171642596Y-94397394D01*
X171737632Y-94588253D01*
X171866127Y-94758406D01*
X171866128Y-94758407D01*
X172023698Y-94902052D01*
X172204981Y-95014298D01*
X172403802Y-95091321D01*
X172613390Y-95130500D01*
X172613392Y-95130500D01*
X172826608Y-95130500D01*
X172826610Y-95130500D01*
X173036198Y-95091321D01*
X173235019Y-95014298D01*
X173416302Y-94902052D01*
X173573872Y-94758407D01*
X173702366Y-94588255D01*
X173762866Y-94466753D01*
X173797403Y-94397394D01*
X173797403Y-94397393D01*
X173797405Y-94397389D01*
X173855756Y-94192310D01*
X173866529Y-94076047D01*
X173892315Y-94011111D01*
X173936869Y-93979194D01*
X173900497Y-93958331D01*
X173868307Y-93896318D01*
X173866529Y-93883951D01*
X173863175Y-93847759D01*
X173855756Y-93767690D01*
X173797405Y-93562611D01*
X173797403Y-93562606D01*
X173797403Y-93562605D01*
X173702367Y-93371746D01*
X173573872Y-93201593D01*
X173416299Y-93057945D01*
X173329221Y-93004028D01*
X173282586Y-92952000D01*
X173270500Y-92898602D01*
X173270500Y-92462587D01*
X173290185Y-92395548D01*
X173329220Y-92357162D01*
X173386041Y-92321981D01*
X173536764Y-92184579D01*
X173659673Y-92021821D01*
X173750582Y-91839250D01*
X173806397Y-91643083D01*
X173825215Y-91440000D01*
X173819115Y-91374174D01*
X173806397Y-91236917D01*
X173787404Y-91170165D01*
X173750582Y-91040750D01*
X173750159Y-91039901D01*
X173700415Y-90940000D01*
X173659673Y-90858179D01*
X173536764Y-90695421D01*
X173536762Y-90695418D01*
X173449794Y-90616137D01*
X173413512Y-90556426D01*
X173415273Y-90486578D01*
X173454516Y-90428771D01*
X173518783Y-90401356D01*
X173533332Y-90400500D01*
X174446668Y-90400500D01*
X174513707Y-90420185D01*
X174559462Y-90472989D01*
X174569406Y-90542147D01*
X174540381Y-90605703D01*
X174530206Y-90616137D01*
X174443237Y-90695418D01*
X174320327Y-90858178D01*
X174229422Y-91040739D01*
X174229417Y-91040752D01*
X174173602Y-91236917D01*
X174154785Y-91439999D01*
X174154785Y-91440000D01*
X174173602Y-91643082D01*
X174229417Y-91839247D01*
X174229422Y-91839260D01*
X174307261Y-91995581D01*
X174320327Y-92021821D01*
X174443236Y-92184579D01*
X174593959Y-92321981D01*
X174650778Y-92357161D01*
X174697412Y-92409187D01*
X174709500Y-92462587D01*
X174709500Y-92898602D01*
X174689815Y-92965641D01*
X174650779Y-93004028D01*
X174563700Y-93057945D01*
X174406127Y-93201593D01*
X174277632Y-93371746D01*
X174182596Y-93562605D01*
X174182596Y-93562607D01*
X174124244Y-93767689D01*
X174113471Y-93883951D01*
X174087685Y-93948888D01*
X174043130Y-93980804D01*
X174079503Y-94001668D01*
X174111693Y-94063681D01*
X174113470Y-94076047D01*
X174124244Y-94192310D01*
X174177675Y-94380099D01*
X174182596Y-94397392D01*
X174182596Y-94397394D01*
X174277632Y-94588253D01*
X174406127Y-94758406D01*
X174406128Y-94758407D01*
X174563698Y-94902052D01*
X174744981Y-95014298D01*
X174943802Y-95091321D01*
X175153390Y-95130500D01*
X175153392Y-95130500D01*
X175366608Y-95130500D01*
X175366610Y-95130500D01*
X175576198Y-95091321D01*
X175775019Y-95014298D01*
X175956302Y-94902052D01*
X176113872Y-94758407D01*
X176242366Y-94588255D01*
X176302866Y-94466753D01*
X176337403Y-94397394D01*
X176337403Y-94397393D01*
X176337405Y-94397389D01*
X176395756Y-94192310D01*
X176406529Y-94076047D01*
X176432315Y-94011111D01*
X176476869Y-93979194D01*
X176440497Y-93958331D01*
X176408307Y-93896318D01*
X176406529Y-93883951D01*
X176403175Y-93847759D01*
X176395756Y-93767690D01*
X176337405Y-93562611D01*
X176337403Y-93562606D01*
X176337403Y-93562605D01*
X176242367Y-93371746D01*
X176113872Y-93201593D01*
X175956299Y-93057945D01*
X175869221Y-93004028D01*
X175822586Y-92952000D01*
X175810500Y-92898602D01*
X175810500Y-92462587D01*
X175830185Y-92395548D01*
X175869220Y-92357162D01*
X175926041Y-92321981D01*
X176076764Y-92184579D01*
X176199673Y-92021821D01*
X176290582Y-91839250D01*
X176346397Y-91643083D01*
X176365215Y-91440000D01*
X176359115Y-91374174D01*
X176346397Y-91236917D01*
X176327404Y-91170165D01*
X176290582Y-91040750D01*
X176290159Y-91039901D01*
X176240415Y-90940000D01*
X176199673Y-90858179D01*
X176076764Y-90695421D01*
X176076762Y-90695418D01*
X175989794Y-90616137D01*
X175953512Y-90556426D01*
X175955273Y-90486578D01*
X175994516Y-90428771D01*
X176058783Y-90401356D01*
X176073332Y-90400500D01*
X176986668Y-90400500D01*
X177053707Y-90420185D01*
X177099462Y-90472989D01*
X177109406Y-90542147D01*
X177080381Y-90605703D01*
X177070206Y-90616137D01*
X176983237Y-90695418D01*
X176860327Y-90858178D01*
X176769422Y-91040739D01*
X176769417Y-91040752D01*
X176713602Y-91236917D01*
X176694785Y-91439999D01*
X176694785Y-91440000D01*
X176713602Y-91643082D01*
X176769417Y-91839247D01*
X176769422Y-91839260D01*
X176847261Y-91995581D01*
X176860327Y-92021821D01*
X176983236Y-92184579D01*
X177133959Y-92321981D01*
X177190778Y-92357161D01*
X177237412Y-92409187D01*
X177249500Y-92462587D01*
X177249500Y-92898602D01*
X177229815Y-92965641D01*
X177190779Y-93004028D01*
X177103700Y-93057945D01*
X176946127Y-93201593D01*
X176817632Y-93371746D01*
X176722596Y-93562605D01*
X176722596Y-93562607D01*
X176664244Y-93767689D01*
X176653471Y-93883951D01*
X176627685Y-93948888D01*
X176583130Y-93980804D01*
X176619503Y-94001668D01*
X176651693Y-94063681D01*
X176653470Y-94076047D01*
X176664244Y-94192310D01*
X176717675Y-94380099D01*
X176722596Y-94397392D01*
X176722596Y-94397394D01*
X176817632Y-94588253D01*
X176946127Y-94758406D01*
X176946128Y-94758407D01*
X177103698Y-94902052D01*
X177284981Y-95014298D01*
X177483802Y-95091321D01*
X177693390Y-95130500D01*
X177693392Y-95130500D01*
X177906608Y-95130500D01*
X177906610Y-95130500D01*
X178116198Y-95091321D01*
X178315019Y-95014298D01*
X178496302Y-94902052D01*
X178653872Y-94758407D01*
X178782366Y-94588255D01*
X178842866Y-94466753D01*
X178877403Y-94397394D01*
X178877403Y-94397393D01*
X178877405Y-94397389D01*
X178935756Y-94192310D01*
X178955429Y-93980000D01*
X178935756Y-93767690D01*
X178877405Y-93562611D01*
X178877403Y-93562606D01*
X178877403Y-93562605D01*
X178782367Y-93371746D01*
X178653872Y-93201593D01*
X178496299Y-93057945D01*
X178409221Y-93004028D01*
X178362586Y-92952000D01*
X178350500Y-92898602D01*
X178350500Y-92462587D01*
X178370185Y-92395548D01*
X178409220Y-92357162D01*
X178466041Y-92321981D01*
X178616764Y-92184579D01*
X178739673Y-92021821D01*
X178830582Y-91839250D01*
X178886397Y-91643083D01*
X178905215Y-91440000D01*
X178899115Y-91374174D01*
X178886397Y-91236917D01*
X178867404Y-91170165D01*
X178830582Y-91040750D01*
X178830159Y-91039901D01*
X178780415Y-90940000D01*
X178739673Y-90858179D01*
X178616764Y-90695421D01*
X178616762Y-90695418D01*
X178529794Y-90616137D01*
X178493512Y-90556426D01*
X178495273Y-90486578D01*
X178534516Y-90428771D01*
X178598783Y-90401356D01*
X178613332Y-90400500D01*
X178942417Y-90400500D01*
X178995572Y-90400500D01*
X179004418Y-90400816D01*
X179218791Y-90416148D01*
X179236296Y-90418665D01*
X179433789Y-90461627D01*
X179495112Y-90495112D01*
X180504887Y-91504887D01*
X180538372Y-91566210D01*
X180581333Y-91763700D01*
X180583851Y-91781211D01*
X180599184Y-91995580D01*
X180599500Y-92004427D01*
X180599500Y-98654869D01*
X180579815Y-98721908D01*
X180527011Y-98767663D01*
X180457853Y-98777607D01*
X180394297Y-98748582D01*
X180356523Y-98689804D01*
X180355725Y-98686962D01*
X180338769Y-98623682D01*
X180338765Y-98623673D01*
X180242634Y-98417517D01*
X180112157Y-98231179D01*
X179951320Y-98070342D01*
X179764982Y-97939865D01*
X179558828Y-97843734D01*
X179362500Y-97791127D01*
X179362500Y-98754314D01*
X179358106Y-98749920D01*
X179266894Y-98697259D01*
X179165161Y-98670000D01*
X179059839Y-98670000D01*
X178958106Y-98697259D01*
X178866894Y-98749920D01*
X178862500Y-98754314D01*
X178862500Y-97791127D01*
X178666171Y-97843734D01*
X178460017Y-97939865D01*
X178273679Y-98070342D01*
X178112842Y-98231179D01*
X177982365Y-98417517D01*
X177886234Y-98623673D01*
X177886230Y-98623682D01*
X177833627Y-98819999D01*
X177833628Y-98820000D01*
X178796814Y-98820000D01*
X178792420Y-98824394D01*
X178739759Y-98915606D01*
X178712500Y-99017339D01*
X178712500Y-99122661D01*
X178739759Y-99224394D01*
X178792420Y-99315606D01*
X178796814Y-99320000D01*
X177833628Y-99320000D01*
X177886230Y-99516317D01*
X177886234Y-99516326D01*
X177982365Y-99722482D01*
X178112842Y-99908820D01*
X178273679Y-100069657D01*
X178460017Y-100200134D01*
X178518957Y-100227618D01*
X178571396Y-100273790D01*
X178590548Y-100340984D01*
X178570332Y-100407865D01*
X178518957Y-100452382D01*
X178460017Y-100479865D01*
X178273679Y-100610342D01*
X178112842Y-100771179D01*
X177982365Y-100957517D01*
X177886234Y-101163673D01*
X177886230Y-101163682D01*
X177833627Y-101359999D01*
X177833628Y-101360000D01*
X178796814Y-101360000D01*
X178792420Y-101364394D01*
X178739759Y-101455606D01*
X178712500Y-101557339D01*
X178712500Y-101662661D01*
X178739759Y-101764394D01*
X178792420Y-101855606D01*
X178796814Y-101860000D01*
X177833628Y-101860000D01*
X177886230Y-102056317D01*
X177886234Y-102056326D01*
X177982365Y-102262482D01*
X178112842Y-102448820D01*
X178273679Y-102609657D01*
X178460017Y-102740134D01*
X178518957Y-102767618D01*
X178571396Y-102813790D01*
X178590548Y-102880984D01*
X178570332Y-102947865D01*
X178518957Y-102992382D01*
X178460017Y-103019865D01*
X178273679Y-103150342D01*
X178112842Y-103311179D01*
X177982365Y-103497517D01*
X177886234Y-103703673D01*
X177886230Y-103703682D01*
X177833627Y-103899999D01*
X177833628Y-103900000D01*
X178796814Y-103900000D01*
X178792420Y-103904394D01*
X178739759Y-103995606D01*
X178712500Y-104097339D01*
X178712500Y-104202661D01*
X178739759Y-104304394D01*
X178792420Y-104395606D01*
X178796814Y-104400000D01*
X177833628Y-104400000D01*
X177886230Y-104596317D01*
X177886234Y-104596326D01*
X177982365Y-104802482D01*
X178112842Y-104988820D01*
X178273679Y-105149657D01*
X178460017Y-105280134D01*
X178518957Y-105307618D01*
X178571396Y-105353790D01*
X178590548Y-105420984D01*
X178570332Y-105487865D01*
X178518957Y-105532382D01*
X178460017Y-105559865D01*
X178273679Y-105690342D01*
X178112842Y-105851179D01*
X177982365Y-106037517D01*
X177886234Y-106243673D01*
X177886230Y-106243682D01*
X177833627Y-106439999D01*
X177833628Y-106440000D01*
X178796814Y-106440000D01*
X178792420Y-106444394D01*
X178739759Y-106535606D01*
X178712500Y-106637339D01*
X178712500Y-106742661D01*
X178739759Y-106844394D01*
X178792420Y-106935606D01*
X178796814Y-106940000D01*
X177833628Y-106940000D01*
X177886230Y-107136317D01*
X177886234Y-107136326D01*
X177982365Y-107342482D01*
X178112842Y-107528820D01*
X178273679Y-107689657D01*
X178460017Y-107820134D01*
X178666173Y-107916265D01*
X178666182Y-107916269D01*
X178862499Y-107968872D01*
X178862500Y-107968871D01*
X178862500Y-107005686D01*
X178866894Y-107010080D01*
X178958106Y-107062741D01*
X179059839Y-107090000D01*
X179165161Y-107090000D01*
X179266894Y-107062741D01*
X179358106Y-107010080D01*
X179362500Y-107005686D01*
X179362500Y-107968872D01*
X179558817Y-107916269D01*
X179558826Y-107916265D01*
X179764982Y-107820134D01*
X179951320Y-107689657D01*
X180112157Y-107528820D01*
X180242634Y-107342482D01*
X180338765Y-107136326D01*
X180338769Y-107136317D01*
X180355725Y-107073037D01*
X180392090Y-107013376D01*
X180454937Y-106982847D01*
X180524312Y-106991141D01*
X180578190Y-107035627D01*
X180599465Y-107102179D01*
X180599500Y-107105130D01*
X180599500Y-138995572D01*
X180599184Y-139004419D01*
X180583851Y-139218788D01*
X180581333Y-139236299D01*
X180538372Y-139433788D01*
X180504887Y-139495111D01*
X179495111Y-140504887D01*
X179433788Y-140538372D01*
X179236299Y-140581333D01*
X179218788Y-140583851D01*
X179023369Y-140597828D01*
X179004417Y-140599184D01*
X178995572Y-140599500D01*
X178748799Y-140599500D01*
X178681760Y-140579815D01*
X178636005Y-140527011D01*
X178626061Y-140457853D01*
X178649845Y-140400773D01*
X178686307Y-140352489D01*
X178739673Y-140281821D01*
X178830582Y-140099250D01*
X178886397Y-139903083D01*
X178905215Y-139700000D01*
X178901921Y-139664456D01*
X178886397Y-139496917D01*
X178868351Y-139433493D01*
X178830582Y-139300750D01*
X178830159Y-139299901D01*
X178769484Y-139178048D01*
X178739673Y-139118179D01*
X178653765Y-139004418D01*
X178616762Y-138955418D01*
X178466042Y-138818020D01*
X178466041Y-138818019D01*
X178409222Y-138782838D01*
X178362587Y-138730810D01*
X178350500Y-138677411D01*
X178350500Y-138241396D01*
X178370185Y-138174357D01*
X178409223Y-138135969D01*
X178496302Y-138082052D01*
X178653872Y-137938407D01*
X178782366Y-137768255D01*
X178836270Y-137660000D01*
X178877403Y-137577394D01*
X178877403Y-137577393D01*
X178877405Y-137577389D01*
X178935756Y-137372310D01*
X178955429Y-137160000D01*
X178935756Y-136947690D01*
X178877405Y-136742611D01*
X178877403Y-136742606D01*
X178877403Y-136742605D01*
X178782367Y-136551746D01*
X178653872Y-136381593D01*
X178496302Y-136237948D01*
X178315019Y-136125702D01*
X178315017Y-136125701D01*
X178169884Y-136069477D01*
X178116198Y-136048679D01*
X177906610Y-136009500D01*
X177693390Y-136009500D01*
X177483802Y-136048679D01*
X177483799Y-136048679D01*
X177483799Y-136048680D01*
X177284982Y-136125701D01*
X177284980Y-136125702D01*
X177103699Y-136237947D01*
X176946127Y-136381593D01*
X176817632Y-136551746D01*
X176722596Y-136742605D01*
X176722596Y-136742607D01*
X176664244Y-136947689D01*
X176653471Y-137063951D01*
X176627685Y-137128888D01*
X176583130Y-137160804D01*
X176619503Y-137181668D01*
X176651693Y-137243681D01*
X176653470Y-137256047D01*
X176664244Y-137372310D01*
X176717675Y-137560099D01*
X176722596Y-137577392D01*
X176722596Y-137577394D01*
X176817632Y-137768253D01*
X176875565Y-137844968D01*
X176946128Y-137938407D01*
X177103698Y-138082052D01*
X177103700Y-138082053D01*
X177103701Y-138082054D01*
X177190777Y-138135969D01*
X177237413Y-138187997D01*
X177249500Y-138241396D01*
X177249500Y-138677411D01*
X177229815Y-138744450D01*
X177190778Y-138782838D01*
X177133957Y-138818020D01*
X176983237Y-138955418D01*
X176860327Y-139118178D01*
X176769422Y-139300739D01*
X176769417Y-139300752D01*
X176713602Y-139496917D01*
X176694785Y-139699999D01*
X176694785Y-139700000D01*
X176713602Y-139903082D01*
X176769417Y-140099247D01*
X176769422Y-140099260D01*
X176860327Y-140281821D01*
X176950155Y-140400773D01*
X176974847Y-140466135D01*
X176960282Y-140534469D01*
X176911084Y-140584082D01*
X176851201Y-140599500D01*
X176208799Y-140599500D01*
X176141760Y-140579815D01*
X176096005Y-140527011D01*
X176086061Y-140457853D01*
X176109845Y-140400773D01*
X176146307Y-140352489D01*
X176199673Y-140281821D01*
X176290582Y-140099250D01*
X176346397Y-139903083D01*
X176365215Y-139700000D01*
X176361921Y-139664456D01*
X176346397Y-139496917D01*
X176328351Y-139433493D01*
X176290582Y-139300750D01*
X176290159Y-139299901D01*
X176229484Y-139178048D01*
X176199673Y-139118179D01*
X176113765Y-139004418D01*
X176076762Y-138955418D01*
X175926042Y-138818020D01*
X175926041Y-138818019D01*
X175869222Y-138782838D01*
X175822587Y-138730810D01*
X175810500Y-138677411D01*
X175810500Y-138241396D01*
X175830185Y-138174357D01*
X175869223Y-138135969D01*
X175956302Y-138082052D01*
X176113872Y-137938407D01*
X176242366Y-137768255D01*
X176296270Y-137660000D01*
X176337403Y-137577394D01*
X176337403Y-137577393D01*
X176337405Y-137577389D01*
X176395756Y-137372310D01*
X176406529Y-137256047D01*
X176432315Y-137191111D01*
X176476869Y-137159194D01*
X176440497Y-137138331D01*
X176408307Y-137076318D01*
X176406529Y-137063951D01*
X176405849Y-137056613D01*
X176395756Y-136947690D01*
X176337405Y-136742611D01*
X176337403Y-136742606D01*
X176337403Y-136742605D01*
X176242367Y-136551746D01*
X176113872Y-136381593D01*
X175956302Y-136237948D01*
X175775019Y-136125702D01*
X175775017Y-136125701D01*
X175629884Y-136069477D01*
X175576198Y-136048679D01*
X175366610Y-136009500D01*
X175153390Y-136009500D01*
X174943802Y-136048679D01*
X174943799Y-136048679D01*
X174943799Y-136048680D01*
X174744982Y-136125701D01*
X174744980Y-136125702D01*
X174563699Y-136237947D01*
X174406127Y-136381593D01*
X174277632Y-136551746D01*
X174182596Y-136742605D01*
X174182596Y-136742607D01*
X174124244Y-136947689D01*
X174113471Y-137063951D01*
X174087685Y-137128888D01*
X174043130Y-137160804D01*
X174079503Y-137181668D01*
X174111693Y-137243681D01*
X174113470Y-137256047D01*
X174124244Y-137372310D01*
X174177675Y-137560099D01*
X174182596Y-137577392D01*
X174182596Y-137577394D01*
X174277632Y-137768253D01*
X174335565Y-137844968D01*
X174406128Y-137938407D01*
X174563698Y-138082052D01*
X174563700Y-138082053D01*
X174563701Y-138082054D01*
X174650777Y-138135969D01*
X174697413Y-138187997D01*
X174709500Y-138241396D01*
X174709500Y-138677411D01*
X174689815Y-138744450D01*
X174650778Y-138782838D01*
X174593957Y-138818020D01*
X174443237Y-138955418D01*
X174320327Y-139118178D01*
X174229422Y-139300739D01*
X174229417Y-139300752D01*
X174173602Y-139496917D01*
X174154785Y-139699999D01*
X174154785Y-139700000D01*
X174173602Y-139903082D01*
X174229417Y-140099247D01*
X174229422Y-140099260D01*
X174320327Y-140281821D01*
X174410155Y-140400773D01*
X174434847Y-140466135D01*
X174420282Y-140534469D01*
X174371084Y-140584082D01*
X174311201Y-140599500D01*
X173668799Y-140599500D01*
X173601760Y-140579815D01*
X173556005Y-140527011D01*
X173546061Y-140457853D01*
X173569845Y-140400773D01*
X173606307Y-140352489D01*
X173659673Y-140281821D01*
X173750582Y-140099250D01*
X173806397Y-139903083D01*
X173825215Y-139700000D01*
X173821921Y-139664456D01*
X173806397Y-139496917D01*
X173788351Y-139433493D01*
X173750582Y-139300750D01*
X173750159Y-139299901D01*
X173689484Y-139178048D01*
X173659673Y-139118179D01*
X173573765Y-139004418D01*
X173536762Y-138955418D01*
X173386042Y-138818020D01*
X173386041Y-138818019D01*
X173329222Y-138782838D01*
X173282587Y-138730810D01*
X173270500Y-138677411D01*
X173270500Y-138241396D01*
X173290185Y-138174357D01*
X173329223Y-138135969D01*
X173416302Y-138082052D01*
X173573872Y-137938407D01*
X173702366Y-137768255D01*
X173756270Y-137660000D01*
X173797403Y-137577394D01*
X173797403Y-137577393D01*
X173797405Y-137577389D01*
X173855756Y-137372310D01*
X173866529Y-137256047D01*
X173892315Y-137191111D01*
X173936869Y-137159194D01*
X173900497Y-137138331D01*
X173868307Y-137076318D01*
X173866529Y-137063951D01*
X173865849Y-137056613D01*
X173855756Y-136947690D01*
X173797405Y-136742611D01*
X173797403Y-136742606D01*
X173797403Y-136742605D01*
X173702367Y-136551746D01*
X173573872Y-136381593D01*
X173416302Y-136237948D01*
X173235019Y-136125702D01*
X173235017Y-136125701D01*
X173089884Y-136069477D01*
X173036198Y-136048679D01*
X172826610Y-136009500D01*
X172613390Y-136009500D01*
X172403802Y-136048679D01*
X172403799Y-136048679D01*
X172403799Y-136048680D01*
X172204982Y-136125701D01*
X172204980Y-136125702D01*
X172023699Y-136237947D01*
X171866127Y-136381593D01*
X171737632Y-136551746D01*
X171642596Y-136742605D01*
X171642596Y-136742607D01*
X171584244Y-136947689D01*
X171573471Y-137063951D01*
X171547685Y-137128888D01*
X171503130Y-137160804D01*
X171539503Y-137181668D01*
X171571693Y-137243681D01*
X171573470Y-137256047D01*
X171584244Y-137372310D01*
X171637675Y-137560099D01*
X171642596Y-137577392D01*
X171642596Y-137577394D01*
X171737632Y-137768253D01*
X171795565Y-137844968D01*
X171866128Y-137938407D01*
X172023698Y-138082052D01*
X172023700Y-138082053D01*
X172023701Y-138082054D01*
X172110777Y-138135969D01*
X172157413Y-138187997D01*
X172169500Y-138241396D01*
X172169500Y-138677411D01*
X172149815Y-138744450D01*
X172110778Y-138782838D01*
X172053957Y-138818020D01*
X171903237Y-138955418D01*
X171780327Y-139118178D01*
X171689422Y-139300739D01*
X171689417Y-139300752D01*
X171633602Y-139496917D01*
X171614785Y-139699999D01*
X171614785Y-139700000D01*
X171633602Y-139903082D01*
X171689417Y-140099247D01*
X171689422Y-140099260D01*
X171780327Y-140281821D01*
X171870155Y-140400773D01*
X171894847Y-140466135D01*
X171880282Y-140534469D01*
X171831084Y-140584082D01*
X171771201Y-140599500D01*
X171128799Y-140599500D01*
X171061760Y-140579815D01*
X171016005Y-140527011D01*
X171006061Y-140457853D01*
X171029845Y-140400773D01*
X171066307Y-140352489D01*
X171119673Y-140281821D01*
X171210582Y-140099250D01*
X171266397Y-139903083D01*
X171285215Y-139700000D01*
X171281921Y-139664456D01*
X171266397Y-139496917D01*
X171248351Y-139433493D01*
X171210582Y-139300750D01*
X171210159Y-139299901D01*
X171149484Y-139178048D01*
X171119673Y-139118179D01*
X171033765Y-139004418D01*
X170996762Y-138955418D01*
X170846042Y-138818020D01*
X170846041Y-138818019D01*
X170789222Y-138782838D01*
X170742587Y-138730810D01*
X170730500Y-138677411D01*
X170730500Y-138241396D01*
X170750185Y-138174357D01*
X170789223Y-138135969D01*
X170876302Y-138082052D01*
X171033872Y-137938407D01*
X171162366Y-137768255D01*
X171216270Y-137660000D01*
X171257403Y-137577394D01*
X171257403Y-137577393D01*
X171257405Y-137577389D01*
X171315756Y-137372310D01*
X171326529Y-137256047D01*
X171352315Y-137191111D01*
X171396869Y-137159194D01*
X171360497Y-137138331D01*
X171328307Y-137076318D01*
X171326529Y-137063951D01*
X171325849Y-137056613D01*
X171315756Y-136947690D01*
X171257405Y-136742611D01*
X171257403Y-136742606D01*
X171257403Y-136742605D01*
X171162367Y-136551746D01*
X171033872Y-136381593D01*
X170876302Y-136237948D01*
X170695019Y-136125702D01*
X170695017Y-136125701D01*
X170549884Y-136069477D01*
X170496198Y-136048679D01*
X170286610Y-136009500D01*
X170073390Y-136009500D01*
X169863802Y-136048679D01*
X169863799Y-136048679D01*
X169863799Y-136048680D01*
X169664982Y-136125701D01*
X169664980Y-136125702D01*
X169483699Y-136237947D01*
X169326127Y-136381593D01*
X169197632Y-136551746D01*
X169102596Y-136742605D01*
X169102596Y-136742607D01*
X169044244Y-136947689D01*
X169033471Y-137063951D01*
X169007685Y-137128888D01*
X168963130Y-137160804D01*
X168999503Y-137181668D01*
X169031693Y-137243681D01*
X169033470Y-137256047D01*
X169044244Y-137372310D01*
X169097675Y-137560099D01*
X169102596Y-137577392D01*
X169102596Y-137577394D01*
X169197632Y-137768253D01*
X169255565Y-137844968D01*
X169326128Y-137938407D01*
X169483698Y-138082052D01*
X169483700Y-138082053D01*
X169483701Y-138082054D01*
X169570777Y-138135969D01*
X169617413Y-138187997D01*
X169629500Y-138241396D01*
X169629500Y-138677411D01*
X169609815Y-138744450D01*
X169570778Y-138782838D01*
X169513957Y-138818020D01*
X169363237Y-138955418D01*
X169240327Y-139118178D01*
X169149422Y-139300739D01*
X169149417Y-139300752D01*
X169093602Y-139496917D01*
X169074785Y-139699999D01*
X169074785Y-139700000D01*
X169093602Y-139903082D01*
X169149417Y-140099247D01*
X169149422Y-140099260D01*
X169240327Y-140281821D01*
X169330155Y-140400773D01*
X169354847Y-140466135D01*
X169340282Y-140534469D01*
X169291084Y-140584082D01*
X169231201Y-140599500D01*
X168588799Y-140599500D01*
X168521760Y-140579815D01*
X168476005Y-140527011D01*
X168466061Y-140457853D01*
X168489845Y-140400773D01*
X168526307Y-140352489D01*
X168579673Y-140281821D01*
X168670582Y-140099250D01*
X168726397Y-139903083D01*
X168745215Y-139700000D01*
X168741921Y-139664456D01*
X168726397Y-139496917D01*
X168708351Y-139433493D01*
X168670582Y-139300750D01*
X168670159Y-139299901D01*
X168609484Y-139178048D01*
X168579673Y-139118179D01*
X168493765Y-139004418D01*
X168456762Y-138955418D01*
X168306042Y-138818020D01*
X168306041Y-138818019D01*
X168249222Y-138782838D01*
X168202587Y-138730810D01*
X168190500Y-138677411D01*
X168190500Y-138241396D01*
X168210185Y-138174357D01*
X168249223Y-138135969D01*
X168336302Y-138082052D01*
X168493872Y-137938407D01*
X168622366Y-137768255D01*
X168676270Y-137660000D01*
X168717403Y-137577394D01*
X168717403Y-137577393D01*
X168717405Y-137577389D01*
X168775756Y-137372310D01*
X168786529Y-137256047D01*
X168812315Y-137191111D01*
X168856869Y-137159194D01*
X168820497Y-137138331D01*
X168788307Y-137076318D01*
X168786529Y-137063951D01*
X168785849Y-137056613D01*
X168775756Y-136947690D01*
X168717405Y-136742611D01*
X168717403Y-136742606D01*
X168717403Y-136742605D01*
X168622367Y-136551746D01*
X168493872Y-136381593D01*
X168336302Y-136237948D01*
X168155019Y-136125702D01*
X168155017Y-136125701D01*
X168009884Y-136069477D01*
X167956198Y-136048679D01*
X167746610Y-136009500D01*
X167533390Y-136009500D01*
X167387531Y-136036766D01*
X167323797Y-136048680D01*
X167285246Y-136063615D01*
X167215623Y-136069477D01*
X167153883Y-136036766D01*
X167152772Y-136035669D01*
X163498420Y-132381317D01*
X163498418Y-132381315D01*
X163447054Y-132351660D01*
X163395692Y-132322005D01*
X163383584Y-132318761D01*
X163371477Y-132315517D01*
X163371474Y-132315516D01*
X163333282Y-132305282D01*
X163281113Y-132291304D01*
X163281112Y-132291304D01*
X150252139Y-132291304D01*
X150185100Y-132271619D01*
X150164458Y-132254985D01*
X143537698Y-125628225D01*
X143504213Y-125566902D01*
X143502906Y-125559941D01*
X143487171Y-125460591D01*
X143487170Y-125460587D01*
X143431212Y-125288363D01*
X143431211Y-125288360D01*
X143402740Y-125232484D01*
X143348996Y-125127006D01*
X143275557Y-125025925D01*
X143242558Y-124980505D01*
X143242554Y-124980500D01*
X143114499Y-124852445D01*
X143114494Y-124852441D01*
X142967997Y-124746006D01*
X142967996Y-124746005D01*
X142967994Y-124746004D01*
X142885143Y-124703789D01*
X142806639Y-124663788D01*
X142806636Y-124663787D01*
X142634410Y-124607829D01*
X142600594Y-124602473D01*
X142537459Y-124572544D01*
X142500528Y-124513232D01*
X142501526Y-124443370D01*
X142540136Y-124385137D01*
X142600594Y-124357527D01*
X142608388Y-124356292D01*
X142634409Y-124352171D01*
X142806639Y-124296211D01*
X142967994Y-124213996D01*
X143114501Y-124107553D01*
X143242553Y-123979501D01*
X143242555Y-123979497D01*
X143242558Y-123979495D01*
X143320937Y-123871615D01*
X143376266Y-123828949D01*
X143421255Y-123820500D01*
X158809683Y-123820500D01*
X158876722Y-123840185D01*
X158910001Y-123871615D01*
X159017441Y-124019494D01*
X159017445Y-124019499D01*
X159145500Y-124147554D01*
X159145505Y-124147558D01*
X159236946Y-124213993D01*
X159292006Y-124253996D01*
X159374857Y-124296211D01*
X159453360Y-124336211D01*
X159453363Y-124336212D01*
X159518966Y-124357527D01*
X159625591Y-124392171D01*
X159650291Y-124396083D01*
X159659406Y-124397527D01*
X159722540Y-124427457D01*
X159759471Y-124486768D01*
X159758473Y-124556631D01*
X159719863Y-124614863D01*
X159659406Y-124642473D01*
X159625589Y-124647829D01*
X159453363Y-124703787D01*
X159453360Y-124703788D01*
X159292002Y-124786006D01*
X159145505Y-124892441D01*
X159145500Y-124892445D01*
X159017445Y-125020500D01*
X159017441Y-125020505D01*
X158911006Y-125167002D01*
X158828788Y-125328360D01*
X158828787Y-125328363D01*
X158772829Y-125500589D01*
X158744500Y-125679448D01*
X158744500Y-125860551D01*
X158772829Y-126039410D01*
X158828787Y-126211636D01*
X158828788Y-126211639D01*
X158911006Y-126372997D01*
X159017441Y-126519494D01*
X159017445Y-126519499D01*
X159145500Y-126647554D01*
X159145505Y-126647558D01*
X159224051Y-126704625D01*
X159266717Y-126759954D01*
X159272696Y-126829568D01*
X159240091Y-126891363D01*
X159179252Y-126925720D01*
X159163769Y-126928301D01*
X159142302Y-126930494D01*
X158975880Y-126985641D01*
X158975875Y-126985643D01*
X158826654Y-127077684D01*
X158702684Y-127201654D01*
X158610643Y-127350875D01*
X158610641Y-127350880D01*
X158555494Y-127517302D01*
X158555493Y-127517309D01*
X158545000Y-127620013D01*
X158545000Y-128020000D01*
X159615854Y-128020000D01*
X159577370Y-128086657D01*
X159545000Y-128207465D01*
X159545000Y-128332535D01*
X159577370Y-128453343D01*
X159615854Y-128520000D01*
X158545001Y-128520000D01*
X158545001Y-128919986D01*
X158555494Y-129022697D01*
X158610641Y-129189119D01*
X158610643Y-129189124D01*
X158702684Y-129338345D01*
X158826654Y-129462315D01*
X158975875Y-129554356D01*
X158975880Y-129554358D01*
X159142302Y-129609505D01*
X159142309Y-129609506D01*
X159245019Y-129619999D01*
X159769999Y-129619999D01*
X159770000Y-129619998D01*
X159770000Y-128674145D01*
X159836657Y-128712630D01*
X159957465Y-128745000D01*
X160082535Y-128745000D01*
X160203343Y-128712630D01*
X160270000Y-128674145D01*
X160270000Y-129619999D01*
X160794972Y-129619999D01*
X160794986Y-129619998D01*
X160897697Y-129609505D01*
X161064119Y-129554358D01*
X161064124Y-129554356D01*
X161213345Y-129462315D01*
X161337315Y-129338345D01*
X161429356Y-129189124D01*
X161429358Y-129189119D01*
X161484505Y-129022697D01*
X161484506Y-129022690D01*
X161494999Y-128919986D01*
X161495000Y-128919973D01*
X161495000Y-128520000D01*
X160424146Y-128520000D01*
X160462630Y-128453343D01*
X160495000Y-128332535D01*
X160495000Y-128207465D01*
X160462630Y-128086657D01*
X160424146Y-128020000D01*
X161494999Y-128020000D01*
X161494999Y-127620028D01*
X161494998Y-127620013D01*
X161484505Y-127517302D01*
X161429358Y-127350880D01*
X161429356Y-127350875D01*
X161337315Y-127201654D01*
X161213345Y-127077684D01*
X161064124Y-126985643D01*
X161064119Y-126985641D01*
X160897697Y-126930494D01*
X160897692Y-126930493D01*
X160876226Y-126928300D01*
X160811536Y-126901901D01*
X160771386Y-126844719D01*
X160768525Y-126774908D01*
X160803861Y-126714633D01*
X160815938Y-126704631D01*
X160894501Y-126647553D01*
X161022553Y-126519501D01*
X161128996Y-126372994D01*
X161172198Y-126288204D01*
X161220173Y-126237409D01*
X161282683Y-126220500D01*
X172999308Y-126220500D01*
X172999309Y-126220500D01*
X173089673Y-126196286D01*
X173113887Y-126189799D01*
X173216614Y-126130489D01*
X173600284Y-125746817D01*
X173661607Y-125713333D01*
X173687965Y-125710499D01*
X175044856Y-125710499D01*
X175044864Y-125710499D01*
X175044879Y-125710497D01*
X175044882Y-125710497D01*
X175069987Y-125707586D01*
X175069988Y-125707585D01*
X175069991Y-125707585D01*
X175172765Y-125662206D01*
X175252206Y-125582765D01*
X175297585Y-125479991D01*
X175300500Y-125454865D01*
X175300499Y-123665136D01*
X175300497Y-123665117D01*
X175297586Y-123640012D01*
X175297585Y-123640010D01*
X175297585Y-123640009D01*
X175252206Y-123537235D01*
X175172765Y-123457794D01*
X175172763Y-123457793D01*
X175069992Y-123412415D01*
X175044868Y-123409500D01*
X175044865Y-123409500D01*
X174724500Y-123409500D01*
X174657461Y-123389815D01*
X174611706Y-123337011D01*
X174600500Y-123285500D01*
X174600500Y-123163202D01*
X174620185Y-123096163D01*
X174661351Y-123059265D01*
X174660144Y-123057316D01*
X174665016Y-123054298D01*
X174665019Y-123054298D01*
X174846302Y-122942052D01*
X175003872Y-122798407D01*
X175132366Y-122628255D01*
X175186270Y-122520000D01*
X175227403Y-122437394D01*
X175227403Y-122437393D01*
X175227405Y-122437389D01*
X175285756Y-122232310D01*
X175305429Y-122020000D01*
X175285756Y-121807690D01*
X175227405Y-121602611D01*
X175227403Y-121602606D01*
X175227403Y-121602605D01*
X175132367Y-121411746D01*
X175003872Y-121241593D01*
X174846302Y-121097948D01*
X174665019Y-120985702D01*
X174665017Y-120985701D01*
X174565608Y-120947190D01*
X174466198Y-120908679D01*
X174269385Y-120871888D01*
X174207106Y-120840221D01*
X174171833Y-120779908D01*
X174174767Y-120710100D01*
X174214976Y-120652960D01*
X174269384Y-120628111D01*
X174466198Y-120591321D01*
X174665019Y-120514298D01*
X174846302Y-120402052D01*
X175003872Y-120258407D01*
X175132366Y-120088255D01*
X175186270Y-119980000D01*
X175227403Y-119897394D01*
X175227403Y-119897393D01*
X175227405Y-119897389D01*
X175285756Y-119692310D01*
X175305429Y-119480000D01*
X175285756Y-119267690D01*
X175227405Y-119062611D01*
X175227403Y-119062606D01*
X175227403Y-119062605D01*
X175132367Y-118871746D01*
X175003872Y-118701593D01*
X174846302Y-118557948D01*
X174665019Y-118445702D01*
X174660145Y-118442684D01*
X174661441Y-118440589D01*
X174617969Y-118400257D01*
X174600500Y-118336797D01*
X174600500Y-118083202D01*
X174620185Y-118016163D01*
X174661351Y-117979265D01*
X174660144Y-117977316D01*
X174665016Y-117974298D01*
X174665019Y-117974298D01*
X174846302Y-117862052D01*
X175003872Y-117718407D01*
X175132366Y-117548255D01*
X175186270Y-117440000D01*
X175227403Y-117357394D01*
X175227403Y-117357393D01*
X175227405Y-117357389D01*
X175285756Y-117152310D01*
X175305429Y-116940000D01*
X175285756Y-116727690D01*
X175227405Y-116522611D01*
X175227403Y-116522606D01*
X175227403Y-116522605D01*
X175132367Y-116331746D01*
X175003872Y-116161593D01*
X174846302Y-116017948D01*
X174665019Y-115905702D01*
X174660145Y-115902684D01*
X174661441Y-115900589D01*
X174617969Y-115860257D01*
X174600500Y-115796797D01*
X174600500Y-115670693D01*
X174600500Y-115670691D01*
X174569799Y-115556114D01*
X174569799Y-115556113D01*
X174569799Y-115556112D01*
X174510492Y-115453389D01*
X174510488Y-115453384D01*
X165747103Y-106690000D01*
X170387285Y-106690000D01*
X170406102Y-106893082D01*
X170461917Y-107089247D01*
X170461922Y-107089260D01*
X170552827Y-107271821D01*
X170675737Y-107434581D01*
X170826458Y-107571980D01*
X170826460Y-107571982D01*
X170911495Y-107624633D01*
X170999863Y-107679348D01*
X171190044Y-107753024D01*
X171390524Y-107790500D01*
X171390526Y-107790500D01*
X171594474Y-107790500D01*
X171594476Y-107790500D01*
X171794956Y-107753024D01*
X171985137Y-107679348D01*
X172158541Y-107571981D01*
X172309264Y-107434579D01*
X172432173Y-107271821D01*
X172523082Y-107089250D01*
X172578897Y-106893083D01*
X172597715Y-106690000D01*
X172578897Y-106486917D01*
X172523082Y-106290750D01*
X172515174Y-106274869D01*
X172436566Y-106117002D01*
X172432173Y-106108179D01*
X172309264Y-105945421D01*
X172309262Y-105945418D01*
X172158541Y-105808019D01*
X172158539Y-105808017D01*
X171985142Y-105700655D01*
X171985135Y-105700651D01*
X171864166Y-105653788D01*
X171794956Y-105626976D01*
X171594476Y-105589500D01*
X171390524Y-105589500D01*
X171190044Y-105626976D01*
X171190041Y-105626976D01*
X171190041Y-105626977D01*
X170999864Y-105700651D01*
X170999857Y-105700655D01*
X170826460Y-105808017D01*
X170826458Y-105808019D01*
X170675737Y-105945418D01*
X170552827Y-106108178D01*
X170461922Y-106290739D01*
X170461917Y-106290752D01*
X170406102Y-106486917D01*
X170387285Y-106689999D01*
X170387285Y-106690000D01*
X165747103Y-106690000D01*
X165376616Y-106319513D01*
X165376614Y-106319511D01*
X165325250Y-106289856D01*
X165273888Y-106260201D01*
X165261780Y-106256957D01*
X165249673Y-106253713D01*
X165249670Y-106253712D01*
X165192386Y-106238363D01*
X165159309Y-106229500D01*
X165159308Y-106229500D01*
X161282683Y-106229500D01*
X161215644Y-106209815D01*
X161172198Y-106161795D01*
X161149375Y-106117002D01*
X161128996Y-106077006D01*
X161128994Y-106077003D01*
X161128993Y-106077001D01*
X161022558Y-105930505D01*
X161022554Y-105930500D01*
X160894499Y-105802445D01*
X160894494Y-105802441D01*
X160747997Y-105696006D01*
X160747996Y-105696005D01*
X160747994Y-105696004D01*
X160665143Y-105653789D01*
X160586639Y-105613788D01*
X160586636Y-105613787D01*
X160414410Y-105557829D01*
X160380594Y-105552473D01*
X160317459Y-105522544D01*
X160280528Y-105463232D01*
X160281526Y-105393370D01*
X160320136Y-105335137D01*
X160380594Y-105307527D01*
X160388388Y-105306292D01*
X160414409Y-105302171D01*
X160586639Y-105246211D01*
X160747994Y-105163996D01*
X160894501Y-105057553D01*
X161022553Y-104929501D01*
X161128996Y-104782994D01*
X161211211Y-104621639D01*
X161267171Y-104449409D01*
X161281765Y-104357259D01*
X161295500Y-104270551D01*
X161295500Y-104150000D01*
X170387285Y-104150000D01*
X170406102Y-104353082D01*
X170461917Y-104549247D01*
X170461922Y-104549260D01*
X170552827Y-104731821D01*
X170675737Y-104894581D01*
X170826458Y-105031980D01*
X170826460Y-105031982D01*
X170867759Y-105057553D01*
X170999863Y-105139348D01*
X171190044Y-105213024D01*
X171390524Y-105250500D01*
X171390526Y-105250500D01*
X171594474Y-105250500D01*
X171594476Y-105250500D01*
X171794956Y-105213024D01*
X171985137Y-105139348D01*
X172158541Y-105031981D01*
X172309264Y-104894579D01*
X172432173Y-104731821D01*
X172523082Y-104549250D01*
X172578897Y-104353083D01*
X172597715Y-104150000D01*
X172578897Y-103946917D01*
X172523082Y-103750750D01*
X172515174Y-103734869D01*
X172436566Y-103577002D01*
X172432173Y-103568179D01*
X172309264Y-103405421D01*
X172309262Y-103405418D01*
X172158541Y-103268019D01*
X172158539Y-103268017D01*
X171985142Y-103160655D01*
X171985135Y-103160651D01*
X171864166Y-103113788D01*
X171794956Y-103086976D01*
X171594476Y-103049500D01*
X171390524Y-103049500D01*
X171190044Y-103086976D01*
X171190041Y-103086976D01*
X171190041Y-103086977D01*
X170999864Y-103160651D01*
X170999857Y-103160655D01*
X170826460Y-103268017D01*
X170826458Y-103268019D01*
X170675737Y-103405418D01*
X170552827Y-103568178D01*
X170461922Y-103750739D01*
X170461917Y-103750752D01*
X170406102Y-103946917D01*
X170387285Y-104149999D01*
X170387285Y-104150000D01*
X161295500Y-104150000D01*
X161295500Y-104089448D01*
X161272924Y-103946917D01*
X161267171Y-103910591D01*
X161223850Y-103777259D01*
X161211212Y-103738363D01*
X161211211Y-103738360D01*
X161174859Y-103667016D01*
X161128996Y-103577006D01*
X161051619Y-103470505D01*
X161022558Y-103430505D01*
X161022554Y-103430500D01*
X160894499Y-103302445D01*
X160894494Y-103302441D01*
X160747997Y-103196006D01*
X160747996Y-103196005D01*
X160747994Y-103196004D01*
X160678618Y-103160655D01*
X160586639Y-103113788D01*
X160586636Y-103113787D01*
X160414410Y-103057829D01*
X160235551Y-103029500D01*
X160235546Y-103029500D01*
X159804454Y-103029500D01*
X159804449Y-103029500D01*
X159625589Y-103057829D01*
X159453363Y-103113787D01*
X159453360Y-103113788D01*
X159292002Y-103196006D01*
X159145505Y-103302441D01*
X159145500Y-103302445D01*
X159017445Y-103430500D01*
X159017441Y-103430505D01*
X158910001Y-103578385D01*
X158854671Y-103621051D01*
X158809683Y-103629500D01*
X158717525Y-103629500D01*
X158584012Y-103665275D01*
X158551919Y-103669500D01*
X143450317Y-103669500D01*
X143383278Y-103649815D01*
X143349999Y-103618385D01*
X143242558Y-103470505D01*
X143242554Y-103470500D01*
X143114499Y-103342445D01*
X143114494Y-103342441D01*
X142967997Y-103236006D01*
X142967996Y-103236005D01*
X142967994Y-103236004D01*
X142889494Y-103196006D01*
X142806639Y-103153788D01*
X142806636Y-103153787D01*
X142634410Y-103097829D01*
X142455551Y-103069500D01*
X142455546Y-103069500D01*
X142024454Y-103069500D01*
X142024449Y-103069500D01*
X141845589Y-103097829D01*
X141673363Y-103153787D01*
X141673360Y-103153788D01*
X141512002Y-103236006D01*
X141365505Y-103342441D01*
X141365500Y-103342445D01*
X141237445Y-103470500D01*
X141237441Y-103470505D01*
X141131006Y-103617002D01*
X141048788Y-103778360D01*
X141048787Y-103778363D01*
X140992829Y-103950589D01*
X140964500Y-104129448D01*
X140964500Y-104310551D01*
X140992829Y-104489410D01*
X141048787Y-104661636D01*
X141048788Y-104661639D01*
X141094386Y-104751128D01*
X141130301Y-104821615D01*
X141131006Y-104822997D01*
X141237441Y-104969494D01*
X141237445Y-104969499D01*
X141365500Y-105097554D01*
X141365505Y-105097558D01*
X141423025Y-105139348D01*
X141512006Y-105203996D01*
X141594857Y-105246211D01*
X141673360Y-105286211D01*
X141673363Y-105286212D01*
X141738966Y-105307527D01*
X141845591Y-105342171D01*
X141870291Y-105346083D01*
X141879406Y-105347527D01*
X141942540Y-105377457D01*
X141979471Y-105436768D01*
X141978473Y-105506631D01*
X141939863Y-105564863D01*
X141879406Y-105592473D01*
X141845589Y-105597829D01*
X141673363Y-105653787D01*
X141673360Y-105653788D01*
X141512002Y-105736006D01*
X141365505Y-105842441D01*
X141365500Y-105842445D01*
X141237445Y-105970500D01*
X141237441Y-105970505D01*
X141131006Y-106117001D01*
X141087802Y-106201795D01*
X141039827Y-106252591D01*
X140977317Y-106269500D01*
X140870691Y-106269500D01*
X140780325Y-106293713D01*
X140780324Y-106293712D01*
X140756115Y-106300200D01*
X140756106Y-106300204D01*
X140653392Y-106359505D01*
X140653384Y-106359511D01*
X139339513Y-107673383D01*
X139339511Y-107673386D01*
X139280201Y-107776112D01*
X139276345Y-107790503D01*
X139265628Y-107830500D01*
X139249500Y-107890691D01*
X139249500Y-128329309D01*
X139255987Y-128353521D01*
X139273712Y-128419672D01*
X139280200Y-128443885D01*
X139280200Y-128443886D01*
X139280201Y-128443887D01*
X139339511Y-128546614D01*
X144503386Y-133710489D01*
X144606113Y-133769799D01*
X144630321Y-133776284D01*
X144630324Y-133776286D01*
X144630325Y-133776286D01*
X144660447Y-133784357D01*
X144720691Y-133800500D01*
X162322035Y-133800500D01*
X162389074Y-133820185D01*
X162409716Y-133836819D01*
X164370716Y-135797819D01*
X164404201Y-135859142D01*
X164399217Y-135928834D01*
X164357345Y-135984767D01*
X164291881Y-136009184D01*
X164283037Y-136009500D01*
X164205144Y-136009500D01*
X164205117Y-136009502D01*
X164180012Y-136012413D01*
X164180008Y-136012415D01*
X164077235Y-136057793D01*
X163997794Y-136137234D01*
X163952415Y-136240006D01*
X163952415Y-136240008D01*
X163949500Y-136265131D01*
X163949500Y-138054856D01*
X163949502Y-138054882D01*
X163952413Y-138079987D01*
X163952415Y-138079991D01*
X163997793Y-138182764D01*
X163997794Y-138182765D01*
X164077235Y-138262206D01*
X164180009Y-138307585D01*
X164205135Y-138310500D01*
X164425500Y-138310499D01*
X164492539Y-138330183D01*
X164538294Y-138382987D01*
X164549500Y-138434499D01*
X164549500Y-138677411D01*
X164529815Y-138744450D01*
X164490778Y-138782838D01*
X164433957Y-138818020D01*
X164283237Y-138955418D01*
X164160327Y-139118178D01*
X164069422Y-139300739D01*
X164069417Y-139300752D01*
X164013602Y-139496917D01*
X163994785Y-139699999D01*
X163994785Y-139700000D01*
X164013602Y-139903082D01*
X164069417Y-140099247D01*
X164069422Y-140099260D01*
X164160327Y-140281821D01*
X164250155Y-140400773D01*
X164274847Y-140466135D01*
X164260282Y-140534469D01*
X164211084Y-140584082D01*
X164151201Y-140599500D01*
X160968799Y-140599500D01*
X160901760Y-140579815D01*
X160856005Y-140527011D01*
X160846061Y-140457853D01*
X160869845Y-140400773D01*
X160906307Y-140352489D01*
X160959673Y-140281821D01*
X161050582Y-140099250D01*
X161106397Y-139903083D01*
X161125215Y-139700000D01*
X161121921Y-139664456D01*
X161106397Y-139496917D01*
X161088351Y-139433493D01*
X161050582Y-139300750D01*
X161050159Y-139299901D01*
X160989484Y-139178048D01*
X160959673Y-139118179D01*
X160873765Y-139004418D01*
X160836762Y-138955418D01*
X160686042Y-138818020D01*
X160686041Y-138818019D01*
X160629222Y-138782838D01*
X160582587Y-138730810D01*
X160570500Y-138677411D01*
X160570500Y-138241396D01*
X160590185Y-138174357D01*
X160629223Y-138135969D01*
X160716302Y-138082052D01*
X160873872Y-137938407D01*
X161002366Y-137768255D01*
X161056270Y-137660000D01*
X161097403Y-137577394D01*
X161097403Y-137577393D01*
X161097405Y-137577389D01*
X161155756Y-137372310D01*
X161175429Y-137160000D01*
X161155756Y-136947690D01*
X161097405Y-136742611D01*
X161097403Y-136742606D01*
X161097403Y-136742605D01*
X161002367Y-136551746D01*
X160873872Y-136381593D01*
X160716302Y-136237948D01*
X160535019Y-136125702D01*
X160535017Y-136125701D01*
X160389884Y-136069477D01*
X160336198Y-136048679D01*
X160126610Y-136009500D01*
X159913390Y-136009500D01*
X159703802Y-136048679D01*
X159703799Y-136048679D01*
X159703799Y-136048680D01*
X159504982Y-136125701D01*
X159504980Y-136125702D01*
X159323699Y-136237947D01*
X159166127Y-136381593D01*
X159037634Y-136551744D01*
X158970676Y-136686215D01*
X158923173Y-136737452D01*
X158855510Y-136754873D01*
X158789170Y-136732947D01*
X158747294Y-136683348D01*
X158653600Y-136482422D01*
X158653599Y-136482420D01*
X158518113Y-136288926D01*
X158518108Y-136288920D01*
X158351082Y-136121894D01*
X158157578Y-135986399D01*
X157943492Y-135886570D01*
X157943486Y-135886567D01*
X157730000Y-135829364D01*
X157730000Y-136726988D01*
X157672993Y-136694075D01*
X157545826Y-136660000D01*
X157414174Y-136660000D01*
X157287007Y-136694075D01*
X157230000Y-136726988D01*
X157230000Y-135829364D01*
X157229999Y-135829364D01*
X157016513Y-135886567D01*
X157016507Y-135886570D01*
X156802422Y-135986399D01*
X156802420Y-135986400D01*
X156608926Y-136121886D01*
X156608920Y-136121891D01*
X156441891Y-136288920D01*
X156441890Y-136288922D01*
X156311575Y-136475031D01*
X156256998Y-136518655D01*
X156187499Y-136525848D01*
X156125145Y-136494326D01*
X156108425Y-136475031D01*
X155978109Y-136288922D01*
X155978108Y-136288920D01*
X155811082Y-136121894D01*
X155617578Y-135986399D01*
X155403492Y-135886570D01*
X155403486Y-135886567D01*
X155190000Y-135829364D01*
X155190000Y-136726988D01*
X155132993Y-136694075D01*
X155005826Y-136660000D01*
X154874174Y-136660000D01*
X154747007Y-136694075D01*
X154690000Y-136726988D01*
X154690000Y-135829364D01*
X154689999Y-135829364D01*
X154476513Y-135886567D01*
X154476507Y-135886570D01*
X154262422Y-135986399D01*
X154262420Y-135986400D01*
X154068926Y-136121886D01*
X154068920Y-136121891D01*
X153901891Y-136288920D01*
X153901886Y-136288926D01*
X153766400Y-136482420D01*
X153766399Y-136482422D01*
X153672705Y-136683348D01*
X153626532Y-136735787D01*
X153559339Y-136754939D01*
X153492457Y-136734723D01*
X153449323Y-136686215D01*
X153382366Y-136551745D01*
X153362809Y-136525848D01*
X153253872Y-136381593D01*
X153096302Y-136237948D01*
X152915019Y-136125702D01*
X152915017Y-136125701D01*
X152769884Y-136069477D01*
X152716198Y-136048679D01*
X152506610Y-136009500D01*
X152293390Y-136009500D01*
X152083802Y-136048679D01*
X152083799Y-136048679D01*
X152083799Y-136048680D01*
X151884982Y-136125701D01*
X151884980Y-136125702D01*
X151703699Y-136237947D01*
X151546127Y-136381593D01*
X151417632Y-136551746D01*
X151322596Y-136742605D01*
X151322596Y-136742607D01*
X151264244Y-136947689D01*
X151253471Y-137063951D01*
X151227685Y-137128888D01*
X151183130Y-137160804D01*
X151219503Y-137181668D01*
X151251693Y-137243681D01*
X151253470Y-137256047D01*
X151264244Y-137372310D01*
X151317675Y-137560099D01*
X151322596Y-137577392D01*
X151322596Y-137577394D01*
X151417632Y-137768253D01*
X151475565Y-137844968D01*
X151546128Y-137938407D01*
X151703698Y-138082052D01*
X151703700Y-138082053D01*
X151703701Y-138082054D01*
X151790777Y-138135969D01*
X151837413Y-138187997D01*
X151849500Y-138241396D01*
X151849500Y-138677411D01*
X151829815Y-138744450D01*
X151790778Y-138782838D01*
X151733957Y-138818020D01*
X151583237Y-138955418D01*
X151460327Y-139118178D01*
X151369422Y-139300739D01*
X151369417Y-139300752D01*
X151313602Y-139496917D01*
X151294785Y-139699999D01*
X151294785Y-139700000D01*
X151313602Y-139903082D01*
X151369417Y-140099247D01*
X151369422Y-140099260D01*
X151460327Y-140281821D01*
X151550155Y-140400773D01*
X151574847Y-140466135D01*
X151560282Y-140534469D01*
X151511084Y-140584082D01*
X151451201Y-140599500D01*
X150808799Y-140599500D01*
X150741760Y-140579815D01*
X150696005Y-140527011D01*
X150686061Y-140457853D01*
X150709845Y-140400773D01*
X150746307Y-140352489D01*
X150799673Y-140281821D01*
X150890582Y-140099250D01*
X150946397Y-139903083D01*
X150965215Y-139700000D01*
X150961921Y-139664456D01*
X150946397Y-139496917D01*
X150928351Y-139433493D01*
X150890582Y-139300750D01*
X150890159Y-139299901D01*
X150829484Y-139178048D01*
X150799673Y-139118179D01*
X150713765Y-139004418D01*
X150676762Y-138955418D01*
X150526042Y-138818020D01*
X150526041Y-138818019D01*
X150469222Y-138782838D01*
X150422587Y-138730810D01*
X150410500Y-138677411D01*
X150410500Y-138241396D01*
X150430185Y-138174357D01*
X150469223Y-138135969D01*
X150556302Y-138082052D01*
X150713872Y-137938407D01*
X150842366Y-137768255D01*
X150896270Y-137660000D01*
X150937403Y-137577394D01*
X150937403Y-137577393D01*
X150937405Y-137577389D01*
X150995756Y-137372310D01*
X151006529Y-137256047D01*
X151032315Y-137191111D01*
X151076869Y-137159194D01*
X151040497Y-137138331D01*
X151008307Y-137076318D01*
X151006529Y-137063951D01*
X151005849Y-137056613D01*
X150995756Y-136947690D01*
X150937405Y-136742611D01*
X150937403Y-136742606D01*
X150937403Y-136742605D01*
X150842367Y-136551746D01*
X150713872Y-136381593D01*
X150556302Y-136237948D01*
X150375019Y-136125702D01*
X150375017Y-136125701D01*
X150229884Y-136069477D01*
X150176198Y-136048679D01*
X149966610Y-136009500D01*
X149753390Y-136009500D01*
X149543802Y-136048679D01*
X149543799Y-136048679D01*
X149543799Y-136048680D01*
X149344982Y-136125701D01*
X149344980Y-136125702D01*
X149163699Y-136237947D01*
X149006127Y-136381593D01*
X148877632Y-136551746D01*
X148782596Y-136742605D01*
X148782596Y-136742607D01*
X148724244Y-136947689D01*
X148713471Y-137063951D01*
X148687685Y-137128888D01*
X148643130Y-137160804D01*
X148679503Y-137181668D01*
X148711693Y-137243681D01*
X148713470Y-137256047D01*
X148724244Y-137372310D01*
X148777675Y-137560099D01*
X148782596Y-137577392D01*
X148782596Y-137577394D01*
X148877632Y-137768253D01*
X148935565Y-137844968D01*
X149006128Y-137938407D01*
X149163698Y-138082052D01*
X149163700Y-138082053D01*
X149163701Y-138082054D01*
X149250777Y-138135969D01*
X149297413Y-138187997D01*
X149309500Y-138241396D01*
X149309500Y-138677411D01*
X149289815Y-138744450D01*
X149250778Y-138782838D01*
X149193957Y-138818020D01*
X149043237Y-138955418D01*
X148920327Y-139118178D01*
X148829422Y-139300739D01*
X148829417Y-139300752D01*
X148773602Y-139496917D01*
X148754785Y-139699999D01*
X148754785Y-139700000D01*
X148773602Y-139903082D01*
X148829417Y-140099247D01*
X148829422Y-140099260D01*
X148920327Y-140281821D01*
X149010155Y-140400773D01*
X149034847Y-140466135D01*
X149020282Y-140534469D01*
X148971084Y-140584082D01*
X148911201Y-140599500D01*
X148268799Y-140599500D01*
X148201760Y-140579815D01*
X148156005Y-140527011D01*
X148146061Y-140457853D01*
X148169845Y-140400773D01*
X148206307Y-140352489D01*
X148259673Y-140281821D01*
X148350582Y-140099250D01*
X148406397Y-139903083D01*
X148425215Y-139700000D01*
X148421921Y-139664456D01*
X148406397Y-139496917D01*
X148388351Y-139433493D01*
X148350582Y-139300750D01*
X148350159Y-139299901D01*
X148289484Y-139178048D01*
X148259673Y-139118179D01*
X148173765Y-139004418D01*
X148136762Y-138955418D01*
X147986042Y-138818020D01*
X147986041Y-138818019D01*
X147929222Y-138782838D01*
X147882587Y-138730810D01*
X147870500Y-138677411D01*
X147870500Y-138241396D01*
X147890185Y-138174357D01*
X147929223Y-138135969D01*
X148016302Y-138082052D01*
X148173872Y-137938407D01*
X148302366Y-137768255D01*
X148356270Y-137660000D01*
X148397403Y-137577394D01*
X148397403Y-137577393D01*
X148397405Y-137577389D01*
X148455756Y-137372310D01*
X148466529Y-137256047D01*
X148492315Y-137191111D01*
X148536869Y-137159194D01*
X148500497Y-137138331D01*
X148468307Y-137076318D01*
X148466529Y-137063951D01*
X148465849Y-137056613D01*
X148455756Y-136947690D01*
X148397405Y-136742611D01*
X148397403Y-136742606D01*
X148397403Y-136742605D01*
X148302367Y-136551746D01*
X148173872Y-136381593D01*
X148016302Y-136237948D01*
X147835019Y-136125702D01*
X147835017Y-136125701D01*
X147689884Y-136069477D01*
X147636198Y-136048679D01*
X147426610Y-136009500D01*
X147213390Y-136009500D01*
X147003802Y-136048679D01*
X147003799Y-136048679D01*
X147003799Y-136048680D01*
X146804982Y-136125701D01*
X146804980Y-136125702D01*
X146623699Y-136237947D01*
X146466127Y-136381593D01*
X146337632Y-136551746D01*
X146242596Y-136742605D01*
X146242596Y-136742607D01*
X146184244Y-136947689D01*
X146173471Y-137063951D01*
X146147685Y-137128888D01*
X146103130Y-137160804D01*
X146139503Y-137181668D01*
X146171693Y-137243681D01*
X146173470Y-137256047D01*
X146184244Y-137372310D01*
X146237675Y-137560099D01*
X146242596Y-137577392D01*
X146242596Y-137577394D01*
X146337632Y-137768253D01*
X146395565Y-137844968D01*
X146466128Y-137938407D01*
X146623698Y-138082052D01*
X146623700Y-138082053D01*
X146623701Y-138082054D01*
X146710777Y-138135969D01*
X146757413Y-138187997D01*
X146769500Y-138241396D01*
X146769500Y-138677411D01*
X146749815Y-138744450D01*
X146710778Y-138782838D01*
X146653957Y-138818020D01*
X146503237Y-138955418D01*
X146380327Y-139118178D01*
X146289422Y-139300739D01*
X146289417Y-139300752D01*
X146233602Y-139496917D01*
X146214785Y-139699999D01*
X146214785Y-139700000D01*
X146233602Y-139903082D01*
X146289417Y-140099247D01*
X146289422Y-140099260D01*
X146380327Y-140281821D01*
X146470155Y-140400773D01*
X146494847Y-140466135D01*
X146480282Y-140534469D01*
X146431084Y-140584082D01*
X146371201Y-140599500D01*
X145728799Y-140599500D01*
X145661760Y-140579815D01*
X145616005Y-140527011D01*
X145606061Y-140457853D01*
X145629845Y-140400773D01*
X145666307Y-140352489D01*
X145719673Y-140281821D01*
X145810582Y-140099250D01*
X145866397Y-139903083D01*
X145885215Y-139700000D01*
X145881921Y-139664456D01*
X145866397Y-139496917D01*
X145848351Y-139433493D01*
X145810582Y-139300750D01*
X145810159Y-139299901D01*
X145749484Y-139178048D01*
X145719673Y-139118179D01*
X145633765Y-139004418D01*
X145596762Y-138955418D01*
X145446042Y-138818020D01*
X145446041Y-138818019D01*
X145389222Y-138782838D01*
X145342587Y-138730810D01*
X145330500Y-138677411D01*
X145330500Y-138241396D01*
X145350185Y-138174357D01*
X145389223Y-138135969D01*
X145476302Y-138082052D01*
X145633872Y-137938407D01*
X145762366Y-137768255D01*
X145816270Y-137660000D01*
X145857403Y-137577394D01*
X145857403Y-137577393D01*
X145857405Y-137577389D01*
X145915756Y-137372310D01*
X145926529Y-137256047D01*
X145952315Y-137191111D01*
X145996869Y-137159194D01*
X145960497Y-137138331D01*
X145928307Y-137076318D01*
X145926529Y-137063951D01*
X145925849Y-137056613D01*
X145915756Y-136947690D01*
X145857405Y-136742611D01*
X145857403Y-136742606D01*
X145857403Y-136742605D01*
X145762367Y-136551746D01*
X145633872Y-136381593D01*
X145476302Y-136237948D01*
X145295019Y-136125702D01*
X145295017Y-136125701D01*
X145149884Y-136069477D01*
X145096198Y-136048679D01*
X144886610Y-136009500D01*
X144673390Y-136009500D01*
X144463802Y-136048679D01*
X144463799Y-136048679D01*
X144463799Y-136048680D01*
X144264982Y-136125701D01*
X144264980Y-136125702D01*
X144083699Y-136237947D01*
X143926127Y-136381593D01*
X143797632Y-136551746D01*
X143702596Y-136742605D01*
X143702596Y-136742607D01*
X143644244Y-136947689D01*
X143637970Y-137015394D01*
X143612183Y-137080331D01*
X143555383Y-137121018D01*
X143485602Y-137124538D01*
X143424995Y-137089772D01*
X143392806Y-137027759D01*
X143390499Y-137003952D01*
X143390499Y-136265143D01*
X143390499Y-136265136D01*
X143390497Y-136265117D01*
X143387586Y-136240012D01*
X143387585Y-136240010D01*
X143387585Y-136240009D01*
X143342206Y-136137235D01*
X143262765Y-136057794D01*
X143242124Y-136048680D01*
X143159992Y-136012415D01*
X143134865Y-136009500D01*
X141345143Y-136009500D01*
X141345117Y-136009502D01*
X141320012Y-136012413D01*
X141320008Y-136012415D01*
X141217235Y-136057793D01*
X141137794Y-136137234D01*
X141092415Y-136240006D01*
X141092415Y-136240008D01*
X141089500Y-136265131D01*
X141089500Y-138054856D01*
X141089502Y-138054882D01*
X141092413Y-138079987D01*
X141092415Y-138079991D01*
X141137793Y-138182764D01*
X141137794Y-138182765D01*
X141217235Y-138262206D01*
X141320009Y-138307585D01*
X141345135Y-138310500D01*
X143134864Y-138310499D01*
X143134879Y-138310497D01*
X143134882Y-138310497D01*
X143159987Y-138307586D01*
X143159988Y-138307585D01*
X143159991Y-138307585D01*
X143262765Y-138262206D01*
X143342206Y-138182765D01*
X143387585Y-138079991D01*
X143390500Y-138054865D01*
X143390499Y-137316046D01*
X143410183Y-137249009D01*
X143462987Y-137203254D01*
X143532146Y-137193310D01*
X143595702Y-137222335D01*
X143633476Y-137281113D01*
X143637970Y-137304606D01*
X143642454Y-137352993D01*
X143644244Y-137372310D01*
X143697675Y-137560099D01*
X143702596Y-137577392D01*
X143702596Y-137577394D01*
X143797632Y-137768253D01*
X143855565Y-137844968D01*
X143926128Y-137938407D01*
X144083698Y-138082052D01*
X144083700Y-138082053D01*
X144083701Y-138082054D01*
X144170777Y-138135969D01*
X144217413Y-138187997D01*
X144229500Y-138241396D01*
X144229500Y-138677411D01*
X144209815Y-138744450D01*
X144170778Y-138782838D01*
X144113957Y-138818020D01*
X143963237Y-138955418D01*
X143840327Y-139118178D01*
X143749422Y-139300739D01*
X143749417Y-139300752D01*
X143693602Y-139496917D01*
X143674785Y-139699999D01*
X143674785Y-139700000D01*
X143693602Y-139903082D01*
X143749417Y-140099247D01*
X143749422Y-140099260D01*
X143840327Y-140281821D01*
X143930155Y-140400773D01*
X143954847Y-140466135D01*
X143940282Y-140534469D01*
X143891084Y-140584082D01*
X143831201Y-140599500D01*
X143464500Y-140599500D01*
X143397461Y-140579815D01*
X143351706Y-140527011D01*
X143340500Y-140475500D01*
X143340499Y-138855143D01*
X143340499Y-138855137D01*
X143340499Y-138855136D01*
X143340497Y-138855117D01*
X143337586Y-138830012D01*
X143337585Y-138830010D01*
X143337585Y-138830009D01*
X143292206Y-138727235D01*
X143212765Y-138647794D01*
X143212763Y-138647793D01*
X143109992Y-138602415D01*
X143084865Y-138599500D01*
X141395143Y-138599500D01*
X141395117Y-138599502D01*
X141370012Y-138602413D01*
X141370008Y-138602415D01*
X141267235Y-138647793D01*
X141187794Y-138727234D01*
X141142415Y-138830006D01*
X141142415Y-138830008D01*
X141142415Y-138830009D01*
X141139500Y-138855135D01*
X141139500Y-139699999D01*
X141139501Y-140475500D01*
X141119816Y-140542539D01*
X141067013Y-140588294D01*
X141015501Y-140599500D01*
X133004428Y-140599500D01*
X132995582Y-140599184D01*
X132974407Y-140597669D01*
X132781211Y-140583851D01*
X132763700Y-140581333D01*
X132566210Y-140538372D01*
X132504887Y-140504887D01*
X131495112Y-139495112D01*
X131461627Y-139433789D01*
X131452752Y-139392993D01*
X131418665Y-139236296D01*
X131416148Y-139218787D01*
X131414804Y-139200000D01*
X131400816Y-139004418D01*
X131400500Y-138995572D01*
X131400500Y-101610000D01*
X170387285Y-101610000D01*
X170406102Y-101813082D01*
X170461917Y-102009247D01*
X170461922Y-102009260D01*
X170552827Y-102191821D01*
X170675737Y-102354581D01*
X170826458Y-102491980D01*
X170826460Y-102491982D01*
X170925641Y-102553392D01*
X170999863Y-102599348D01*
X171190044Y-102673024D01*
X171390524Y-102710500D01*
X171390526Y-102710500D01*
X171594474Y-102710500D01*
X171594476Y-102710500D01*
X171794956Y-102673024D01*
X171985137Y-102599348D01*
X172158541Y-102491981D01*
X172309264Y-102354579D01*
X172432173Y-102191821D01*
X172523082Y-102009250D01*
X172578897Y-101813083D01*
X172597715Y-101610000D01*
X172578897Y-101406917D01*
X172523082Y-101210750D01*
X172515174Y-101194869D01*
X172478772Y-101121764D01*
X172432173Y-101028179D01*
X172309264Y-100865421D01*
X172309262Y-100865418D01*
X172158541Y-100728019D01*
X172158539Y-100728017D01*
X171985142Y-100620655D01*
X171985135Y-100620651D01*
X171890046Y-100583814D01*
X171794956Y-100546976D01*
X171594476Y-100509500D01*
X171390524Y-100509500D01*
X171190044Y-100546976D01*
X171190041Y-100546976D01*
X171190041Y-100546977D01*
X170999864Y-100620651D01*
X170999857Y-100620655D01*
X170826460Y-100728017D01*
X170826458Y-100728019D01*
X170675737Y-100865418D01*
X170552827Y-101028178D01*
X170461922Y-101210739D01*
X170461917Y-101210752D01*
X170406102Y-101406917D01*
X170387285Y-101609999D01*
X170387285Y-101610000D01*
X131400500Y-101610000D01*
X131400500Y-99914856D01*
X170392000Y-99914856D01*
X170392002Y-99914882D01*
X170394913Y-99939987D01*
X170394915Y-99939991D01*
X170440293Y-100042764D01*
X170440294Y-100042765D01*
X170519735Y-100122206D01*
X170622509Y-100167585D01*
X170647635Y-100170500D01*
X172337364Y-100170499D01*
X172337379Y-100170497D01*
X172337382Y-100170497D01*
X172362487Y-100167586D01*
X172362488Y-100167585D01*
X172362491Y-100167585D01*
X172465265Y-100122206D01*
X172544706Y-100042765D01*
X172590085Y-99939991D01*
X172593000Y-99914865D01*
X172592999Y-98225136D01*
X172592997Y-98225117D01*
X172590086Y-98200012D01*
X172590085Y-98200010D01*
X172590085Y-98200009D01*
X172544706Y-98097235D01*
X172465265Y-98017794D01*
X172465263Y-98017793D01*
X172362492Y-97972415D01*
X172337365Y-97969500D01*
X170647643Y-97969500D01*
X170647617Y-97969502D01*
X170622512Y-97972413D01*
X170622508Y-97972415D01*
X170519735Y-98017793D01*
X170440294Y-98097234D01*
X170394915Y-98200006D01*
X170394915Y-98200008D01*
X170392000Y-98225131D01*
X170392000Y-99914856D01*
X131400500Y-99914856D01*
X131400500Y-92004427D01*
X131400816Y-91995581D01*
X131404791Y-91940000D01*
X131416148Y-91781206D01*
X131418666Y-91763700D01*
X131422219Y-91747368D01*
X131461628Y-91566206D01*
X131495109Y-91504890D01*
X131796352Y-91203647D01*
X131857671Y-91170165D01*
X131927363Y-91175149D01*
X131983296Y-91217021D01*
X132007713Y-91282485D01*
X132007500Y-91302771D01*
X131994785Y-91439997D01*
X131994785Y-91440000D01*
X132013602Y-91643082D01*
X132069417Y-91839247D01*
X132069422Y-91839260D01*
X132147261Y-91995581D01*
X132160327Y-92021821D01*
X132283236Y-92184579D01*
X132433959Y-92321981D01*
X132490778Y-92357161D01*
X132537412Y-92409187D01*
X132549500Y-92462587D01*
X132549500Y-92705500D01*
X132529815Y-92772539D01*
X132477011Y-92818294D01*
X132425501Y-92829500D01*
X132201143Y-92829500D01*
X132201117Y-92829502D01*
X132176012Y-92832413D01*
X132176008Y-92832415D01*
X132073235Y-92877793D01*
X131993794Y-92957234D01*
X131948415Y-93060006D01*
X131948415Y-93060008D01*
X131945500Y-93085131D01*
X131945500Y-94874856D01*
X131945502Y-94874882D01*
X131948413Y-94899987D01*
X131948415Y-94899991D01*
X131993793Y-95002764D01*
X131993794Y-95002765D01*
X132073235Y-95082206D01*
X132176009Y-95127585D01*
X132201135Y-95130500D01*
X133990864Y-95130499D01*
X133990879Y-95130497D01*
X133990882Y-95130497D01*
X134015987Y-95127586D01*
X134015988Y-95127585D01*
X134015991Y-95127585D01*
X134118765Y-95082206D01*
X134198206Y-95002765D01*
X134243585Y-94899991D01*
X134246500Y-94874865D01*
X134246499Y-94136046D01*
X134266183Y-94069009D01*
X134318987Y-94023254D01*
X134388146Y-94013310D01*
X134451702Y-94042335D01*
X134489476Y-94101113D01*
X134493970Y-94124606D01*
X134498454Y-94172993D01*
X134500244Y-94192310D01*
X134553675Y-94380099D01*
X134558596Y-94397392D01*
X134558596Y-94397394D01*
X134653632Y-94588253D01*
X134782127Y-94758406D01*
X134782128Y-94758407D01*
X134939698Y-94902052D01*
X135120981Y-95014298D01*
X135319802Y-95091321D01*
X135529390Y-95130500D01*
X135529392Y-95130500D01*
X135742608Y-95130500D01*
X135742610Y-95130500D01*
X135952198Y-95091321D01*
X136151019Y-95014298D01*
X136332302Y-94902052D01*
X136489872Y-94758407D01*
X136618366Y-94588255D01*
X136678866Y-94466753D01*
X136713403Y-94397394D01*
X136713403Y-94397393D01*
X136713405Y-94397389D01*
X136771756Y-94192310D01*
X136782529Y-94076047D01*
X136808315Y-94011111D01*
X136852869Y-93979194D01*
X136816497Y-93958331D01*
X136784307Y-93896318D01*
X136782529Y-93883951D01*
X136779175Y-93847759D01*
X136771756Y-93767690D01*
X136713405Y-93562611D01*
X136713403Y-93562606D01*
X136713403Y-93562605D01*
X136618367Y-93371746D01*
X136489872Y-93201593D01*
X136332299Y-93057945D01*
X136249221Y-93006505D01*
X136202586Y-92954477D01*
X136190500Y-92901079D01*
X136190500Y-92462587D01*
X136210185Y-92395548D01*
X136249220Y-92357162D01*
X136306041Y-92321981D01*
X136456764Y-92184579D01*
X136579673Y-92021821D01*
X136670582Y-91839250D01*
X136726397Y-91643083D01*
X136745215Y-91440000D01*
X136739115Y-91374174D01*
X136726397Y-91236917D01*
X136707404Y-91170165D01*
X136670582Y-91040750D01*
X136670159Y-91039901D01*
X136620415Y-90940000D01*
X136579673Y-90858179D01*
X136456764Y-90695421D01*
X136456762Y-90695418D01*
X136369794Y-90616137D01*
X136333512Y-90556426D01*
X136335273Y-90486578D01*
X136374516Y-90428771D01*
X136438783Y-90401356D01*
X136453332Y-90400500D01*
X137366668Y-90400500D01*
X137433707Y-90420185D01*
G37*
%TD.AperFunction*%
%TA.AperFunction,Conductor*%
G36*
X157014075Y-139507007D02*
G01*
X156980000Y-139634174D01*
X156980000Y-139765826D01*
X157014075Y-139892993D01*
X157046988Y-139950000D01*
X155373012Y-139950000D01*
X155405925Y-139892993D01*
X155440000Y-139765826D01*
X155440000Y-139634174D01*
X155405925Y-139507007D01*
X155373012Y-139450000D01*
X157046988Y-139450000D01*
X157014075Y-139507007D01*
G37*
%TD.AperFunction*%
%TA.AperFunction,Conductor*%
G36*
X155190000Y-139266988D02*
G01*
X155132993Y-139234075D01*
X155005826Y-139200000D01*
X154874174Y-139200000D01*
X154747007Y-139234075D01*
X154690000Y-139266988D01*
X154690000Y-137593012D01*
X154747007Y-137625925D01*
X154874174Y-137660000D01*
X155005826Y-137660000D01*
X155132993Y-137625925D01*
X155190000Y-137593012D01*
X155190000Y-139266988D01*
G37*
%TD.AperFunction*%
%TA.AperFunction,Conductor*%
G36*
X157730000Y-139266988D02*
G01*
X157672993Y-139234075D01*
X157545826Y-139200000D01*
X157414174Y-139200000D01*
X157287007Y-139234075D01*
X157230000Y-139266988D01*
X157230000Y-137593012D01*
X157287007Y-137625925D01*
X157414174Y-137660000D01*
X157545826Y-137660000D01*
X157672993Y-137625925D01*
X157730000Y-137593012D01*
X157730000Y-139266988D01*
G37*
%TD.AperFunction*%
%TA.AperFunction,Conductor*%
G36*
X157014075Y-136967007D02*
G01*
X156980000Y-137094174D01*
X156980000Y-137225826D01*
X157014075Y-137352993D01*
X157046988Y-137410000D01*
X155373012Y-137410000D01*
X155405925Y-137352993D01*
X155440000Y-137225826D01*
X155440000Y-137094174D01*
X155405925Y-136967007D01*
X155373012Y-136910000D01*
X157046988Y-136910000D01*
X157014075Y-136967007D01*
G37*
%TD.AperFunction*%
%TA.AperFunction,Conductor*%
G36*
X143832153Y-127210146D02*
G01*
X143872231Y-127236964D01*
X149323086Y-132687819D01*
X149356571Y-132749142D01*
X149351587Y-132818834D01*
X149309715Y-132874767D01*
X149244251Y-132899184D01*
X149235405Y-132899500D01*
X145017965Y-132899500D01*
X144950926Y-132879815D01*
X144930284Y-132863181D01*
X141858783Y-129791680D01*
X141825298Y-129730357D01*
X141830282Y-129660665D01*
X141872154Y-129604732D01*
X141937618Y-129580315D01*
X141946464Y-129579999D01*
X141990000Y-129579999D01*
X141990000Y-128634145D01*
X142056657Y-128672630D01*
X142177465Y-128705000D01*
X142302535Y-128705000D01*
X142423343Y-128672630D01*
X142490000Y-128634145D01*
X142490000Y-129579999D01*
X143014972Y-129579999D01*
X143014986Y-129579998D01*
X143117697Y-129569505D01*
X143284119Y-129514358D01*
X143284124Y-129514356D01*
X143433345Y-129422315D01*
X143557315Y-129298345D01*
X143649356Y-129149124D01*
X143649358Y-129149119D01*
X143704505Y-128982697D01*
X143704506Y-128982690D01*
X143714999Y-128879986D01*
X143715000Y-128879973D01*
X143715000Y-128480000D01*
X142644146Y-128480000D01*
X142682630Y-128413343D01*
X142715000Y-128292535D01*
X142715000Y-128167465D01*
X142682630Y-128046657D01*
X142644146Y-127980000D01*
X143714999Y-127980000D01*
X143714999Y-127580028D01*
X143714998Y-127580013D01*
X143704506Y-127477304D01*
X143666844Y-127363650D01*
X143664442Y-127293821D01*
X143700173Y-127233779D01*
X143762694Y-127202586D01*
X143832153Y-127210146D01*
G37*
%TD.AperFunction*%
%TA.AperFunction,Conductor*%
G36*
X158830603Y-104771949D02*
G01*
X158890874Y-104781343D01*
X158938351Y-104820634D01*
X158939064Y-104821615D01*
X159017447Y-104929501D01*
X159145500Y-105057554D01*
X159145505Y-105057558D01*
X159200561Y-105097558D01*
X159292006Y-105163996D01*
X159370510Y-105203996D01*
X159453360Y-105246211D01*
X159453363Y-105246212D01*
X159539476Y-105274191D01*
X159625591Y-105302171D01*
X159650291Y-105306083D01*
X159659406Y-105307527D01*
X159722540Y-105337457D01*
X159759471Y-105396768D01*
X159758473Y-105466631D01*
X159719863Y-105524863D01*
X159659406Y-105552473D01*
X159625589Y-105557829D01*
X159453363Y-105613787D01*
X159453360Y-105613788D01*
X159292002Y-105696006D01*
X159145505Y-105802441D01*
X159145500Y-105802445D01*
X159017445Y-105930500D01*
X159017441Y-105930505D01*
X158911006Y-106077002D01*
X158828788Y-106238360D01*
X158828787Y-106238363D01*
X158772829Y-106410589D01*
X158744500Y-106589448D01*
X158744500Y-106770551D01*
X158772829Y-106949410D01*
X158828787Y-107121636D01*
X158828788Y-107121639D01*
X158911006Y-107282997D01*
X159017441Y-107429494D01*
X159017445Y-107429499D01*
X159145500Y-107557554D01*
X159145505Y-107557558D01*
X159224051Y-107614625D01*
X159266717Y-107669954D01*
X159272696Y-107739568D01*
X159240091Y-107801363D01*
X159179252Y-107835720D01*
X159163769Y-107838301D01*
X159142302Y-107840494D01*
X158975880Y-107895641D01*
X158975875Y-107895643D01*
X158826654Y-107987684D01*
X158702684Y-108111654D01*
X158610643Y-108260875D01*
X158610641Y-108260880D01*
X158555494Y-108427302D01*
X158555493Y-108427309D01*
X158545000Y-108530013D01*
X158545000Y-108930000D01*
X159615854Y-108930000D01*
X159577370Y-108996657D01*
X159545000Y-109117465D01*
X159545000Y-109242535D01*
X159577370Y-109363343D01*
X159615854Y-109430000D01*
X158545001Y-109430000D01*
X158545001Y-109829986D01*
X158555494Y-109932697D01*
X158610641Y-110099119D01*
X158610643Y-110099124D01*
X158702684Y-110248345D01*
X158826654Y-110372315D01*
X158975875Y-110464356D01*
X158975880Y-110464358D01*
X159142302Y-110519505D01*
X159142309Y-110519506D01*
X159245019Y-110529999D01*
X159769999Y-110529999D01*
X159770000Y-110529998D01*
X159770000Y-109584145D01*
X159836657Y-109622630D01*
X159957465Y-109655000D01*
X160082535Y-109655000D01*
X160203343Y-109622630D01*
X160270000Y-109584145D01*
X160270000Y-110529999D01*
X160794972Y-110529999D01*
X160794986Y-110529998D01*
X160897697Y-110519505D01*
X161064119Y-110464358D01*
X161064124Y-110464356D01*
X161213345Y-110372315D01*
X161337315Y-110248345D01*
X161429356Y-110099124D01*
X161429358Y-110099119D01*
X161484505Y-109932697D01*
X161484506Y-109932690D01*
X161494999Y-109829986D01*
X161495000Y-109829973D01*
X161495000Y-109430000D01*
X160424146Y-109430000D01*
X160462630Y-109363343D01*
X160495000Y-109242535D01*
X160495000Y-109117465D01*
X160462630Y-108996657D01*
X160424146Y-108930000D01*
X161494999Y-108930000D01*
X161494999Y-108530028D01*
X161494998Y-108530013D01*
X161484505Y-108427302D01*
X161429358Y-108260880D01*
X161429356Y-108260875D01*
X161337315Y-108111654D01*
X161213345Y-107987684D01*
X161064124Y-107895643D01*
X161064119Y-107895641D01*
X160897697Y-107840494D01*
X160897692Y-107840493D01*
X160876226Y-107838300D01*
X160811536Y-107811901D01*
X160771386Y-107754719D01*
X160768525Y-107684908D01*
X160803861Y-107624633D01*
X160815938Y-107614631D01*
X160894501Y-107557553D01*
X161022553Y-107429501D01*
X161128996Y-107282994D01*
X161172198Y-107198204D01*
X161220173Y-107147409D01*
X161282683Y-107130500D01*
X164862035Y-107130500D01*
X164929074Y-107150185D01*
X164949716Y-107166819D01*
X173557398Y-115774502D01*
X173590883Y-115835825D01*
X173585899Y-115905517D01*
X173544027Y-115961450D01*
X173534996Y-115967609D01*
X173453700Y-116017945D01*
X173296127Y-116161593D01*
X173167634Y-116331744D01*
X173100676Y-116466215D01*
X173053173Y-116517452D01*
X172985510Y-116534873D01*
X172919170Y-116512947D01*
X172877294Y-116463348D01*
X172783600Y-116262422D01*
X172783599Y-116262420D01*
X172648113Y-116068926D01*
X172648108Y-116068920D01*
X172481082Y-115901894D01*
X172287578Y-115766399D01*
X172073492Y-115666570D01*
X172073486Y-115666567D01*
X171860000Y-115609364D01*
X171860000Y-116506988D01*
X171802993Y-116474075D01*
X171675826Y-116440000D01*
X171544174Y-116440000D01*
X171417007Y-116474075D01*
X171360000Y-116506988D01*
X171360000Y-115609364D01*
X171359999Y-115609364D01*
X171146513Y-115666567D01*
X171146507Y-115666570D01*
X170932422Y-115766399D01*
X170932420Y-115766400D01*
X170738926Y-115901886D01*
X170738920Y-115901891D01*
X170571891Y-116068920D01*
X170571886Y-116068926D01*
X170436400Y-116262420D01*
X170436399Y-116262422D01*
X170336570Y-116476507D01*
X170336567Y-116476513D01*
X170279364Y-116689999D01*
X170279364Y-116690000D01*
X171176988Y-116690000D01*
X171144075Y-116747007D01*
X171110000Y-116874174D01*
X171110000Y-117005826D01*
X171144075Y-117132993D01*
X171176988Y-117190000D01*
X170279364Y-117190000D01*
X170336567Y-117403486D01*
X170336570Y-117403492D01*
X170436399Y-117617578D01*
X170571894Y-117811082D01*
X170738917Y-117978105D01*
X170925031Y-118108425D01*
X170968656Y-118163003D01*
X170975848Y-118232501D01*
X170944326Y-118294856D01*
X170925031Y-118311575D01*
X170738922Y-118441890D01*
X170738920Y-118441891D01*
X170571891Y-118608920D01*
X170571886Y-118608926D01*
X170436400Y-118802420D01*
X170436399Y-118802422D01*
X170336570Y-119016507D01*
X170336567Y-119016513D01*
X170279364Y-119229999D01*
X170279364Y-119230000D01*
X171176988Y-119230000D01*
X171144075Y-119287007D01*
X171110000Y-119414174D01*
X171110000Y-119545826D01*
X171144075Y-119672993D01*
X171176988Y-119730000D01*
X170279364Y-119730000D01*
X170336567Y-119943486D01*
X170336570Y-119943492D01*
X170436399Y-120157578D01*
X170571894Y-120351082D01*
X170738917Y-120518105D01*
X170925031Y-120648425D01*
X170968656Y-120703003D01*
X170975848Y-120772501D01*
X170944326Y-120834856D01*
X170925031Y-120851575D01*
X170738922Y-120981890D01*
X170738920Y-120981891D01*
X170571891Y-121148920D01*
X170571886Y-121148926D01*
X170436400Y-121342420D01*
X170436399Y-121342422D01*
X170336570Y-121556507D01*
X170336567Y-121556513D01*
X170279364Y-121769999D01*
X170279364Y-121770000D01*
X171176988Y-121770000D01*
X171144075Y-121827007D01*
X171110000Y-121954174D01*
X171110000Y-122085826D01*
X171144075Y-122212993D01*
X171176988Y-122270000D01*
X170279364Y-122270000D01*
X170336567Y-122483486D01*
X170336570Y-122483492D01*
X170436399Y-122697578D01*
X170571894Y-122891082D01*
X170738917Y-123058105D01*
X170925031Y-123188425D01*
X170968656Y-123243003D01*
X170975848Y-123312501D01*
X170944326Y-123374856D01*
X170925031Y-123391575D01*
X170738922Y-123521890D01*
X170738920Y-123521891D01*
X170571891Y-123688920D01*
X170571886Y-123688926D01*
X170436400Y-123882420D01*
X170436399Y-123882422D01*
X170336570Y-124096507D01*
X170336567Y-124096513D01*
X170279364Y-124309999D01*
X170279364Y-124310000D01*
X171176988Y-124310000D01*
X171144075Y-124367007D01*
X171110000Y-124494174D01*
X171110000Y-124625826D01*
X171144075Y-124752993D01*
X171176988Y-124810000D01*
X170279364Y-124810000D01*
X170336567Y-125023486D01*
X170336569Y-125023492D01*
X170392342Y-125143095D01*
X170402834Y-125212172D01*
X170374314Y-125275956D01*
X170315838Y-125314196D01*
X170279960Y-125319500D01*
X161282683Y-125319500D01*
X161215644Y-125299815D01*
X161172198Y-125251795D01*
X161128993Y-125167001D01*
X161022558Y-125020505D01*
X161022554Y-125020500D01*
X160894499Y-124892445D01*
X160894494Y-124892441D01*
X160747997Y-124786006D01*
X160747996Y-124786005D01*
X160747994Y-124786004D01*
X160669494Y-124746006D01*
X160586639Y-124703788D01*
X160586636Y-124703787D01*
X160414410Y-124647829D01*
X160380594Y-124642473D01*
X160317459Y-124612544D01*
X160280528Y-124553232D01*
X160281526Y-124483370D01*
X160320136Y-124425137D01*
X160380594Y-124397527D01*
X160388388Y-124396292D01*
X160414409Y-124392171D01*
X160586639Y-124336211D01*
X160747994Y-124253996D01*
X160894501Y-124147553D01*
X161022553Y-124019501D01*
X161128996Y-123872994D01*
X161211211Y-123711639D01*
X161267171Y-123539409D01*
X161287285Y-123412413D01*
X161295500Y-123360551D01*
X161295500Y-123179448D01*
X161275677Y-123054298D01*
X161267171Y-123000591D01*
X161211211Y-122828361D01*
X161211211Y-122828360D01*
X161151438Y-122711051D01*
X161128996Y-122667006D01*
X161100842Y-122628255D01*
X161022558Y-122520505D01*
X161022554Y-122520500D01*
X160894499Y-122392445D01*
X160894494Y-122392441D01*
X160747997Y-122286006D01*
X160747996Y-122286005D01*
X160747994Y-122286004D01*
X160669494Y-122246006D01*
X160586639Y-122203788D01*
X160586636Y-122203787D01*
X160414410Y-122147829D01*
X160235551Y-122119500D01*
X160235546Y-122119500D01*
X159804454Y-122119500D01*
X159804449Y-122119500D01*
X159625589Y-122147829D01*
X159453363Y-122203787D01*
X159453360Y-122203788D01*
X159292002Y-122286006D01*
X159145505Y-122392441D01*
X159145500Y-122392445D01*
X159017445Y-122520500D01*
X159017441Y-122520505D01*
X158910001Y-122668385D01*
X158854671Y-122711051D01*
X158809683Y-122719500D01*
X143472112Y-122719500D01*
X143405073Y-122699815D01*
X143361628Y-122651796D01*
X143348995Y-122627004D01*
X143242558Y-122480505D01*
X143242554Y-122480500D01*
X143114499Y-122352445D01*
X143114494Y-122352441D01*
X142967997Y-122246006D01*
X142967996Y-122246005D01*
X142967994Y-122246004D01*
X142885143Y-122203789D01*
X142806639Y-122163788D01*
X142806636Y-122163787D01*
X142634410Y-122107829D01*
X142455551Y-122079500D01*
X142455546Y-122079500D01*
X142024454Y-122079500D01*
X142024449Y-122079500D01*
X141845589Y-122107829D01*
X141673363Y-122163787D01*
X141673360Y-122163788D01*
X141512002Y-122246006D01*
X141365505Y-122352441D01*
X141365500Y-122352445D01*
X141237445Y-122480500D01*
X141237441Y-122480505D01*
X141131006Y-122627002D01*
X141048788Y-122788360D01*
X141048787Y-122788363D01*
X140992829Y-122960589D01*
X140964500Y-123139448D01*
X140964500Y-123320551D01*
X140992829Y-123499410D01*
X141048787Y-123671636D01*
X141048788Y-123671639D01*
X141131006Y-123832997D01*
X141237441Y-123979494D01*
X141237445Y-123979499D01*
X141365500Y-124107554D01*
X141365505Y-124107558D01*
X141420561Y-124147558D01*
X141512006Y-124213996D01*
X141590510Y-124253996D01*
X141673360Y-124296211D01*
X141673363Y-124296212D01*
X141759476Y-124324191D01*
X141845591Y-124352171D01*
X141870291Y-124356083D01*
X141879406Y-124357527D01*
X141942540Y-124387457D01*
X141979471Y-124446768D01*
X141978473Y-124516631D01*
X141939863Y-124574863D01*
X141879406Y-124602473D01*
X141845589Y-124607829D01*
X141673363Y-124663787D01*
X141673360Y-124663788D01*
X141512002Y-124746006D01*
X141365505Y-124852441D01*
X141365500Y-124852445D01*
X141237445Y-124980500D01*
X141237441Y-124980505D01*
X141131006Y-125127002D01*
X141048788Y-125288360D01*
X141048787Y-125288363D01*
X140992829Y-125460589D01*
X140964500Y-125639448D01*
X140964500Y-125820551D01*
X140992829Y-125999410D01*
X141048787Y-126171636D01*
X141048788Y-126171639D01*
X141131006Y-126332997D01*
X141237441Y-126479494D01*
X141237445Y-126479499D01*
X141365500Y-126607554D01*
X141365505Y-126607558D01*
X141444051Y-126664625D01*
X141486717Y-126719954D01*
X141492696Y-126789568D01*
X141460091Y-126851363D01*
X141399252Y-126885720D01*
X141383769Y-126888301D01*
X141362302Y-126890494D01*
X141195880Y-126945641D01*
X141195875Y-126945643D01*
X141046654Y-127037684D01*
X140922684Y-127161654D01*
X140830643Y-127310875D01*
X140830641Y-127310880D01*
X140775494Y-127477302D01*
X140775493Y-127477309D01*
X140765000Y-127580013D01*
X140765000Y-127980000D01*
X141835854Y-127980000D01*
X141797370Y-128046657D01*
X141765000Y-128167465D01*
X141765000Y-128292535D01*
X141797370Y-128413343D01*
X141835854Y-128480000D01*
X140765001Y-128480000D01*
X140743731Y-128501269D01*
X140682407Y-128534753D01*
X140612715Y-128529767D01*
X140568370Y-128501267D01*
X140186819Y-128119716D01*
X140153334Y-128058393D01*
X140150500Y-128032035D01*
X140150500Y-108187965D01*
X140170185Y-108120926D01*
X140186819Y-108100284D01*
X140562195Y-107724908D01*
X140958113Y-107328989D01*
X141019434Y-107295506D01*
X141089125Y-107300490D01*
X141145059Y-107342362D01*
X141146110Y-107343787D01*
X141237441Y-107469494D01*
X141237445Y-107469499D01*
X141365500Y-107597554D01*
X141365505Y-107597558D01*
X141444051Y-107654625D01*
X141486717Y-107709954D01*
X141492696Y-107779568D01*
X141460091Y-107841363D01*
X141399252Y-107875720D01*
X141383769Y-107878301D01*
X141362302Y-107880494D01*
X141195880Y-107935641D01*
X141195875Y-107935643D01*
X141046654Y-108027684D01*
X140922684Y-108151654D01*
X140830643Y-108300875D01*
X140830641Y-108300880D01*
X140775494Y-108467302D01*
X140775493Y-108467309D01*
X140765000Y-108570013D01*
X140765000Y-108970000D01*
X141835854Y-108970000D01*
X141797370Y-109036657D01*
X141765000Y-109157465D01*
X141765000Y-109282535D01*
X141797370Y-109403343D01*
X141835854Y-109470000D01*
X140765001Y-109470000D01*
X140765001Y-109869986D01*
X140775494Y-109972697D01*
X140830641Y-110139119D01*
X140830643Y-110139124D01*
X140922684Y-110288345D01*
X141046654Y-110412315D01*
X141195875Y-110504356D01*
X141195880Y-110504358D01*
X141362302Y-110559505D01*
X141362309Y-110559506D01*
X141465019Y-110569999D01*
X141989999Y-110569999D01*
X141990000Y-110569998D01*
X141990000Y-109624145D01*
X142056657Y-109662630D01*
X142177465Y-109695000D01*
X142302535Y-109695000D01*
X142423343Y-109662630D01*
X142490000Y-109624145D01*
X142490000Y-110569999D01*
X143014972Y-110569999D01*
X143014986Y-110569998D01*
X143117697Y-110559505D01*
X143284119Y-110504358D01*
X143284124Y-110504356D01*
X143433345Y-110412315D01*
X143557315Y-110288345D01*
X143649356Y-110139124D01*
X143649358Y-110139119D01*
X143704505Y-109972697D01*
X143704506Y-109972690D01*
X143714999Y-109869986D01*
X143715000Y-109869973D01*
X143715000Y-109470000D01*
X142644146Y-109470000D01*
X142682630Y-109403343D01*
X142715000Y-109282535D01*
X142715000Y-109157465D01*
X142682630Y-109036657D01*
X142644146Y-108970000D01*
X143714999Y-108970000D01*
X143714999Y-108570028D01*
X143714998Y-108570013D01*
X143704505Y-108467302D01*
X143649358Y-108300880D01*
X143649356Y-108300875D01*
X143557315Y-108151654D01*
X143433345Y-108027684D01*
X143284124Y-107935643D01*
X143284119Y-107935641D01*
X143117697Y-107880494D01*
X143117692Y-107880493D01*
X143096226Y-107878300D01*
X143031536Y-107851901D01*
X142991386Y-107794719D01*
X142988525Y-107724908D01*
X143023861Y-107664633D01*
X143035938Y-107654631D01*
X143114501Y-107597553D01*
X143242553Y-107469501D01*
X143348996Y-107322994D01*
X143431211Y-107161639D01*
X143487171Y-106989409D01*
X143501765Y-106897259D01*
X143515500Y-106810551D01*
X143515500Y-106629448D01*
X143492924Y-106486917D01*
X143487171Y-106450591D01*
X143443850Y-106317259D01*
X143431212Y-106278363D01*
X143431211Y-106278360D01*
X143371817Y-106161795D01*
X143348996Y-106117006D01*
X143335396Y-106098287D01*
X143242558Y-105970505D01*
X143242554Y-105970500D01*
X143114499Y-105842445D01*
X143114494Y-105842441D01*
X142967997Y-105736006D01*
X142967996Y-105736005D01*
X142967994Y-105736004D01*
X142898618Y-105700655D01*
X142806639Y-105653788D01*
X142806636Y-105653787D01*
X142634410Y-105597829D01*
X142600594Y-105592473D01*
X142537459Y-105562544D01*
X142500528Y-105503232D01*
X142501526Y-105433370D01*
X142540136Y-105375137D01*
X142600594Y-105347527D01*
X142608388Y-105346292D01*
X142634409Y-105342171D01*
X142806639Y-105286211D01*
X142967994Y-105203996D01*
X143114501Y-105097553D01*
X143242553Y-104969501D01*
X143271620Y-104929494D01*
X143349999Y-104821615D01*
X143405329Y-104778949D01*
X143450317Y-104770500D01*
X158830603Y-104770500D01*
X158830603Y-104771949D01*
G37*
%TD.AperFunction*%
%TA.AperFunction,Conductor*%
G36*
X171860000Y-124126988D02*
G01*
X171802993Y-124094075D01*
X171675826Y-124060000D01*
X171544174Y-124060000D01*
X171417007Y-124094075D01*
X171360000Y-124126988D01*
X171360000Y-122453012D01*
X171417007Y-122485925D01*
X171544174Y-122520000D01*
X171675826Y-122520000D01*
X171802993Y-122485925D01*
X171860000Y-122453012D01*
X171860000Y-124126988D01*
G37*
%TD.AperFunction*%
%TA.AperFunction,Conductor*%
G36*
X171860000Y-121586988D02*
G01*
X171802993Y-121554075D01*
X171675826Y-121520000D01*
X171544174Y-121520000D01*
X171417007Y-121554075D01*
X171360000Y-121586988D01*
X171360000Y-119913012D01*
X171417007Y-119945925D01*
X171544174Y-119980000D01*
X171675826Y-119980000D01*
X171802993Y-119945925D01*
X171860000Y-119913012D01*
X171860000Y-121586988D01*
G37*
%TD.AperFunction*%
%TA.AperFunction,Conductor*%
G36*
X171860000Y-119046988D02*
G01*
X171802993Y-119014075D01*
X171675826Y-118980000D01*
X171544174Y-118980000D01*
X171417007Y-119014075D01*
X171360000Y-119046988D01*
X171360000Y-117373012D01*
X171417007Y-117405925D01*
X171544174Y-117440000D01*
X171675826Y-117440000D01*
X171802993Y-117405925D01*
X171860000Y-117373012D01*
X171860000Y-119046988D01*
G37*
%TD.AperFunction*%
%TA.AperFunction,Conductor*%
G36*
X179362500Y-106374314D02*
G01*
X179358106Y-106369920D01*
X179266894Y-106317259D01*
X179165161Y-106290000D01*
X179059839Y-106290000D01*
X178958106Y-106317259D01*
X178866894Y-106369920D01*
X178862500Y-106374314D01*
X178862500Y-104465686D01*
X178866894Y-104470080D01*
X178958106Y-104522741D01*
X179059839Y-104550000D01*
X179165161Y-104550000D01*
X179266894Y-104522741D01*
X179358106Y-104470080D01*
X179362500Y-104465686D01*
X179362500Y-106374314D01*
G37*
%TD.AperFunction*%
%TA.AperFunction,Conductor*%
G36*
X179362500Y-103834314D02*
G01*
X179358106Y-103829920D01*
X179266894Y-103777259D01*
X179165161Y-103750000D01*
X179059839Y-103750000D01*
X178958106Y-103777259D01*
X178866894Y-103829920D01*
X178862500Y-103834314D01*
X178862500Y-101925686D01*
X178866894Y-101930080D01*
X178958106Y-101982741D01*
X179059839Y-102010000D01*
X179165161Y-102010000D01*
X179266894Y-101982741D01*
X179358106Y-101930080D01*
X179362500Y-101925686D01*
X179362500Y-103834314D01*
G37*
%TD.AperFunction*%
%TA.AperFunction,Conductor*%
G36*
X179362500Y-101294314D02*
G01*
X179358106Y-101289920D01*
X179266894Y-101237259D01*
X179165161Y-101210000D01*
X179059839Y-101210000D01*
X178958106Y-101237259D01*
X178866894Y-101289920D01*
X178862500Y-101294314D01*
X178862500Y-99385686D01*
X178866894Y-99390080D01*
X178958106Y-99442741D01*
X179059839Y-99470000D01*
X179165161Y-99470000D01*
X179266894Y-99442741D01*
X179358106Y-99390080D01*
X179362500Y-99385686D01*
X179362500Y-101294314D01*
G37*
%TD.AperFunction*%
%TA.AperFunction,Conductor*%
G36*
X140970000Y-92727638D02*
G01*
X140966000Y-92741260D01*
X140966000Y-93546988D01*
X140908993Y-93514075D01*
X140781826Y-93480000D01*
X140650174Y-93480000D01*
X140523007Y-93514075D01*
X140466000Y-93546988D01*
X140466000Y-92642362D01*
X140470000Y-92628739D01*
X140470000Y-91873012D01*
X140527007Y-91905925D01*
X140654174Y-91940000D01*
X140785826Y-91940000D01*
X140912993Y-91905925D01*
X140970000Y-91873012D01*
X140970000Y-92727638D01*
G37*
%TD.AperFunction*%
%TD*%
M02*
