%TF.GenerationSoftware,KiCad,Pcbnew,8.0.7*%
%TF.CreationDate,2024-12-10T12:06:42+09:00*%
%TF.ProjectId,STEP200-XA-motor-connector,53544550-3230-4302-9d58-412d6d6f746f,rev?*%
%TF.SameCoordinates,Original*%
%TF.FileFunction,Copper,L1,Top*%
%TF.FilePolarity,Positive*%
%FSLAX46Y46*%
G04 Gerber Fmt 4.6, Leading zero omitted, Abs format (unit mm)*
G04 Created by KiCad (PCBNEW 8.0.7) date 2024-12-10 12:06:42*
%MOMM*%
%LPD*%
G01*
G04 APERTURE LIST*
G04 Aperture macros list*
%AMRoundRect*
0 Rectangle with rounded corners*
0 $1 Rounding radius*
0 $2 $3 $4 $5 $6 $7 $8 $9 X,Y pos of 4 corners*
0 Add a 4 corners polygon primitive as box body*
4,1,4,$2,$3,$4,$5,$6,$7,$8,$9,$2,$3,0*
0 Add four circle primitives for the rounded corners*
1,1,$1+$1,$2,$3*
1,1,$1+$1,$4,$5*
1,1,$1+$1,$6,$7*
1,1,$1+$1,$8,$9*
0 Add four rect primitives between the rounded corners*
20,1,$1+$1,$2,$3,$4,$5,0*
20,1,$1+$1,$4,$5,$6,$7,0*
20,1,$1+$1,$6,$7,$8,$9,0*
20,1,$1+$1,$8,$9,$2,$3,0*%
G04 Aperture macros list end*
%TA.AperFunction,ComponentPad*%
%ADD10C,2.700000*%
%TD*%
%TA.AperFunction,ComponentPad*%
%ADD11RoundRect,0.250001X-1.099999X-1.099999X1.099999X-1.099999X1.099999X1.099999X-1.099999X1.099999X0*%
%TD*%
%TA.AperFunction,ComponentPad*%
%ADD12O,1.700000X1.950000*%
%TD*%
%TA.AperFunction,ComponentPad*%
%ADD13RoundRect,0.250000X-0.600000X-0.725000X0.600000X-0.725000X0.600000X0.725000X-0.600000X0.725000X0*%
%TD*%
%TA.AperFunction,ComponentPad*%
%ADD14RoundRect,0.250000X0.650000X1.550000X-0.650000X1.550000X-0.650000X-1.550000X0.650000X-1.550000X0*%
%TD*%
%TA.AperFunction,ComponentPad*%
%ADD15O,1.800000X3.600000*%
%TD*%
%TA.AperFunction,Conductor*%
%ADD16C,1.000000*%
%TD*%
%TA.AperFunction,Conductor*%
%ADD17C,2.000000*%
%TD*%
G04 APERTURE END LIST*
D10*
%TO.P,J1,4,Pin_4*%
%TO.N,Net-(J1-Pin_4)*%
X106920000Y-76000000D03*
%TO.P,J1,3,Pin_3*%
%TO.N,Net-(J1-Pin_3)*%
X102960000Y-76000000D03*
%TO.P,J1,2,Pin_2*%
%TO.N,Net-(J1-Pin_2)*%
X99000000Y-76000000D03*
D11*
%TO.P,J1,1,Pin_1*%
%TO.N,Net-(J1-Pin_1)*%
X95040000Y-76000000D03*
%TD*%
D10*
%TO.P,J3,4,Pin_4*%
%TO.N,Net-(J3-Pin_4)*%
X144880000Y-76000000D03*
%TO.P,J3,3,Pin_3*%
%TO.N,Net-(J3-Pin_3)*%
X140920000Y-76000000D03*
%TO.P,J3,2,Pin_2*%
%TO.N,Net-(J3-Pin_2)*%
X136960000Y-76000000D03*
D11*
%TO.P,J3,1,Pin_1*%
%TO.N,Net-(J3-Pin_1)*%
X133000000Y-76000000D03*
%TD*%
%TO.P,J5,1,Pin_1*%
%TO.N,GND*%
X118000000Y-76000000D03*
D10*
%TO.P,J5,2,Pin_2*%
%TO.N,Net-(J5-Pin_2)*%
X121960000Y-76000000D03*
%TD*%
D12*
%TO.P,J4,4,Pin_4*%
%TO.N,Net-(J3-Pin_4)*%
X142750000Y-64000000D03*
%TO.P,J4,3,Pin_3*%
%TO.N,Net-(J3-Pin_3)*%
X140250000Y-64000000D03*
%TO.P,J4,2,Pin_2*%
%TO.N,Net-(J3-Pin_2)*%
X137750000Y-64000000D03*
D13*
%TO.P,J4,1,Pin_1*%
%TO.N,Net-(J3-Pin_1)*%
X135250000Y-64000000D03*
%TD*%
D12*
%TO.P,J2,4,Pin_4*%
%TO.N,Net-(J1-Pin_4)*%
X104750000Y-64000000D03*
%TO.P,J2,3,Pin_3*%
%TO.N,Net-(J1-Pin_3)*%
X102250000Y-64000000D03*
%TO.P,J2,2,Pin_2*%
%TO.N,Net-(J1-Pin_2)*%
X99750000Y-64000000D03*
D13*
%TO.P,J2,1,Pin_1*%
%TO.N,Net-(J1-Pin_1)*%
X97250000Y-64000000D03*
%TD*%
D14*
%TO.P,J6,1,Pin_1*%
%TO.N,GND*%
X121887500Y-64642500D03*
D15*
%TO.P,J6,2,Pin_2*%
%TO.N,Net-(J5-Pin_2)*%
X118077500Y-64642500D03*
%TD*%
D16*
%TO.N,Net-(J1-Pin_2)*%
X99750000Y-66250000D02*
X99750000Y-64000000D01*
X99000000Y-67000000D02*
X99750000Y-66250000D01*
X99000000Y-76000000D02*
X99000000Y-67000000D01*
%TO.N,Net-(J1-Pin_1)*%
X95040000Y-66040000D02*
X95040000Y-76000000D01*
X97000000Y-64000000D02*
X95000000Y-66000000D01*
X95000000Y-66000000D02*
X95040000Y-66040000D01*
X97250000Y-64000000D02*
X97000000Y-64000000D01*
%TO.N,Net-(J1-Pin_3)*%
X102250000Y-66453730D02*
X102250000Y-64000000D01*
X102960000Y-76000000D02*
X102960000Y-67163730D01*
X102960000Y-67163730D02*
X102250000Y-66453730D01*
%TO.N,Net-(J1-Pin_4)*%
X106920000Y-76000000D02*
X106920000Y-66170000D01*
X106920000Y-66170000D02*
X104750000Y-64000000D01*
%TO.N,Net-(J3-Pin_4)*%
X144880000Y-76000000D02*
X144880000Y-66130000D01*
X144880000Y-66130000D02*
X142750000Y-64000000D01*
%TO.N,Net-(J3-Pin_2)*%
X137000000Y-67000000D02*
X137750000Y-66250000D01*
X136960000Y-76000000D02*
X136960000Y-68040000D01*
X136960000Y-68040000D02*
X137000000Y-68000000D01*
X137000000Y-68000000D02*
X137000000Y-67000000D01*
X137750000Y-66250000D02*
X137750000Y-64000000D01*
%TO.N,Net-(J3-Pin_1)*%
X133000000Y-76000000D02*
X133000000Y-66250000D01*
X133000000Y-66250000D02*
X135250000Y-64000000D01*
%TO.N,Net-(J3-Pin_3)*%
X141000000Y-69000000D02*
X141000000Y-68000000D01*
X140920000Y-76000000D02*
X140920000Y-69080000D01*
X141000000Y-68000000D02*
X140250000Y-67250000D01*
X140920000Y-69080000D02*
X141000000Y-69000000D01*
X140250000Y-67250000D02*
X140250000Y-64000000D01*
D17*
%TO.N,Net-(J5-Pin_2)*%
X121960000Y-72960000D02*
X121960000Y-76000000D01*
X118077500Y-64642500D02*
X118077500Y-69077500D01*
X118077500Y-69077500D02*
X121960000Y-72960000D01*
%TD*%
M02*
