M48
; DRILL file {KiCad 8.0.7} date 2024-12-10T12:06:46+0900
; FORMAT={-:-/ absolute / metric / decimal}
; #@! TF.CreationDate,2024-12-10T12:06:46+09:00
; #@! TF.GenerationSoftware,Kicad,Pcbnew,8.0.7
; #@! TF.FileFunction,Plated,1,2,PTH
FMAT,2
METRIC
; #@! TA.AperFunction,Plated,PTH,ComponentDrill
T1C0.950
; #@! TA.AperFunction,Plated,PTH,ComponentDrill
T2C1.200
; #@! TA.AperFunction,Plated,PTH,ComponentDrill
T3C1.700
%
G90
G05
T1
X97.25Y-64.0
X99.75Y-64.0
X102.25Y-64.0
X104.75Y-64.0
X135.25Y-64.0
X137.75Y-64.0
X140.25Y-64.0
X142.75Y-64.0
T2
X118.078Y-64.642
X121.887Y-64.642
T3
X95.04Y-76.0
X99.0Y-76.0
X102.96Y-76.0
X106.92Y-76.0
X118.0Y-76.0
X121.96Y-76.0
X133.0Y-76.0
X136.96Y-76.0
X140.92Y-76.0
X144.88Y-76.0
M30
