M48
; DRILL file {KiCad 8.0.1} date 2024-04-18T14:43:18+0900
; FORMAT={3:3/ absolute / metric / suppress leading zeros}
; #@! TF.CreationDate,2024-04-18T14:43:18+09:00
; #@! TF.GenerationSoftware,Kicad,Pcbnew,8.0.1
; #@! TF.FileFunction,MixedPlating,1,2
FMAT,2
METRIC,TZ
; #@! TA.AperFunction,Plated,PTH,ComponentDrill
T1C0.950
; #@! TA.AperFunction,Plated,PTH,ComponentDrill
T2C1.200
; #@! TA.AperFunction,Plated,PTH,ComponentDrill
T3C1.700
%
G90
G05
T1
X96250Y-64000
X98750Y-64000
X101250Y-64000
X103750Y-64000
X136250Y-64000
X138750Y-64000
X141250Y-64000
X143750Y-64000
T2
X118078Y-64643
X121888Y-64643
T3
X94040Y-76000
X98000Y-76000
X101960Y-76000
X105920Y-76000
X118000Y-76000
X121960Y-76000
X134000Y-76000
X137960Y-76000
X141920Y-76000
X145880Y-76000
M30
