%TF.GenerationSoftware,KiCad,Pcbnew,8.0.1*%
%TF.CreationDate,2024-04-18T14:43:13+09:00*%
%TF.ProjectId,STEP200-XA-motor-connector,53544550-3230-4302-9d58-412d6d6f746f,rev?*%
%TF.SameCoordinates,Original*%
%TF.FileFunction,Legend,Bot*%
%TF.FilePolarity,Positive*%
%FSLAX46Y46*%
G04 Gerber Fmt 4.6, Leading zero omitted, Abs format (unit mm)*
G04 Created by KiCad (PCBNEW 8.0.1) date 2024-04-18 14:43:13*
%MOMM*%
%LPD*%
G01*
G04 APERTURE LIST*
%ADD10C,0.500000*%
%ADD11C,0.150000*%
%ADD12C,0.120000*%
G04 APERTURE END LIST*
D10*
X118761904Y-69967333D02*
X117238095Y-69967333D01*
X117999999Y-70729238D02*
X117999999Y-69205428D01*
X122761904Y-69967333D02*
X121238095Y-69967333D01*
D11*
X113454819Y-63666666D02*
X114169104Y-63666666D01*
X114169104Y-63666666D02*
X114311961Y-63619047D01*
X114311961Y-63619047D02*
X114407200Y-63523809D01*
X114407200Y-63523809D02*
X114454819Y-63380952D01*
X114454819Y-63380952D02*
X114454819Y-63285714D01*
X113454819Y-64571428D02*
X113454819Y-64380952D01*
X113454819Y-64380952D02*
X113502438Y-64285714D01*
X113502438Y-64285714D02*
X113550057Y-64238095D01*
X113550057Y-64238095D02*
X113692914Y-64142857D01*
X113692914Y-64142857D02*
X113883390Y-64095238D01*
X113883390Y-64095238D02*
X114264342Y-64095238D01*
X114264342Y-64095238D02*
X114359580Y-64142857D01*
X114359580Y-64142857D02*
X114407200Y-64190476D01*
X114407200Y-64190476D02*
X114454819Y-64285714D01*
X114454819Y-64285714D02*
X114454819Y-64476190D01*
X114454819Y-64476190D02*
X114407200Y-64571428D01*
X114407200Y-64571428D02*
X114359580Y-64619047D01*
X114359580Y-64619047D02*
X114264342Y-64666666D01*
X114264342Y-64666666D02*
X114026247Y-64666666D01*
X114026247Y-64666666D02*
X113931009Y-64619047D01*
X113931009Y-64619047D02*
X113883390Y-64571428D01*
X113883390Y-64571428D02*
X113835771Y-64476190D01*
X113835771Y-64476190D02*
X113835771Y-64285714D01*
X113835771Y-64285714D02*
X113883390Y-64190476D01*
X113883390Y-64190476D02*
X113931009Y-64142857D01*
X113931009Y-64142857D02*
X114026247Y-64095238D01*
X140333333Y-67854819D02*
X140333333Y-68569104D01*
X140333333Y-68569104D02*
X140380952Y-68711961D01*
X140380952Y-68711961D02*
X140476190Y-68807200D01*
X140476190Y-68807200D02*
X140619047Y-68854819D01*
X140619047Y-68854819D02*
X140714285Y-68854819D01*
X139428571Y-68188152D02*
X139428571Y-68854819D01*
X139666666Y-67807200D02*
X139904761Y-68521485D01*
X139904761Y-68521485D02*
X139285714Y-68521485D01*
X100333333Y-67854819D02*
X100333333Y-68569104D01*
X100333333Y-68569104D02*
X100380952Y-68711961D01*
X100380952Y-68711961D02*
X100476190Y-68807200D01*
X100476190Y-68807200D02*
X100619047Y-68854819D01*
X100619047Y-68854819D02*
X100714285Y-68854819D01*
X99904761Y-67950057D02*
X99857142Y-67902438D01*
X99857142Y-67902438D02*
X99761904Y-67854819D01*
X99761904Y-67854819D02*
X99523809Y-67854819D01*
X99523809Y-67854819D02*
X99428571Y-67902438D01*
X99428571Y-67902438D02*
X99380952Y-67950057D01*
X99380952Y-67950057D02*
X99333333Y-68045295D01*
X99333333Y-68045295D02*
X99333333Y-68140533D01*
X99333333Y-68140533D02*
X99380952Y-68283390D01*
X99380952Y-68283390D02*
X99952380Y-68854819D01*
X99952380Y-68854819D02*
X99333333Y-68854819D01*
D12*
%TO.C,J6*%
X122987500Y-59892500D02*
X124987500Y-59892500D01*
X124987500Y-59892500D02*
X124987500Y-61142500D01*
X124597500Y-67752500D02*
X124597500Y-60282500D01*
X115367500Y-67752500D02*
X124597500Y-67752500D01*
X120387500Y-61242500D02*
X123387500Y-61242500D01*
X122637500Y-62592500D02*
X123387500Y-62592500D01*
X123387500Y-62592500D02*
X123387500Y-66892500D01*
X123387500Y-61242500D02*
X123137500Y-62242500D01*
X123137500Y-62242500D02*
X122637500Y-62242500D01*
X122637500Y-62242500D02*
X122637500Y-62592500D01*
X123387500Y-66892500D02*
X122637500Y-66892500D01*
X121137500Y-62592500D02*
X121137500Y-62242500D01*
X120387500Y-62592500D02*
X121137500Y-62592500D01*
X121137500Y-62242500D02*
X120637500Y-62242500D01*
X120637500Y-62242500D02*
X120387500Y-61242500D01*
X120387500Y-66892500D02*
X120387500Y-62592500D01*
X121137500Y-66892500D02*
X120387500Y-66892500D01*
X116577500Y-61242500D02*
X119577500Y-61242500D01*
X118827500Y-62592500D02*
X119577500Y-62592500D01*
X119577500Y-62592500D02*
X119577500Y-66892500D01*
X119577500Y-61242500D02*
X119327500Y-62242500D01*
X119327500Y-62242500D02*
X118827500Y-62242500D01*
X118827500Y-62242500D02*
X118827500Y-62592500D01*
X119577500Y-66892500D02*
X118827500Y-66892500D01*
X117327500Y-62592500D02*
X117327500Y-62242500D01*
X116577500Y-62592500D02*
X117327500Y-62592500D01*
X117327500Y-62242500D02*
X116827500Y-62242500D01*
X116827500Y-62242500D02*
X116577500Y-61242500D01*
X116577500Y-66892500D02*
X116577500Y-62592500D01*
X117327500Y-66892500D02*
X116577500Y-66892500D01*
X124597500Y-60282500D02*
X115367500Y-60282500D01*
X115367500Y-60282500D02*
X115367500Y-67752500D01*
X121137853Y-66892345D02*
G75*
G02*
X122637500Y-66892500I749647J-1700155D01*
G01*
X117327853Y-66892345D02*
G75*
G02*
X118827500Y-66892500I749647J-1700155D01*
G01*
%TO.C,J4*%
X133340000Y-66360000D02*
X133340000Y-67610000D01*
X133640000Y-60690000D02*
X133640000Y-67310000D01*
X134650000Y-64000000D02*
X133640000Y-64000000D01*
X146360000Y-60690000D02*
X133640000Y-60690000D01*
X133340000Y-67610000D02*
X134590000Y-67610000D01*
X134650000Y-61400000D02*
X134650000Y-65700000D01*
X145350000Y-61400000D02*
X134650000Y-61400000D01*
X133640000Y-67310000D02*
X137300000Y-67310000D01*
X137300000Y-67310000D02*
X137300000Y-66310000D01*
X139200000Y-66310000D02*
X139200000Y-66910000D01*
X137300000Y-66310000D02*
X139200000Y-66310000D01*
X139200000Y-66910000D02*
X140800000Y-66910000D01*
X140800000Y-66910000D02*
X140800000Y-66310000D01*
X142700000Y-66310000D02*
X142700000Y-67310000D01*
X140800000Y-66310000D02*
X142700000Y-66310000D01*
X134650000Y-65700000D02*
X145350000Y-65700000D01*
X145350000Y-65700000D02*
X145350000Y-61400000D01*
X142700000Y-67310000D02*
X146360000Y-67310000D01*
X145350000Y-64000000D02*
X146360000Y-64000000D01*
X146360000Y-67310000D02*
X146360000Y-60690000D01*
%TO.C,J2*%
X93340000Y-66360000D02*
X93340000Y-67610000D01*
X93640000Y-60690000D02*
X93640000Y-67310000D01*
X94650000Y-64000000D02*
X93640000Y-64000000D01*
X106360000Y-60690000D02*
X93640000Y-60690000D01*
X93340000Y-67610000D02*
X94590000Y-67610000D01*
X94650000Y-61400000D02*
X94650000Y-65700000D01*
X105350000Y-61400000D02*
X94650000Y-61400000D01*
X93640000Y-67310000D02*
X97300000Y-67310000D01*
X97300000Y-67310000D02*
X97300000Y-66310000D01*
X99200000Y-66310000D02*
X99200000Y-66910000D01*
X97300000Y-66310000D02*
X99200000Y-66310000D01*
X99200000Y-66910000D02*
X100800000Y-66910000D01*
X100800000Y-66910000D02*
X100800000Y-66310000D01*
X102700000Y-66310000D02*
X102700000Y-67310000D01*
X100800000Y-66310000D02*
X102700000Y-66310000D01*
X94650000Y-65700000D02*
X105350000Y-65700000D01*
X105350000Y-65700000D02*
X105350000Y-61400000D01*
X102700000Y-67310000D02*
X106360000Y-67310000D01*
X105350000Y-64000000D02*
X106360000Y-64000000D01*
X106360000Y-67310000D02*
X106360000Y-60690000D01*
%TD*%
M02*
