M48
; DRILL file {KiCad 8.0.7} date 2024-12-10T11:40:58+0900
; FORMAT={-:-/ absolute / metric / decimal}
; #@! TF.CreationDate,2024-12-10T11:40:58+09:00
; #@! TF.GenerationSoftware,Kicad,Pcbnew,8.0.7
; #@! TF.FileFunction,Plated,1,2,PTH
FMAT,2
METRIC
; #@! TA.AperFunction,Plated,PTH,ViaDrill
T1C0.300
; #@! TA.AperFunction,Plated,PTH,ViaDrill
T2C0.400
; #@! TA.AperFunction,Plated,PTH,ComponentDrill
T3C0.800
; #@! TA.AperFunction,Plated,PTH,ComponentDrill
T4C0.950
; #@! TA.AperFunction,Plated,PTH,ComponentDrill
T5C1.000
%
G90
G05
T1
X158.0Y-93.0
X167.0Y-134.0
T2
X143.75Y-124.5
T3
X171.492Y-99.07
X171.492Y-101.61
X171.492Y-104.15
X171.492Y-106.69
X179.112Y-99.07
X179.112Y-101.61
X179.112Y-104.15
X179.112Y-106.69
T4
X142.24Y-104.22
X142.24Y-106.72
X142.24Y-109.22
X142.24Y-123.23
X142.24Y-125.73
X142.24Y-128.23
X160.02Y-104.18
X160.02Y-106.68
X160.02Y-109.18
X160.02Y-123.27
X160.02Y-125.77
X160.02Y-128.27
T5
X133.096Y-93.98
X133.1Y-91.44
X135.636Y-93.98
X135.64Y-91.44
X138.176Y-93.98
X138.18Y-91.44
X140.716Y-93.98
X140.72Y-91.44
X142.24Y-137.16
X142.24Y-139.7
X143.256Y-93.98
X143.26Y-91.44
X144.78Y-137.16
X144.78Y-139.7
X145.796Y-93.98
X145.8Y-91.44
X147.32Y-137.16
X147.32Y-139.7
X148.336Y-93.98
X148.34Y-91.44
X149.86Y-137.16
X149.86Y-139.7
X150.876Y-93.98
X150.88Y-91.44
X152.4Y-137.16
X152.4Y-139.7
X153.416Y-93.98
X153.42Y-91.44
X154.94Y-137.16
X154.94Y-139.7
X155.956Y-93.98
X155.96Y-91.44
X157.48Y-137.16
X157.48Y-139.7
X160.02Y-91.44
X160.02Y-93.98
X160.02Y-137.16
X160.02Y-139.7
X162.56Y-91.44
X162.56Y-93.98
X165.1Y-91.44
X165.1Y-93.98
X165.1Y-137.16
X165.1Y-139.7
X167.64Y-91.44
X167.64Y-93.98
X167.64Y-137.16
X167.64Y-139.7
X170.18Y-91.44
X170.18Y-93.98
X170.18Y-137.16
X170.18Y-139.7
X171.61Y-116.94
X171.61Y-119.48
X171.61Y-122.02
X171.61Y-124.56
X172.72Y-91.44
X172.72Y-93.98
X172.72Y-137.16
X172.72Y-139.7
X174.15Y-116.94
X174.15Y-119.48
X174.15Y-122.02
X174.15Y-124.56
X175.26Y-91.44
X175.26Y-93.98
X175.26Y-137.16
X175.26Y-139.7
X177.8Y-91.44
X177.8Y-93.98
X177.8Y-137.16
X177.8Y-139.7
M30
